<mxfile host="app.diagrams.net" modified="2023-11-13T10:41:01.464Z" agent="Mozilla/5.0 (Windows NT 10.0; Win64; x64) AppleWebKit/537.36 (KHTML, like Gecko) Chrome/119.0.0.0 Safari/537.36" etag="5rFP1t2rVkHf0drex0An" version="22.1.0" type="google">
  <diagram id="prtHgNgQTEPvFCAcTncT" name="Page-1">
    <mxGraphModel dx="3218" dy="2737" grid="1" gridSize="10" guides="1" tooltips="1" connect="1" arrows="1" fold="1" page="1" pageScale="1" pageWidth="1169" pageHeight="827" math="0" shadow="0">
      <root>
        <mxCell id="0" />
        <mxCell id="1" parent="0" />
        <mxCell id="qyQXpjcRBZkCZKDbvBPm-1" value="" style="shape=image;verticalLabelPosition=bottom;labelBackgroundColor=default;verticalAlign=top;aspect=fixed;imageAspect=0;image=data:image/png,iVBORw0KGgoAAAANSUhEUgAABOwAAALFCAYAAABwNnxBAAAACXBIWXMAAB7CAAAewgFu0HU+AACAAElEQVR4nOz9BVhcW7quDZ//+77zyTm9z+6zd/fu3bK7Vy9fK+7u7u5ZcXd3d3f3ECNAFAIxgru7EzRKnOBZzz/fkcDCQwUpKJ77up4rUDXnmGPOmpCqm3eM8d/MnR+DYRiGYRiGYRiGYRiGYZjKkf+m7w4wDMMwDMMwDMMwDMMwDPNbKOwYhmEYhmEYhmEYhmEYphKFwo5hGIZhGIZhGIZhGIZhKlEo7BiGYRiGYRiGYRiGYRimEoXCjmEYhmEYhmEYhmEYhmEqUSjsGIZhGIZhGIZhGIZhGKYShcKOYRiGYRiGYRiGYRiGYSpRKOwYhmEYhmEYhmEYhmEYphKFwo5hGIZhGIZhGIZhGIZhKlEo7BiGYRiGYRiGYRiGYRimEoXCjmEYhmEYhmEYhmEYhmEqUSjsGIZhGIZhGIZhGIZhGKYShcKOYRiGYRiGYRiGYRiGYSpRKOwYhmEYhmEYhmEYhmEYphKFwo5hGIZhGIZhGIZhGIZhKlEo7BiGYRiGYRiGYRiGYRimEoXCjmEYhmEYhmEYhmEYhmEqUSjsGIZhGIZhGIZhGIZhGKYShcKOYRiGYRiGYRiGYRiGYSpRKOwYhmEYhmEYhmEYhmEYphKFwo5hGIZhGIZhGIZhGIZhKlEo7BiGYRiGYRiGYRiGYRimEoXCjmEYhmEYhmEYhmEYhmEqUfQi7CxcHuMWwzAMwzAMwzAMwzAMkxN9SyKm8qRChd1Np0ew0P4NjH6DpDdpDMMwDMMwDMMwDMMwjJanr9LgFfYK5s6PlD/RtzBi9JsKE3Zys6kbzikR0Y+SQQghhBBCCCGEEEJ+Iy09C65BSTD/5FAo7qpvKkTYqZvMMRE3HBK0fxMQlfhO3z8DhBBCCCGEEEIIIZWO1PQseIW9VB6Fwq76ptyFXW5Zd80+DtfsYhEZ/0bf9z8hhBBCCCGEEEJIpUQq7VwCn+OmUyIr7appKkTY3XBMVLLuis1DmFlHIjz2pb7vfUIIIYQQQgghhJBKS0paFjxDX+CGYwKFXTVMxQg7hwRctYuFyf1IGN8JQWj0c33f94QQQgghhBBCCCGVmrSMj5V25qy0q3apEGF33SEeV2xjYHw3HOdv+SMo8om+73lCCCGEEEIIIYSQSk9KWiY8QpNYaVfNUjHCzj4eZjYPcdEqGGdveCMg/JG+73dCCCGEEEIIIYSQKoFU2rkGsdKuOqX8hZ1johJ2ptbROG8ZiFPXPOAfmqDve50QQgghhBBCCCGkyqAq7UJYaVddUiHCThacMLWOwrlbATh5xQ1+ofH6vs8JIYQQQgghhBBCqhSyeqxbcBIr7apB9CDsXOEXEqfve5wQQgghhBBCCCGkyiGVdu7BrLQz9FSgsIvEOYsAnDBzgS+FHSGEEEIIIYQQQsgXIZV27qy0M+hQ2BFCCCGEEEIIIYRUMaTSzo2VdgYbCjtCCCGEEEIIIYSQKoiqtAthpZ0hhsKOEEIIIYQQQgghpIoilXauQc9ZaWdgobAjhBBCCCGEEEIIqcJIpZ0HK+0MKhR2hBBCCCGEEEIIIVUcqbRzCWSlnaGEwo4QQgghhBBCCCHEAEjLyIJn6AvcZKVdlQ+FHSGEEEIIIYQQQoiBkJKWBedclXbVQdpZuDyGtfczWLk90XtfyioUdoQQQgghhBBCCCEGhMxppyrtHA230u62+xPY+T6Hf9RrPH6ZijfJGYhMSIaVq2FIOwo7QgghhBBCCCGEEAMj9VOlnSFJO0vXJ7D1fQ7viNeIfpSMl28z8D41ExmZH/D0ZZr2dRYc/JP03k8KO0IIIYQQQgghhBBSKKkGUGknlXSO/kmqku7Jy1S8fZ+J18kZeJSUCr/I1wiOeYvk1Ey4BL1Q0i7heQpuG8DQWAo7QgghhBBCCCGEEANFpF1VqrSz0GLp9rGSLujhW8Q8eY9XyRl4+S4dL9+mIz3jA3wiXuGux1PccnkMt+AXSE7J/Fh5F/4K77SvPUNf6v08KOwIIYQQQgghhBBCSJH8VmmXUGmFnQg4x4Ak+MmcdC9SlaTLzPpVVc35RLxW89XJc3IuUk2XvV+2sLPxea6GzErl3fPXaao9fZ8ThR0hhBBCCCGEEEIIKZK0Cqi0k+o4WalVIvLM0vUxbklcPj5nkXtbl9+GuwbFvFFDWV+/y8ArLbFP3iMi4d1H0Rj2Sm0r+3iFv0Jqxge4Bv9WQZdb2Mn3rtr3MpedSL7s/apiKOwIIYQQQgghhBBCqgEpaR8r7W6UU6WdyLekN+lq1dbE5ylKvMniEBEJyWoOOplzToarugW/VMNdn7xMU/PRybx0WR9+RXj8O9j5PVfC74H3M7WgRG45VxJhJ6Lw44IU6bD1faZ38UZhRwghhBBCCCGEEEKKJS3jU6WdU9lX2omUkwUgZN65qMRkxD1NUd/LvHIyTFXyJjlDVc6JqHv4OFlJPJmT7n1apqqOy27rS4WdxN7vOd68z0RY3LsqW2VHYUcIIYQQQgghhBBSjUhJy4RHSFKZV9qJIHv2Kg3WXs/UwhH3PJ+qOejinr5XQk0knGvQC1VRFxL7Nmc1V1vtueyVXstC2ElEGMr+1t5Vs8qOwq4MSU3LgLtvOG7cdcOF63YwsXCEpY0XwqIT8eHDB313jxBCCCGEEEIIIUQhc9q5BD6HeRlW2sU+fa8WfZC56+T77EUgZIhqdqWbSLxX79JVZV32fmUt7OQYMiRXKvlsfCjsqqWwi3v0HDuPXcegqdvwbasp+HvTCYWmVqdZGD13D/adtkBU7GN9d5sQQgghhBBCCCHVHKm0cy+jSjuZd05Wd334+H2OnNOHsJO2Ep6lqCGxsqosh8RWM2H3NjkFS7eewz9bTCpS0hWXjftN9X0KhBBCCCGEEEIIqeZIFZprUOkr7UTEyRx1wTFvc1aDrUhhZ+v7XC168eRFKl5q7buHvMyp9KuKobD7Ah7GPUWzvou+SNRlR4bNEkIIIYQQQgghhOgbVWkXXLpKO6lwe/UuA97hr3Ieq0hhFxD9Rq1Q+/xVuponr6pW1lHYfSFPnr1C876LixRxjXotwLgF+7Fo0xnMXn0cw2bswE/tp+fZpmHP+cjIzNT3qRBCCCGEEEIIIYQopNLOLTjpiyvtHAOSlHRz0v6taGEnK98mp2apIbmyQqyFDv2urKGw04HXb5LRcfiqQkVdt1Frce22a6EiLivrA9x8wrBksxF+aDtNzWNHCCGEEEIIIYQQUpmQSju3L6y0c1Xi7APuez6tWGEX8hKZWR/UcfKvFFuVQ2GnA4s3nS1U1hnfdMCvv/5aojZev32v5r8jhBBCCCGEEEIIqWxIpZ37F1Ta+US8RkbmB7X4REULOxGNjrkq+wwhFHYlJCw6sVBZd+6KTanaFdH38vW7Msn7lLQ8bUu1X+7nU1PTCxw/Ou4Jbt5zx0nje7h43R72bkHIzMwqts8iHPMfOz2j5EN8Zdv8+79LTs15/sOHDwWeT0lNK6bFj7x5977AftkVjyJKy+IayzHS0jOK7X9JePU6uUAbuaVv/mucXwjLa+SgvVYii+W1u37HVc2tWBrkuksbt229ceGaHY5euAMj7f6+9cBT9YEQQgghhBBCSPVABJgsRKFLpZ2syCrCzt6v4ofE5l4l1lBCYVdClm87X0DWDZ+5s8SVdUUhQqk0i1fkzuqdF/O07eAeXOTzUbGPMWv18ULbadl/iRI1hQk+4cCZWwX22XvKvMTnvOekeYH9T16+n/O8yKz8z+86fqPYNl28QvF1i8l59uk/aTNS0zLU851GrC6TayxtJjxOwj+aTczzeOuBy0p8L8QmPivQbo/R6/NsM2be3jzPxz16rh6X4dVXrVzU8Qrr3+Qlh+AbFF3i10LuP4v7Hpi+4ihqdZpV5HnL+fadsAlHzt9WwpIQQgghhBBCiGEjlXYeISWvtLP2eoZnr9PUPHL3vZ5S2FHYlT8iYmp3nl1AYkiFU2mpSGHXc+wGdS6bD5gVEE6FRRbHCH/4qECfnya9xj9bTMqzbdvBy0skrGSb9kNW5NlXRNuLV29zttFV2MXEP0WtznllU8sBS/O0WZbCTsgv1CQ+gSUTZYeMLAvse9rEOs82+duXCjqRdvmvXVFZuPGMqpgrDqkKbNpH99WOu4xcw4o7QgghhBBCCKkGSKWdS2DJK+28I15r+2TBOfAFhR2FXfkjQii/tPix3XSdhoEWRUUKOxFjIr50abNhj/l49uJNgX5PWXq4wLZ+wQ8/e74hEfEF9pu0+GCebXQRdjLUtV0+iSWVYpExj/NsV9bC7p69b4HnVuW7/kXR9Ze1efb7puXkAgIsv7CbsfIYOgwrfMGTorJ+7+XP9mXs/H1fdB1kP0IIIYQQQgghhk+aVNqFJuFmCSrt7HyfIz3jA2KevEdQzBuExL7F2/cZePEmHcExb9Vj4fHvlNQTkResfS+PRSUmq/1itf2yt4tIeJfzWNCn7RKepagFJmKfvs/ZV75+n5pFYVcdhd2Nu24FhMXEfJLpS5EhjjuOXis0Ww9fLXBcqZIrantrJ/88becXdrnzVfOJmLDoAEwtnHDPwVfNXydtF7btnDUnCvRb5rorIAx3Xfrs+RZ2TiK/clNSYSfzuI2YtauAlJThsfk5Y2pd5HWr23VOnjYa91pY5LZynbKP3ajXgjz7STuFrRKcm4iHjwqcm8jP/BRWwZcjUXvOx/Yj12Bp4wUrLVsOXcFP7acXuu3nhsc6a9cqe9s+4zfhkJEVPPwi8PjpSzVfX1B4nGr/21ZTCrSd+ORFsW0TQgghhBBCCDEMpNLOOeC3SruipJ0MhRU59/x1Op69SlN5nZyBl29/+16Gzb5J/ijxsh97Lo+9z0DS63yPJWfmeSxJ20eq6fI/9vRlmqrc07dko7CrYNbtuVxAVmSLm/KksOq7klZxCUUJOxm+mj0nWm5kuKoMvRSZl3+fJ89e5dlWhlvKXHe5t6nfbW6xC1ZI+4Xtk19ylVTYrdh+ocB2ZrecSnx9suk4PG/lWr+Jm0u0X2HVig+c/XXeJ79oFYoSdiLqCrvGr98kY/TcPQW2n7r8SLH9kddk/2mLQoc+50bmzcvftsxlSAghhBBCCCGkeiCVdp6hL5TnKV7aPcsTGdpqXcLHCts3/2NSSZf7e2nH0GQdhV0JGbdgfwFZ4e4bXu7HLS9h5x8SU+x+mw+aFdhHKvHyU9hcbLYuAUW2K9Ve+bcvbNhmSYSdVMzl30Yq4L6ELxV2j56+KDAX4MxVx4rcXuRY/uG7MuS4MAFXmLAbNHVbsfMEysqy+asFZW4/qeIsLTL8u0aHmXnaHjJte6nbJYQQQgghhBBSdVDz0wU8/6y0YyjsKoSh03cUkCcyF1t5Ux7CToTR55BFJfLvV5iIev7iTYGVWWevPl5kuyLn8rcbFpVQYLvPCTsZjpu/ClDmePvSFXu/VNgJYxfknQPuuzZT1WIOhRFcyPx9mw6YFrptYcLuwjW7z/ZHFhTJv19J5hYsCbIqcu52O49YXSbtEkIIIYQQQgipOqRmz2lHaUdhp28GTtlaQIJExT7+/I6lpDyE3dKt50q0b6uBS/PsV6fLnEJXHZ26LO/iEz+0nYb3KWkFtpN9ZW643NvKnHmFUZywkzng8ld6yUIQqWkZJb4u+SmNsJP5//L31czSudBtZS64/NsWNRS1MGGXfyGNwrjv6Fdgv32nLUp8PsUhcx7mbrf1wGVl0i4hhBBCCCGEkKqFSDtW2lHY6Z3ChsR+blhpWVAewq6kc+/NXXeywL7xj5JKdIxrt10LbCdDiPNvd9bsQaHHLkrYyUqqLQfkFYny/YtXb0t8TQqjNMJOhps26Z1XRI6cvbvAdlL916Jf3vn7eo/bWGS7+YWdrEpckgpCmcsu/7Ur6QIpaekZ6nU6efm+Gl4scwTOX39KVS9KGzLfIIUdIYQQQgghhBAhNS270i6Bwo7CTj/MWVtQXjm4BZX7cctD2Fnc9yjRvoUtjlDYMGCpnMtfjTdqzp4C2+VfIOKblpOVXCqMwoSdVKflr3Ss1WlWiarOPkdphJ2w+8TNPPvLvHYyrDg3PoEF5+87f9W2yDbzCztZkbak/Nx+Rp59h83YUeS2Mu+dzEUo89F917rgSrDFhcKOEEIIIYQQQqo3rLSjsNMrhc29tuekebkftzyE3W1b7xLte8jIqsC+Hn4RJdpW5pd79uJNzvNShVYvX3VWcauXFibs2gxaXuCxaVobXzpvXW5KK+wKW3zixKW7ebbJv9KwyLHXb98X2WZ+Yde87+IS96dB93l59u01rvChx44ewQUWqaCwI4QQQgghhBCiCymfKu1usNKOwq6iEcmVX1bIvGnlTXkIuxt33Uq0b/6qMUlAaGyh2xa2+IQMq8zGyTOkQFs2zkWvJluYsJMhmlOWHi7w+LGLd0p8PYqitMJOyD9susfo9TnPSRVi/mGzMsy0OPILO5FwJUUqD3PvK6vL5kfmAsz/mkm+bTVFVTJKRaOsDHzP3hfOXqGqQrDvhE0UdoQQQgghhBBCCpCWXWnnxEo7CrsKRIZu5q+gkiqy4iqkyoLyEHZFzRuXn2VbzxXYNzbhWZHbS7Vb7m37jN9UZFsNe85XVXdFUdQcdqmp6apaLP9ztx54lviaFEZZCDtrJ/8C/YqOe6Ke8wqILPCcnWtgse3lF3ZSkVfcNcsmJTWtwL0qK9nmR1bzzd+n6SuOIull0fMBytx8FHaEEEIIIYQQQgojJS0THiGstKOwq2B6jFn/xdVqX0p5CLuFG8+UaN+uv6wtIIyKW4m1sCo6GSpa2HDYzQfNij12cavEytxwTfssKtA378CoEl+X/JSFsJPzzN+vg2ct1XNr9xjneVxWy/2cfCtsldiwqITP9sPFK7TAfmt2G+fZJjbxWQGpJ0Nu0zMyi227/6QtFHaEEEIIIYQQQopE5rRzCXwOc1baUdhVFDJEML8Iadl/iapoKi/KQ9h1GLbqs/u9S04tIHQKW/k0NzKXnAic3Pucuny/UIH0uYUiihN2gix+8VP76Xmel7nYiqsALI6yEHaCzGuYux2RvHJd8ou8rYevfratwoRdSVb43XfaosB++YcfW9l4FdgmWy4WhdyL+ee7o7AjhBBCCCGEEJIfqbRzZ6UdhV1F8eTZK3zXZmoB0TF12WElM8qD8hB2ks+JrQvX7Qrsc/zi3WL3EY6cv51nHxkmK9V0uR+TedA+x+eEnSASKr9UbDdkRZErzxZHWQk7uUdkqHR2O/K1X/DDAueSPVS2OAoTdhMWHSh2H6naEyGbex+Zky6/VDa75VSgbeObDsW2Xdg8jhR2hBBCCCGEEEIKQyrtXINYaUdhV0FsP3KtUAEmk/qLHCvJiqUyR5ird1iJjldewk6q5YqSjAmPkwpdOTQsOvGzx3vx6i2+afnbQgYt+i0pMIxSZODnKImwE2Q+vvzbDdZei7T0oofuFkZZCTtBpFrutuauO5nne7keJaEwYSe55+Bb5D5SJZd/+xGzdhXYrrD59hZtKnqotFRcdhm5hsKOEEIIIYQQQkiJkUo7t2BW2lHYVQBSqdR5xOpCRYqk/ZAVanVUGQYq840Fhcepry/dsFeiLXteuMGFrNpZGOUl7CTSF1kFNHteOlnQQaro6nQpKOuyh3aWBFn9tKhjSoXim3efX6ijpMJOWL3rUoFt56w5UeL+CmUp7KTyr6jzl8i9UBKKEnYiRBdsOK3urexzDH/4CJOXHCp0+2u3XQu0LQLu+zbTClTiPXD2z3PdZE47WSU2f9UehR0hhBBCCCGEkJIglXYi7VhpR2FX7iQ+eaHmritOynwu+hR2skBD/sdqdpxZZF9l2Kl/SEyJj+lcyJx12Zm1+niJ2tBF2Mkw0MLkVlHbF0ZZCjvpT7O+iwo9f5FkIstKQv5zEqFW2Gv5Y7vpRV7vIdO2FykuC1slViKLT4ydvw/DZ+5ErU6z8jwn1XoUdoQQQgghhBBCdOG9VNoFsdKOwq4CEKEkc9dVRWFn7xaEWp1nlbivV6xcdLo2IojaDl5eaFsO2rFLgi7CTihqyKZUEJaEshR2QmELP0ik8q+k5Bd2Mh/g+r2XS/y6SVWcDL8uChniXJzsyx8ZDp78PjWPOKSwI4QQQgghhBBSElhpR2FXYYiYsrTxUvPX6SLrfm4/Q8mPklAewi4wLBYP455i/vpT+LrF5CL7KRVWMpz3Szh28U6B9pr0XogPHz6UaH9dhZ0glY8Ne8zPs88/W0yCo0fwZ49X1sLuyfNX6tj5z8HJM6TEbeQXdiJ55Z67auWCTsUMy5b7S1Y0fvn63WeP4ekfWWQ1YO72ZHXa7Eq90XP3UNgRQgghhBBCCNEZqbSThShYaUdhV2FExT7GhWt2SqYNnb4D3UevU3Pd9Rm/SYmXTQdMVbWXrBgq84KVFBleeeLS3Txx1kGiFSbscle5PX76Uq3iKotQdBu1VkkhmR9NlyGwhSHz9xVWoVVSZF69/OftFRD52f1CIuIL7Gdi4fjZ+ezMLJ3z7HPznnuJ+1oUcg/kPn8ZalpSYSnkF3YiFbOR85G58qavOIoBk7eix+j1avtDRlYlmiMwN3KPidRcvOks+k/arOY2HDZjhxq+fNncUS0kkhvvwKg815YQQgghhBBCCCkpUmnnHsJKOwq7ak5hwu6OnXe5H3fPSfMCx42Jf1rux60sxCY+07lCMD/5hZ2suEsIIYQQQgghhFR1ZPVY50BW2lHYVWP0IewyM7PQtE/eYZYDp2wt12NWNmRIav7rLhJPFyjsCCGEEEIIIYQYKlJp5xGShJustKOwq47oQ9jJHGv5j2l2q2SLPxgCb5NTUKND3lV3ZYiprlDYEUIIIYQQQggxZKTSzingGSvtKOyqHxUt7GQxi0a9FuQ5Xr1uc5GWnlFux6xMSHWhzCuX/5rftffRuS0KO0IIIYQQQgghhk6aVNqFJil3xEo7CrtqQ0UJO1kEwTcoGg17zi9wvCtWLmV+vMqIrGw7ddnhQlfb/dyiF4VBYUcIIYQQQgghpDqQkpalKu0o7Sjsqg3lKewGTd2mIivMth28vMBxJGMX7PsiWVUVOHbxDnqN26DOX1ZX/WeLSQXO/6f205HwOOmL2qewI4QQQgghhBBSXUhlpR2FXXWiPIVdy/5LCpV02ekwbBWePH9VJseqjMiqr8Wd/7etpsDC2uOL26ewI4QQQgghhBBSnUhlpR2FXXVBX8Ju0uKDeJecWibHqawUJ+wa91qohgiXBgo7QgghhBBCCCHVDZF2avXYT9JO39KMwo6UC+Up7KYtP6IWlPiq+USVpn0WYcX2C3DxCsWHDx/K5BiVGTNLZ7QauBTftZmqrqusDDt2/j61Iu6bd+9L3T6FHSGEEEIIIYSQ6ogMj2WlHYWdQSPiTFYuzZ2ylmkyR52hzlNXUsrj/LOyCr52hBBCCCGEEEJIdSAlLVNV2t1wTKCwo7AjhBBCCCGEEEIIIZWBtOxKO6fqWWlHYUcIIYQQQgghhBBCKh3VudKOwo4QQgghhBBCCCGEVEpkTjvnwOcwr2aVdhR2hBBCCCGEEEIIIaTSIpV27tWs0o7CjhBCCCGEEEIIIYRUaqTSzjWo+lTaUdgRQgghhBBCCCGEkErP+7RMuAVXj0o7CjtCCCGEEEIIIYQQUiWoLpV2FHaEEEIIIYQQQgghpMrwPjVTSTtDrrSjsCOEEEIIIYQQQgghVQqptJPhsYZaaUdhRwghhBBCCCGEEEKqHFJp52KglXYUdoQQQgghhBBCCCGkSiKVdu7BSbhpYJV2FHaEEEIIIYQQQgghpMqSkpYJ50DDqrSjsCOEEEIIIYQQQgghVRpVaRdiOJV2FHaEEEIIIYQQQgghpMojlXZOAc8MotKOwo4QQgghhBBCCCGEGARSaechlXaOVbvSjsKOEEIIIYQQQgghhBgM2ZV2Nz9V2lVFaUdhRwghhBBCCCGEEEIMiqpeaUdhRwghhBBCCCGEEEIMjpS0rE+VdlVP2lHYEUIIIYQQQgghhBCDRKRd7ko7fYs4CjtCCCGEEEIIIYQQUu2R4bFVrdKOwo4QQgghhBBCCCGEGDSyEIVU2t34tBCFvoUchR0hhBBCCCGEEEIIqfbkVNo5Vf5KOwo7QgghhBBCCCGEEFItkEo79ypQaUdhRwghhBBCCCGEEEKqDVJp5xzwvFJX2lHYEUIIIYQQQgghhJBqxXuptAuuvJV2FHaEEEIIIYQQQgghpNohlXYugc9hXgkr7SjsCCGEEEIIIYQQQki15H1qJtwqYaUdhR0hhBBCCCGEEEIIqbakpmXBNahyVdpR2BFCCCGEEEIIIYSQao1U2om0qyyVdhR2hBBCCCGEEEIIIaTak5KWBbegpEpRaUdhRwghX8CHD78iOSUDSa9TEBH/Cl6hT2Hnk4C77rEwsQ7D+TshjAHksvZa3nCIgrVXHBz9ExEa+xIxj9/gufa6p2dk6fs2JIQQQgghhJQxUmknC1Hou9KOwo4QQnTk9bs0OPglwMgqGHtNvLHksCPm7LPD0qNOWHHcBRuNPLH5vBdjAJHXcu1pdyw/5ozFh52w8KCD9no7YPdlb5jahMMn/Bnevk/X9y1JCCGEEEIIKUNUpV1wEm7qsdKOwo4QQkrI46RkXLWLwE5jLyw8aI/5B+xx4Gogrjsl4IFfEhyCXsEp+DXcwt/CI+IdYwCR19Il9A0cg1/BPvAlrDyewNgmBrsu+yl5t+yoI/aZ+sDGK177Tz1T37coIYQQQgghpIyQSjtnPVbaUdgRQshnyMr6gKCHSVh90gWLDjlg35VA3PV+hoC4NIQ+ykTY40yEP8liqkHktZbI6+4Xk6Jk7eqTrkrenr4ViGev3qvh0oQQQgghhJCqj6weK8Njb36SdhUp7ijsCCGkGKRqSoa/rjnpgjWn3XHNMR4hjzL0Lo6YyhGRdx6R71TV3bJjzth6wUPJ3YzMD/q+dQkhhBBCCCFlQGTCW9zQPgdWdKUdhR0hhBSBVNbZ+yaoqrrtl3zhHPIGIYmUdUzBiMS97flUDZPdfM4dUYmv9X37EkIIIYQQQsqAyPjXuGYXi+sOIu0SK0zaUdgRQkgRyOqvMgx21Uk3NfxV31KIqdwJfZwJK88nqtJu5XFnvE/N0PctTAghhBBCCCkl4bEvceVBFK7axuKGQ4LyXBUh7SjsCCGkCHYZe2HlCVfc8XrGeeqYEkUq7a44xGHBAXvccopGJofGEkIIIYQQUqUJffgcl++GwuxBtPJbFVVlR2FHCCGF4Bf5HPP22eGidTSHwTI6Raox95kFYONZN0QlcGgsIYQQQgghVZngqKe4YBmIy/cicNXuU5UdhR0hhFQ8smDAfjMfrD/roRYUyBYxUmXnF/0Wpy9bYfyMhWjTqQf6DP4Fa7YehINPbJWswpM+33YMwtgpczFg+Lg8GThiPDbvOYmg+FS997OqxTH4NRYctMcd9xhkfWCVHSGEEEIIIVWVoIjHMDL3waU7obhi+1DNZUdhRwgheiAy/pVaFdb4wcM8Yss74iXWbj2In2rWRcc+gzBo3FT0HzUJo6fOg6V9AMKq4Oqxcl7WbhGYNHMxBo6disZtO+Ev33yPXsPGYPD46dhzzBjBCZy/70uu667Lftht7IVnr97r+5YmhBBCCCGEfCEB4Yk4c90TF6yC1bDY6/YUdoQQohec/BNVdZRL6JscAROSmI5LN+3QqGkrLFi+CS6BjxD6KANB8SnwDHuOgNhkmFk549yV+/B7+FY9d9c5BHuOXoSlnf8n4fcCR42uq8o1kXxHtK/3HTfGxl3HcrJp93FcuG6j2rtl54c5i9diyLhpOHL2mhKGcjxjczvsOXYJjn7xOf1zDkjErsMXYGrpDH/t+GfN7mnb2at2ckukG9aeOHHxltbnpAIVgUFxKaqirkOXXrD3jvntce2YV++4YfKsJRg5ZQ7OmNxR52j+wBv7T5rAzitateXsn4CDp81w5baryslLlmo7acMn8hWOnTfX9vFRjxlp10mul1TvhT5Kx417ntq1ugQbjyg4+Map6yQiUdoNjHuPizds1fWXvgTGvsdJY0v8Mnk2Js1egmt33dXrI8fxjXqNg6fMMFJ7btiYKThjekdrM1Lr1xU80P4V+Xjjvqfqt1y/gJhkHD13A6Mmz8GoSbNw4doDdc3kuHJ+m/ec+Pi67DqurptX+As80Pq1YNVW9NFex+Ub9qj+5r+W8r3MZbf0iCOiuWIsIYQQQgghVRb/sAScuuqG87cCYWod9VHYOSZS2BFCSEUiK3teuBuCufvslHTLFjD+D99h+bqdaNOhG+65hBaUXfEpWLx6G0aOmwa3oCdwC36Cgb9MwJ//8TV2HDgLV+2xGfNX4ttaddF74Ah07TUQS9fuwKJVW9U+39SojRZtOmLC9AVK4hlbOKCldqyWHbqq7es2aILVm/apdkSc/fW/vsLWfac/ScNU9fUf//4V5i1dD/eQpxg9cRamzl6qBFNu6bh6y3506TkAD9wjSiTsQrV9Tly6hUat2qN9tz7o1nsQ6jdqht2HL8DKIRDdte8nTl+ohgQv1s6lW++BuHnfU53bgGFjtf4+Vu04+sahZ78hSkjKOYybPBeLVm6Bb/Qb2HpFo612zO9r18NZkzswveWE7n0G48RFi4+iM/IVps5ZipkLVqlz23X4HH6s1wg9tPY6an1q0rwtTLR9ZLu5yzbg25p10b3vEPTUsnrzPlzWrmWDxi1wUjsPkaEt23bGFu083YKfKiH3jfaa9NC2lb7/3LApdh46p6Ti+h1H8P2PNTFk5AR1jht2HNWO44guPfqjYdNW6vzqNWyGAUNH475rWJ7rKV/bBrzEgoMOsPaMw6+//qrvW5sQQgghhBDyBfiHxuPkFVecuxWghJ04Lgo7QgipYJJep6r56/ZfDcwjYKS6bcqsJegzcCTcQ54VGAIpwk4q70TuSMXVzoNG+O7nWvivr7/Dlr0ncfG6LVq27aQEkUg2SXBC6qfKtESt3RFYtWmvakcya+FqNG7WGmfN7sLCxhdjJ89B5+791NDbcVPn4f/63e/Qve9QeGh9EVkmwul//OGPaj8RUcNHT8Ev42eoijWvsCRVNSbCbvmG3WjXqQes3cJLJOykMm7ILxPRqVtfJauu3HFFv8Gj0HfQL/AMT8LxC+Zo3roDBo2ahBbtumDX4fNKnImME+kmctMz9DmstH6379xTSTCReL+Mn67koktAohJ9//X1t/i5bgOcNrbEZQtHdbxj5258EnYvMXH6AiUgzW18lNwTsWlp76/61LZjd8xetEZV4YlA27rvVE6VXKB2TtfueahhzNPmLkO3XgMxY/4KVYl32zFQ63tHrNy4R1UlBsS+x6wFq5RMvav1e82WA2jdvkuOoA2Ieacek31EVspraKH1p1XbzkpESiVg7uvpGvYGa0654aRFID58oLAjhBBCCCGkKuIXGq9cljgtcVsUdoQQogceJSVjyzl3nLmdtwLNJ+o1ZsxbgV79h6nquaKE3aAR45Rka92+K6bNWYb2nXpiy54T2HPkohJhIrzy75tf2Ikk6zdkNP7wX/9AvZZt0bBNR3z1U03Ub9pKDTUVWfXNjzWUhDK+aaeGnjZs0hJ1GjfPEXaDRk5Q+7TvNQBdtD6Pn7kYN+57YNm6nToJOyf/BLTq0A1//vo7NGjdXuWv3/6AFu06K3EpFXxzl67H//yPP2HM1HlqqLDILxF2X2vHb9uzHzr3G4o23fviv777IY+wm6319cjZ62jToSvmLlmnhKQIu5sPvFUfF63aooafHr9ggcatO6h59ozM7uH7ug1VVVyjth3RoFV7/OXrbzFi7FTsOHgWdeo1VkNks89N/hVh973Wl79q5zBo+Dh17iLbpNqudt1G6l/ZTrL/xGUlAM0snbE6n7CTYcQTpy3A0FGTlMCV9j1Cn6G/9lpJ9aS8brmvp29MCvaaBWDnJU8uPEEIIYQQQkgVhcKOEEIqAXFP3mL1SRdcto3JI7Rk3rSNO4+q6iqZ26ywIbHzl29Eu849MGDoGFWVJnJNKt9E2O0/fhkdu/bWHnP5vLCLeo3B2v4du/fD3hOXceKSpYpUkMm8azIkVo4hlW4ytFSG1A4fM/WjBFu0Rgm7ob9MQpdeA7X9TbBi0z4lvEZOnKmq2nQRdiLgOmn96Kcd79CZqzl9uWzuoCrKZN660Vq7v//zX9B7wHBYu4ar4aQi7Oo1bq6GqC7fuAezFq/Fz7Xq5wg76XPfQSPRuUc/NdxV5qfr2W8oThtbKTG2cMVm/FS/MX5o0FgNlf3XP/0Zk2Yuwrmr1qilPT5t/gocv2ih+nJK2+emtReOGF1TFXaFC7ta+Oqb79GiTSeYWjrlzElYp0ETNW9dtrCTOQdl2HNhwk7k5ORZi/MIO3ftWst5yHDd/MIuIC4Nh28EY5ORO4UdIYQQQgghVRQKO0IIqQREJbzGwoP2sHB7lEdoSUXW9XueaNKmIwaPnqykkCz0YO8Tq+SXDA+dvWQd/o/f/Q616zeGiYWjqg6TedS27j2phm6K/FmyaquSYDJs1s47RrWbX9jJUNkla7ajVbsuaoEHmRNPBJrMO+cRloQps5di/NR52HHQCH/405/x/c+1se/4ZUyeuShH2MmQ2FGfhsTKcNQR46ZjwPCxmKU9r4uwkznmxk+br4aSyjxxMoecrWe0WshBpNXydbvQtEU7bNp1DF169leVciLkRNjJ3Huu2rlKOzJsV+RctrATofl//3//Q/VFhpdev+eRI+yyBaj0URbRuOcSos5XhsTKuchQW5GEsqiH9EcWp5DrKcNlZW45mUvQ3idGyU2ZH8/MygU/16qnhiMPnzADrbXzu+0YhPuu4ejQtTemz1uhtrPzeojhY6agV79h6rqt2ZpX2MnwWpmPsGmLtjh/1Vqdh1Q3Nm7ZTok+6XPu6xmcmIGTlmFYdtQRWVkUdoQQQgghhFRFKOwIIaQSEB73EnP22uKu19MCQss/5h0On7mKOk1aoEajZujYZxDadO+DwWOmwMoxUAm73//lb1i4epuqthLB9lHYnVJDJ6Vq7Mc6DdCp72C07dEXC1ZuUZIsv7CT48rKsr36D0W9pq3UkNbW3fpgytxlSqSJsJM53WRuu2ZtOqJjj3647RCIybN+E3YyJPbrGnXQqd8QNGnfBTW1/m7YeQyLV2/VSdiJUJRKNKkObNiyHboOHI6WnXtigXYuZy7fVkJrxYY9St5tP3AWdbX+Hj57VXt+02eF3V++/V4t8CArteYXdrmTM4fdnGXadXyOY+dvokGTlmjWoSu6DhiOtt37qlVzpTJPrmHN+o3Rrmd/9fosWrlZybUatevjlLEl7jgFod/wsaoqTubAkxVl62uvpwzZlTTVzlFWqJXXOr+wk4jUGzxiPOpp+3TWrm0t7d+RE2epx/NfTwo7QgghhBBCqj4UdoQQUgkIjX2Jmbtt8MAvqYA4EiEjQu2Ocwj2nzJVQz037jmBq3fd1TDQW3Z+OGN2V1XQybYytFWGXz5wj9S+z4BXxEtcMrfHqi371X6WDgEIe5Sh5JCZlTPuOAXnrEwrQzZFAh05dwPLNuzG9kPnYOUYpBZGkIUOZFiuHPPqHTc1HFTakLnfRPTJ8F2pKpMhrJKj52/iuraNLLQgxzDW+iBCMb9gkmNbu0eoefH8ot/kOudUJfjknJeu343dxy7hvva9CC9ZTEOq3LKHjMp8cNIfC1tfVZEnMk7akb5e1o4rq6nKghAyXPi8tq3sI/u6hz6DiYUDnPzjC5kfMPVjmw98VPWhDMU1t/HF1v1nsEx7DY5eMFcrz0r/5bxEMK7dfhgbdh1TlXQiCGXuOye/+I/X1fuhkndSVSfz7ZnddsG6HUewbucRVaUX+GnBChF10pZ3rmslx5B5/fafNFGv/2Gja2pOw9wrCue+X87di8LsPbbIpLAjhBBCCCGkSkJhRwghlYDihB3D6Jrz96PU/URhRwghhBBCSNWEwo4QQioBFHZMWYbCjhBCCCGEkKoNhR0hhFQCKOyYsgyFHSGEEEIIIVUbCjtCCKkEUNgxZRkKO0IIIYQQQqo2FHaEEFIJMGRhFxiXohar2HvMGFv2nFALMWQvGKHvvhlqKOwIIYQQQgip2lDYEUJIJcBQhZ1v9Bus234Y39VtgB/q1Ef9Rs3w1Y81MG7qPDj6xlHalVMo7AghhBBCCKnaUNgRQkglwFCFXUhiOq7f94SppbOqtAt9lIGDp6+gUbPWOGJ0Hd4RL2HrGQVbr2i1zdW77nANeqxtl672D05Ig4NPLC7etMMV7Tm3oCdK8gXEJMNG288r/IX6XuIR+hx2Xg8REPsePpGvVJt+D99+3D42WTtONBx841Sf/KLf4IF7JO44Bn2MUzC8tL4YikCksCOEEEIIIaRqQ2FHCCGVAEMVdgUEXkIaDpw0RfNWHXD68m2YWDiic88BaNelF+o1bIpa9Rtj2NipuO0YhOD4VBib26Nb/2H4sWZd1KjXCKMnzIRr4GPcdQ5Bv8GjVBsiASX7T1zGyHHTYO0WDuObdupr8wc+Svqdv2qNTr0GYPr8Faqyb/XmfWjWvgv6DByBXlr7DVu2wxmTO6odfV8jCjtCCCGEEEIIhR0hhFQCDFnYSTXcvhOXsWjVVgwcPg41GzXDjPkr4OyfgHNX7uObH37CsLFTYGLphL3adnWatsTCVVtUtVz/oaPRd8goXLntqtpo2Lgl9p8wwc0H3qjboAkOnjbLEXYbdx1D247dlew7fdkK7bv0gtltF7gEPsLAkRPw33//v9W/F67ZoH3nnpizbANuWHupSr+fatfHoTNXEJqYrvfrRWFHCCGEEEIIobAjhJBKgCELO5nHbuq8FajXqj1qNW+Nr2vWwZhJs2HjEamEXdNW7XDS2FINVZUhrtPmLPtUPWeFuo2ao3OvAZi5eA0mzFyE72vUwfR5y2Fq5ayE3dip87Dj8HnsPHIBg0dNRIu2nXIJu564eMMWa7ceRPPWHdC5Rz/8Mn46LmmPibBbsHILLO0DcEo7do06DSnsCCEGT0hICJYuX47J06YxDFNFc/78eX3/KiGEVBAUdoQQUgkwZGGXOzKX3JGz19CkeVts238ap01uo2XbTmrIqlTJ+Ua9xrylG9B34EgcNbqO2o2aoXmHbhgwalJO9hy9iKt33ZSwq9GwKVp3662lD76r0wCN23bMEXZtOnZTQ1/bdeqBzXtOYtbC1Rg9aZYaErti/W789Z/fol7DZujQpRf+9c9/obAjhBg81tbW+PsPP+C7mjXRon17hmGqUBo0a4Z/+dOflLQjhFQPKOwIIaQSYKjCThZxEBGXezGHW3Z+aNOhG1Zu3ItTxlZo0KSFGuYanJCqFpwYOXaamn/usrk9WrXrouSaV9gLtUCFRBaSsLD1VcJuw86jajEJiQy5baW1my3svvuxBr764WcMHztVDa+dv3wjxkyapdowMruH77Xnl6zZroba/lirHoUdIcTgEWH3jx9/xNatWxEWFsYwTBXKnTt3UL9ZMwo7QqoRFHaEEFIJMFRhJwtEzFm8DnOXbcSuoxexZd9pdO49CE3bdYHJLSclzv761ddo0roj1u08gslzlqJeg6aqis495Jm271q1GMXitdux/fA5zFqyVtvnrlpM4nNz2P3571+hbpMWuHHPQ60Ku2D5JoyeOAsWNr7oP2Q0ho2eDM+w52pYbIPGLSjsCCEGT7awO3PmjL67QgjREZF2Ldq1o7AjpBpBYUcIIZUAQxV2vlFvsPvIBfQcMhqtuvZCu579MWLybLX6a2Dce5y7eh816zZA9z6D0ElLt/5DsWHHESXSpCrP0S8eKzbsRqe+g9Gmex/0HjZGyTqpqJsxfyXMrFxyKvhE/i1auQUOvnHaNt4YO3kO9hy9pBa9CIx9j8NnrmLznhM4rx1z1sJVuHrHTe1n7xODmQtW4cptF64SSwgxaCjsCKm6UNgRUv2gsCOEkEqAoQo7iSwm4RH6TA1LFZkmQ1qzh8iKsGvZrjPOmt6Bk1+8qsgLik/NM4Q2WPveOSAR9t4xalEKeS4kMQ0+ka8QGJeSs21gbLKaA0+OFxSfoj3/UklBeV4SEPNOVdrJ8WXfkE/VdIW1VdVDYUcIKQwKO0KqLhR2hFQ/KOwIIaQSYMjCrriIsGvVrjMuXLcxmOq2yhAKO0JIYVDYEVJ1+PXXX/HmzRukpKSo7wsTdq9evcK7d+/01UVCSDlDYUcIIZWA6irsbtn6qnnqbtn5I4zCrsxCYUcIKQwKO0KqDhkZGTh77hxWrV0LFxeXPMJORN7t27cxbtIkBAQE6LurhJBygsKOEEIqAdVV2MnQVe/IlwWGwTKlC4UdIaQwKOwIqTpIhZ2jszMaNGuGGvXrY8qUKfixdm106tIFo8aMwd++/RbtOndW2xFCDBMKO0IIqQRkC7vbnk/hH5fKMKXKmTsRFHaEkAJQ2BFStZDhrtPmzMH/9a//qvJ//q//hf/++9/j//iXf8H/++//jjv37lHYEWLAUNgRQkglICLhFeYfsMOmc57YbeLHMKXKqhOuWHzIgcKOEJIHCjtCqh7BwcH4umZN/Lff/S5Pho0ejefPn+u7e4SQcoTCjhBCKgGRCa+w4IA9dhl74dgNf4YpVTacccXiwxR2hJC8UNgRUvVITU3F4hUr8si6P/7jHzA2MdF31wgh5QyFHSGEVAKyh8T6Rz5HckoGw5QqNxw4hx0hpCAUdoRUTYKCgvA//uM/coRdt759c1aPJYQYLhR2hBBSCcgWdmFxL/XdFWIAWLk8pLAjhBSAwo6QqomsGLt63Tol62QuO3t7e313iRBSAVDYEUJIJYDCjpQlFHaEkMKgsCOkapK9YuzPDRqgdadO+u4OIaSCoLAjhJBKAIUdKUso7AghhUFhR0jhyP+X71LSERH/Cg6+CXjgGVfpcssxDBMXbsOuU+Z670uh8YqDW9BjxD99h9T0THz4wNVrCSktFHaEEFIJoLAjZQmFHSGkMCjsCCnIyzepMHeMwuqTLph/wB4rjruo1dYZ3bPsqDPm7LXF7ste8Ah5gvepGfp+eQmp0lDYEUJIJYDCjpQlFHaEkMKgsCMkL4+TknH6VqASdQeuBuK6UwJs/JNgF/CS+YLc83mOy7Yx2HrBG0sOO8DcMRopaZn6fpkJqbJQ2BFCSCWAwo6UJRR2hJDCoLAj5CMyJ9zLt6k4ZRGIeQfscd05Ef6xqQh7nInwJ1lMKRL6KAMeke9w6HowFh50wF23GHW9CSG6Q2FHCCGVAAo7UpZQ2BFCCoPCjpCPiEC65RytKuuuOsZT1JVD/GJTceRmCBYdckBU4mt9v+SEVEko7AghpBJAYUfKEgo7QkhhUNgR8pGMzCysPuGMvWYB8I1J0bvcMtQ4Br/G8mPOMLEOQxYXoSBEZyjsCCGknHnx4gW8vLyQnJxc5JAAfQs76Zfk7ft0BEUnwTXwEZwDGF0jq6PJCnNpGVk511QfUNgRQgqDwo6Qj8Q9eYt5++1hpn1eZHVd+UWGx+4x9cfuy954+TZN3y87IVUOCjtCCClnUlJSsG/fPtSsUwdnjIwQGRmJzMy8E/DqU9iJ1AnXjmtkFYy5+2yx6JCjWuVL/iLK6Ba5bgsOOmDpEUdcsY1AwrN3Ff56ChR2hJDCoLAj1QH5Y1lGevELHXgEP8ZS7f/s+z7P9S61DD0XraOx6awbYh+/qaA7gBDDgcKOEEIqgLCwMDRp2RL//V//Fa06dMC27dvx5MmTnOf1KexcAx9j7SlXrDzhilNW4bB0fwxr3+ew8UtidIxct5suiTh4LQiLDzti5yUvxDyq+DeoFHaEkMKgsCPVgcyMLIR5PUSkXxwyilih1CXgEZYdc8YD7f9ufQstQ89lmxhsOOOG6Eecx44QXaGwI4SQCiA9PR07d+3Cf/vd71T+v3/7N7Tu2BFHjx5VQ2X1JezCtOOuPO6Mjec81ZvWoIR0vb+xq+qRoTWy0twtt49/vd9n6oPE5xVbaUdhRwgpDAo7Uh3I0v7vC3KJgPH2W7hj5IiEiCcFtqGwq7hQ2BHy5VDYEUJ05tq1a5g4ZQqjYwYNGYLf/8d/5Eg7yf/vX/4Ff/7737Fx11GMX3+tQoXds1fvsf2iJzYaecI94l2eOVxCEtNx2zEIxpZOBWLvEwtT7d/jF8wRGPdeL0LMLfgJlqzZjrYdu6t/vSJe5jzvHvIUJrddc/prctsFzgGJOHb+Jpat3aG2sbDxwZ6jF9XcKkUdJzghFSs27lHn+aX9tA14gYUHHXDudjCSUzMq7LWlsCOEFAaFHakOqDl5XybD6rQ9jiy8hONLTXDz6APEhT5CyrtUtQ2FXcWFwo6QL4fCjhCiM8tXrsT//OMfUa9JE7Rs354pYZq2bo3//i//kkfYSf5Fu5YDfpmIIfOPVpiwkzezTv6JWHDQHlaeTwq8uQqITcaGXUcxavp8dB80EnWatcLIKXPV92ev3IOFrS+Mb9ojKL7iV1YTyXbW7C7mLd0An8hXCIx9n0e8HThpglZdeqm+SibMWQpjc+1Nu9F1Jfdkm3uuYThjelfbr+iKQhF2y9fvUqKvsOflGt2y9YNf9Jti+pqJ07fDsfyoE2IqcO4WCjtCyh75vfnq2Rs8in5WZWNhaoUWTTri1CEjvfeFYcozCeFP4HzTGyeWmeLwgksqJ1eY4f4FZ0T5x8POI5bCroJCYUfIl0NhRwjRGRF2P9erhxs3biA8PJwpYQ4eOoT/M5eo+79//3sMGDwYN83N4R4QU6FDYlPTM2F8P0wtlOAfl1rgzZVUhwXFpyohd+mmHabNXQ7fqNfqe6m+0+cbv5DENFUdt+PA2UIr5ETYrdy4R/U1O9JnEW/Zwq4k+Zyws/eOURV78lf6otqQ6yjz2slCHg5+iRXy2goUdoSUPR8+/Apncx9c3GJeZXNilQk2Tt6PI8su6r0vDFPeMVp/HUcWGecIO4lU3J1Zew0XDj3AyiNOFHYVEAo7Qr4cCjtCiM6IsKvXtCl8fHz03ZUqw7t379C6XTv8H//yL/jTP/+Jbj17ws/PD2lpaapqo6LnsHv9Lg2Hr/lht6k/QhKLHhYqMbnlhBnzVyIwLuWTMEvHodNmahiv/8O3OHHBHItXbVVp2bYzRoyZirOmd7F49Ta079IL/YeMVsNrRV5JzG18MH7afLTr1APT5i7DXZeQAuItOCENF2/YYvTEWWjaoSsmzVyEq3fc1OPHzt1AgxZt8M+addB98C+46xxSQNit3ry/wHnkFnZnTO4o2Sb9cQ16jJUb96JTtz5a+qJLj/6Yv3wjnPzilbBbuHKzOv/mHbtj3NS5sLDxhUvgIwwbMwV//vZ71G3ZFku0tkTwFXb9XMPeYsNZD5g+CK+Q11agsCOk7Pnw4QPuX3RRIsDjTgD8HcKqXMxOmqN/pxE4sfOc3vvCMOUdGxM3HF9mkiPrji42xsWtFnC84YX7DhHqj5YUdhR2hFRmKOwIITpDYac758+fx9c//ojxU6bAwsJCibrcVLSwe/k2FQfMfLH/auAXCbt9x42xdusBJez2HbuEXv2HwczKBZ5hSUpyde7eD1fvusEn6jX2nbiMOYvXIkjb3yP0GcZOmQsjs7vwj3mHU8aWmL1oDdxDnuU5po1HpJJ1plbO8It+i3NXrTF19lLcdw1HcHwqNu06hu37TxdZYbdiw27VviQgJrlAhd3JS5ZYuGKzelyq9ZaKcNPatfGIwvDRk9W/2RV2/T5JQRl6e+CUqToX74iXsHIIVCKxuAo7iXv4O2w654WLd0Mr5LUVKOwIKXuyhd2Nw9Z4+yJZ3935IjiHHakupKWkw+ayK44sNFZVdiLanS188Cz+hXqec9hR2BFSFaCwI4ToDIWdbrx69QqXL1/GrVu38OZN4fOYVWVhJ4Js4YpNasisVKwZXbmnhtDKkFrZ3sreH6MmzIBv9Btcue2KKbOW5Mz75uSfgKlzlsHSzj/PMU+JUFu5RUky+d474gUWrdyMMya3SyTsajVpiba9+qv0GDIKlvYBhQo7kYirN+9T0lEelz6OnTwbt2x9c4TdrkPnco5z84G3qgp0C3pCYUdINYPCjpCqQ2LkU5zbcANn1lxVQ9mfxCYhMyMr53kKOwo7QqoCFHaEEJ2hsNMN+ZCXkZGhhr4WRVUWdjI8VuaMk6/l+QvXbVQVWvZcd1b2ATnC7vDZa/imdj00aNsJDdt1RoM2HdFj8C+wcgjIc8wte05g+4GzOSvXiuBbtnY7jp+/USJhJ8Nx3UKeqXiEPlfyrTBhJ/ufvnwb0+etwHVrL5y6bIXJMxfDM+x5oXPYmYuwm7NUDaOlsCOkekFhR0jVIDMjE573AuF43Qtvkt4hKzOrwDYUdhR2hFQFKOwIITpDYVf2VBdhJ/PQSVsyVLW4Y8occ3OXrs/Zzis8SVXxyVDakgi7z81hly3s5GuXwMdK0g0bP0OJvnsuoUoUUtgRQnJDYUdI1UAEnazoXBwUdhR2hFQFKOwIITpDYVf2VBdh5xH2XM1hd1DbR+azk+o3a7fwAgLPwTdOzWF3UWsre647GUqr5pYrY2FnZuWs+hsY9z7P9p8TdtLvsZPnqOG2cm2yqwEp7AgxTCjsCDEcKOwo7AipClDYEUJ0hsKu7KnMwu7GfU8lroLiPwq70MR0nLhojp2HjBAQ8w5nLlth2/7T6uuPAswFqzbtzRF2911DMXvRaiX0RGo98IjEguWb0KZbH3TvOwS7Dp9XMi/3MUXEyWqyk2YsUquzzlywSq00K8eWlWL3Hr+kRGFhwu7kpVvYceBsgcfPXbmPjbuOqa9FBK7ffli1Z2nvj+FjpqB+6/ZaOqCb1icjs3tq/rwte0+q/bLbuO0YiKVrtyvZKItZ7Dl6CR17D8SqLftVvyjsCDFcKOwIMRzKStiFPkrX3ueEqdXl23Xvi5btumDpmu246xSsvQ8q/H1BdQuFHSFfDoUdIURnKOzKnsos7Aw5Tn7xWLRqi6oKlEUzfCJfwdTSGYNHjIdrYPFDXUsaCjtCDAMKO0IMh7IQdvJHSPmj3y/jp+PASVO4aO8b3EOfYffRCxgzaTYsbHz1/j6nMoTCjpAvh8KOEKIzFHZlD4WdfiLDWmfMX6FWf5U33v4P3+HERQs1/NY74mWZHIPCjhDDgMKOEMOhLISdjBxYunYHNu48mjOqQBIQm6wq+tdsOaC+v+MUjIlzl6H/6Ek5GTd7CR64R+Zsf+KCBUZNnYel63bC0TdOvSeRPyIeNbqupu6Yt3SDmjfX2Nw+Z8SD/KFRpvgYN20Bxs1YiLOmdxGotSUjDYZPnJnneMcumKs23YKfYMOOo0oySv9cPv1xUqoBZQqQm9ZeWL/jiPb8DBw6fUUdg8KOEP1BYUcI0RkKu7KHwk4/kXnrZMirzJfXuF1n9Oo/DCs27IGTf4L2xrZsrguFHSGGAYUdqWqkpKTgzZs3TCGx8YgutbBzDkjElNlLcO2ee57HRYxdue2KCdMXqPcZMg2HzN975a47rlt7wvS2C0aMm6a2kfcae48bqz8eXr/viaPnbmDWglXqfYhr8BMMHDYWc5esw5U7rjhpbKnmBL50w04dxyv8BS7dtFOLYF24bqtGB8hQXM+wJFh7RGLLvlNYsm4n7riEao89h7PW5tQ5S7Hz0DmYP/DB7iMX1B8ovSJeKAk4e/Fa1b68L7p+z0NtK3MGyxQgFHaE6AcKO0KIzlDYlT0UdoYbCjtCDAMKO1LVOHDwIAYMGcIUkl+mryq1sLPxjMKshavVHHb5n7tp7Y1+g39RMuxi9mJcn+a6FYk3dc4yJexErokku+0QqJ7ziXqtFsU6Y3JHVb/J0NrLFg5KAkoV3M7D57Bs3c4CxwuKS1FTfJy/ap3z2KlLt7D9wFm1n8z5e/rybSxZvU1V7mX3Q+YIPqftI8Ju7tL12HHQSM3LJ8e7ds8D0+etgINvbKneB1HYEfLlUNgRQnSGwq7sobAz3FDYEWIYUNiRqsbYCRPwb3/9K9p17oye/foxuTJ08tJSCzsRWVKFdsvOv8BzN+57YeS46fB7+LZYYffALRy1m7RAv18mYNikWRg8fjraduuNfScuqwo+2U4W3cpu94zpHcxbul59LdN4SIWdCL6RE2ehfst2qkKvMGEXHJ+KHQfPqoo5OX72Nmu3HsS+48ZK2M1fthFGuRbaeuAeofqdPXT3S0NhR8iXQ2FHCNEZCruyp7oKO/+YdzhwyhTnrz3AzIWr0KBtR9TV3nDW1N68NmjTUX2/tZAVX3PnvvZmt9fQ0WqFV9leIm1dvGGrhn3kX4GWwo4Q8iVQ2JGqhgi7Zm3awN3dHU+fPmVy5a5zWKmFnXfEC8ycvxJHz11XFWnZj8t8dkeMrquVY6WyrThh5+ATg35Dx+CiuT1uOQSo3HEOUZV5rkGP1bx15jY+qn2JzFkn7QZo75827T6OJWu2qSGx5ja+mKBtK/PQFSbsJDL0ds2W/TlDXKW91Zv3qQUzRNjNW7YBxz/NdSe55xKK2YvWwMYjisKOED1BYUcI0RkKu7Knugq7G/c9sWDFJriHPIXfwzdqmIa8sZ04fSHcg5+q72Uy5uLasLIPUG9o7bxj1PYSv+g3apjJfO3Np6z6SmFHCCktFHakqiHCrnWnToiMjNR3VyodZbHohMi489es1Ty4ItX8ot8qGXbltgsmTJuPC9ceqO2KE3byHkeGpR45e029fwmMfa/mmxMhJ3PYDRoxXg1TlT8+yoIRC1duwf4TJup90/S5y9VCWdKuSLWhoyYVWWEnAs78gTemzVmqKvaCE1LVwlvSd/lehJ30cdbCNeo40kep8lu0ais8w7/8GlHYEVI6KOwIITpDYVf2VEdhJ3OkrN9+GAdOmqg3vdmPyxtYeSObe8iGPC9zxKzevB9T5q9UK6CJlJM3oCLsps5eCg/tDW7+N9LyxnXV5n3qzSqFHSGkNFDYkaoGhV3RlIWwk8hIgUNnrmLa3GUYM20+JkxfqOa1O6w9JgLvc8JOvpcFHmRkwHht/7FT5qj3RvY+sUrYDR8zRc0tN2fxOoyeNEsJNHufGCX25P3TGO0xWYF2854TmDxrMY6fNy9U2Km+PnyHAydMMEN7HyULYkybuxx7jl5Ssk4JuyXr1CIUi1Zuwbip89TzV++45VkBl8KOkIqFwo4QojMUdmVPdRR2PlGv1BtNq08TLRcl7JSU07aRN47y116jq9bqzeuWvafUm0gRdlNE2IU+zxnGkT00xdotAqMnzoR76DO9CrvN5zxx0SoYGemZFZJbjlGYtfMBUlPSK+yYpU2mJINhvjRZyMos38hx7l9wprAjVQYKu6IpK2EnCU5Ig4NPLMxtfWGhxckvXs0Zl/1eRBaSkMeyv5c/KDr6xuUIPflehr/KXHg3H3jD3jtGLSIhwi5b7N1xClbPe2jvZ2R7aUsEnPwx86aNrzofqbrziniZ0y9v7Wv3kGd5hutKuzYekeo41u4RSvypx9WQ2I3qD6IyZ508LyvVllbWUdgRUjoo7AghOkNhV/ZUR2Fn7/UQI8dOVUMvihN28sZ0y96Taq4WeUOZLeJkVTWXgEQl7AaOnICN2ja7jhurWH6aAFqGl4yaMFMN+9CnsDt0zAmHll/BmTXXKiTHlpth/6LLOLO6Yo5XFjm/8SZMdlgyzBflxqH7uHfeuZzjhPObblDYkSoDhV3RlKWwK6+IsJPKvdyLTpRXshedOJdrldmyCoUdIV8OhR0hRGco7Mqe6ijs7jqHKGEnlXa5H88v7OSvuzI84/RlK4Q9/thX+SuyVM7ddw1Vwq7noJGYsXQd5q/ZrmJi6aS2k6EqU2Yv0Y4VrLc33CLsDh91xKGlZji18kqF5OhSUxxYeBmnVlTM8UqTk8vNcGShMU5o/17YdJNhdMq59ddxbMllGGn/3jzyoELifNMb79+mVMjv6rKGwq56QWFXNBR2eUNhR0jlhMKOEKIzFHZlD4Xdb48XJuyWrd2Jo+dv5sx15669iRVhZ+0aVuQcdhK/h2/VPCz6FnZbz3rg3BVvPIt/USG5bhWIhVvv4nFsUoUd80sT7R8Pk51WuHPWES8ev2YYnRITlKDuH5lb7t2r9xWSlHepaj67qgiFXfWCwq5oqoKwk2G1tl7R6o+P5X0seX8l8+Z5hb8o87Yp7Aj5cijsCCE6Q2FX9lRHYSfzt4wYOxXOAYl5Hi84h10Gjhhdw4LlG+ES+Ej9FVhWXpOVZL0jXxUr7GSuF5GCMl+Lvt5wc9GJ4nn17A2uHbgHW1N3fXeFVEFePn2Dq/vvws7MQ99dqRJQ2FUvKOyKpioIO0MJhR0hXw6FHSFEZyjsyp7qKOxklVdZ0ez6fc88jxe26IRIvbXbDmH24rWYvngNZi5YBSOze+ovwsUJu9sOgRg3Za6aeFlfb1Qp7IqHwo6UBgo73aCwq15Q2BUNhV3FhcKOkC+Hwo4QojMUdmVPdRR2IuJ2HDiLrftOa31Iy3lc5JosEpE9/DV7W8+wJFy/54ELN+3UymZBn1ZgE/F3X9s+OCE1T/uhj9Kx/6QJ1m07lKetig6FXfFQ2JHSQGGnGxR21QsKu6KhsKu4UNgR8uVQ2BFCdIbCruypjsJOYuf9EPOXbVDCTeRbWbUrbdl6RmH2ojVqrjx9vlGlsCseCjtSGijsdIPCrnpBYVc0FHYVFwo7Qr4cCjtCiM5Q2JU91VXYSVXctbvuuOcSirAyrIITYXffNVytFitz3unzjSqFXfFQ2JHSQGGnGxR21QsKu6KhsKu4UNgR8uVQ2BFCdIbCruyprsKuOoTCrngo7EhpoLDTDQq76gWFXdFQ2FVcKOwI+XIo7AghOkNhV/ZQ2BluKOyKh8KOlAYKO92gsKteUNgVDYVdxYXCjpAvh8KOEKIzFHZlD4Wd4YbCrngo7EhpoLDTDQq76gWFXdFQ2FVcKOwI+XIo7AghOkNhV/ZQ2BluKOyKh8KOlAYKO92gsKteUNgVjXvwYyw96oz7Ps/1/j7B0HPROhobz7oh9vEbfb/shFQ5KOwIITpDYVf2GLKwC3ucAeeARPg/fKe+94t+C9egx9px0xEUlwIH31hYOQbhnmsYfKNeqwUjQh9lwMEnVu0XmmsxCp/IV7jnFp6zkIS04RL4SO1v5/UQgXHv1f5B8anaMZ7AKzwJ97V2ZaVYr/AXqi/yfGDse+24cbC0D1Ar1PpFvym386ewKx4KO1IaKOx0g8KuekFhVzQPH73B/AP2uOoYX6ar1DN5E/ooE/uuBGCXsRdevEnV98tOSJWDwo4QojMUdmWPIQs7kWhT5yzF1Ttu6uvtB85iz9GL8I95pyTbsnU7MXbGAvwyYQbWbj2opFxAbDIGDhuLYaMnwz3k2cc3fYnp2HbgDBq0bAtbz2j12BWtzRnzV+KXKXMwbe5yHD5zVbVrq7U7Ydp8rN68Tz0+YuxULFi+CU5+H9+Y33UOxsqNezBm0mztuWnYtOsYQhLSyuX8KeyKh8KOlAYKO92gsKteUNgVTUZmFlYcd1IyyS9Gv6vJG3KcQ19j+TFnGN8PRdaHyv+ehJDKBoUdIURnKOzKnuog7ExuOeH4BXNs2HEE3pEv1XMBMe/gHvJU60MabDyjMHnmYtxxClbCbuL0BRgwbAzMH/iobd2Cn2DSzEUYPnqKEnayzbQ5y3Ds3A1VMWflEIiZ81dq/wbA1isag0eMx74Tl1X1nJN/PKbPX4GDp8xUW1LJ5xmWpCr0btn5Y+S4afDSvi+P86ewKx4KO1IaKOx0g8KuekFhVzS//vqr9nkxCgsPOuCGcyKr7Moh/rGpOGYRikWHHBAR/0rfLzkhVRIKO0KIzlDYlT2GLuwmzliIWQtXqyo3EXTZb4yDE9KUiBMBd9PGV2135barknGLVm7BQi07D51Tw2IvXrdRVXHT561Q29t7P0SfQSNx+ZYj7rqG4bq1N6bOXYaTxpZK/kllnQyFlWNJDp+9hmVrd+QZMivbmVq5YMDQ0XDwiSmX86ewKx4KO1IaKOx0g8KuekFhVzQi7J6/SsGRa35YeMgBlh5PEBifRnFXBgnVrqF39HscvxWmhKi5YxSyPvyq75eckCoJhR0hRGco7MoeQxd2oyfOwoChY7By0154R776JOtSVcXd4tVblYQbMGoS2vfoBzMrFyXslqzZjjMmd5Tos/eJwbqtB3HW9K4aAivC7p5zCH6s1wi9R4zDwLFTVCbMXgLzB95KxEmb91zC1LHkDbhU4i1Zs01V3B0xuo7Fq7Ziytxl6DVsDJq2aq8EIIVdxUNhR0oDhZ1uUNhVLyjsPk/Cs3c4dsMfCw7Y48jNYNxyewz7oJdwCn7N6BjH4Few8X+h5gXcbuyrKuuu2UXgfWqGvl9mQqosFHaEEJ2hsCt7KlrYvXqXhkNXfbHXzL/ChsSeuGiBNVsPYNfh80rWOfknYNDwcbhx31MNTfUIfa6GvOYWdiLf1mzZr+a9W715Px64R+QIO6nUGz1xZs58drkjc9jJ/HTX7rorWSeVfJt2H8fm3SdgZR+ghtvKUNswtbhFDPoNGlluws4t/C02GnnCxDqsQl5bgcKOVBco7HSDwq56QWFXMqTS7optBFadcMaCgw5YfdINa0+7M1+QFcddMHefHXZc8tTe5yXiXQplHSGlgcKOEKIzFHZlT7awk39lmEZ5I3/tPHc7RL25CopPrxBhJwtEeIY9x7ylG3Dy0i0l7Ib8MhGnLlvB2j0COw4aof+QUXmEnazietPaC81atcfWfadVdV62sJNhsmu3HcTMBavUgha37PxgaukMt+CnStj1HjAccxavVXPUnTG9i7FT5sLcxketRiti8LTJbTVkViReh669ykXYiSy0C3iJZUedcd+jYv4PkvvH0uUhZu2hsCOGD4WdblDYVS8o7EpOekYWkl6nwD/yOe66xeCWU3Sli5G5BwZNXo1pKw7ovS+Fxjkatt7xCI97hTfJaVxkgpAygMKOEKIzFHZlT1TCayw8aA/P0CcVIuw+fPgVNtqbqnn77WDtl1Suwk6q6fYeM4a1W4T6XlaGlXnpXAIfqeq68TMWYtz0BTC95YSLN2xx3zVczTEnw2UdfGLVwhQi6+65hKrH958wUfPeSVv+D9/h+EVzVU03fMwU7D5yQS0mIcJu+rzlOHjaDFNnL8uZG08q+aTaTqTguCnzMGX2x9VrD54yVRV7ZX3uoY8ycf5+tBoWIq9xRZCR+QFXbSOw7KgjsijsiIFDYacbFHbVCwo7wyIsLAwt2rXD5GnT9N0VQkgFQWFHCNEZCruy5+HjN1h+zAmOfokVIuwEmbdl8zl37LzspyYHLk9pV9ERYSeVd9Zu4Xrth3OovK7OOGEegLfv0yvkdU1Nz4Tx/TCsO+1KYUcMHgo73aCwq15Q2BkWFHaEVD8o7AghOkNhV/bEPXmLNSddcN8jtsKEnazY5RyQqKq/DlwLgkfkO7Wyl75lW1UXdjIMNuRRhpp8eeM5L2w444aQmBf4UEGv65vkdCUI95v5VIlV2SjsSGmgsNMNCrvqBYWdYUFhR0j1g8KOEKIzFHZlz9OX77HL2AvHb/hXmLDL5q57rBo+uf6sB644xME+8CVcQt/ANazqxsolGqu3n8Qtx4gKPa5cN1khzeheFJYfc8H6064Iik6q0NdTVgA+eMUXJy0C1dDnyg6FHSkNFHa6QWFXvaCwMywo7AipflDYEUJ0hsKu7Hmfmonzd0JUlV1FC7u0jCy4Bz/Gwau+amWvlcddlLzbYOTJ6Bi5brLAxKJD9jhlEagq6yqa+Kdv1Up3D7ziKvxe+hIo7EhpoLDTDQq76gWFnWFBYUdI9YPCjhCiMxR2ZY+IFQunaMzZa4tHSckVfnxZyet1chrCYl/innusWrTAzCac0THX7CJg5xOP2Cdv8S4lo8KGwWYj91FY3Et1HwU9TKKwIwYPhZ1uUNhVLyjsDAsKO0KqHxR2hBCdobArH3zDn6mhqQ5+ifruCqmiiKA7YxmEnZe81DDrqgCFHSkN5SHs5OfoQ+Z7ZKW/Rmbqc2S8jUH66zCDiK3VWTRv+g0un9mq976USd5EIONdHDJTniIrNQkfMir+D16VGQo7w4LCjpDqB4UdIURnKOzKhxdvUrH1vAf2mHgjOTVD390hVZAnL95j/n47tUpsWnqmvrtTIijsSGkoK2H3669ZyHgXi/eP7PEq5BgeO8xCou1EJDwYhVjLnoi52d4g4nuuPsxW/W+4n6ip976USSw6Ie52XyTcH6G9VqO1120GnntvwNuHV5H2IgAfMt6V0Z1WNaGwMywo7AipflDYEUJ0hsKufJAFAqw9Y7H0iCO8Qp9WieGMpPIg94u5kyx24QT/yOf67k6JobAjpaE0wk5+Zn79kImUZx5IeDAcUWaNEGn8E8LP/Q1hZ/6AqMvf46FZHSRYdMXjO4OYSphHVn0RL+LuakPttaqNyAtfIfT0vyHiwteIMqmDWMvOeBtzU3udM7TX+0M53IGVGwo7w4LCjpDqB4UdIURnKOzKj/epGVh53EmtGPvoeTKlHSkRInvD416qRUtOmgciLT1L310qMRR2pDR8qbD7NSsdyYk2iL3VCWFn/4DIi98hwaI7XjjNR2rIeeCRJ1MF8yHOAWnhV/DWazsSLXshyrgGws78O6KvNcar0FNqmHN1gsLOsKCwI6T6QWFHCNEZCrvyxcYrDsuPOuHc7WBkZVW/igCiO0lvUnHgiq+qrkt4VrWGgFHYkdLwJcIuK/0NXgYdRuTlnxF58Ws8tR6N9wHH9S6bmDKWd/HOSA29hOd2k/HQtD7Czv4RT90WI+1lUDnekZULCjvDgsKOkOoHhR0hRGco7MqXt8npMHkQhgUH7HHFNgKpVWQuMqIf3mj3y0mLQCw57Aj34Cf67o7OUNiR0qCrsBNZ98xzLcKM/opok5+V0PkQZ693ucSUp7hzVK9zvHl7hJ75A+LvDEDaq9ByvjMrBxR2hgWFHSHVDwo7QojOUNiVLzIMVhYMML4fqqTdcfMAxDx+gw8cHks+IfdISlomAqOTsOqEMxYfdoCly8MqNRQ2Gwo7Uhp0EXYyDFZkXeipf8ej230p6qpRfk30QFasDV65rED42b8g/k5/ZCQnVMAdWrHI+7LVa9ciKCgIqampeYSd5NiJEzh56hQyMriwVVWEwo6Q6geFHSFEZyjsKgaRL9fsIrHhrBu2XfCAvW8CHiclI5PDZKs16ZlZiEp8jYv3QpWsW3ncGW7Bj/E+rWpWYlLYkdKgi7B7F2uOsDN/QqJlT2REWepdIjEVH6m2e2YzEeHn/oJnHssr4A6tWJJevEDL9u3xc926WLNuHbr36oU6jRtj06ZNaN62Lb6rUQOOzs767ib5QijsCKl+UNgRQnSGwq7iSE3LhE/4M+w388GiQw7YeckLJtZhsPNJwMu3qfruHqkg5D6If/YO9trrfsoiEOtPu2LuPlscuuqHkJgX+u5eqaCwI6WhpMIu4+1DxFr2QOSFb5EWelnv4ojRT6TSLj3yBhJudUH4hX8gNcm3gu7UiuHDhw84cPgw/tvvfof/5/e/x7/86U/4f//93/E///AH9diEadOQnJys726SL4TCjpDqB4UdIURnKOwqFhn+KFV18U/fwsgqGOvPuGLZUScsOmiv/t1x0RP7TH1w/GYALt0LVUKPqfo5YxmE3Ze9seW8BxYfcsBC7fVec8pFfX/hbggefaq2rOorCVPYkdJQEmH364cMvPDfhdDT/4a33ruVtPmc2MmKd8OzgHt46HYT0fkS72WJlGinErXDVL7I65YSbITIi9/ikf0ENVTaUJD/DxIfPUK/IUOUoMudr376Cc6srqvSUNgRUv2gsCOE6AyFnf7IyPyghsV6hT3FbdcYJehO3wpSsk6qrUTw7DL2YgwgUlUpi0mctQqGmU047rrHIjrxtZq7zpCgsCOloSTCLuNdLGIsOiLq0o/4EOdQIqnzMsQGG5dMR4tmDdC4cb08GTagO3zvX6Kwq8KR++Dx3cGIMq2N948dKvCOLX9kfrojx4/jf//tb3mE3fgpU/TdNVJKKOwIqX5Q2BFCdIbCrnKQ9eFXpGdkITklQ60U+vJNKp6+fI8nLxhDSNLrFLx9n473qRnqtTZUKOxIaSiJsEt97q1WB33pshy/JrqXSOgkBVlj2pjBGNC7M0xP7cR1oz24pmXZvEno0r45XC3OUNhV8bwPPIWQk/8LzzxW4UNmSgXeteVPQkIC6jVvnkfYhYeH67tbpJRQ2BFS/aCwI4ToDIUdIaSsoLAjpaEkwk6ETJTxz0gNuVBimZMt7BZOG4W0GBf1mAi6G2d2oV+3dkrYpce6wNn8FCaN7I9vfvgGHds0xcXDm/A+ylFt+9T/LravnovGDevgm2/+gbmThuPQ5iWYNX4oJgzvizFDe2P62MHYsnwm7K+dwJoFk7Fi/iQ0bVQHLZs3xN71C/EmzA4fEtzxyOc2VmrP1a9XE3Vq/4TN2j6J3lbqOemrtNu0aX3U+vk77NCOKdu/DbfDvg0LcenQJjWEV7b1vXcRy2aNQ5jjVUS73sRqrU2P2+fUc6+kqnDpdKxfPFUN+30bYQ/jI1vQuW0z/FjjB7VfuNM1tW32dcqKd8edSwfVOcg+US43sG3lbJzctUqd/+k9a9Crcyu1/1jtfJ1unka6dj3trx3HKu3YC6ePRoP6tdBBO8b5AxuQqPX71K7V6hqNG9YHY7XMGDsEBzYuxu2L+7F89njEuJvnHF+u80M3c6yeNxGON07m6dvnIqvGRpvUwCOHachKf12Bd235I3PZWd2+nSPrpsyYgcxMw6rOro5Q2BFS/aCwI4ToDIUdIaSsoLAjpaEkwi7GvDVirzZHesT1MhV2gTYmGNCjAwb16ogTO1dizpRf0Kh+LSWwRH5tWjodTZrUw+alM3B4y1Kc2rUKD0yPwGjfWgzp21k9J6LNwmiPSo2fv0fTZg1wdOsyrJgzHnV+/g7nD6zH04B7Sua1aNEQu9bMw+6189CyZSOs1R57Hngfp3avRuum9bFu0RTsXDNXDePdvXa+Enrjh/fFqnmT8C7CXsmsB2ZH0LxhbXjePgd/a2O00vpw5+IBpEQ54dLhTfjDn/6Itm2bI8TeDOZan5o1rocFM8Zg/8ZF6NK2GZbOHKvOLfs6Zca74fiOlRjYs4MSZgum/oKxQ3rD/8FltZ2c9/ZVs3FEO6dunVph3Ih+qs+Xj2zGV1//HT27t8exbcsxf8pINKz9E0yObYGN2VGc3r0G3bXt27ZqrPa9Z3wIpse2qv4G2ZnmEXbyOjRrUAtXTmzXSdh9iHfC4ztDEX2tCdLfRlfcTVtBvH79GvVbtMBfvv0Wru78/WoIlIewk3kPY2JicObcOew/cgTHT52CnZ0d3rx5U2bHIIR8ORR2hBCdobAjhJQVFHakNJRE2IUZ/Sce3RmCD3GOZSbsXCxOK5nWrX1zVR0nokiqw8YN7YNls8fB6855dGzdRMm1tIfOal9ZyEKtUhrroqrgpOJMqtA+JHjg/uXDaNu8gaoyk+9Fas2aMBRTRg2ArdkxtGlWXwk/6UtmnCsObVmKXp1bw+H6SYwe3AuDe3WE+dndsDq/DwN6dcKQ/t0QYn9FHWP2hGEItjNTlWjGRzajcb0aeYSd1YX98Ll3EX27tlGyT0SZ3/1LWDx9NFo3rQeTo1tw99JB7XoMRI+OLRHhdK2AsGuj7TdmSC8M6NkBTjdPIUPro1wTqTZ87HtHXY/ZE4ehf/f2iPe8pYRdi0Z1YHf1mDrfR763MULr84o5E/A6zE7tt2TGGEwbPUi9FnLtLLVza1q/Fu6bHEaMuwUe+dzRroXbFwu7XxPc8MJpMUJO/f6LVosV0fHqXRpCY1+q1dx9wp9WumzcewbjZq+Gg3e03vtSWAKjktRUHllZH0rxW6D6UB7CTqoxLS0tMX7SJBw8ehRHT5zAihUrsGfPHjUfIiFEv1DYEUJ0hsKOEFJWUNiR0vA5YZf5/hHCzvwRSQ4zdJrf7HPCztn8NHasmoM+XdsogSXPvYtwUFVvUtUmEqxdi4aqci7/XHdFCbs+XdrAxuyY2ib1obOqppPKtctHt6BFw9qq8kzakki7Xds1h8mxrWjXshH+/NV/oWa9mqhVvxa+r/Ejxozoh2A7U7VAxh/++mf8VPtn/FynBr76/mv84+9/ySPszu1fr85zyqiBOLBpMQb17AgPq3MYObAH/l3bt4a2n7T7Y62f0Kt7e4Q6XCkg7P7yt7/g97//V1w4sAGpn1bQle2mjRmE+g1qo07DOvj7t/9Elw4tEOdhoYSdCMfstqTCb5HWh6mjBylZWZSw+1rrv5xHXa29H2r+iEXaNiLwmjaoqbuw0/qY7H8Y4ef+itfh50p8z2VkZiEq8TVOWQSqldqXH3PGikqaJYfssfCArd77UVTk2sk13HPZG+7BT5CazmG7xVGewm7nzp2qqi4rS7u/o6Iwbtw4REREICkpKY+4S05OVo+9e/cOL1++zFmpXtp58uQJ0tPT1WOyTUrKb3NDyuPymAzNlufl36dPn6pjyJyLqampedp6/vw5IiMj1XOyLyHVFQo7QojOVBZhl/7+Cd4+9WIYpgonMcQVZruv456Rpd77wlTeJCcFISv9XYH/Bz4n7FKeuiDc6K945b6qTIWdVNgd37ECvTu3VtVo8pzsI3OvSUWb4/WTaN+yIYz2r1PzvJVE2HVp10y1/1H+2WPVvIlqrjsZstqqcV1cO7UDWQnuSkqd3bcWnds0xW3tucG9O6l+SkVdnKcl4rwstXbvKfE1alBPjBrcE/cuH4LD9eNqTrv6tX7IEXbNG9VB325t0a97OyUEpQJvcK9O8Ll7UZ2LVL3J13Get1S7Mjde9vXILeykaq9Hh5aqL+6WRmqeOpnXrl3zhmpobaTLDWxdMUsNH84Wdh1bNdb6cV6d76tQW0wdPRBLZMit9nVRwk4q6WRYr4g+o33rULvOz2r4rxxfV2EneR94DBHn/0s75ukSve9IS8+CjVc8lh91wtrT7jhuEYobzgm47fkEdzyfMjrmlttjnL0TiS0XvDBvvx2u2Ebg1du00rw1NGjKW9iJhBOePXumhN2dO3ewdu1ahISEKJkmMu/ixYs4evQoLCwssHfvXqSlfXy93r59i2lav2RxExFs69atg6OjY85xpI3169cjMTFR7SNtr1q1ClOmTMGiRYtw/vx59bj0JyAgAKtXr8aMGTOwcOFCmJubs9qPVFso7AghOlNZhN3zCDOEWU9iGKYKx+fmHFzccBg39uzUe1+Yypsoh0VITgoo8P/A54RdcvwdhJ/7O954bS5TYSdz2DnfPIX2bZph9cIpSiCJhGrZuK4SSQlelpj8S38M7NFBVeMF2ZqqhRakCq8oYVe3zs+YMLK/tq0JLM7tUXPciWCToawi7n4Z2F3JMJFtQ/p01tofoJ7bsHiaGk5renwbIpyvqyGprrfO4onf3c/OYSei64//+R9qnjlZ4ELmkBNhF6z1VxaOaNG4Do5tX6EWqZCqOxnCmhzpUEDYDejRHvdNDmH8sD4YPbinGqYqwlGkogwZlv16dGmbp8Lu+x+/xer5k9WcdFIpKJV4Uu0n17s4YScVdQEPLuPotuWoXacG9m9Y9MXCLiX4DCIvfosX/ntK9L7DwS8BS484YudlPzgEvUJwYgbCn2QxpUjoo0x4RL7D2buRmH/AHmY24UhOoZwpjPIUdlu3blUVclL1ds7ICHPnzlXf79u3TwkzEXZSUbd48WL1/t/KyuqLhZ1U1YmQc3FxUftHR0er4/n5+aljLF++HHfv3s15bvbs2arqj5DqCIUdIURnKouwexx0CsG3hyPKcTHiPLcxDFMFE2KzC8ZbzuDW4eN67wtTORNmPRlh9yfi7RPPAv8PfE7YvYuzQoQSdlt1Ejkvgh+oaq91C6eoarFsYXf70gEl2mROtuRIR1w4tBEtWjZWw1Hr1K2hJJNUtolg8r1/Sc3pJkM4a9atiUm/DFDPZcS6qsUY5kwcrr7PFnYN6/6MWj99i1r1Pg4/HTG4FxK8rVRbsohD/54dVVs1tOOIsJN550SYPXS7iWmjB6JW7Z9VPxo1rqtEn8wLN3fSCLVqq0g2kVmyMERPmaPO+pIaMitz8MlKrLLyqpzfzbO7MXFEP0Q6X1fCTxa7EJEm7UoWzx6Pl7kWnZC+XTi4QQnFCOdrSjaO0foti0jcOr8PnTq0wE91fkajJvXVcWXlV5GZIuxq/PgN6tb6UWu3lhreOm/aKDzzv6f6IUNkNy6Zpq7ny2AbVaUooq5h43qoXf/jEFu5RttXzYGLxRk1t96tc3t1FnZpYSZ4aFofT5znffY9x6OkZCXrdpn4wz3iHcIeZ+pddhlSAuPTcfp2BBYcsIdzwKPSvkU0SMpT2DVr3RrNtLb79u2rqu1kOKo8J9Jtw4YNSsK5ubmpijuRcyLUduzYoYbISuWdyL3x48fnCLs1a9bgytWriI2LU3lgY6PmxpMhrvfv38eWLVvUwijZfTh16hSMjIwQFBSEWbNnwy8gQO0X/fAhFi1erI5HSHWEwo4QojOVR9idROi9sXgVb6vXfhBCvhzOYUc+R7z3ToTdn4C3TwpKuc8JO5mbLOLC10j2O6iTyBERlRRojedasuegU3OeRTrgsd/dnHnaRBDJ9663zqjqNqkOyz1nnWzv/8BYVadJpVj2HHQivZ4F3FeLJmQLu75d26ohriLTAm1N1L6525LFGETSSaRiLvdcbGkxzoh0uQ4X89OIdr2pvpdzkBVmRXhJP2U7qVyTYa0yR55sIwtCyGqu0gdpSyoApeov/dN5yOIRMhxWpJhUEcr+ufskX0tlnsg92UeO8zrUFvFeVqr/T/zuwN3yrOrT23B7dc4p2rUTYde7Sxt1XeR8pG3pT3a7H7R2RZrK9RdZl33tE7R2Yz1uIU7Ls8D7n87dRZ2HXJP88wV+XtiZ4qFpAzxxmlPsPfjhw69quKbMuWYX+FLvcstQ4xWVjO3Gvth8zh1ZH7gQRX4qakhsbmTeORmyKhVyItWMjY2VoHv48KEScPv371ePHTt6FB06dMgRdouXLEGX3r0xcsIEld6DB+OXsWOVsJOKvV27dinZl825c+dU++7u7ujSsyeGjhmTs+/UOXP0/pmDEH1BYUcI0RkKO0JIWUFhRz6HPoRdRSa3sLO7elzv/SnvSIVhtrALc7ym176UVNi9Tk7DLmMv7DLx4zDYcowMj7344KGaz+7Ji/dl8evDoNCHsMuet+7w4cPYtm0bvLy81PBY2U+Gtopou3LlCnx9fTF58uQSDYmVSj35WobfCrL99u3blciTIbAyb51U7BFCKOwIIV8AhR0hpKygsCOfw+CFXaIHbK8cw4gB3dT8c/ruT7kLuzhXXD25A8P7d0Wk840qIexiH7/BxrNuuGAdrXepZei57fkUS444wTf8WZn8/jAk9CHshNjYWAwaNEgNjX3x4kXOaq650WUOO6nak7ZOnjyp2pb58GbNmqUEnqwWe+TIEWzatAmBQUFKCrq6uqq57QipjlDYEUJ0hsKOEFJWUNiRz2Howk4N94xyQKLPbTXkVN/9qYjzfRtup843PdeKs5VZ2EUmvMK6064ws4/Vu9Ay9Fj7Pseyo85wC3pcJr8/DInyEHYi37y9vVV1m8iywpAqu6VLl8LExASZmZmFbpOSkoLjx4/j0aNHahtTU1Ml6bKRobBmZmY54k3+PXPmDMaMGaPms5PKumwRKCvC3rhxA1NnzsT4iRNx9uxZJQQJqY5Q2BFCdIbCjhBSVlDYkc9h6MKO0V8o7CpfKOyKpjyEXUmQxSEWLFigqucIIRULhR0hRGeqk7D7OE/Hr0jPyEJKWqaaUyX2yVv4RjyDu/Zm0sY7nmEMPrZaPEOeIiAqCeHxr5D0OgVp2s9EZtYH9fNRGkoj7NTPZmYWUtMz8fTlewQ9TIKTf6Lerxfz2z0TGJ2EiIRX6jWS36Nfcr9Q2DHlFQq7yhcKu6KpSGEn73+l0k2GqcpiEAcPHlRDXQkhFQuFHSFEZ6qDsJMPla/fpSEk5gXuecRiv6kP5u+3w5x9dtq/9mp+lWXHnLHyhCvDVIss1T5ALT7siIUHHTBnry02Grnhwp0QPPCOx8NHb5CWXvgwmc/xJcJOVg98/ioFDn4JOHTVF4sOOaifzUWHHLHiuIverxUjccm5Z2QC+ZXHnXHAzAd2PvF4nJSs5F1JobBjyiu6CjtTuxjYe8fgpMltHD5/M08uWTjCL/qN3oVXVQ+FXdFUtLCTlWAXL16shqzmXtGVEFJxUNgRQnTG0IXd+9QM9Ubx2A1/LDhgr944brvog4PXg3DVMR43nBNxx+sp7vs8h13AC4apFrnr/QxWnk9g4fYIF60f4ph5CDaf98KCgw5Yc8oFZjbhiIh/pZOIEXQVdmnpWUrU7TX1wdx9dlh72h0nLcPUz6aVxxM88EvS+7ViXsA2+57RXpNrjgk4cStM/R5dcsQROy554p57LJJTMkr0mhuisMuMc4PXnQu4dW4vnvjdzXk8Kcga5kZ74HPvItJjXZD20BlulkbYsGIWNi2bAe+7F9TjMg+czHfndOMU1iyYjDVLpuPGmV24eXY3TI5uycmVE9tUW1EuN3D/8iHVvuybEu0E11tn4HH7HLIS3JGqHcfDygjrFk/Feu04D0yPqMekT7J9gpclTu5ahcWzx+PA5sWwNjms2s59rJva8aNdb6oFNKJcPy4m8bH/Z9WxX4faqrb0fe1LI+wuP4jGjoNn0WvwL5i+ZC1mLluvMmnecgwdNw33XcP0LryqeijsikZfQ2IJIfqDwo4QojOGKuzkr4nPX6fg8DU/9aFSRMQJizC4hL2Bd/R7+Mel6v2NLMNUhoQ9zkRgfBq8opKVkDl0LUhVna495YLL1mFqeGphq8gVhi7CLuvDr7h4LxSLDzlg/VkPWLo/hnvEOwQlpOv9mjDF3y/yGsnv0fvah/Fdl/2w8KA99pn6qErmz2GIwk6EmYi2Gt9/jUuHNymRlRnvhmund+Br7bFNS2eohRksL+xHuxYN0UZLq2YN0KF9CzhcO4HkSAcl0OrWq6mea9eyMWaOHYJF00ZhRP9u+LnGD9pjjTBtzCAYH9mM66d3okvbpvB/YKyO9TzwPuZOGo6VcyYgOcIB18/sQlOt/fatGqv9av34rZJwsqJrjLs5Rgzojp9r/ogu7ZujddP62Kz1b/rYwejeoQW+++FbDO3TBQum/IK7xocwdmhvmB3fpkSgu6UR2rRphj5d2iDS5brBCLsNO4/AP+YdghNSVVyDHmPZ2h05wk7u+ZDENATGvUdg7Hv1b+ijDPW4JDjh43NB8SkFHpd/s3925LmQT4/J19nPf0yG2j8kMf3T8dLVNkHxqart/G19bP/Tc9o2sn92W2qf2Oy+/tZmznE/tSnbyff5+5Z9DNkve9/QR+nqGuRuJ/f+2X3OfR3kcQq7oqGwI6T6QWFHCNEZQxR2WVkf4BnyBOvPuGLxYSecuxcFvxgKOoYpaQLiUrHHLEB90DpwxRfxT0u2oltJhZ3MIXnpXqgaXnncIhQ+D1P0fs7Ml8VXe+1O3grD/AP2OGke+NlKO4MUdlFOWDx9NP777/4nhvTripchNnjsdxdjh/TG7/7937By7kQkeFkp+TZpZD8E2lyG5+3z6NutHeZMGgEv7etenVopcSaVdh8S3JER64oPiR546GaOAT3a49DmJciKd1fPWRjtQcM6P8H55im8CbfTtrmJ0YN7Yt7kEQh3uob+vTtjzpSReBdhrwTe7rXz0a19CwTbmql22rdsBH9rY60tD1UdKHJR2r12cgc6tGqMYDszJeOCbE0wqFdHXDy0EfFelpgxbgi++uYrJR3Dna4ajLDbtOuYkl/Z97RH6HMsW7czR9iJhFq2bgcat+2Epp26o26TFjhlbKkk1T3XUCxYvgkduvZGj35DsPOgkRJfDj6x+GX8dDj5J+S0a3zTDrMXrYZ3xAtcsXLG9LnL4RWepOSWmfZ9w5btsOfYJfhGvVLCcP32Ixg/bT46deuD0RNnqf5ky7Lz1x5g7OQ5aK0dd9TEmThjchsBsclwC36KPkNHo67WVssuvdC110AsWb1NPS77XbvrjqmztXugc0/0HfxLznmcv2qNOYvX5hF2G3Yexe4jF5SIO2p0HUvWbFPXQs7v2PmbaNmuM0xuOah9ZGjxkjXb0bXnAAwaMR6HzlxV15TCrmgo7AipflDYEUJ0xhCFncxVJ1V1MrzO3PWR3j/QMkxVjIgYY5uHai65vSbeapGWz1ESYSeLW8gw2CWHHXDSMhz+sZTpVT3BiRkwuhOpKu1kntDihlIbqrBbMmMMvvnmH6hd43u4mJ/GA7MjaNWkHurWrYFVcyci0MYUjevXQq3aP6Nn9w7o1rUd/vHd1xg6sIca/irVbbcvHlBSLrvdX4sRdn/9y58woF83TBo3FKNG9McPP3+H2ROHw9XiDHp3aYPzBzbkbG9jdhT1av4Ay/P7MG/ySMwYOwRvwuzynENxwu7c/vU4vmMF+nRtg2WzxqGjtk11EnYyl50INJNbjvCJfIUFyzfirOkd9ZxneBKc/RNUBdxNay+MHDdN2/+ZTsLOO+Illmrt9x8yGsfO3VDCbuaClRg3ZS5cAh9px3yJHQfOYpq2vW/UazgHJGKk1raJpRP8H77DDe24U2YvwY37XnALfqLEm/kD708i7SEmTJuvHc9FfS/Vg7KNVMGdNb2LyTMXqSo8XYSdvXZusxetRb/Bo3Dltou6PsvX78bm3cfh9/Ctum4iGO9p/1LYFQ2FHSHVDwo7QojOGJqwe/k2Vc2pJLLO1v9FzrAMhmF0jwyVlTnLZCGIq7YRSE4tvnqqJMLu1ds07DPzwboz7qysM6CIeN10zgubjNwR/+xdka+/oQq75bPHYXi/rhjcqxPWLJikxNaYwb0wbcxgrJo3CQE2JmjZpB7GjeyPoztX4eTetSr3TI4oUdezYyvcNzmsxFlJhN3f//afGDu8HxZrx501aQR+rvUTZk4cDmfz0+jbtS0uH9mshrFKFZ3d1eOo+eM3aj69eZNGYq623bsIhxIJu4G9OmLD4mno1ak19q1fiKsntqNT6+ol7LzCkpSku/nAq4Cwyx2RUqMmzICtZ5ROwu7iDVvteLtUu8fOXVfCbt7SdTh85mrOviLaBo8cr7Ubg4vXbTFr4WpVUad+9h6+xZot+3HgpIkSfNnCLjQxHRY2PpgyeynuOocU6O8D9wiMGDtVnVOJhZ12zD1HL6prNm3uMnUedt4PMWP+StxxClb7ibxcvHobjpy9RmFXDBR2hFQ/KOwIITpjSMLuTXI6jlz3UxVBN5wTvuhDJ8MwBXPZJkZJOyuXh8jIzCryZ7Akwk4+uMkCExauj/J8OGSqfu75PPt4n7g+VKv/FoahCjuZP27OxGEw2rcOf/zDv6HGj9/gwsENStyJsJMhpaMG9VDz0IU6XFEVbo9976j550SMSfWaiDFZtOJFsDWeBtxDZpxrkcKucb0a8L13UUmzZ9q2E0f0w/zJIxHpfB0jB3THnEnDtfZv45EWabd3l9ZKxB3asgQdWzeB262zauEIOZ7MrydtFybsWrduiv/nd/8Ds8YPVduKXKxuwk7k2+JVW2HrFZ1H2EllmrG5PeYt24C+Q0ajXqv2qNWgMR64hat9WnbuqYamNmrfRaV205aYNGNhLmG3TFXlifiy09peumY7jhhdU8JOjnHa2DKnT17hLzDklwmw9YzG3mPGWLftUM4fJEWibdhxBHuOnFfVd72HjELNJi20Y3ZGux79sGrTXrgGPoZv9BucMrbC9Hkr0GPAcNRp0QYttX5JhZ8Iu7rNW6t9futvqzzCbvHqrTCzdMbsxWvVENjp85arobyW9v5o3aUX6rRsm7Nvs049VAUfhV3RFCXsPmi/O21tbLBmzRqkpqaqx7KysrB3715cvXoVpqamqNmwIZp36KDSsFUrdO/bF+Hh4UhKSsLSpUtx4sQJTJgwAb169cKePXvw9OlTNRdtVGQkNm/ahO7du2PgwIE4f/48MjIy8OLFC0ydOhWN27TRXssu6NGnDzZu3Ihnz56p479//x6LtHbrt2iBlp06oY0WFxcX1WZAQABWLF+Ozj17Yv78+XBxdlZtBgcHY8OGDUhISMg5N+n7oUOH1NfXrl3Dvn371NfSjr29verv3bt31TWQY588eVL1c9SoUbh48SLevHlTES8NIeUGhR0hRGcMSdgFRCWpYXanb0fo/YMrwxhSPKOS1eICG8644XVy0QsLlETYnbsdjI1GnnANe6v382LKNl5R79XqsQfMfIsUu4Ys7GQOOZkbrm3LxujWqRUCbUxyhJ3IsSsntqN103ro2bWdGso6bEB3nNqzGi+CH2DXmnlo2KAWRgztg1+G98P6JdPxUntcV2EnIvDy0c3o0LIRhg/phWGDe6Fpwzo4u3ctUqOdEGJvpobMyuIR48cMVtvYXT2m5rIrSth9/f038Lx9Tm1zp5oJO/mjgki1Fet3q8dzCztr9whMnL5AVciJPJOhsYNHjMMD9/DPV9jddlFDVaUS7cRFC7VARG5hN2vhKuw8dC5nXxFkQ36ZqITclduuSvzJ8Fh5TkTcig27VUVb7go76btnWJKqxjt4ylTbzw0TtP5aOQSo5247BGKQ1t9sYVdchZ0M1RWxOHfpely/76kqA7OFnYNvnDqvO45BBX4nUNgVTXEVdk+ePFHyKzo6Wn0v8mr27NmIiorClStXlIQTiSZ5+PAhli9fniPsxo0bh8OHDysJFxsbixUrVsDExES18+rVKyQmJiqh5uvri5kzZyqZJ9suXLhQyTeRZyLGli1bpuSZkJycrI7p7e2NlJQUrF+/Xgk7eXzVqlUwMzNTj4t0W7t2LeLi4nQSdnJ+0s6iRYvUMaV/0uetW7eq/sXHx6t2bWxsyvMlIaTcobAjhOiMoQi7tHTtzfD9UCw94gTn0Dd6/+D6pfHR3oDLpNPL1u5Uc+b8lp3qjbPMPcOqJKaiEyofWl0Ssfiwo/YBNLHIn8OSCLtVJ5xx4GogAuLS9H5eTNkmOCEdp6zCsfK4M9KKmMfOEIWdiCwXi9NwvH4Sb8Pt8cD0CGyvHFOrv8rCEDKvXHqMi1pQQua327NhEZbNnYjju1Yh3PGqEnEi7SwvHsC6pdOxfukM2F49jjRtHxFwVhf2w8/644qwkmjXG2rlVhF18n2K1u4D06NwuH5Ca8tNHVe+3rBsptbeDFhd3K+q6GRbeV6k3cGty7F83iQc2r5CVeLJ0FmpzpP59KQvsm1SkDWundmN25cOqP7LYzFu5ripbfMqxKZaCLuguBRsP3AG2/adVlItt7C75xKqFoUQgSaP79X+727TsVtOhd3nhsTKwg9zF69TC0LI3HC5hZ3MYdd30Eg88IhUc+ItWrVFDXuV/ohgGzNpNo6dv6FknSxAMX7qPNxxCikwh53INJkL76jRDZhaOmHijIWw1vrnHvJUa+8AuvTsXyJhJzKwrXZuqzfvV0Nwcws7GZq7fscRNa+dSEupBrztGKT6TWFXNMUJu8zMTJw6dQqXLl1S1WYPHjzA5s2bkZaWpoTdgQMHcrZ9/PgxVmrv5bOFnUgveU8v4k32NTc3x5YtWwoc4/nz55g7dy4iIyPzCDvZRwSZCMPszwavX79WbYSEhOQRdiILRSQ+evRIHU/E27p169RzJRV2IueMtfM8c+aM+l6EnRxDzlfOW9pNT09X10MqBwmpylDYEWyqh6MAAIAASURBVEJ0xlCEXeLzd2oolqw4GRSfrvcPrl8a+et5R+0N9N++/wl1WrRFvVbt1JCaf9aojRZtOuKu9gGBwo7RR2QRit2m/th63gPpRVRPfU7YxT19q1aGNbobWS73cXB8Kpz84rUPpBE5kWFsMjE7f27KP3KNrzrGq9dYpEhhGKKwyxZpJY1UyWVXy+V/Tuadyyrk8dxyTLVRTPs52+RrK8/++fpQ1Hl87jiVKToLO5tonLhkoWSUrHyafR+LwBJRJYsrnL58GzPnr1LiTe5vkVXb9p9WFXLy+0ZkWe8BI9QCDDIEVOSfo28cXAMfqTnfRIxlt2v+wEs97xv9GrdsfTF60iy1YETY4wy1CMTOw+dw8YaNEnYLV2xSonDSzEXo2LUPVm7cq8SY9EGJOK1vc5esV8Nup81bruajk8dFlk2cvQQN2nZEw3ad0aH3QOw4aKQWhvCPeYcDp0zRpUd/jJ44Uw3nXbvtoJJ+snrspt3H8/yelDn05PxDH6XjtMltDBk3TQlE2Uaq+9ZvPwxLOz/1vQjHI0bX0XPgCLTt2lvJO3cKu2IpTtiJpBIZJtJMqtVEkDk7O6vHPyfspDJOZFl2O/fv31fiTMSYu7u7qlobNWYMmrVvj0ZNmiA0NDRnSGyj1q3RqnNnNdR2z969qtJP2pA+iIiT73MLO09PT/ztu+/U9rKfZNDw4fDy8lJ96N67N5q0bZvz3E/162PX7t2qbyLsZJivVO3t2rVLHUOq+ETYvXz5EoOHDUO95s1z9m3RsSOOHj9eIa8NIeUFhR0hRGcMRdg5+CZg/gF7WHo80fuH1tJEhF2vAcPVMBl5cy2PyV+3pQqgeasOauJo+TBx2dwBZtoHhq37TmPz7hO4pb1plr+8yxtneeMv36/dfghrtDfUsrKdvNGXITvyJv+s2V2cvGSZkzMmd1QlgXyIMLNywdU7bth73BirtX3lQ4nIDtnXzuuh+mu6fGDJ/mAgQ4GsHAJVdYK8YZc3/et2HsWqzfvUinUfP2BkwMYjSrUtVQiyr3fkS9Uv6c/HPqfCVGt7zbZD2LLvlPrwIceUDwWXbtjl6a/kitZHuRYyH0/ux6VKQK6hfAiSv/BLv+T6SUXBOe0516AnavLuC9dt8py/DG2S7dxDnmkfYhzUNtIvmbRbJtK+fs9T+8DzVmszUA0HCohJzvO6yXmYWjqr4UfZw5DOmN7Bcu06yIceGaZU1YVRSGIGzt+LwvKjTohKeF3oz+HnhN3HFZydYOFW9qs3f1wRMUat0linSQvUbvwxbbv10V4/jyp//atKrLTfwVKJGRSdVOg9YIjCjqkc0VXYmdnH6v3npbBkC7szJrf13pfShsKuaD636IQItm3btql55mRYa/Z8cp8TdlI15+rqqkSbzH0nw1V3796thscuXrwY1tbW6nGRb1OmTFH9yF1hJ0glnxzjyJEjqh8i1aTiTYbA5hZ20uaCBQtUH/JTkgo7aVOOI0Nd3717lyPs5Bg7duxQFXYfipgPlZCqCIUdIURnDEXYXbePxPozHlV6OKykJMLurlMIGrdoixr1GqFJ87ao07Apmnfoqv66L5Ngi5Br0bEb6jZqhnqNW6BWnYY4ePqKEmrHzt9ETe3xHn2HYOCwsegzcAQaatvIX8ptPKPQrc9gfFe3gWq/rvZ4w8YtsevweSWo9p8wwZCRE+DoF6eGBkkFQg3t2DIZt0jEk5duoYG2T73GzVGnQVM0bt1BDdkRaSdtDB4xPmdOIBlK1LlHf9Uf6Zf89b6Wtl/9Ji20fZugV/9hqppQRF+Hrr3Rul0XDBg6Bv2HjEYjrW+DR09Sw48Ga/1p16kH/vlTTfTsNxTjpsz7OL/PzEWqXyL8pNphxIQZqKldL5GEly0c0KRdZ3Tq3g+9tWtdQztepx79YGUfgKt33dGmQzcl7UQYqmFKa3eolf/svGOwcOUWjBw/XXud8gonqdCQvlnY+CqRuWTNdtTVrkHDFm3wc72GmDx3mZJ4+r6/Spvbnk/VsHNb7/hCfw71Lezk+jdu1gazl23AwXM3sGDNNnyr3RtSScIVoysmd72fYelRJ3iFPi30HqCwY8orFHaVLxR2RVOSVWItLS0xdOhQNSedDAsVPifsfvnlF2zatEkJuYiICCXpRILJfHgi5UTmiRyTdnr27JlTYZd/DjsZAiuLPsg8eQcPHlSCTeRZbmEnX8viGNK/7Lnw5Lyk/ZIIu7FjxypJJ0Nupa1sYSeSUJ6XufmkPemP9F+G3hJSlaGwI4TojKEIu20XPbHH1L9KD4eVlETYyYTRP9aoo4bByPYiv7pr+wz6ZYJ6vteQURj4y0Q4+sWrYTnzl21Uc+Xcdw1Xw2GatGgLcxsfVSknK8716DtYzZMnwwflGP20/W3cI9XcNzIvTsdufVQFmQyr6d57kNpHqsmat+6AP/zXPzBz/krc044rwkwm4JZtZUU6mdy6e5/BqnpNhgF16TlAVaupya4dg9CwSUscOGkCa61fIu+mzF6izkUq8Vq27awm0ba089e+7oQte0+pqjyZE0fm9pE+2vvEqDn/9mttNG3VTlUVyjWTx0aMnapWwpO5iGSenr9/9wP+829/x8XrNmoIk4jOE5duqYq7U5etULtuIxw6fUXJvJ9r1cVp7TE/NU/PC0ybu1yJTZGH8rVcLxkWJBJThkTJ+Yg87NC1l6rkkvZbt++iVvGTSkGpgmzUrLWq8KvqVV7+salYfswZJg/CtDfuvxb4OfycsPMMeYJl2v73vJ+Ved9k2JZc42baPXxFu4dE0F26aa9eTxF28nN0S7uffpkwA9/XrqfE8gbtvpQ5n+SeWbFhjxLLUgUqVZfTtftaKlnl50gEbKOmrfCt1pZMFC+TtUvlqGwrqzMO1X7eRoyZiv7DxmDficvqvpPHtx84+7H6NFb7wHPKDKMmzVYVo0fP30SzNh3x1+9/VFJ9y96T6l6Te1zue5Hdf/vnt9p9PE1JSGnjpPEtzFu6QQ3Tk/tIqkbnLlmHi9ds1O8BEcsyJE3OW/q1addxjFcTzAeqn5uVm/ZiyKhJqgJRRPdsbd/sCteyfB1s/V9g5XEX2PkULnUp7JjyiqEIO/m/Z8ueEzC95aj3vpQ2FHZFUxJhJ8NiZWEIOzu7nEozGeJqbGycs43MRSdCTardRNiJoDt9+rSqnhsyZAhu3rypZJgIP6lYGzlypIqVlRWOHj2q9hNhJkNes4ef9uzTR1XXSdvnzp1TQ1ZFwgmycq3s5+fnp+SeiLrjx4+jX79+KvK1LG4hC2QcO3ZMPZ+NyLjLly+rr6UvEydORExMjGpHqvqkmlCG/maLQdlm8uTJ6NijB5YsWaKuGSFVGQo7QojOGIKwS07NUJOcn7gVpvc3p6VNSYVdw6YtceCUmfZBPk0NWV2+fpeal0Ymwu7Ytbd6sy/PyYf3C9ce4OeaddW/IreatWqv2pG2ZaimVLNlC7tO3fpglcyVox1bJIEMjW3aoi0sbHxyhJ0MmR0/db72oX+8Elkz5q3ApRu2qNewmZJeMheQ9PnwmSuqL1LVVpSw23/ispqI++taddG4TUf0Hjoa3bU2v/mpppKFIsBatuuMnYfPq/7INRFJ0X/IKDWnkBzn6Lkban4/qd7L/rAjwk5WtBNRI8/JfD31tf5lC7ua9Zugz7AxGDtjIdr16IcGWl/MH/hofXXC19//pKTnpLnLMUHmAtLOv3u/ITnC7oeadTBy8hxM1s572cY9sLD1xZ6jF5Wwu6b1V+YB+q9/fovWXXqp82mtXYM//fW/lAwyhCqvDWc9cOS6H5JTMgr8LH5O2HkEP1HC775P2Qs7uT/2Hb+sKi5F/OYXdvKzNXD4OO116akk7hztPqrfrDXWbT+s7qVBI8Zj6pylMLpyDy06dMOCFZvhEfZcSa2la3di1aZ96uesYdNWagVHkXAuAY8waNhY9NdeZxFttRo2VZPDy7FkwvkZ81do92wyrt1xRz3tWH/97kf1MyJCcM7iddi+/4zapmadBtq9aauknRxD2pIJ30WuT5y2QE1KL5O6i7yWn105t5sPvNG2Y3d176nqWO1nU6RjgNYvGer9XY06+Fq7V+VnU1ab/EH7fpJ2fjJ5fj+tv606dVdtlbmwC3iBlSdcYFdEFSaFHVNeMRRhZ0ihsCuakgg7f39/NWy0sCGnhSHCTqrSZHEIQkjlg8KOEKIzhiDsHr9IVsLuonW03t+cljYlFXZSsXVYJspOTFOVXqs370PXXgNw2thKSbdd2gd0ee6jtLDD9z/VhJHZvc8Ku87d+6lJqGUYqwg/GUor21s8+CjsuvToh4UrN6Ndp55qCKyskCfCTuaEk6GsJy6Yq/4qkWZ0XVX2yfGLE3YiEr+vWQdDx07F4nU7sWTdLizfuEcN8ZVhql8i7IaPmYLhoydj2KecNLZU1y9b2P1Qqy469R6I4RNmoPuAYUqYyPmI2Pn6ux/Vwh/y3NBx09Sw3y65hJ0MrZ2xaA3Gz1yEhs3bqPalmilb2Mnw4h9r1lXP55zP+t1K7FX1CjuJVLIeuOKL1+/SCvws6lPYyT27butBNdxbfo5yCzu5B+W1r1W3EY5r96jcS1KFNmXWYjXUWuYm7Df4F7Ru3xVNtNdUJm2XxSuy5zGUbaXiVOZs7Krdx0NHTVLDrUWUydBqqQC184pGT+3Y8rObLeykylMqQUVwN2rZDvWbtlRVcCL7pLLvrvbzIHL951r1tLbt1P0sx5Jh3CKrB4+YgN79h6vh2CUTdrtV5d2g4ePQRPu5rVm/sfr5kuo7+dmVeShl37XaderQpVeVFHbhRn/FM5vxeOO5hWHy5IXjPERe/JbCrhKFwq5oihJ22XPPyXxxsijDhQsXcobDfg4KO0IqNxR2hBCdMQRhF5nwGiuOO6vVCfX95rS0Kamwq1GnPhau2qIqb+y8H2Lk2KlqfjkZQirzsk2csVA9J0PzpDKoRZtOsLT3x4GTpsUKu1btumDUpFkfh7Vqb7ClCqlT977qg74Iu7/942v8/atv1HBPWaBBjiNDYm/bB6jt5i7boESEHHfu0vXo2mugknMi7GRorVTneYYnqXnmZO49Oa+b1l5o3rqjEoFy/iIspA2ZF0/kw5cIu37DxuJ//tu/o26DJrhl64cb9z3RonWHXENi2+CUsaU6BxFpIj6WaNdchlTmHhLrKUNi5+UdEtu9zyB1LJEqi1ZtVee1cuOeT0NiPXHigoW63ruOXICndh3kPGSIsAglfd9fZZG9ZgHYb+aDl28rl7CT6rQps5Zg+Ogp6h7KLexk5UUZkipzLEq1aPbiLNmi+/pdD/TQXuP/+/f/G3UaNVdiWfaX7YwtHNBF2+bH+o3wo3Y//eEfX2HgLxPUMWRouUg+ec1lwYv8wm6S9vOxcedRVZm6+8h5VQUrwk6q4ESayfyJMiy278CRavi0DLXt3ncovqvXED81aoa/fPO9EpC22s9fSYTdwhWb1TyLcr9KVZ38rMsw78sWjvj+59r4oXZ9NXdlI+3+b9aha5UTdm+jTBFx/m8IP/d3RFz8nmHy5sI/tXvjP/HMffln3jNQ2FVUKOyKpihhJ8NBnZycMHz4cDXfm8zfJhKvJMhQVJkHToajEkIqHxR2hBCdMQRhJxPZi7C76ZKo9zenpU1Jhd0/vvkO3/5cCyMnzkK/4WOViNh95CJ8o9+oD+pNW7bDsHHTMWLiTDVX16pNe9U8XTKHXXHCrnGLdvjb199h0KiJqrpMFqhYsm6naleE3X/8458YMGwMHHxjVWXfxBmLlLBzD3mKzXtPonaTFhii7TdC61fjpq2xbtvhT/NpHcP3NWqjc59B6D9yAjpp//6vP/8FnXsPVBJNVrqtVa+Rem7yvOUYPGayqiAUcfIlwq6v1sff/+VvWKGdt+wnq8bmFna16jfBgF8mYsKsJejSd4iqDsyusJNqp/PXrJUUEck2a+GaPMLup9r1MGb6AgwaPVktzDFJuwYyB5kSdvc9VWXWqClzUadpS4yaOhfjZizE8LFT1eum7/urLHLKKhzbL3ji0fPkAj+L+hR2UgHXd9AvmLVotVoxOa+ws1XDUOtor3v2AhQylHzWwtVKiIm07aPdU/WatlL38MwFq9TPhtxvQ7XXuUOPfris7SfyWYZbD9PuTxGEsmhK207dlRAWyZ1f2DXT7rmWHbpi9eb9SphLdZ4IO6leFaltaR+gRKIMJxcJLsO45edT7lNbT+1+m7OsxMJOKlhFHsqiKVK5Kis6N9faMr3lpCr65Jx+/Lk2Zi/S7udBI9GqY9UcEht+/is8916PtzHmDJMnL4MOIcq0NivsKlEo7IqmJENiCSGGBYUdIURnDEHY+UU8U8LOyuOJ3t+cljbZUk2qYkQ0yWPZH85FmIkYk0nka9dvjDGTZmPy3OWYNHupWqVUBIJ8+JaKrhMXb6lhfTJH284jF+Ae/FS1I4Jg+4EzqvpO2hYRJ1V3Ms+cVNG179QTg4aPx/SFqzF2+gK1r4gLEWPShxWb96uKOJngX6SDrO56/up9JQTk+AdOm2H8zMVKUomIkAo22VaG9y1bvwvzVm7JyYRZi/Fz3QY4YnQNnmHP1fDbSXOXYcSkWVi+aZ8ScNLvnYeMVCWTDE2UayJzfR06c0VdKzmn205BSmjKseScguJTcejsVWzed0pVwck1Ebkn10+kmywYsXbHkZx+yLBVkXh+2rWQKqmNu47hgXuk2k/m45MhhdI3WeXV6Mp9LPi034LVW7Hj0Dm1CIdU8e0+ekEtUCD9lMc27z+NMdPmq+u4TbvmMvG/vu+vssj5e1HYfM4dcU/eFvhZ1Iewk/tLXmd5jURW7Tl2Sb0G+eewkwq2tp16YOzkOdo97K2GXMviJiLt5HWXOewma/ek3I/NWrbH0jU71H0jC5zIsNQb973U/HM1GzTBgBHjYGnnh3FT5yqZK4KuMGH3u3//A/oM/kUt4iLHF2Enqysfv2ChfiZstfvx/FVrtaDFCu3nY9yUuejWayCu3XVX953MrZhb2NXRfu5lLkQRelv2nETN2g3UXHjX7nqoofD/7//6V0yYtkBVx4qkFmEnP9t3HIPVuc5ZvPbjQixVeEhsxKUfkRx/V4f/IUh1Ie1lMB7eaENhV4lCYVc0FHaEVD8o7AghOkNhV7kiH55FSokgy/4grcTRJ1ml5n9zCETj5m1UpY5IJlkgQqRF7g/eqoJIe1yqiLLbUvNxPfqtnfzHE9kk81zJJPzeka8+7Zv2277aNiLDshdO+LhvWp5tpJ3s42b3KftxGYKYOyILpGJIziN7vj2p2vOLfpuz+mr+6/HbtUj7zDml5dsmQ20j/6qvtfaz+5F73+znsodDfjzeb23J17+dQ6q6Jrn7kH8/WYk393XU9/1VFqlswi4w7r2qcPy+Tn01HFZkafZrbnbbRd1jMgRbXsMzpnfQqmM3fFe3IX6o1wijJsxQYliGPo+bOg+LV21VYvbgKVM1fHXPkYtKsEnl3Xd1G6BOs1aqom7SzIWYsXAVGrZsh/3HL6vXXiorZe5EGeoqwkwWsKjfuEXOCrUydF0WapHqN6mk+147vuRbrV2Re/ecQ5W8q9ugmXpM5kqUPkgfpXpQhPNX3/+Eb7XzlP2+qV0f//HV1/jPr79VslgqX1u174I7jkHq3GXVZBmKe+7KfTVUVhbGkJWipS+ycnH/IaPVkHMKO2IoVLSwk/8DZCXoph26ok7Lthg5eTZcAh+r3wUDR01C3Vbt0LhdZ3TvO1hVvkvFtvxumLd0vaqKlTbk/0sZxi6/E2S/Zet24qzZPfX7Sv4QJH9AkuOI8JfqWCf/ePX/z+EzV9Fz8C/o0X+Y+lr+75T2ZLEa+WNEdh/lD3HSpqwuLX80WrJmm/rdIM9Jf1ZvOaD+iCHPyTaTZi5Cs3Zd0FDrd9P2XdUfMOR3xpdeIwq7oqGwI6T6QWFHCNEZCruql2xhJ8PxSvNGOn+cPgm79TsOKwlS3ufh7J+I6XOXq5VZQ8vwPJjyTWUTdmGPMlQlnMyPKFWWuQWUfBh28ktQ/yqRqm0r8yNeveuuhqhmzysoP0fyQVoqPbOlrWvgI3WPyvBaW69oNcRUKvmkglUqP+WDsEg4+WAtbci/2W2IoJVqWJeAxJyfUfnQLd9/lOzJqtrV+Ka9+vAsFarqXLQ+SqWeiEapBvWJeqUd64lqW44rlYDquBLPaLXITI3a9dWci1LVJ8fPFurSprN2XbwiXqjrI/3Kvjbe2mOywq188KewI4ZCRQs7+TneoP1/KVXmUgU+b9kG9bMmP6dSzZo9fF0WlxkxZor6V34mJ0ybr/5QIL8nTl++jVETZmLq7CXqZ9Re+50yRftahuBfve2qZJv8LpA/JsjQ/eyV32XlczmOiDYZOi9zsspzssCMTBOR3UcRfTIcXgSh/O6bPm+5qu6V30uyWJSsxi7V+vL///zlG3HwtJn6vSD7ivyTP1hQ2JUPFHaEVD8o7AghOkNhV/UiQ1Q37T6mhsZmfzgvi0hV3c6DRrhi5ZIjIcoz8iFAhtHKBPyGUn1WHVLZhF11jfzMyDD1+o2aw+jKvTL9XVCaUNgRfVHRwk7+/5IFh2Tu0qKEnfw/J6JNFmgS0Z5b2Mn3S9dsV1NayB+vsv9gIFNiiKCT6vMZ81eq+S1ldWv5g4OIeKm0k1Xfs//flAo72V4quksq7KSfsqr0sfM31NB+EXYLVmxSgk6mypC2KezKFwo7QqofFHaEEJ2hsKt6kTf0UvWTe9hsWUStnKnaNZzhm0zZh8KuckR+RkUYXDZ3UMPwKsvPLIUd0RcVKezk501kmBpu6h1TQNh17TcEtZq1QsO2ndCmW2+18JJM95At7GRFd5mPct/xy7hy2wWTZy7KqYL1jXqNtdsOqTktm7VspyrupLpXjisrjw8aMQ41m7RQw1Yl9Vq2xfxl69V+MxasUkP+s5+r3by1WjQnt7CTKQJkjlmZz1bm4pRh9/KcHEMq7uo0boEGWr9rN21JYVeOUNgRUv2gsCOE6AyFHcMwuoTCjikuFHZEX1SksJM/nJ24ZKEWg5GVyYuqsBMBJ8PVZQjr+asPlLCTeeL2nzJVC9RIxby5tVeOsJPpIWQRJKmqO2NyWy0qs2bLfvV9YFyKGoYrC+XIYjKFSfrPVdjN0r7ed8IYc5euV/PWPnALV8Lu49D7VCxfvws7DhmpY7HCrnyhsCOk+kFhRwjRGQo7hmF0CYUdU1wo7Ii+qChhJ6JMVluWoamykI1P5Cs1x+XshWtg6xlVQNjJQhGysIMMYxVhN37qXAwfPVktSCPiL7ewu+sSohaluOMUjOt33VUFn1S+LVq1RQ2Llfk1Ze7KidMXqGG1UlUnc2OKfAt7/Pk57GRxi4HDxuDcFWt17GxhJ8+JdJSqPmlL9qWwK18o7AipflDYEUJ0hsKOKcmHE5mEWua4k9U0pZogezVUmU/HK+Klei57Anu12mtscs7qq9mrtspj2fvJsFuZJ0fa89E+cGSvwiofRuTDjwz181fHSc+zv0SOJ9tkrySbc7z41DwVB9lDfGUBjcoyXNAQQmHHFBcKO6IvKkrYyf9tKzftxd++/wk1m7ZEvdbtUaNJC/z9p5qYPGepEnZ9ho5GnRZt0LBdJ7Tr0U/NFyf/r0lFnazuumj1VvX/k7R3y9YXsxauUvJM5qy7fMtRVdqZP/DGmq0H1P9tUqUn4k3my5NFdGS16QFDx6BRmw4YO2UOrt11V/8Xrt68HycvWeb0VUSdzE0nC+TIQjiDx07FlLnLchaWsvGIxKQZC5VolPZlVens+TC37T+NAydNKezKCQo7QqofFHaEEJ2hsGOKixrO45+g/ir/U50G+OM//okBw8aoN/n3XcMxcuJMfPNTDfxUu74aYuMa9HEeHPnrv0yYLaJNpNvJS7cwedZiVRHgGZaELdoHgeZtOuLPX32DZi3b48L1B+oDydJ1O1G7QRP813c/okuP/jih7ScfTuRDxPBx09B/+Fj8ULMuatZvgoUrNqtVQaV/k2cuVqvbyQep7L77PXyjPuwsWbNdrbap72tpKKGwY4oLhR3RFxUl7GTFZ5FgstJ07selQk2GuZbl6u1VPRR2RUNhR0j1g8KOEKIzFHZMcZFqulWb9qmVKFdu3KtWo9t/0gQ2HlGYOX8l2nbtjZ2Hzqn5dRo3b6Mm0b7nEop2nXpg856TqjJAPrzINl169lcfaETkNWnVHpNmLcZR7WuZdNvaLQKb951CnaYtsXDVVvVXfZlYu1O3PrjtGIQDp8zwj29/QI9BI5WYW7RyC2rVbYQ9Ry9q+4ajY7feai4hqfLL7rtU4U2dvRSjJsxUlQ36vpaGktIKuyWHHXHROhr3fZ4zBhgT2xgsOeJEYUcqHAq7yhcKu6KhsCOk+kFhRwjRGQo7pqhIdZ0Mo5FKtwXLN8Ev+s2n4azpuGXrhwYt22Ho6MnYd+Iydhw8i5ZtO2P8lHm4ae2NNh27Yc7Sdbj5wBsWNr5YuHIzOnTphev3PFQ1XJeeA/DAIzJnSKu0PXTUJAwfO1UNGZKqPFNLJzRq2gp7jxtj/wlTNGneBuev3lf7yNAe2V7m27HQPiR16NoLMxeu0o7tBSv7AHiEPVdDZynsyj6lEXY+4c+w/JgTFh92xLJjzowBRl7bJYcd4BzwqNB7gMKOlBcVN4ddBpz84lX1d+7HZRoHWXSCUzD8Fgq7oqGwI6T6QWFHCNEZCjumqMiHDqlua9ystaqcy64aEMFmcssJP9ZriK9r1UX9Vu1Rv3V7NG7bSVW+mT/wQbPWHfCnf36D7+o2xHfadv/59bdo2KItrtx2xYixU9Uk1x6hvw2L9AxPQu8BwzFvyXo1iXbOsZu3wfrth7H/hIkSfjKnj2wfoH1Qmj5vBQaPGK8kYNtO3fH3n2qoOYO+r9dIiT6p0pOhuRR2ZZvSVtgtPeKIGw6R6mvG8HLLORrLj1bNCrsPWWnITHmC9DdRSH8dwZR13kQiIzkBHzLfl8vrV5GrxDIlC4Vd0VDYEVL9oLAjhOgMhR1TVESa2XpGo1O3vli2boda2CH7cQtbXzRq1hrL1u5Qc9a5BDxSlXEixh64R6oKO1lBTybClkmy5y/bgPade2rfe2DijEXo1X8Y7H1++7AkQ2+HjZqk5Jpb8FMlBU0tndGwSUvsOXZJyTeZ6+7idRt1fFlNT8TfxBkL1YTdHbr2VnPVSX+v3nFD5+59VfXdL+NnUNiVcUor7FadcEbIwxc6/5yTqkFUwmslQ6qSsBNJ9zryAp66LUbC/eGIteiCGPOOTFnHojPi7wzAY+e5eBV6HGmvgsv0dSypsItOfI312j0qw7f1/fvU0HPP+xmWHnWCZ8iTMn2tDQEKO0KqHxR2hBCdobBjious4Dpv6QbUbNRczV9384EXjp2/qebuGTtlLpq1aq/mpLtl56ceNza3VwtLFDmH3QMf7D5yAfUaNsPStTuU+DtlbKna27DjiBJ0W/edwrU7bhg1caYaZivDbw+cMsVXP9bAiHHTcO2um9rmu9r1VLsyh50MiZ27dB1uWHviwEkTJROnz1uO0RNnUdiVcSjsSHFUFWH366+/4kNmCt5EmyH2VjeEn/svhJ35A2LM6iLRsiceWfVjyjiJlr0Rd60Fwo3+hDCj/0SUWUO8DDqMrLRX6vUoLSUVdo9fJGPreQ+cuBXG4avlGLm2N1wSseiQA8LjXpX69TU0KOwIqX5Q2BFCdIbCjvlcZL64CTMX4ceGTfFtnQZqGKqtV7SqrBs/bf6nx+ujcbvOOH7BQs17N2bSLBw+e+3TKrEZOHHRAhOmL1AyzzvyFTbtPq6G0H6j7ScLV0jlnGfoc7WwRf0WbfFt3Qbo1GcQjMzuqco+WXSipnZsEXHf12+En7RjLli5RS0sIavLityr1bSlSu3mrTF1zlI1pHbVpr1YvGqrEo/6vo6GEgo7UhxVRdhlJMcjwXooQk//Hg9NauGN52ZkxTwAHnky5ZwPcY5457sf8TfbIezsfyDGvDXeP3EqtbQrqbDLzPqAUxaBWHXSFR6R7/T+O9VQ4x+bigPXArHkiCMyMrNK9doaIhR2hFQ/KOwIITpDYceUJCLNZKirVNLJ3HPZVQkfH49QlXIyLFYWixBJJ5LP99MiFRIZ8iqPyep6sl9IYpoSbbIghYi/4IRUtZ2s8irC75advzqOyD5pT4Rdhy691TDZu87BsPGIRGDcxxVhQz4dz9k/UcU18HGOKJTKOq+wJPW1vq+hoYTCjhRHVRB26W8fItFmLMLP/gXPbCYjI8oCvyZ66F1kVbd8iHPAC+cliLz4HaKvNkXqC/9Sva4lFXaCf+RzLDzogHPa77PAeK7qWtaR/89vuT9WK0ZftY0o1etqqFDYEVL9oLAjhOgMhR1T2ZNb2Jnb+Oi9P9U9FHakOCq7sMtKe4knLgsRevqPeOG8CFmxtnoXV9U5H+Kd8MZrKyLO/xNxd/oj492Xv7/XRdilZ2Th+M0ALDrkCDOHOP5Rp4zjEPQKy4+7qKHHCc/effFrashQ2BFS/aCwI4ToDIUd8/9n7y+g68iyPF943vvmfeubN9U9/b1qnIaZ7p6u7qrpgq6srEqqZHI6wWk7zUyybFmMFluSRZbFZIuZmZmZmdkyM0mWlP8Xe8v3pmTLtqSUdS3p/Nfay7oRcU6cAN8b5xcbXnWjHHgBUZnYffA4ssraFT6etW4C2Ak9T68ysPv++ync7otGV8jf4kr+EXx/oUrhwEpYDXs33qk7i66gv8bVWnNMTT5c1PVdCLAj3bw7xqGxWq6F8ExsQ17jNVR330Vd331hi7Ca3nsM6shrkUDo2Yha/j5YivyEq1EC2AkJrT0JYCckJLRgCWAn7FU3WUhtZetFDplV9HjWuglgJ/Q8vcrAbmriPgaS38dA7B/wqCdZ4aBK2GwbSVmH3pjf4OG1+kVd34UCO9L12w+RUtrH96yWWxEsAqthF1YnWb2wBdrpkFroeZbgpHcJ/FNbMXz56d8IoR8kgJ2Q0NqTAHZCQkILlgB2woQJW4gJYCf0PL3KwO7BlSp0Bv4FrpVo4vuRCoUDKmGz7W6jO3vZ3Wj1YG/IhWoxwI7bPZrEwMXbKG4cQXReFwLTWl9JO2rqh91aLnCLqlT4WOaysKx25FQPoXPoBu7cH1/w9VtrEsBOSGjtSQA7ISGhBWs1ADtKHm14rhQOkQ3wSekQJkzYSzSr4BrYhVZjaA7vieUEdo8mpnDp+n3UdV1BalkfYvK7hC3CUkp6UdNxGRev3WNw8WP1KgO7KzWm6A3/OR60BiwIJE0MVaKtMBpW+sex7pN38dnH78BE8zAacsLxaFCAv6WyR72pGIx/F0MZX+P7yYUDn8UCOxKFbU5JNjk5xVVkX0Xbf/gI3v/0c3R2dSt8LM+yqanvRQjsPCWAnZDQ2pMAdkJCQgvWagB2Lb3XYOpbxpNEh/AaYcKEvUQj4OYYWYvhORKJLxewu3HnITIrB6bD2FyLYOpXCcugaslqhC3QzPwroe1WLH2HliOxuBdXbz34UdfmVQZ2w9nfYCD2LUz0Z80bIk2NVDGY0ziyE3G+Z3C1JQc32/ORHuoC1YPbUJkayNsoGnatBqOqsRezdknX+B8XlcfuxwC7laD9hw7h3U8+QU9Pj6KHIrQEEsBOSGjtSQA7ISGhBWs1ADsKiTU+X4bC+mH2EhEmTNjLMwoZU2RI7I3bDxGc0QZN10K4J7QireoiStpuoqLztrBFWGn7LaTXXIJXUjvn8PJNbmHPxcXqVQZ2/Ym/x1DiRwsKh33YVwoPG314WBtgrL/sB2+wwQqEuVvC1UoXd7uLUBB7Dvt3bcSmTevldlL9EO73luB2VyFCpW0bssPZM+/Irm+RHekh986bHK5CU24E9FX2Qf3wdhQn+Mzy3Osui8eRg9u4T1WlXegpS+DlE0MVKI734f4M1Q6itSCaCzjw+KR1zpY68rEcPbwDFxszed3Njnx42Rrg4PZv4GljgDtdRbx8uDYNgc7mfDzT/VciM9yNx0NQsiotkEGlDFCONmTASP0g6rNC+fP4QDlyojyhdGAbjKXj7CiOlbatnve5piIgVwqOo93vv2BqYuHgWAA7oZUkAeyEhNaeBLATEhJasFYLsCMIQP8KCQm9XKWX9ysM2I2NT3BVR12PYkQWDKBtZJyLkig6r99KNzqHbRfGkVh+AbqeJfBKaMKtu2OLukavMrDri3sDw0mfyKHWfOx6ay4s9Y6hNNF3Vjv6uz47FGZaRzBan4FwT2tYnzyB1sIYdJcnoDDeB/u2fo1bnQW42pKLQzs2MKxrzo+ULAonDm5Dgr8DJocr0ZgbDh3l3SiR9kGhtxa6ysiP8cbkYzBWmuQHO2M1dJTGQf/EflSnBzGso/YE6gjgUVtNpZ08FgaN/WU4qXYANZkh6KtMwkFp/93Sdg/6SmCpfwz+jqYYqEpGuIcVzpioM6SjsWsd3Y3rbXnTAG6wnIFeqLQNjYX252aly2Om7Z0ttLHnu/VID3Xl85ES7ATdY3vQUhCFipQAnFQ9wNBuvuebtrtapIZ2n/8qgN0cEsBudUkAOyGhtScB7ISEhBYsAeyEhIQWIkUCu9rOy9B0LUJoTh9aR8YVDrpWm7VfeITowkFouxcj/xnA7UV6tYHdmwzsFhKmebkpC6d0jqI5L/Ip8NSUF8GQjIBZhJcNvGxPMiijdf1VyTiya6Mc2O3f+jWq04PlbbMi3GGqdQQ3Owrg42CMACcz9mgjiz5nCxdLHfbOI2+2WB87RJ2zwbXWXG5DwI5CcwnsEaiTebfZGJ5ASpDTYy+6Aqgf3oGRunTc6SqE8t7NDOxa8qPYi++WtJ62I687veN70V4UM29gR8vzYrzgbq0Hp1NaDOwe9peyh2B5SgCfJ/JMJO/DKG8bPqb5nu9pYPcTAezmkAB2K1uTk5N87S5fvsyf5wJ2HR0dGBwcVNQQhYSEXrIEsBMSElqwBLATEhJaiBQF7CihuUdcIywCq1Hdc1fhcGu1Wl3ffdiH18MmpJrP+UKlKGB3+9pdjD989NyxLQbYycBYZVrgUx525BlHIaEUSvoiYHd8/xb0VybL29dkBMNE8wguNWZB/chOvP/h29ixfQN2bPsGH370DrSO7+VQ1Qd9pXA7rYeiBJ9ZwK6/MglbN32B9V9+LG/3hzd/B9+zJvLwVp1jexjMzQR2FNL6hzdew7atX3O77zZ/iXWfvc99Ukjtu2/9Dps3red1tM3rb/wW56Q+ZwK7C/UZ7F1HobC2hqoM7C43Z2OdNO6vvv5U3vajD97ic0IwUQC7Hy8B7Fa2JiYm4OPvj01btiAsLGwWsCOId/bsWbz78ccYGRlR9FCFhIRekgSwExISWrAEsBMSElqIFAXsKH8egaCAjG4RBvsSjc5teF4/V96eqxLwi6QoYHd56BrS/YvQWd2HuzfvY3Ji8qlqlYsBdvd6inHWXBPBrhaz8spRWGhS4Fk4mGpwTrgXATv6u60oRt6+LNmfQ2QJwlG4a7C7JYZq06Tzk852oz2fvesobJXW078zgR15zplpKyEv1lvehozGSzCRvPnspXY05pnAjjzy9E7sQ29lkrzNxaYshmoE7I7t24Lmgihe3leZjNOGJxAijU0G7FwtdRDmYYUQNws+VjujaWBHx3ls33coTvST2k4fB4E9Cp1dSAiyAHbPlgB2K1v0fdTV1YUP163Dn/71X+ONN9/E3/+v/4X/eP11/OJXv8L/76c/xUElJVFlV0hoFUsAOyEhoQVrrQK776ceYfxOPx5eb8LDa/XCltjGbrRg4sEV6cFzcsHXc6Ymp77niqAXrt7FyBVhS210Xm/fG8fU1PwnCC8L2D28//ycaZ2DN7htQtmIwqHWajcq5GF0rgxNPVfnfV/IpChg92jsEYoTauGlG4HIM6moy23Fxf4rGHswLt9mMcCOoBlBLo0jO1Ca6Ie7PcUcqlqbGcIebLlRngy7XgTsdm9ez6Gv5DV3t7sYzhY6OH/GCGMDZUgLdeG8ckPVqRxKSuGsBAGpyAWFw1K/BPAoP52R+iGUJfkzCHM/rcd9UJ+0X/IGvNdTMh2OaqmLtBAXHstMYHexIZNDZSnHHG1Lx3KlOYfDXOcTEqt7fC9MNA5zqDBtIwN2BDDJE5COkfL+0RioHwHslk4C2K18jY2NwdreHv/1L/8S/+knP5llf/1P/4Tq2lpFD1FISOglSgA7ISGhBWutATuaBNwbycbFUg0Mpq5Df/zbPIkTtrTWn/guhjM342rtKYZ3CxWF4nUP30RsQTfcYhtgH1oD25BqYUts9mE18IxvlH5nezF46c683uy/LGDX0ziEhoJ23Llxb862bVIbaptccUHhQGu1W0bNJQZ2DV0L91pWZA67ke5LCLFKgqd2OM7pRyLSIQ3ZIWW42HcFE48mFwXsyCgslaqlmmoewZG9m3F03xYYaxzifHEEvCaGK18I7I7u2czFHahIxNE9m3Da4DiGalKnCy205HAoq47yHuyT2hAQI6BWnRmC37/xW7z/wVsc8kqhqr/6j3/H4V2buM+e8gQ4mmtC7chOHJL6J4+7nrJEzodHfRGIexLYEXijghYUyntYOo4Th7YhxM0StzsL5wXsvvzkjyhO+KEAhwzY0d+95YmwlT6fOLCVj4O8D7tK4wSwWyIJYLc61NfXh3/51a+eAnZHVVVx587CvZqFhIRWjgSwExISWrDWErCbHL+FiyUn0B36z+gK+nsMp3yMyzl7cSXvoLAltkvZ29Ef81t0Bf89eiL/N273hGNqcn5VJ8eliXVySS+H5Ol5lsAhshF+6V0IzOwWtsTmm9YJ65BaPs9G0vkubbqARxPP94p8WcDu0sBVRJ9NR+SZNNTmtOLhvTFMzsihJoDd2gF2sc6ZfA88aaWRoch23I/yuMQ511dlNCHaMZ2B3UwLMItDolcuyj0/XBSwmw6BreKQ1N6KJDaCbORVJstnR15ulC9u6jGcejRUgUtNWQy6CK6p7N/KhR2Ga1LRV5HIgEwGsuhfgoIU5koVZkdq0xgEFsafh4X+MbQVx6KrLIGtMS+SPeSGa9K4HXmwUbhsT3kiLtSns7ffleZsHp9sLOQlSB5x449DemncBPPoOCgX3o32PN5G1paOVTYuWQ482b5G6tL42GTn5UZbHofh/nAeCnk8dByXGjO5TwHslkYC2K0OUfGJ876+s2DdP/7iF8jNy1P00ISEhF6yBLATEhJasNYKsJu4fxGjBYfQGfgXuJSzB2NdcYuatAmbv02NlOF+8zkMJ36ErpC/w/UWV2kSdv+51/Lug0eIze+GtnsRvJPbUdZxS+Qre8nWPvoIRS034BLbAl2PYmRWDODh+MQzr9HLAnaPpH2Wp9azZ5SnTjgi7FNRX9COaxdu8noB7JbPFAXsbl+/i5zQMunap81pYVZhCDZyRLh11DO38TOJfQzqwuTAzs84FnmRFajxeX/RwO7HmAzYzSw6MR+jQhPedidnVVklOGaodoCBnaK/41/KuRLA7pkSwG71iApL/OzXv2ZY939IdnhGpVghIaHVKwHshISEFqy1AOwIEl2tt0Zn4F/jWvEJTA7mK3xSspZsvCcRQ4l/RHf4z3DvwrPfIFMYbGH9MEMj/4xuNA4+VDi4WEtW3/8AzjHNMPQuRX3XFUw9Izx2PsAu5Xw+BtouPGU5Wa2wcspFSUHHU+v6W0dQk92CIIsEOWgheBfjlIHGog5U1g4uGbBrHX6A8MQCnNA1wz5lTdg4+6Kq7bKAw49NUcCOwlZvXLqFy4PX5rTe0hDU+n6AgZq0OdeP9l5Byrn8WcAu2TsPPQ2DnCNxsSGxPxpCLRLYUdGGlvxI9n6TLSPvNgqXpTx4iv5ufynnSgC7Z0oAu9Ujqhhr6+DAwO4//9mfoaOjQ9FDEhISWgYJYCckJLRgrXZgRzm5Hl5rQF/s7zGS/BmmhksUPiFZa8bhXq3+6Iv8d4zkbHtmnrRrtx7AIbwG9uH1AtYpyMo7b8MyqAbucQ0cmjyXngfsbl25g0TPXPgZxyDYMvEp8zWLg5t+NPzM4+dcH3gqAef0Ip8KafQ1ikGIYyaMnfJ+FLAjIFffewvmdu44ckIX/lEZCEsqgJWDN/YeOoGMklYB7S4pDti9SM/LYUffK1RkItwuBd66EYiwS0VzSSfu3vrBq1dRwI485DhcdbBc4d/Hr7oJYPdsCWC3MNF3wuTUFKd5GH/VTPp9bWppw3ufrcOOvfsVP5457BHbFBelEpVrhYSWRgLYCQkJLVirH9hN4ma71Lf/T3GvyVvhk5G1alMj5bicd1C6Dn+Oifujc17HBun6abgUIqVyVEATBRmFx4bn9UPNuQCj1+Yu/vA8YDf+8BGGuy6iu35gTstMbYT12RwUZrfOub72CQ87b71IhNumoDK9EeVV/T/aw67jwjj8ItJwVFUfZc0/9NMuLXf0CoWusQ3qum/w/dc8cA9pRc3wDk5ESHweqjuuoL7nJkO9poG78rbFDUPIrezmv6ldadMIAmKycT4sFVll7eiQzimtq++5Ab/IdLgHJbCFJxaisu0StymT2mSXd6B9ZEw+nrSiJt4nfW4evIfk/HqcD0+Ff3QmSqR9UjvaLqeiE+fCUrhPD2msqYWNvPzH3AcrEdhNjE+gIrWBQV1VZhPu3nw6/F5RwE7Y/E0Au2dLALv56/a9MU6jkFk5gJCMNvintrxy5pPUiOPmgTgTVKjwscxlAamtiMztRGH9CPov3sbYM17iCQkJzV8C2AkJCS1Yqx7YTY7jUpkG+qJ+ifHuBIVPRtay3a6x4iIUd4cz5ryOaWV9MPWtREnbTYWDq7VsWXVXYOBdiur2S3Nep+cBuxfpeTnsKByyNrcV5w2iOIddqHUyA5jRvun/10uRw47Al5mNK2xd/NA6/IMXJ8GvzNI2qOqYIq+6B039d+DkHQZ1PXPoGFnD5LQLg7H04hao659CUf2gvK2rT6TUpxv/nV/dy33omNpC18ye/45KK2Vol1HcjI/WfQN1Y2voWzpBVdsE5rbuqO26jvOhSTCQtm/su839EBBUVtNHdGoJfy5vGYWdiz+MpXGo6VvguIYhajqvIb2oGWrSGPXNz0Dfygn7VbShpKo3CyguxlYisLt97S7q89twafAapqam5mgtgN1KMAHsni0B7OanwUu3cT6pGQZeJdD3LIVNaC177gtbuFkEVkPLtQgWARVcDOzGnYeKvrxCQitaAtgJCQnNErmwf//9FCanJjEx+QjjEw9x8/5VDF7rRPtoLRqGSmHqqoVNyuuQWBKG5pFK9FxuwcVbQ7g/dpfbTE5NSJOfyZfuDv+ygN3U5ENcyNuLwfh38Kg3VeGTkbVsdxtc0R3yT7jVHTrndYzK7YRVUA0qOu8oHFqtZStovg5jnwoUPAO4vCxgR6GLlK+OKnoWxdVwPrxHM4pfLAWwa+i9BQPzMwiIypR7vsmssK4fh45pIT67CunFzTiuaYTkvDq0jTxk0Efeb88Ddi1DD2Bm6wZ7twAGZgQEKU8eefNVtV9mYHdQWYO95ggQksfcCW0TFNb2vxDY0Rho7OQhWN1xVepHE6kFDewVSNCP9kV9xqSXrVlgN/FoAmMPxp/bXgC7V98EsHu2BLB7vug5tWvoBuzDaqDvVYqwvH6UtN1Cbd991AtbsNVJVtNzD/lN1+GZ2AZttyL4pbTg1t0xRV9qIaEVKwHshISEWI8mxnHj3hX0XW1HZV8ekhqCcL7QErbparBKPcb/2mdqwiFLG2ezdactSwdnMrVgl6EO6zQVWKYqwzXXEGGVLshti0P7xTpcvDWIuw9vvZQxv0xgN5K3G4Pxf8Sj3tVZVW+l2L1Gd3SH/hNPuudSZM40sKvsEsBOkVb4GNjl1879O/uygF1X3QAq0hpw69rdOdsuJbDzjUibE9gdPq6NhOxq+IanQtfEhkNgZ25DwG7PEVXYe4bgfGQ6m7KWEYxPO6O6/QqUVHWRlFsr376i9SKOaRiy9x4Bu68374SzbxS8QpOhZmDBufMa+m7jXHACdh1SgXtQPPdJoa3rN21HVEox99M69IBDZsOTCuEdloJNuw4iIrkIidK+lE7owvl8BM5JYzaydlmzwG4+ehawG6lLQ1q4u9wuNWVx7s37vSWozghGTow3ukvj5dVaad2N9nyUJ/sjN8oT7UUx8nVUDKIyNRBXmrN5O1pG61oLotBbniAvIHGnuwg1Ut950Z68fGK4kivA0r5mjqVM6ou27ZG2uSyNqyE7DDlRHjye8cEK3gct769MwqTUB32+1VGAokQ/HuPkcBW6SuJwvS1Pfrw3pfWd0jIqYEHb3+kq5LHQsfRVJM0+TqkdrcuU1rUVRmNsoBwXGzIxUJXMx/Kwv0wafyKPkfbXJY1L1u9daRmNf1Ta/k5XkbTPWDzom84jS8falBvxVF4/AeyeLQHsni2CdQMXb/NvE/1+lbbfUvhv6Wqy9guPEC3NxXU9ShjaPSvHrZCQ0PMlgJ2Q0BrX7Yc32UsuoyUCgWVnYJ+pwXDOPc8EgeWOiKo9j8TGUGS0xiKnIxn5nWko7M6ULAsFXRnI60xFVlsCUpujEFcfiNBKN5wvtoZjtj5DPI98E0RVe6KyLwfDN3rxaPL53gwLkQB2q98EsFsZpihgd/8FoTZLAexaBu/B3NYN1k4+XClWtpy80wjGUQhrfnUPzocmQ9/MjgHfzPa0zbc79uOwpiE0TW3Zvtq6B4aWjpyPjgpZkOebbPuZwI689j747Esc0zWDhoktjuuawsrhHG/jHRSPdd9uxYmTFtynqqEV/vD+J4hMLuIxu/lFw1jaxyk7D2gaW+ODLzYwsKNcdX7haXhL2vaotgl2KakJYPccPQvYBbmYY/O362Blos7WVRrHgOn8GSNY6B+DtbEaTLWOoDYzdBoqteTA1kgVVrTu5HGc0j2KrAh3TAxVoL0oFm+//hsEOpvLYdTFxkzs/e5L2EltHg1WYGygDOfsDWGufRT2Ut+nDY6jKj2I+3U8rQct1QNYv+5DGOkoI8DNktub6yjxdm7Setqfnso+FMR6M1xLDnTCWTMt3Osp4X1Gn7PB7177JcpSAvCgrxTGGodQnOgrP97KtCAYqR9icHevtxh+Z02ksSjBxvAEW5W0nkDfSF06nE9pS/tVgYmuMiI8rXGrswBR523hYqnD8K4w7jy8bE8y5CxN8oOZlhJvQ/AwI8wVb7/5W8T7O2C0PgOn9Y+jOMGHx5wa7AxLvWMMRQWwm58EsHu2CNiRl76BdxnSay4tex5cegFEL2s0TWygJH0Xy8wrKOFH5xR9VaxleAxBWT3Q8yxGc+9VRV9yIaEVKQHshITWmKZDXr/HrfvXUNiZAt8Sa7mXnE+xLVJbolDSm4eqgVLUj9SgebQRrZda5mUtF5vReKEOtdKDdXl/EXI7UxFZcw4uuUawST8B1zxDhne9V1o55FY2lsXqB2CXz2G8C7HG7ssw9Snlf59cRw/9I7nzB3bkFUATDZnJvCGECWC3VkxRwO5F3x9LAexoUhUUk43DKjrywg1kFHJq5+oPPVM79qqLySiHipbRrG1kUO9ZIbHNA3ehY2zNRSpk22eWtuLAUQ2UNA4/FRJbLPVBYbfR6WXPDYktqhvAnkMqPBmk8VOVW/pMwK5tZAyWDl4MIFuG7q/pkNj56HnALsDJbNbvQFmSH4zVD+FSYyZ7jBF8MtNWYsAU53sG9ibquN1VyOsacsKge3wvhmtT2XPtu68+gZ2xGgM4+g0hzzWVA1tx1kyTgV1jbgQ0juzEaH06e9alh7rCQleZPeNo/+RN52SuJfeKIwhnpnUEZ0zVGYYRKIvztec211pzZwG77rJ4WJ9Ugcr+LQwBXwTs6rJCoa28G0PVqTy2RH8HOJhp8LpYH3tYG6gwjBuX9kl90fEwsLPQQUt+FE7pKLO3HZ2zmcCOvP6s9I9Lx7kDmeFu3I48D/Wk80T7JFhH5+HJayGA3bMlgN2zNTY+CR33Ig7dbB4aW/bfTUqZcNYzBIdP6MJL+j4/H5HGlpzf8JQ390q26p67MDpfjoC0VkxMzp0rVEhI6NkSwE5IaA1pfGKMvdzSmsNgk67K4a0E6bLaElE/XDNvMLdQI5BX3JOLqJrzcMsz4X2fL7JC3WAxbj+4sejjudjqh7b0bejKO4beYt0FWUuuJkoTj/O/T6/XRkfqNxhM/XJewC4zzA2//I9/xzvvvYmf/+oX0gRJQ+Gga7WYAHYrwxQF7AaudXL+zLGJuT3tlgLYkVFBCRsnXxxQ1oQrhacGJ8LYyonDYQtq+him1fXcgJGlIzRPWsIzMJ6N1r2o6ARVhd13RA0uUr/eock4rmUMn/BUacI2zsBuw5bd8AhOQEBsDk47nmePvhflsKvpvIoTUj+n7D0QEJMFe7dAbPhuF4fHRqYUY7+SOm9D7VYGsDuLzpzDuHOpZsF9Lxewo1BTHwdj6KsdRFa0F3JjzyHM2wa7N6/nkFHyRsuVlsu2J4hH8KwiNQCdJfEMpc6YqHPILEE9b1tD+Er92RqdYPBF3nfaKvu4X7JAN0uoHt7O4OtZwM5STxn5sT9UOicwR/scrE6RAzuCbB7W+tJnRwaIFWmBGOsvY+iWKC0jD0CCbvF+DjA4sZ+3D3a1gIbybvlx+jqZQ/PoLgzVpEp9aiA1xPmpF1eR0rk4sO0bHNm9Eb0VifLlMmBHEDHI5RRvR955qSEuvJ76CZGO9fMP3kSUtI5gpwB285cAds9Wx+AN6LgXI6ViVCG/mzJgZ+XgNct7e6ZRLtSYjAoExuchSDL6PWl7nH+0UfpdSi1sQnBCPhcTauq/+7gS+BgKavtQ1T79ooeqmOfX9PLLGkU9I3gnt3OewEvXn67ELSQk9HwJYCcktEZ0+c4F5LTFwSX3JOefC6/2RH5XOhov1L80UDeXVQ+WIakxFN6FlgzuIqs90D5ah4ePFv6gfa03Ed35Kouy1mxlVCcf4n+fXNeVf3wa2KV980JgR5MJf2nSRpM3moCFe5yG+2k9hYOu1WIC2K0MUxSw67jYAN9ia2S1RjG8e1JLBezIaJIUl1kJo9Mu0DGxhbt/LFddlYVR0b/T1VuToXXSCjbOvihtGkFF6yWEShMqmjTJ+korakKsNAmTtcsua4eprTv0zM/Iw1ZpHYW+Glo54cRJSzYKhyXARzCP/iX4JpvokcdfYHQWe9dRn4XShO2UvSdOnnbmvHU0dqpmG51Wxn/Lxk1eewHRmdz+x5yftQ7syIPN08YA2zd/CWO9YzA1UGEj0Eb528jbjUJBnwXsTukcRVKgI3zPmnDuOmcLbeREeXIYLeV8o3DYzRvXyfvlvt0tcbM9/7nAjjz16DN5s1GuONqPDNg5mGryevLCu9yUDX2VfQzspj3bAtjTjbb3tjvJY9U5toeB3Tl7I3zz9ScwmXGcwe5WuNGexyG8WeQd9zgXn8zCPU9jy9efspcg5e+T5eojYGeqeQQFsefYy4+87GwNVeXAjrwJI7yssfGLD5Hg78AefQLYzV8C2D1bldL360nvMuQ2XFXI76YM2FHKhdru61yE6MmwXPoe/3LTDhzRNMRuZQ3s3H+Uc5/S976dawAXIVLWMYGarhkXFGrovY363pucnsEvIo2hnqtPFM56haB54J7CnhHC8/phFVjJOQOFhIQWJgHshIRWuahqa9toLU9qKew1qMwJRd1ZHLq6nKBupjVfbGJwR3nvnHIMuHhFSmMI7jy8ubBjG7uJB7f6FmVNzbVwCkxAU0vtU+vu3+jAYPZ2DCa8/0JgR3mFKCcR5dihz7E+dnJgNzVSjer0IKgf3o6vPv0j5xK60ZaP0YYM7Nm1ER9+8q7cDu79Dm3SJIY8HXrKf/A+oPxHYR5WPLmjUCDybLgn/U2THUoYflya/JRIEx7KHUT5kCiMiNpR0m8aB03CKJQoxM1C3idN6PQ5l9G5p7wgKKSXknqTJ8WX6z+Cp62BNEHL54lSUbyPHFLSxJNCvcijgpZR+NPhA1vlx3NS45A0ySzFlZYcuFrpsvfEzP2QxwgdC41NALuVb4oCdncf3kZ0tScXxnHLM0J2azSu3b0kX7+UwE7Y822th8ROSt+LKUFOcOU8bWWztiUvNcptRy93ZKCKvjMJgBG8ImBnqavM3/0UUkvf+aHulqiVvh9tH+ewY3hnOO1tN9d35VzAjnLYkdcajY32W57iz+CNfhdSgp15X7rSGLiwg/S7IgN202Ou5IIRhXHn+DchP8ZbHhKbJ/1NXnBP5pKj/ZyTjtPT5iQDzJnrKCSWwnupHz2VvZzrjpaXJflDS2kXTDQOMyQkOCkDdjRmOj8UfkvhxeT1N9M7TwC7F0sAu2ervHkUJ6XvrLzGawr5zpQBu9+8+Ue89v7H+P2Hn2H7gWOcFkH+vVrczFCOgF5mSQunSyBgRwWF9hw6gZzKLn6ZRDlPVbSMuQASpWggYEeFkILjctgbvKLl4rLn6JtpkfkDsAyoRN/oyylCJyS0miWAnZDQKtbVuxcRW3ueQZ1n4SkU92RzeCqZomDdk6GylCePCls4ZOlwhVkqgEGhuy9bS1V0gjwnaDLRX5n8FLCjyQZBOKomSJXvvO0MecJC4UbkNUChTE6ntNAv/Sur9kfeBw0zcvTkRHrC+uQJTmZeGOfDk63bnYXcHyUSX//xO8gId+P2NIEMdDZjOEbgLzvSg8dAHhSU+4f6o0kZtTu0cwOiztkwoJt5PDRhorxJZcn+PKEcqErhCSK1odxEPNFszILaoe04vOtbdBTHPp4sJnLOI4KJ9dlhPCGj4xmWjv3EgW0MKWfuhyZldCw5M0LEBLBbubaUwI5eMtx5eAu3HtxgK27qhKl/Dmq7+uTLZHbz/lVU9xfAMVsXFilKbPYZGkisD2Cv4obuCwLYLZOtRGDHOUtfUAhpITnsLjdnM9TysjXg7+XMCHfkSd9x9P1MgEr14Hb+3s2P8YKdsSr8nUwZ7smAHX2v+zgYcfgngarm/Eg5sKPfAEO1g3CXvtvTwqS+w93ZO+1hX+kzgZ2J5mEckb6n6YVLVoQb9FX2c+grhZUm+J/FJ+/9geEgvYShsNeZwO5Jm5nDjjzpyGOQfuvSpONMD3VBefI0bKNxn1Q9wKCQ1tGLHgrxnVl0gl4ukefecG0aihN88fEffw9ve0NuPzYD2NHvq7m0HUE+gp6UK49efD14fMwC2L1YAtg9W68KsLOw9+BwVkpL4BOWgs3b9zFgo21i08s5zymFxs4Edh4BcTC2cpaHuVLaBgJzngGx7M1Nbaig0X4lNS5upEhYRyaAnZDQ4iWAnZDQKhQVdBi6Lt375WdhJ01eo2t9UCM97Coa0D3LmkYbOTzXs+AUe9tRMYwHj+691HO0FMCOJmg1mSGcm4gmU08CuyetPjscJ9UOMHCjzyPSZIUmMJR0XBYiNV9gVyVNqijfEe07O8pDDuwoJIsmkRRCRMCM+pABO/J+KEnwgYOZJudaehLY0fFQ5T7qZ+IJkCcDdjRxpImYh7QfmjjJgF2tdB5obLSPprwInvgJYLd2bCmB3aVbw4iv85O+vxzZPHJtYR5rBu98e/mymeZfYscvJWTATmauuScRUhwCQ58sAeyWwVYisJuaeIhbF0pw53Kt9L3/aM72zwJ29J1XkxH81PIb7fmI8DwNY60jcDilhfqsULlX3WB1Kn9HU6hqWoiz3BOPCk3kRnvy9yt5LdPvCEEpqvRKntDkQS3bLlL6bqfqq/TbQYUryBOO1tGLGvp+l3m9yUJio8/Zsreehe5R9oyj714aT3NeJH+XX2rK5M+0bypkIfOaftJoOXlw07gYTjZl8W+IsTQWVysaSziPheAf5cqjMFoKmSXPOBoT/S4QYKTfFvpMHoMdRbHoLU+Ev6Mph+lSv9QHHTOBP3qpRXCPQCaNgcAfHY8MSgpg92IJYPdsvSrAbmYOO0qrsHX3ISTl1fJnKkhEoa+UBmEmsHPyDoPFGS9eTtvJgJ2HfwwDO039U/hu5wEOlS1rviCAnZDQCpYAdkJCq0wE6ygn3LkiSzhm6yGjLQ4NCgx/XYiV9RcioMwBZzI1kdYUintjCw+fm6+WAtgxvHI9xZ5zskTYT3rYkYcEhQ7t2PoV3v/gbRzfv4XDVecCdtQfQTjKYUSeahfqMzgJuInmkVnAjjw1LPSmcx9ROC55cciA3c6N66CptIvbyiaJMmB3pTmb91edHsweIE8CO9o/hbnKwnufBnZ2POmiKn6UY4nGQsBu2ovPC+7W08f9JLBb9/kH+OiTd/HF+o9xeM8m9i6R5W8SwG512FICu/6rnZxr07fYBnF1vvApcId5tC0Cij3585MWUeUOh0ytp4CdV4E5YsuTYeSTL4DdMtiKBHaT47jen4beIi1caPLE/RtP50F8FrB71W0a2B3jkFZFj+VlmwB2z5YAds/Wqwjsqtovs4cdFZEg77mTpxwQlljA62YCO8qBeuiYFoe/0joqIqRtaMUVzWUhsZ6BcbB39YehxVnUdinmGGUmgJ2Q0OIlgJ2Q0CoShZLVDBTy5NW70Arl/UWvTPjrfENkCS4mNobijHQMkdJE/MqdUXz//fdLfq6WAtiRhwElya5ICZDDMRmwo8+0/OieTegqjcOd7iKUUq6eo7ueCeyoDa2jnEKU885M+wgCnM0Y+BGwo9AiyvNDgJC8LAh6kZfbTGDnZqULB1MN9qiY6WFHcCzK25Y9KshDgjzp5vKwczDTQLzfGc6/9ySw85ba2JuooyYjhL0tZMBO5nVHYVdzAbtj+7eguyyBvSNaC6OhtHsT564TwG712MsAdrUDRZicmkBl2wWY+pagte8Kf55pjybHeTubtBMM6WzTVTlfZ3lvNq9r7bsqQmKXyVYisKPflvF7FzFYZYm29O3oyD4gfR/bcx7Tycde3gLYvfomgN2zJYDds/WqADtlDUMExGTDPyoT6rrm0NA/xZ52IfG5UDqhJ4dtM4Edhc9qGFiwl11EagkspX+1DU9z+OvMohME7yzsPWF11psLUCjq90EAOyGhxUsAOyGhVSKanNYPlcIhSxv+pWdQOVCicAD3YyylKYKhXXiVG27cW/gE8Hm6e/cuyhoHfhSwo7AfyhFHOYIIXhEEI6NKeFTdj0KdYs7bccjqg95S3OoowHkHY6js3/pMYDeXzQyJJWBHHnSUK45gIYU2PQnsKIcdhZ8StEsNdmbwRsCOcs5RziFZuNNcwI6MkqYbqR/kghYE3Cj0iCZ+NE7lvZvh52jKoHAmsKOwLTsjNfbcmwvYyUJiqWoghW3pHd8rT37+MoEd5Xyht825lV0Khxmr3V4GsKsfLOHPzys6QV64gWVnYJ2mwqGxlM/u1oMfthNFJ5bPXjaw68jej2u9SXhws2tBdqXJBV3Rv8H1zpA519+/3opLrQFoz9yFtvStbJ05BzHa5IW7l+vQE/3bFQns6Ludwkkpt52ixyKAneIkgN2zpWhg1zH6CPHZVTiuZ459J3SgpGkEB49gVLVfYU87e9cAJOTUyLcvb7kAz4A4NPbd5hBXqkB+xj0Ih9QNGPzJctW1DN7nYhMZJa38ubzlItz9Yni9on4fBLATElq8BLATEloFmvp+Cp2XGrhK4vkia1QNlikcuP1Yo7x2SY1hDO0S6/3xaAkLUfT29uKEhh62HDu9aGA3UJ2C37/xGn7+y59j3RcfYv2XH7O99vv/wO9+/xtEeduwVxlVW9369Scw1jiMcI/TDPAWC+wo/9DnH7zFCb5pMjY3sDNnSNdVEseJvwmeEbD78J3XOfm5LBfSs4AdATrKb6e0eyM2bvictyPYSKG62775VB4CKwN2lLeIvAzJA4+Skc8F7Nav+1A6Rx9hw7efY8+2rxloEnB82cAup6ITX2/aASNLJ34wVjTQWM2mKGBH4f++xadR1ZeHq3dGn1ovgN3y2csGduQB15WnjJ4izQVZV85BtKd8LbVVeuY23fnHuX8ZsJu26f21x76F4ZSVB+zWkglg92wJYPdsKRrYrSUTwE5IaPESwE5IaBXows0BeBWYcdGG2qFKhcO2pbLm0UYkN4XBIUsL+R2JSwbt7ty5Ax19Y/zJX/8t3v3wEyQmJeHy5cvy9fMBdi0FUTDVOoKLjVnsNTbTsiI9GEpR9T7yRrvelos7XYUcOkpeeLJwU1llPirU8KyJyHSbEnlScAorpWp59JmMqr6SBxz9Pfa4wh61o88EzKgNGUG3mXDuYX8pewHKQnllRp+pv1udBQzvaPw0XhonhfVOPR4rjZnWUYJwSgguS2RO66aTihfzZ9ruVmeh/NxQQnaqEkjrqD2N7XkTscUCOwo18QyMh76ZPYeQlDaN8HJ620xhIfSmuf3COCdsrmy7jIbeW2gdeoCK1oucS4a2q+m8xkZ/E/CjEJXs8g5klrWjuuMqL28bfojSxmGkl7TyPuizLLkzhaxkSdunFjezlUjbycbQMnQfedU93Be9Je98DBRru2/wPstbRpFR2obCun4eF7Xh/Y085ATStL/8ml6uLCcbH7Uprh+clVy6se8O90FjkW1H/WdKfedX9/K5oPNQWDcgHycZjYvOCbWr7rjC+XGyStvZW5GWP/kwrihgN3CtE2OPHmBqanLOvhYC7Oj81EvHRuenUromdI7oGpGnpvy+ujDG15E8F+hctz+u0Ce7X3IqupBe3MLXgs7rzHV0Penc0r/0efpaXEVN1zX59aVzm13RyfcHXWu6p2h7uh7kcSHbjq4LXT/aF90HsvxH5FlB96MMUHdcmL6/ySODltG1rO2+Lu+HkpNTP3zfPr43ZOMkm9mXIoHdpbZAdOZK37et/rjWl7wgG6kyR2f8Wxitd3jmNhca3GZ52LVl7EB3oZq0Pz90R/5qRXrYrSUTwO7ZEsDu2RLATgA7IaGVIAHshIRWuO48vMkhYU45BijszlpROevm52nXgLAqDw71rRssxsTUxJKct8TMEvz1P/8c/+knP8F//elPsf6bb5CYmIhLly7NG9jZGJ6YEzhVpAbCxUKHIZaiJzIr3RYL7AhEmFg5IyyhAKfsPOATlsrggSBFVGopdE1sOOyEAAsldU7KrUVuZTfU9cyRX93D4M5cahcUm82QJq2oCQbmZ7DvqAZ2HVaV+kthaBIQnYljGiex84gaTmibIDQ+j0ELjSEuqwoffrkR24+o4sOvNuGAsiYvb+i7DQePIBxS0cFeaRm1I29AWudyPgLHNY242tsuJTXsldq6+UUzNKIE1IExWVDRMsL2Qyo4oqILe/dABokEZNR0TfHx51/PSi59LiQRH6/7BnGZlXz8BJoIYu6VjkFJVQ/2boF8rBZnz2Gr1Oev3/wjvty6B0rSMWUUN3Nia2U1A5jZuuGgNNYd+5Q5gTUd+6sA7F6khQA7Oj++4anS9TCGyWkX7FdSx879yhyWRCCM1ocm5OOoqj6fv2Mahgjh6z3G5uEfi2PqJ7HrwDEclc5Zcl49QzC6H85I12ndpu3YIq17X7pG9Jmq+tk4+fDfBMxoH7Yufvjl628iU7pOBHLNbd35ntsj3QsntIxR0TLK93BCdjXnOtp9UAU7pDFSriIChHTNdh88zveY7P8BXW8ad/PAPen/gjucz4fzPU3bmNm44Z33P0Fx/QAKa/uhZ2qHPdKx0T37xZZd0t8n5p336GUCu2u9iewJ9+BG14L7fl4OOxLlqhtpcEFb+jY5qLvUHoKHt/p4/UrNYTeX0QuWxtwITnlAL02oMmuT9PnJFzcrzQSwe7YEsHu2BLATwE5IaCVIADshoRUsKjKR154Auwx1JDdFMNxSNGB7GUYhvh755vDMN8Xl2yPzOjf3799HUVERYmNj5zQbR2/87Dd/ZGBH9n9I9pf/8A/YtGULQoP9XwjsyGONKqVOzeEdd7Ull0NHZeGnwhZviwV2WWXt0DY6LT2QX0BcZgV0jW04+fJMYEeAgqBeYHQWWocfyoEdwTN7twC4+ESyhxq1I0hl4+zLAIRABwGyoroBhlkRSUXsBUfwRkNqT95VNIaQuFxuR39TLj1KJN158REiU0pw+Lg2e0+1DN6D87lwhirUBwG7Tdv38RjIyyomo5w9BLNK29izjiAbVYwj+EKeVSqaRrxfGs9J8zP4auN2RCQX8T4JytDxbNl5CPHZ1TxuUxtXhkIEi+j4j6joIPFxjhzy0tI8acmwiD7TuSJgt3nHAc6HI/MKJIhFAHAuYBeS2c7A5knzT21hcJZTPTjnerKhy9MwT9HAjs5/amEjA7TM0lZs36vEn+m6Eqijc0LXKjG3Foel81fcMMTnirw2yeOR4JuVgzesHc/zdtSPtZMPvIMT+bxbnvGEk3foLGBH5z4ptw5a0vmn/dE1oHuSPOLoX/K8o/s5PKmQx0qecHRfkodfFN9POrzNfIEdQcTotFK+J7+Trm9hbR+8ghKk/xe2DIfpeFILGqTjXf3A7t71VnQXqKIrV4lBHRWcmJp6JF+/qoDdcCWnSNBW3o09O77lIkg50mcB7ASwW4sSwE4AOyGhlSAB7ISEVqg4b93FBrjkGCC8ypNzvikarL0sI6/Bgq4MOOboI67Wh0HlizQyMoJvNm/GT//+7/EP//qv+B//9m+z7G/+17/gv/z5X8mBncz+85/+Kf7Hz/4XTin/Ah0Rz68SK+zl22KAHcEGSsCsqmeO2MxKBMbmYP9RDaQUNDAwI2B3XMOQPaUoEbMs5JSAnbK6AdT1zWFm7coAhJYX1Q9CTdcM6cXNs8JNo1KKsfuQCieFzpHaRqaWMNAhbzyCPxSSa+viPwvYEZixOOPJECW7sovbBcXmYsvOgwx8CNgZWTrKwxAJuJDXE0G5hOwqKJ3Q5TBKWkdeXZRw+rTjeQZ2ZjauDBWpchxBlqK6fvaKIwhD54HCG4+q6eN8WCrvN720Fce1jBhMPg/YaehbyCEkLTt99jx75s0F7PQ8ihmQPWm6HkVQdy6AoXfpU+uMz5dxu5j8aRijaGBH57v5sQchLaNqewTb6L7ZfegE0opb+Pwl5Tdgn5I6nyNZOCtB2NzqHr4mBub2fF3IyFMuWLoPqd+5gB15e56y92TPTQJusmtAQK6gtg/hyUUMVwmsTYdUP2CAm18zvW77niOobL04b2BHIJDuM5+wZOzcf5Q97GLSy/l+oX+zKjrgI52L1Q7sCPBc7Y7BxRY/jN8n7+rxp7ZRJLCTpQ6gfKd9FUm43prLL4koZUFvZRJ6KhLRK9mV5mx5ygNKYUAvlPqrUtiDjlIjyFIo3JX+vtqSwzZSn4GRunTug9IjyPZ3t7sYwzWp7IVH6RyuSvukbWYa7Z9SPlAuU9mykbo0Tp2giPMkgN2ztVaBHVeAHn/6//NMCWAngJ2Q0EqQAHZCQitUFAobVumCs9m6qB4qVzhUe9lG3oMxdb7sTdh6oeaF52d4eBifrF+Pdz/8ENHR0UhISJhlTl5B+Od//8MsD7u//p//E9t27kRkeNALPeyELY8tBtgRpKBQvq+278PGvUfw7Z4jHI541iuE4RyBl627D2PTtr3sjdb2OA8ZAbud+5TxzeadcPePkecuo+VquubIq+qe9QBKYYi/eP1NfL3zAO+HTFnLiD3vaD/kZeUXnjYL2BGwIQD07mdfyduQETyhcROwM7F2kYPB+p5bMDCzZw83GutxTUM09E3nkKMQSEevUFhK+2l8HN5I3nc6xjZIzq9nL8GznsGwPOOF2MwK9o5bv2kHPt24bda+Q6U2zwN2WietOGxWtow89MjmAnahWe1o6rn6lAWktcLUV5oY1Qw9ta64YYQf5MOzO/iaKhrYUeiz7NrT8VLINMFX/8h0vP7ex9L9dFh+7o5qG7M3JEFd2o7O3/ZDJ/DBFxugbWjF14VgHHlyJuXVcb9PAju6Tr5hqQxcCcJRSK3sGpAn3QldM2zdd5THReHatIxALXnc7T+ujXXf7cLX0v1N4bLzAXZ0z1D4LoFXAoA7900DO7qf6D799e/ewBdbduPjDVuw59DqBnbfT01gYuzmc9srEthRHtGzZppQP7QdB7d/w1W6KWeou7UePvvsPezbsxkHd22EjvIertJNMK+zJBandJVxZN8WqBzYBg8bfQzXpnE+0TjfM3Cx1JXnD03wP4Nf/foXqM0K5f1RNW87I1WoHtzGhYcCnM0R7m3D+3n/g7fx0Ud/5L9zoj1RmuSHDV9+jB3SuA7s3sRVxINcLNiLb7nPkwB2z9ZaBXYPHz7kZ72CggI8eDD3fSGAnQB2QkIrQQLYCQmtUDUMleFMpiZSmiLQcrGJoVZ5ZzlUDVSxYe9WNiUNJfjH+qG2v0bhwG0prGaoAu75pgivdMXtBzeee35kwG7H7t0YG3u6WEVqXiX+/B/+iWHdT376U3yzaRPS09Nx5cqVeeWwE7Y8thhgJ4NMM6FLdFoZ9E3tGJ4QsCOoFZ5YyCGj8VlVDGumwZwZIlOK2avMNzyNQwfJu+yEjil70M30sCOPPRXKK/YYZs00yitH+5OFjsqAHYWpOp+LgIW955zJ/AnYKauflMZ+nz+T152qjhn3k13WjkPHtLjYAa2j4zM57Qwn7zA5sKPj9AyI5b8pxxqFBsuAHRUfoNBg8qCaeRwyexawOyjtk8JvZdtoGVqxJ9jMtj8mh93lG/fhGFn7ygA7yg1Y13NDfo7J65JCUdMKm/j8Uyjq7HbjsHX2g56pLRp6b/N5c/IKhY7Rab4udF8RpCWQ2/IEsCPwSaHMlAeRik2Ql95MYCe7DgSACexZSNcyKDaHPd9khU/oviD4PB9gZyW1J49LypNI3oDlLRfkwI6Og0A13bfUfq2ExL5IigJ2BNiiztnCUu8YLjVmsfcaec5RUSACdvF+Z3i7R9LvYpiHFRxMNbi40WkDFUR6WTPYo+1dLXXh72TK7WcCu97yRK7wvX/b16jPDsMjqV9vu5NcMIkKBNE25EknGw9VFU/0d+C/yROPgJ29sRoXEiJQSNCPoB3td7nPlQB2z9ZaBXbkXefm5obf/v73OKGqisrKyqe2EcBOADshoZUgAeyEhFagqPCCT5EVvAutOL+bDGjlN+Tj223fwjfGT7r3YxCaHIx9yvtg7ylNwIbrFQ7clsLSmqMZVDYOl+P776eeeY6eB+wmJiagrqGDP/mr/45PPv8SmZmZuH79Bxiw1oBdQ0443E7roassAc35kThnb8ghWIoeF9lCgR0BFvJEIm8oGZSifwmqqemYcrJ+WQ47AliRycXQNLDk6qeyHHZcvbW0jaEdASvqk7ySCHJQe/KUynpcKZZyjpF3XEp+AxsBs7qemwiOy2WAIwsl/SGH3QR76hFU8QqMRxpV4yxoYCBHHk4E7KhIhGdgHFekJS89Gjfti8AJeXERpKNKngTNqLgBjUUG7GLSyzh09/OvNknHcoq9sWTAjqCPq28UwyH6TBVGCU6WNV14LrD74pvvuAhDdnkne5oRUKKCCKsV2H26/luGoHT+6bpTnrrqzqtcaEPb8DSMLZ3YgzGtqJnhJ0Ex2l5Vuk5031BOQIJgssImZ9wCGdBSfrsngd3ps9744JP18AyI4/3PBHZ0vmOl/vMeV4OlfIVeQfHS/VvCnm+UVy9dGgPdEzOB3YatezhnIYXuUij0UXUDeAYlcN9UzOTdDz+Hf8T0/w85sKsbkO6jNr4vC2r61lQOuxdJUcCOQlkpx1xNRsisHHNUJZyAna+jKYbr0tFaGAMrg+NIDXbGBekzQbPh2nTelsFaoi97zRGEkwE7gmqBLuYM9jSVdqEuO4zXax7ZidaC6DnHMxewM9c5yvvvKU9kbzwCeFTYYrnPlQB2z9ZaBXYUEtvR0YGP1q3D//Vnf4Z/+NnPcOjwYTS3tHCOY9J8gR3lIT3rEcy/yzKPfPZ+1jaWvoOboCd917/27kd47b2P2X7zzvvsAU0vSUobh6Au/fbTizrKMbtR+n72k55PpnOFPmIPbdr2/Y+/kNbt5WcH2gcViFr/3S7u7w/vf4INW3azJ7bsRR+lxlgv9Ufrfyvte98RVU51QN/dlHuV0l988OmXnOKhtGmYlyfmVMPI4qz8pRM9E9DzAaVrmE7d4MapPmgdPY+4+kTis03bUSIdAz0fUIqPz77Zgt998Ckf437pt1GWokMAOyGhlycB7ISEVqBaR6s5NDS1OXIWzCJgt23fNhQ2FU6HkV5ogou/C/TMdVHdW4Xsmmxp4pwmLZ/Od9c40oCorEhUdE2H1FKuuIzKdLgGucMr3AslrcW8rHm0CXF5sShtL+Ht6ofqkFAQj/KOaVhI7elz3WAtKrsr+O/agR+8+goa85FcnMT90LY+0T6wO+fA5hrigbL20uk8ddJ2nmFe8nU+MX6o6qmcdYyNF+rgmmuM8CpX3H347B/+5wG7zs5OqKjrY5uKLRq7n55crjVgRxPDSG9rHN63Bboqe1GVFiTPh6RoWyiwI882yl9X1jQy62GRHoAphJVgB4EYyklGAIMKBFClV//IDIZrlNOO4B49FCdkVTPgoqT/5PFGFVr3SA/Fu46oITypgB9o6aHd6Vw4tu05wvnrqF8qQkDFJii3HXkt0f4JrlAYomw8BFcMzB3w7Y4DOKyqx2CM9knATs/ElgHQ1gPHODyWvOxkAE12fJv3KUHHyJof9qkdgaCAqAz+TN5R1E9CVhVDJoKFBCTZU2t4OiT44HFtfLdXCabWrvL+udJpQJz0cD48C9gR0KSJCkEigpYZM7y/ViOwI480On+7DhznY6fJimwbOrd0/rcfVOGwa1khCbqXCJhSgQ+Cc5THkIqOEDgjr8bSxun7ke63IOk+okkRFfEgsEzXgKCfDDhTHkK6BuRJSaD02+37sFtJja8NeXzSJCsgKpP3RYA1o7gFbtJ9Sn2UNAxik3RvfCm1kdnnm3fiw3Xf8Jhc/KJhJO2vvnc6rLqu+zoXxKhoHeWw6/OhyXLQTTkQ7Vz9eZwC2C0/sCPPtRMHtqKzJH7Wchmw+/Cjd7B92zfYtvVrGGkcQmVqILpK4xnY3WjL420JrFWmBsDWSJXz1jGws9BBWbI/Thscx2h9BkNBAnajDZkcCjtYnTrneOYCdl998SE2bfoC27Z9DeUD2xDqbqmQ6ugC2D1bBOx+99ZbSEuTnv2amtaUVVdXQ19fHz/5y7+Upz/56d/8DVQ1NLgoGeUinQ+wo9+GsIR8/m2m79np4lUlnKKCnhfoRR89XxAIIyOP7EPHtR4Xd+rD2+99zGkMCG7RSz/6LY2QtqF+K1ouoqCml6FgeGIBjpzQ5dQIVGWc+qXf5w7pWYNeBH23Yz9vT2OiZ5yj0rNDdfsVFD1ObUB5TOmZhKrL0zMN7Z9+y+g3iMYdLY2ZIGOd9BwhA5H0Yul8SBKPm15ABku/T1TdPDmvjnOaUpEpKlBF+6cXOFTIi44/LquSK5dXtV8WwE5I6CVLADshoRWm8YkxxNR6SxNaQ1QPlj8F7Lbu2YrMqkwGdIVNBdA7pQtnXyfUDdTijPcZmNmboW6wbjrEtK8auw7vQmJhAn9Or0jDQZWDMDhtiJOSaZloobStBPVD9TiqoYTI9AjerqyjFKp6JxCbG8OfCdDR5+LWIqQUJ/PfBN9k4zoX4Q0dMx2GeaZ2JtAy1YbRGTOctDPFZ9+uR1RmJIM5NQM16JzS43XqpjrYtGcLj2nmMTZfbEJ8QzDsMzWkiX3HM8/T84DdzZs3UVzbwxP5+QI78kgI9zzNOYVkk4T+ymSkBDkx8CKvAgorcjTXhPqxvYjwsuZJ00zPCPq7ryIRWRFu3IYmNjmRnuzRQO2b8yJ5MqWmvAfBrqc4wThtkxHmhur0IA47GqhKRlH8eQ6LorHE+dpz3iHqnxKHBzib4ejhHWwZEe7y/dJYT588AW2VfdxmfLBCPikM9ziNO11Fj4+zGOcdTZEc4jLLU4L66ClPkMbuzqFSsuXkvUGAT7YNnQOaCOpL+8mP8cL4QDmvayuMgb7aQR6X2rE9yAx341Cu212FCHGzhO4xOmYL3v+PAXYr3ejhmgoUKHocM4EdgUEZ1HuWrSZgRx6TspDk1WC1XdfYg4NA9cvcjwB2S2tj0ne/mfYR6fvfdU4PO1lILP0uUOVXfZX9HOaqdmgbVzCXrUsPdcUZE3Xc7CiQ2jjAQlcZhtJ3Mf3e0He5DNjRdzHlwiMQN19gJwuJpc9U4OLQjg3sbSeA3asjAnZ/8pd/iV/+7nf43dtvrzn7+W9+wx52M4uL/X/+9E/xTz//OXYeVIW2S868QmIphQClwCBvZ05HYe3CL+EIhJH3fGh8rnxbSrMxE9ht2LKLoReto5dr5Mlm7xrAL/1m7eNxYSh68TYT2NGLGvLmPqCsyS/taFtKhUDb0suXmcCOtqOCWo2P0yLkVnUzWKQ+5wvsaB9UBIkqhx84qj4N7LJrGN5Ragd6ESmAnZDQ8kkAOyGhFabhG71wzzdBRPU59kp7Eti98d5b+Pc3X8dv3n0Tr3/wDgws9aXleexN9zxgR8vUT6rDLdCNw2fJW07DUB0eIR4M+5YC2JGHH3kA5tRms7cdgcAjakcY2GVUpPO64pYiPq68+jwc01J+CtjRuuKeXDhm6yGrNfrZ5+kFOewI1C0E2JF3wrF9383yPqhKC5QmVEocSkQArS4rFGXJfqhKD4a5tDzUzZITe8+EXuUp/rAznvZ2KIw7z6GolJ+ItqvPCkN5sj+3p4lakIs5L6/JCJYmWAe4ah+BO8ozdKM9D1HeNghwMpdDLspfpK28Gzkx3rAzVeftaJ8t0uTtxMFtyIxwl/YfIO1fDf6Optw3JSM/tvc7XG7K5m0LYs/hsw/egpOljrxy4A8TNF/Ym6jhpjRBky33cTBmrwreT34UlHZvYhhXKZ0bCz1lBpd0bvKivaElja1SOra2ohg+fpqQOp3S4hxLdIzUl4e1/iwgKICd4kwAO8Vfg6Uw8qKjY8p9omjKUpsAdktr9J1akRrAEIw84nrLE9CUF8HfjwTsgt0s+LeHwmB9z5pI37fHcKuzENHnbNnjrqMkTvruj8ZJ1QPyFySxPvZY//E7/NtAXtQzgR3BPYKDJw5u5TBcgn/N0ne6zNt6LmBH+fWoSu2lpizkS787B3d8g4sNmQLYvUKKiIiAtq7umrXvtm7F//0XfyGHdf/nn/wJfvq3f4uNmzfDPSARBp7F8wJ2BM0oVymlSSis6+d8t/QSpL7nxcBOBtPk/bj4ccEhqvadJfVhbOWMjdv3cZjp7//4AacnIGD3zqfrpWUf4LX3P8ZH67+Fm2+0PCSX8/Ka2XMEwExgR1Xf/8cvfim1+YRDV/9D6u+Tb7awZ3xEciF++bs/4D/e/ZDXUTjt3/3rL+Aq9SsDdoHRmZJl4ZSdBxc52rFXiYEdwT2rs95477MvOQT3F79/Ext3HxLATkhoGSSAnZDQCtLU91Oo6M2BTboqyvoKnsrv9mRIbFVvFUxsTaBrpsuhqHaedtiltAdnfBzhFOgKu/Nn8d66jxjYFTUX4ovNX8H0rAWvIzugehiGp09yPwsBdjsO7sQpFyt5P8q6KgzsKroqcNLqJPQs9GEv7fuMrxO+3vYtAzvyvjuucxyGNka83NzJEtsO7ngK2JE1jNQisNwRbrlGmJh8NOe5Wm5gN3PyQBOfrHB3uJ/WmwWfZMDO5qQKsiM8GH6RV8JM7wnZdjT5sTdR50nW1Eg1ShJ92TMiLcSZoVZiwFl42Biwd4OsHcE3mpxRonFKQk4AjDz0aHvyDpRtR+OlsCmakM0EdpelSZeZ1hG4WVGScrMFATvypKPJW3akh/x4KB+eqdTfcG0q8qTjsdI/LvfkIyOvOwr5kh3DxYYM9rTrKI5ds8COcsr5Pq4sq2jjggbSZIIKEdQ9UWjhSVstwI7CmM+FJPEkSNHnf6WZAHYvB9oRrNNU2oldm75AzHk7/k5PD3XBlu++wrffrsPWbz+Hi6UOrjTncBt6QUL57A5J3+v0okaW4mBK6qs4gfLZqTHko23ZK1v6ru+rTJr123P80A7s2/4N/97IgB0BOnoRI9uuoygGasq7eQybJdORvrvrHlebFcBO6FXQvXv3cExFhT3qyP72n/8Zu/fuRWFhIa9faNEJyj+rdEKPfxMplyylQpgPsKPK8z942N1nGEa5TfOre7moE6WzaB8Z4zQI+4+qy4GdzMOOfospt+imbfuQWtDIv1VUhIhyylKfM4FdZHIRNAws2JPvyfG/yMOOPLEpHYem1J4AH+XEkwE72p6q0FNuX/I2FB52QkLLJwHshIRWkB48uo/EhgCczdZF02jjC4EdeaPF5sbi0ImDyK7Nhp2HHb7ZvhFaFvrQPW0ITXNdvP7eWwzsKHz20w1f4PhJdV5HZmRvhpicaM5HtxBgt3HXd7P62XJwJwM78vKjSrbb9m/Hxr3boHlKD598s46BHfWTUpKCb7ZtwO7jB6Csr8b9zAXseJ+NwbDNUMPFW4NznquXAez2bf0aB/dtgbrKPrbt0udjh7YzAJuQJjUEmiiRN4Ubbd74BYeAzqyYJwN2Srs3YufGdajLDJXDLZoUdZfFI8TNAiZaR7Bl83qoHt4h99Cj8FSCaCoHtnJ7gofk2TAT9tFkikKfCJ7JgB1V+aOE5DQJk21HkzR9lb2olyZXMmA3VJOKQGdzxPjYcYisp+3JOYHdd9LkUPnwTvk5+Oyz9xjYEXQ7Lp2b7rKEWQCRIGNnSdycwI68Pj744C2oKu/hvo4d2YkNX36MqvSgNQvsVqqtBmAn7MeZAHbCFGUC2AnNJcph9++vvcZ56w4cOYKUlBTcvXtXvn6hwI7yeWroneJ8tfRih6q+zwfYvfXuRwzCKHyVgJvSCV3OgUcFow4qa3EhKyruQwDuy2+38fJZOexGH6FA6mfr7kNIyq3jfLtHVHQ4zJX2NxPYUU693QdVOM8peVdTTjvyCKSxvxDYnbTE1l2H4OoTxflWZwK7xr47UNEy4tx4FMorgJ2Q0PJJADshoRWk6/cuw6/EBkFlTpzL7VnArqCxYLpYxIUmhCQHc9hpfmP+c0Ni6W+CchHp4RyuKis2IQtdVXq8jpZT8YkTuiqIzYnhzwn58fz5RSGxDcMNHPq648B2Do+l4hWykFjqxz/WD8e0j3E/efW5c4bEyo+1Mx0OWTqo6S+Y81y9DGBH4Z6pYW6ozQ5jC3K3hL7qAQZ2tZkhnLctL8aL87h52Rvh9EmVOYGdscYhBlnnpG0olx0tr8sK4eU5UZ5ozI2Aj6Mpgz8CdrSe8uGRBxt51VkbqHD7WB879qag9fSvzxljpARPe0TIgB0BMko4TnnwZOMgDw2943vRII2ToJryns3yPEd0nFQ58FnATl91PwrifeTnwERbiYEd7Uf14FYOoZJBRIKAp3SOousZwK4w7hzUjuxEZUawvL/Wohg+JwLYrSx7VYFd19ANmPqUI750WOHnaLVbauVFBnYtvdcWfJ0EsBMmgJ3QUurhw4c4ffo0Nm/ZguLiYty4ceOpbRYK7MjTjSpsk8dcdlkHfybQRUUdqBCVbDsq0EDV2Kno07SH3Q4Yn3bG+g1b8fXG7VzEiQAdGRWj+OSLDfj2u92cEoPgHxWJIrD3wfpv8R9//BC/e/8TfPL1Zpx2PMc55FS1TbnIUfvj8Fiq8r1fSQ1Vj+EeAUNlNQMOqaV9UqEkymkXm17G3nOyIkcE8ahAll94Khp6b0JN15SLLdX1TK+nIhn7DqtyAaLAmGwOA5a1Tcip5r6o6MV8zp0AdkJCi5cAdkJCK0gjN/pgn6GBlOaIp/LXyYDdF9+uh+nZUxxyau16GnuP7oWj9Pd8ik5QJdjt+7dzu7PnHeDi58xVZQnY7VPeBzUjTe7X3NkSn29cD01Tbf6sZa6LPdJ+XgTsStqKGcL5RPnw+GfmsKO2tA8ZvHtWDjuZ1Q5Xwlma1CfW++P7779/6lwtd0gs5WojoEaA7nZnIecYovDSuYAd5bCjPD8UqiortBDpZYNTusoczkq56Ai2EVQjEEf7plxvFBYry2FHxSdOG6hw6C1t014cI7U/is6SWDzoK+WiFd72huxtR0UmqBAEJRWnbSlESv3wdg6hImC3e9MXMFY/xPnzKAT3ecDuWSGxkyNVDAkdzbV4PwQak4McGVpeb8udE9hRWJbaoe0MDh9KYyaQSH3TGASwW1n2qgK7a7ce8CTBO7mdJzKKPk+r1TpGJxCY2QPDc6W4dP3+gq/TYoHd1NQU7tx5+p6aKQHsVr8JYCf0pB49eoTBwbkjMGRaDLDzC0+DkYUjF56Y128jeb/tV35hHtjVbgLYCQktXgLYCQmtIHVcrMfp1GPI70qbE9hRZVhrN2tomOmyUaXX8LQwhnXkKZdcnMRecU0j0+G0VFzCJ+o8SlqL5SG0SUVJsHSygK6ZDtyD3dmbrulCIzxCPeX9zmWOfs6o6a/m7cmrj8YiG1dmVQZ75xVL+/EM8UBNbzUvp34D4wM4HJcAn3e4Nxe74Px7PZUISgxCeWfZnMCOxupVaIGgcgeMTzx86lwtN7AjrzgNpZ3QPrGfveAczDTZY+1ZwI4qvA7XpHI+IUr03SS1Jw89LWpvrc85iQj43ezIR5DLKU4qTkUaqtODGdiRF1pDTjjniCtN9IOe1O7d996A8uEdOKG8B59//j4+/+w9LuZAY3c7rQtjzSMwUD8EY43DDOco1x4Bu0/fexOuVjo8VgrtXQywo7/pPFjoHmNPQRPJCBISYJwcrpoT2JEnYFqIC49HV+2gNL7DDC4JeApgt7LsVQV2k1NT8E1pgbl/lfRdclvh52m1WnXPXdiE1knXsQ6Tk1MLvk6LBXbj4+MICgpCSEgIbt2aeyIogN3qNwHshBaj+QI7AnXkzUa5246q6iEmrZyXzeu3UQA7NgHshIQWLwHshIRWkKjgxJksLRRL/84FsdaaBVc4w6f4NG7ev/bUuVpqYEceY1SkgaCZbJJwp7uIwz7JI4ysvzIZFWlB6CqN45xuVP1VlrBbBr3Ie26kLg0TXEyiij3tRhsyuD0VoKhID+Kcb9T+Qn06e8TRPgiSUXuCahcbM9mjjfLakacd5c6jUNWkEGeUpgTIzeGUFnu9ydoR4KuU+qc2tG8a09hAOVd3JdhG25ER4KN9yLaRjf02jz2d9ytbTsd4pTlbvg2ByIacMAZ1o/UZPE5aR56DBAdnng/ZeaXzVpURjJrMEPa6m7mNAHYrw15VYEdqH7gODZdC+KZ1onloTOHnarVZ68g4grN7oeFayDmUFqPFArvJyUkGdr/49a+xTvq+T0tL42Uzva4FsFv9JoCd0GI0X2BHud4sz3jhw8++hI2zH3+e7/cj5ZfbffC4AHYC2AkJLVoC2AkJrSBlt8ZIE1lDlPcXKhyWvQoWU+sLzwKzOQtPLDWwe5XtUmMmbAxPYLQhc9ZyqhRIwE7R4/sxJoDdyrBXGdiRl11ySS+03YvgldSO2t57Ijx2CYzCYOv67iMgsxtabkWIye/Cw/GJRV2jH5PDbnR0FNv37OEqkP/fP/szvPP++4iJjeXlJAHsVr8JYCe0GC00JFbY4k0AOyGhxUsAOyGhFaSUxhC455uiYqBY4bDsVbDEhhCcSdNGUm4MCgoKZll0dDR+9+abawLYkfdccYIPe/zNXE7FHpryIhQ+vh9jAtitDHuVgR3pzv1xJBT1QMe9CPbh9QjP60dm7WWeqOULW7Bl1V3hCZhDZCO03YoQndeFG7efTk0wX8mAnU9U/lPf5WRV2Y5oyjiKktyIp9ZlZ2dDT08P/+2v/xr/6Sc/YfvJT3+Kzdu2ITw8HP2VLgLYrXITwE5oMRLAbvlMADshocVLADshoRWkpIZAeBaYo3KgROGw7FWw5MYw6Pjvxhvrfo9//MUvZtnf/+xn+C/SpG0tALvVbALYrQx71YEd6f7DR6hpvwTbkGqoOxdC36sUhtJkTdjCjc4dhRlbBVaipPEC7j4Y/1HXRgbsPtyo9NR3OZnO0beR4fc11n322znX//d//mf85//23+TAjuz//JM/wZ///d/D7MTr6Az9mcKAna+jKT74+I+zzM5MU14h/HJTNhcV+uaz9zj/Z19lEre71VnAeT8/fNxmy4bP2Wua0gjQ+vu9JexB/e03n3FFcUp1wBXF2/MQ6maBvGgvqOzfgj3frUdWhDsXIKL0CpQPlf6lPijtwhkTNU5l0JIfyflSZf2TUbvMcDfOQ0rpGejvfVu/wu7NX8j7pO1ovyO1aXAw1eDjMFI/iKL4808dt4HmEU6V4HvWmFM5UFvqg47D+omq6gsxAeyEFiMB7JbPBLATElq8BLATElpBSm4Mhke+mQB2jy2pMRSnE9TgGeQEHx+fOS0vL49zGj2pFwG7C3l7MRj/Nh71pi5qAiFsaexugyu6Q/4Jt7pD5/w/EZU7DewqOgWwU6QVPAZ2Bc8IaXwVgB2JcptNTE7xPhu6rqBMmrAJW7jVdVzG6LV7fC7nqtK9UMmAnY1H9Jzf4+kRRqhJOoDIIIc516uoqOBPZ3jY/V//7b/hf//2t+x515JnrVAPu7OmGgj3PM1QjHKFpoW6wNZIlfN6Uk5Q3eN7Eetjx3lKC2K9cXTPJk5zcLUlFyr7t6KnPJHzhlLKg+P7t6A0yY8BmqetAadCoJyjXHhIZR9DO8orSpCO1lG+1MbccG4nA2zhHlZws9Ll8bif1keUtw3nKy1N9IWFrvKsYkME8AKdzTjHaow0Rt1je9FXkcS5RqkqOYE26rO7LJ4rfsf7neFxD1SlMFCkfKSUO9XOWI3zpVJOU+rfUO0A5zkl0FefHYYD27+BjvJuLrIkgJ3QckkAu+UzAeyEhBYvAeyEhFaQMlsi4ZpnhPL+IoXDslfBYuv84VlgitGbAws+l88Ddt9PjuNSmSb6on6J8e54hUOrtWy3aizRFfz3uDucOed1TCvrh4lvBUrabir8gXQtG4VIGniVsgfbXHpVgJ3Qq6kfk8Pu9u3bOHr8OOew+8+S/esvfwl9AwPU1tbyekXnsHM000RSoCP/TYCK0hdQBXEZoCOwRl5xtJ682+yMVNmTTgbsqCgPATUCcwYn9jPout6aB5UDW9FdGs/tqJgRQcDsSHcuZKSptFMOxAiaRXiehpO5Fm97TerXXFsJ9tIYCKTR9lwF/DnAjjzfdI/tQdXjPsnKkvy4EjiNKyXIiY+JxvHk8TfnRfA6WbEiAncyYEdehuSVR9XGrU+eEMBOaFm1GGDXOfoImaVtMLZ1g6apLWzcg1DVfgVtI2PwDErgZWSm1i6ISS9Hy9B9LlIRmVKMgpperi5LOVQTc2vh6huF+p6bSMiuQXx2Nffd0HsLwXG5aB16gNbhhwiKyZa+F/u5XUPfbXgGxsPI0gm+4WncN42povUi/KMy0CZtT59pLPHZVcgobuFtYjPKkV3eId93amEjnM6F875o++aBu9yfoYUj99/YP/0CtLbzGs5IxydrS8toXIHRWQhPKkT7hXEB7ISElkEC2AkJrSAVd6XBMVsXpb15Pwp0tVxsRnFrESwdLfDlpi/x1eavYGpngqLmQl6naBA3Xwuvcsf5Iktcuzs3JHiengvsvp+SJlN+6PD/f3CvyUvh0Gqt2tRIGS7nHpCuw59j4v7c1Scbe65yeGNy5aj8gVLY8lq7NAEIy+uHmnMBLl67N+d1EsBO6Hn6McCutLQU/+Nf/gV//jd/A72TJxnUPXjwA7h5VYEdebjFnLeD+2k9POgrlW/v72iKYNdTDOz2bfkK73/4Dj5b9yHeee9NuFvrc67SrtJ4/Nu/++b2uAAAgABJREFU/xuHy37+xYf49LP38c47v0ecrz2HnFJIamdJrLzPrHB3DjmVjaEs2R8fvvM6e92Rtx4tJ2D3wftv4dPPP+A+yd56+3UGdtSn8t7NGKr5IUUEVRcnwEfedoEu5vA7a8Jhs08e/7OAXVVaIIfYetmeRLk0HupLADuh5dRigB1BKq+geKjomMDeKwTbDxxjgNc8cA9HTujCwNIR5yPTcdYjGEqqekjIrkZt13VoG1ohOC6Hn1NKm0Zw6JgWvtq4HWXS3+nFLbwtAbbSxmEcVdNHfc8NRKeVQtfEBpVtl9E8eA9mNq4wMD8D7+BE6JnYws03WhrPGFILGrD3sKoctBGAM7d1g8v5CAaCRhZnuQ3BusrWSziuaYRP1n0j7WuIj8dBGquGgQXDOhMrZ1g7+fD+8qu68ZvX/sDwkT5T3yUNQ9jw3S5o6FugdfiBAHZCQssgAeyEhFaQWkaqYJ12AgXdGYsGa9QupSQFm3dugtkZU2RUZiBTMr8YXxS1FK0YYEfjPF98GoFl9njwaG5I8Dw9H9h9j4fXm9AX/4Y0UfsIU0OLy6sjbPFGk8r7LT7ojfgFLuTtembY3fXbDxn22IbVoWFg/g+PwpbOytpvwSKwGl7xjRh/NDnndRLATuh5WiywGx8fh62tLXR0dDA0NISJiaer1P54YPcGhpI+4e+kxXyXPQvY3WjPR2aYK3u53e6c9kwjTzoPm+kwVQJ2FMraVhTL4aVXWnJgqnWEId9wbRqOH9iCvspkXkdG0G9iuBKXmrLYG45CUWl/1GdiwFneJ32+3VnA8I689c5KY6MwXZmHHfV/oyNf3qfPWWMGdgTSVA9uRXN+pNzDrj4rFJZ6xzh8l8bkbKHNbeYL7Cic1kr/GOfRq8sMWTSwo7FMA7v/WwA7oQVpMcCOIJWjVwi8ghIYvB3TMJQDO3U9c0SmlDCUq2q7DB0j6Rk1OnMWsCOoZucaABsnHxw4qiGN4QJvH5teDhVNI6l9EYO/iOQihnOFtdPedQk5Nbx9Xc9N/lxY24ed+46iqG5g3sCOxuh8LhwW9h7Yd0SVgV1uZRd2SP3IxlHeehH7ldSRUdKK/OpubNq2F9pG1siv6WW4d07qh+CiromtAHZCQsskAeyEhFaQhq53wybtBNJbYxYN1mr7a3Bc5zisXa3RMFT/1PrsmmzE5sQgIj2cve5cA1zYG0+2v6YLjYjMiICZvSmcfB1R2lYib9s82oQIaZ3u6ZOSGeJcuDfqBmql5c1IKkqErbsNDKV1wUlBvPzHALv6kRppUm+ImJpzi8qh9DxgR6IH/2sNdugM/BtcKzqGyYE8hUOstWQUijyU8Pb0RHu04JnXkXJoFTWMQM+jGL7pXWgceKhwgLWWrL7vPhyjm2B4rhQN0v+lqWf8XxTATuh5WiywI0DX1fW0191M/Vhg15/4BoYSP8TUyNPeYz8G2BGcotxvVDCCwkspF1x7cQxOHNyKzpK4WSGx/AKjtwSO5lrwczThUFILPWWEultyOC2to9x1tJyA3f5tX3GYKcE5ypNnrqPEYavkAUd55ij89LK0ndtpPST4O7wwhx21o2IVTqe0GTTe7iqEt91JyQx53xTeSrn4ajKC8UD6TBBQ5jU4F7DTUtoJ9cM7eEwEGX8csKvElYJjaPcTwE5oYVoMsKOwVHM7DwZz5S2js4DdvqPq2KOsCX0rJ+k52xRaJ61QVD8wC9gl5dbB0OIs4jIrGLgRKGMQOPQALj6RUNM1w5ffbsVhFR2ExuehY3ScPeM8/GPx+bfboH/amY3Cbj/7ZgtSCxoZ2L3+7ofQNrfndTqnzmDDtj1w8gqdBeyypHHqm9khJr2M903ALkTax0dfboSOhQO31TY/gy82bucQXgJ2h4/rwMTahUNz6Tgs7D1h6+IHLcPTAtgJCS2TBLATElpBunJnFF4FZoio8kLLxaZFga6sqkxs3LERBY35c673CvXC1999DXMHc5zxsscJXRXomGoz6CMg5xvjC2UtZTicc4CJnQn0zHV5HbVtHG6A+dlTOKqjAkM7U2w/sB2l7aXczifqPJx9nXD2vAMOnTgI32gfNF9Y3DGQlfTkwjFbD8VdqYs6ly8CdqSJB5cxWnQEnQF/gUvZOzDWFbuoCZuw+dvUcBmHIQ8lvI+ukL/DjVaPF07C7j14hLiCbmi7FcEzsU26526J8NiXbBQGS5VhnWOaoetRLH2vDOLh+NPeTTIJYCf0PP2YkNgX6ccCu+GcTRiIfROP+jKWFNhR0QkCYQWx52Cguh/bN3wGtcPThRsmhiqmQ2K3fo3PPv8AGzZ8ju2b1rFHW39lEvfTXhTDVWSpwMS2bz6Fo7kmwzkCdqoHt3EuvBMHtmLnxnVwtdLDleZsdEhtzLSOoCk3AlMj1VwZVuPIDvbYex6wI6h2oT6D883t3/Y1A0FXSx15ZVqCdnSMBOE2fP0pTDUPyyvRzgXsKLyWAB9BRmr/Y4Dd5FARLmbtQE/k/+KCUQuVAHZrV4sBdoV1A9A8acmebeSNNhPYEWTTNrWFW1A8znqHscccQTcZsPOLTGevuZC4XLmHnAzYNfbdgY2zH0xOO2Pz9v0M7ihUlfLfEbDzDIzDjoPH4R6UILfAuBzUdd9gYPfBum/g6BPJy518o7DniCqcpDHIgJ27fwz37ReRjuL6ATmwC0vIx6adB+ESECvv1z8mC1XtlxnYqWgZcc46U2tXpOQ34OQpBx6/tpEAdkJCyyUB7ISEVpDujd1GTI033PKM0TzauCjQFZ0VhUMqB1E3OLeHm3uQO3Yd2oX8hjwGbfn1edi+fzsSCxI4x93B4wcQlxvL66p6KnFA+kwed+z1NljHEC8sLQypZanYo7SHgR155zWONHAb+tstwJU97X6Ml11KcyTsMtSlyX3Hos7lfIAdaerRXVwq10J32L+wt91QkvRgn7Udl3L2CFtiu5i5GX3Rv0RX0N+iN+o3uN0Xi++nHs3rej6amEJaeT+Mz5dBx70YdmH1OJ/SAb+0LmFLbOek80qVeQnU0f+hipZR9nR8nuYD7Gh9fGE3AjOrYBISAO+UQv7sGd8oXdMi+CQ38+e1YqXSRO55EHQ16VUGdtca7dAjff/fb/ZeFLB72Fcqz+1GcIoqrpL32dTjEFvybiPPOPKUu9NVxHBMtpyKPVCuOzLybKO+ZKG59O/D/lKGXDIvO2pDwI5y2LUURLGHHa0nSEbbEzSTbTdz31SYQjaumaG/BO/IZGGw9Df1N91n2ayxUB88Xmks9K8sNx4dz4Mnxk37fNBXIl9G45p5ThZi4z1JGIj9A0Zyts/792KmBLBbu6rrvAx9r1Jk1V55IXCil4CUL87NLxrmtu4cfkohscrqJzkHHYWhzgyJbZI+Wzp4s0caATvKOUfbEvgiCCeDZgTsqFiEm28U547LqejAUVV9LvSgoX8KvmEpHIqaVtjEQJByyLWNPOTCEjQG8sB7UUgsgbojUluChZSLrqxpWA7sqKAFhcfS/mgc1G+T1A/tk4GdtjHvU1XHlGEdHX9Kfv2CgV1QVg//xg9ffvoZQEhI6PkSwE5IaAVpcmqSPcooj131YNmiQFdcXhx2H96Nmr7quT3swrygbaqN6t6q6RDagRooaSghNCWEod2XW76BupkODM+Y4aSdKdZt/orDZmnb8s4yqBmocU68tCeAXUZlOjxDPWDuZIndyvuhdlJNvo+FWuOFeoRUunIBjrGJhb9RJ80X2JHIw+vehXxcrtDHUPpX/HDfn/COsCW2gaQPpUnXDlyrt8HYzbYFX1OCRr0XbiGxuIchj0N4LezDaoQtsZ2Vzuv5pGYGpPTwPZ+Q9OcBO8pDGJbVIe/fKqgE2l4JMA8o4M9mfuVQdy6ARUCFwo99OcwutJpDvOkevn1vfMH/D1aiXmVg9/B6IzoD/xJXi06wB7CivZBfZATsjDUOcVitoseyHHan7iy6gv4KNzt8uWDUQiWA3doVFUnScClERP4AOkaf75VPXm6xGRV45+N12Hdcm8NOVfTM8dZHn8Pc3pM90vYra+CAqh5MpM96FmcZkkUmFzOwO3RCF598sYGLSlB/MmBX0jCIgOhMLvpQ03F1RtGJm8irmvZwo/029d+FvXsg1PVPwUDq29TGDd5BCRyi+yJgpyqN84NPv2QoR+tnAjuCkB4BcdJ+jHHS0pHDXwnK1XZdkwO7hr5bDBTf//gL5FR0Ir2oaUHAru3CI9iH18M5un7N/KYJCS2lBLATElph6r7cDKccfSQ1hi0KduXV5eLbbRuQU5s953rPUE9oGGqgqucxsOuvwRG1w3Jgt3nPVpg7W8Lex5HNMcCF+6RtEwsToKavyp53M4Ed5a87rHoYLn7OcPR3xlHt41A3VF80sCvvL4Jbnglia88v+jwuBNjJ9P3UBB7dHZQe8Fsxdr1Z2FLbzQ5MPrwqTbomF31dSZNT3+Pm3TF+GB+9Kmyp7dL1e7hzfxxTU/PPHfk8YEeg9eqtB/L+a3pacCb1NPKai/lzdtUg58grabqg8GNfDhu4eBvusQ0C2M2QIoEdvbAZTFuH/ujfYLw7QeGASgC72TaU+D764n7PvyGLkQB2a1f022MVVAmHyAbU9d1/PnQaGWOPOXVDKw49lZmxnTuU1A1Q0jiMyNRS+XK3wDikFjZybrrW4YeIyaxEXFYVgz/qj7zY4qRlBMNSC5vkxSUItiXl1bEXHX0myJZT3sntyDOP2rgFxMIrOJHXEXAjIBifXY12aYycsuLCOK+jPslrLiG3FtHp5XwMMqBH/ZAXIH0m8Ea59TyC4uEZlID0omYeM40tpaCB91HdcZVz39Hx1HVf521kx/IiK2i6jpPeZfwydSHPDUJCQtMSwE5IaIXp/tgdBJefhUeBGRou1C0YdjUM13M4qo6ZDopbijjvHIWrcnGIC01wC3LD1j1bONcdfSZvOfLIy6hI4+ITRzWUOASW2lEBCmrXNNLI4bAnrU7CM8SD+6NKtLuP7ObKs6b2pjCxMeZ9U6GLUw7mOKF7YlHAjrz1qOiGdfoJtI3WLvo8LgbYCQkJLU7PA3ZPaq3nsBsbn4RfSosAdjOkSGBHHqT3RrKlPv4JoxmbMDVcrHBI9TybHKnCna5Cec641Wrk7Xij3BCdQX+DGy0u/EJtMRLAbu2K/m/TiyBt9yL4Z3SjdWT8hcCOcr7NXE7VU40sHVH2OBedsNlhxBWdd2Af0cDpSij9hZCQ0MIlgJ2Q0ApUzUAB7DM1kdWWsCgPtcKmAhzVVOLiD7qWBjC2McYZrzPsDecZ4ol1G9bB8LQhgzVlTWX+l4Bc04UmBMQHcIissZ0pTOxNYeNmjbz6XLgHu+N3f3wD6iba0LcxwlFdFfz+/bfhEeoJvxhf7FXaAzOpjYP3GRzXPgZdM91FATsKh/UutEJAqT1uPVj8BF4AOyGh5ZMAdvOXAHZPS5HAjjQ5fhtXaszRGfjXuFp4DBP92QoHVmvZpoaKcbPCBF3Bf4+RvL2YuH9x0ddWALu1rbsPHiE6rwtabkUIyupFdffdOcNjKVdcaEI+V1qdubyy7TICojK5+IOiAdmrZBQGW9h8A/bhDTjpXcq5boWEhBYnAeyEhFagqPiES44BAssdUTc8dy66F3mplXWUIighEDZe9lzxNSozkr3lKIcdhauGpYbhjLc9/GL9UNFVzm2oLRWOSC5OgpOfM+y9z3CoLHnqqeqrQsNUG1butmyW7jY4ZqAGdSNNlLaVIDgxCHaedvwvAcPU0hT2xFvo2Au6MrnYRGlPBiYW+UadJICdkNDySQC7+UsAu6elaGBHIih0sVQVnQF/iYtZ2zHeHT+rQIOw5bHJwUJcLVRGd/D/4Lyn47d7ftR1FcBO6Madh4jN74KGayGsQ2oRmNmDlMpRZFRfErZAS5csvnQE3sntMPWrhPH5UhQ1jGD80aSiL7OQ0IqVAHZCQitUBR2JOJOpidyOVDlMWwojYKdjqoPqZxSlmMsquyuha6bDOexmQsGorCiY2ZtK6yuWZGxNow3wLbaFT/FpXLo998RuvhLATkho+SSA3fNFVY4fTUxPaOYCdpSXcWwVV4xdCcCONDl2E5fKNdEV8rfoCfkHXCvRwFhHFCYGcjA5WCDsZdlALucPJK+6fqokHvx3GMndirGb7fMqevM8CWAnRKKK3FXSb41zVB2MzpVKVvZK2kmvEmg4ZUPbJU/hY3meUd7Z4Iw2zsk6MbHwYjBCQkI/SAA7IaEVqpv3r8K32BoeBeaL8rJbSmBHlWS9Qj05NHYmsMusyuRwWFr/Y8fVfLEJKc0RsM/UQFV//o8+fwLYCQktnwSwe756Rm4ipbSPqxzfe/BoBrAbw8Xr91BYP4yy5tUbUrRSgB1pavIh7kp9jeTtkfr9F3QG/BR9kb/AUOKHGE7+VNhSW9JHGIh5DV2Bf4GukH/AYMpnuN0TzmHKSyEB7IRmanJyinOttfRdQ0PXlVfO0gobsH7bUSjrWCp8LHMZPVN3Dd3ArbtjPxqmCwkJTUsAOyGhFSoKByVwRQAruSl8yYAdVY+Ny43lohJL1edSWEV/EdzzTeFfYot7Yy+e9L9IAtgJCS2fBLB7vigkyyOukaEV5VNyjKxlT4+Eoh6cjajl5YMXlwZQvIpaScBOpsmH16U+M3G92REXS05gOOs7DGV+K2yJbThrM0YLDuFqvQ3uDCTi0Z3+Jb2OAtgJrSR1dnbi7Q8+gNKxY4oeipCQ0DJJADshoRWs++N3EVPjDcdsPc7ttpShsa+SNYzUIrjCFQ6ZWui+3Lwk504AOyGh5ZMAds8XeXVQnh9ttyKoORdA3aUAmi6FUJf+VnXKR3xhN8ZWcQ6glQjsZKLqpFOP7mDi4VVMPLgibKlNOq+T4zfx/eTLyecogJ3QSpIAdkJCa08C2AkJrXBduXMBHvkm8CgwQ3l/4aqDdhQKm9gQAtt0VRR2JmN8YmxJzpsAdkJCyycB7F6sm3fG4B7bgBOO+bPsdFAVhi//eK/iV1krGdgJrWwJYCe0kiSAnZDQ2pMAdkJCq0CtF6rhlK2HoHInNF6oVzhkW0rL60xlD8L4Ol/ceXhzyc6ZAHZCQssnAexerJledjJYp+ZUgDTp3K12CWAnpCgJYCe0kiSAnZDQ2pMAdkJCq0CPJsdR0p2GM5laiK7xQfNoo8JB24818hQs6s6GW54xfIqscOPe0oI1AeyEhJZPAtjNT5So28K/Qg7s9DyLcf/hI0UP66VLADshRUkAO6FXWY8ePUJmZiYqq6owNjY2C9hNTU3hwYMHiIqORkVFhaKHKiQk9JIkgJ2Q0CrR2MQD5Hckwj5DA5HV51A3snSVYxVhBV0ZcMoxgHfhKYzeGljy8yWAnZDQ8kkAu/mLKu3JgF1uzdp4bhHATkhREsBO6FUWQbno2Fj847/+KzZt2YLQ0FD89s03sXXHDgQFB+ONt9/GP/3856Iiq5DQKpYAdkJCq0gPxu8hvTmcoV1YlQdqh6sUDt4WauQdmNeZJk3YDXG+yBLdl1ukB5alT7YugJ2Q0PJJALv56+bdMTiE18IioAJXbz5Q9HCWRQLYCSlKAtgJveq6cuUKNu3Ygf/0k5/gp//9v+NP/uqv8Ff/8A/4rz/9KS9z9fAQwE5IaBVLADshoVWme2O3kd0aw+GxfiV2qJQmvSulEAXl30tuCuecdeeLrDB0vRuTLwHWkRYC7OhBaGrqezwYm0Bb/3WUN4+itPGCsCW2qraLnFx//NHkoh4+Zdfp4fgEuoZuoqJFXKeXYZXSeR24eJurlk5J53w+1+pVAXY01kcTU7h47R7qOi8r/FzOZcUNIziX2ASPuAYU1Q8rfDxzWU37JVy4ehfjE4v7v/qkBLATUpQEsBN61TU5OYmklBT81T/+IwO6mfa7t9/mMFkhIaHVKwHshIRWoSamJtA0UgH3fGOGXxmtcWi4UKdwIPdMr7qLTagaLOWiGTbpqoitPY/bS1hgYi7NF9jRZJTgRGRuJ3Q9iiQrwclzZTA8Vy5sic3AuwyaroU8cc+uHsTte+MLuqYEEGILumHgVQJt92JxnV6S0XnVdC2CqfT/J6W0DzfuPHzhtXkVgN29h49QJfVlE1IFdZdC6HuVKvxcrlQz8C6FhnQOrQIruVDG3fsL+7/6pASwE1KUBLATWgm6ffs2vty0aRas+y9//udw8fBQ9NCEhIResgSwExJaxeq+3Ay/Ehv2tguv9kTlQInC4dxcXnUZrbHwKrSAQ5Y25+G78/DWSz838wV25KlFoIFgkmdiG1IrLyK34SryG68JW2LLqb+K6MJBOEY3QcutCKGZ7bgyz5BAgqpnI2qh51kC94RWJJVfENfpJRmd19jiITjHNvN18ktpwei1e8+9PooGdnfujyOhqAc67kWwj2hAeH4/MmsvK/xcrlTLqruCyIIBnI1q5Kq2UbmduHH7xeD2WRLATkhREsBOaKWosLBwtnfdO+9gYGDpczwLCQm9WhLATkhoFWvq+ylcvj3Cee1sM9TgUWCO9JYYhmSKBnVklf0lCKpwhl2GOryksbWP1mHs0fLkbJoPsBu8dBv2YTUw8qlARs1lNA+NoevSpLCXaB0XJ1Df/wAR+QPsbRea1f5C753Rq/fgGlMPfe9SBqpNQw/RKfWj6GNZzUbnt2HgAeJLR/g6EbR7nqedIoHd5NQUkop7GSx5JbWjtu8+OkbF/fFjjc5hXf99BGb2QMutENF5XRyOvhgJYCekKAlgJ7RSRF52m7ZvZ1j3f/7pn8LewUHRQxISEloGCWAnJLTK9f3jHFN9V9sRUu7EcMwtzxjprbGoGizjcNTlhHQNI7Uo6s5CSKXrNETMN0VRZwrujt1e1qS5LwJ2t++N4XxSM4fNlXXcFgBIATAgqmCQQy+fVynz/sNHCMlsh457MQqarovrtMxG5zux7AJ72iWV9GJycmrO66RIYEd5J9WdC+CX3iWg+0uwtpFxhOT0cYgs5Y1cjASwE1KUBLATWimiirEx8fH4///d3+Hvf/YzUWhCSGiNSAA7IaE1pHtjd1AzUIiQCifYpqvCs+AU4uoCUNyTi8aXmOOOil5UDpQiszVe2rcrzmRq84Q8tSkEIzf6FHIungfs6CGofeA650ILze1T+IR4rVpd3304RDbCMrASE88AQUOX78DwXCnDmPbRRwof81q0psGHcI1rgalvGe49eDTndVIUsCPvOt/kFpj7V6Gi87bCz9Vqteqeu7AJrYNjZO0zoe3zJICdkKIkgJ3QTE1OfY8bd8bQP3obPSM3Xzmrbu7D9sPqMLN1V/hYnmVUPIyeBQRQFBJaGglgJyS0xkRhsjfvX0PDUBmCy88yuHPM0YdPiS0SG0OXNM8dFbrI7UhFRLUXXPOMYZuhDsdsXeS1xzOoo/BXRf2gPw/Y0QNbVtUg9D1LUdJ2U+GT4bVqFB5LobEUykhhr3OprHmUC4FQ/jvhXacYo/NOobHkZdc9fHPO66QoYHf11gNYBlTiXHIHOgTQfWlGHrFBWT0Mzy9dv7/g6ySAnZCiJICdkEwE6SJyOnAmvAYWARUw93v1zMy3DCq2STDwKFD4WOayU5KdDqyEY2QdMisHcOvemKIvq5DQipcAdkJCa1CyMNnJqQlcvD2E7NZo+BZbwzlHH7bpalxZNqDUAUmNocjrTENpXz4q+ou5kmv1YDlqhirkVj1YxpCvvL8Qxb25nCMvstobXgWWXPHVIVOLQ3BjarzRPFKJ++N3GBoq+s3b84DdxMQUh1lah9SitveewifDa9moMABVpKzvvDzndYwr6IZFYDXKO4T3lCKNChEYnS9HSePInNdJUcCua+gGTH3KEV86rPBztNqN8kcanStDS+/VBV+nlQjspibuY/x2N+6NZON6kxMulWniYskJYUttpeq4WmeFOwPJGLvZjsmxG0t6HQWwE3owNsGV6emlE/2OucQ288vCWGkeKWxhFiMZvbyxC6uHgVcpR0jQc/azoiSEhIReLAHshISEWPfH76LvSjuKu1IRX++HwLIzcMkxgHWaimQncDZLF655RvAsMIdXoSW8JfMqsIB7vimcpe3sMzRhlarMgM678BTCq9yQ1RqNxqEyXLo99yRMkXoesHs0MYWA1FZ+4KCwTEVPhNeykefcSe8yVLVdnPM6RuZ0wiqoBpVddxQ+1rVshc3XYexTgfzauX9nFQXsKH8dtU2uuKDwc7TaLaPmEgO7hq7nV96eSysJ2H0/NY6HV+twpcYcfbG/RWfA/4Oe0H9Ef/R/YCDmdWFLbP3Rr6E3/F+l8/xT9ET+G0YLlXB/tJCB6VJIALu1LYJ1aWV90PEohmdiG0rabon0GktgrSPjXKyNXqia+ZajqWfhL3KEhISmJYCdkJDQLH3//RQePrqP6/cuY/h6j/TD24g6aeJc2JmMjJYIJDUEwCxAFUdOb4Z/ngPnocttj0N5bzZaLlRLk+0OXLo1hNsPbrAH36sqAexWhglgtzJMADthawHY0e/jjXZvBnUdfn+KC+nf4nb1aTxo9cdYZxTGumKELbV1RuNhezDu1DngUvYudAX+BXqi/jeu1JpicmxxhWhmSgC7tSuK9GiQngH1PYs5DytVPlf09+hqMkprkt90HacCqmEdVCXCY4WEFikB7ISEhJ6r6fDZKUxOTTKAm5h8BEMTI7z2zluoravBhLSMlr8KYa4LkQB2K8MEsFsZJoCdsNUO7KYe3cW1Bnt0BvwVhhLfx/0WX0wNl+H7C1XAaI2wl2zfX6jG9yPleNSTjAvp36Az8G8wkrvrR4fICmC3dkX5iqlQDqU/oWcIkQd36Y3OqSy1SVbVwIqaJwgJvSoSwE5ISGjBMjQ2xn+88Qbq6+sVPZRFSwC7lWFLCezaRsaQWtAIB69QmNh7wMUnEnlVPegYHVf4ca50WwvAjiYepY3D8A5OxKmz5+DoHYbcyi5x/zy21QzsKPzyeosbOoP/DqOZ3zE0UjTAWss2OZiHq4XH0Bnw17hUrvOjoJ0AdmtXVJRI3bkAoTl9Igz2JRqFxxIUdY2pf2YleSEhoWdLADshIaEFSwA7YctlSwnsWocewNE7FGZ27rB08oGRlRP2H1FDaHwe2kfGFH6sK9nWArCrbL0EAzN72Ln4wcY1AOa27jh8XBvJefXCM+PS6gZ2D6/WoDf6VxiM/yMm+jMUDqyETUO7y7kH0BXyD7jdG7HoayuA3dpVU/dV6HmW8HeXor8/V7v5Z3TDJqQaF67cVfRlFxJacRLATkhIaMESwE7YctlSAjuCKs2D99A2/BAdo4/QMnQfEclFOKFlPO1pd2EcVe1X0NR/Vw5g2kYeorx5FO0XxthDj/+W/qX1dT03Udt9g/+m/mo6ryK3qht51T1o6L01C+I0D95HXk0vMss7eH1T/3T4DVm91E+e1K6gpg+Nfben+3s8FvpcVD/Inlz0ueOxF0DTwF1Utl2Sf5YZtStrvsDjfvLYaXs6/h/GdE/q8zJ7iFE/NI7C2n5kV3ShvGX6mOd7ndYCsGuXzm2ddL1bH98/dA1MrJ1x1jOY7w06n+SBl13RiWLpmtFnOu+0jq4hXfuZRn1xv9L6itaLyKmcvnfoOsjuHfq3tus68qt7pXugm//m+1C6PjOvcfOAdC3bLvMY6XrSvUh95Uj3TbX0N41Xdv/T2LIejyFP6nfmPfFjbLUCu6nJMVzI34fe8J/hYXuIwkGVsB9sargE/dG/wWDqZxi/3bOo6yuA3doVfY+elL6z8hqvKfxZZ7UbVd21DKhE/+gtRV92IaEVJwHshISEFiwB7IQtly11DjuCFuRpR5CCjCCWhp45zockoabzGrROWiIsMV8OTIrrBrBz31FUSA/2JQ2D/Hd58wUGIianXRAcl8uQJKOkFWq6Zth+8Dj2HFaFmY0biqS2sn4Scmrw4ZcbsWHXQbz/2VcITcjjdQTpjK2csOegCvYrqcPSwZuBTa00FhUtY5hK+zihbYLte5Rw5IQuMopbuF1USgmU1Q0YGs08vtqua9i25zAKa/tmLSc4SdvHZVbKl8VnVUFdOnaCQAR8fMNTcUzTEFukY9x3RBVJubXzvk5rAdiR0bWm+4bOe2ZpG1SlaxNCHprS8uT8emgbncb2QyrYdeAYXM5H8LYE677ZugcfffMdvt55AF9t34dfv/lHDqmlPmnSaGrjij3S9d+2Txk6Uh8EfGkdgVq6RrsPTvd5PjSZ77+d+5VnXeOYjHKo6pgw1CWQ7OgZgkPHtLBt9xGo65/ifugecPePwYGjGtgitaexvPfpl0jIrlqSc7NagR2BoM6gv8LlvEOYGipROKQSNttuVVnx9bndG8n5dhcqAezWrugFnAB2y2ORj4FdnwB2QkILlgB2QkJCC5YAdsKWy5Ya2LUM3oehlRO+2LKb7fPNO/GL370BMzuPeQO73MpOWDv5wN0vGq3DDxiEaErtCNAQaCEAZnLaGTbOvrw/6ic8sRBmNq68jvZBwK554C6szp5juEftyDOOoFpkSgkDuz2HVGBgfobbkKedrYsfNPRP8d9LDewIOFW2XUZj/x3u0+KMFx/jfK/TWgF2FP5K982673Zh2z4leATEouGxVySB1uqOq3wuI1OKoaZrjtKmEQZ2qjqmnD+R7gfanu4PN99o7pOgHnnYkccc3QN7Dp1gAEzXTNfEBjZOvnxv0rWhfRBkfh6wIw882qZF6pfaURivd1AC900QOFa6B8jjjrZR0TQSwO4FutHmhe6Q/4m7DS4Lhkn3eooR53sGJw7vwLEDWxHmYYXbXYUKh1yryca74tAX9WuMFh7G91MLz48lgN3alQB2y2cC2AkJLV4C2AkJCS1YAtgJWy5bamBHoILgSF5NHxuFBp7QNcUZjyCGG+Ql5+IbhYK6fjYCIQTAZMBu47a9DNxO2bkzeKE+S5uGsWPfUV5PnwneUKitrontY4AzBqdz4XCT+p0J7Ggcqjpm8AxKQEFtP4fM6pufgdVZbwZ25FEXk1YqH3u2NNYDR9VR1jSCqJRi7D6kwuMvqBuQ+rrEnoPPA3bUn3dIsvzYzoel4LimEY+JxkygjsZEgMnWLQA6xtbzvk5rBdjROaL7JqeqG8FxOTiorIlo6RrRfUXwlq53SeMwIgioapzkUGc6nwRGs8rauQ8CapT/zs1vGthRGDOFVpc2jnBY7MHj2nz/kCcd3VdPXksCbdv3KvF+ZdfSKzgRx6T9ycKmCQCT5x71d/KUA+yl60lj0za04hx8dN8k5dXj4DEtAexeoAsFe9Af/TrGe5LmDZGooulofQZMNA/DzlgNFamBqMkMgYulDrSP7sZgdQpvo2jYtRpscjAfF9I3oTfmVxy+vFAJYLd2JYDd8pkAdkJCi5cAdkJCQguWAHbClsuWGtg9aTUcemoEr6B4/nvvUQ288/lX+GbnQbZPN27Hlxu3yYHdp19sYIji4R/LgIz6yK/q4WXVHVf4M8Gv6LQy6BrbMECp7b4OYytnRKeXzQJ2xQ1D+Hb7fnzw1Ub5/sh8wlIY2B1V1UNcZoV8rJQfj4Ad5UkLTyrEz37zGr7cvg9f79iPvYdPwDMwjiHNs4Ddtr1KeE8av2w/763/FlukbWu6riG/phenz56DhoEFdh48jjc/XsfAab7nca0Au5lGnnT2rgHswUYwzPlcOENOKkTxybfbsH7zTg5FfR6wo3yKYQn57EmpdEIP3+48gN+89R7CEgv4GhKYozyDM/dLwG7j1j3SvblNfi3fla7rtgPH+H5LK2zCyVNnGD5TCPY70rU87XiO71cCiJule+6Pn33JXoJ//PgLAexeoP6ktzCU8AGmhsvm7/U1WI5AF3PYGJ5gLzvZ8of9ZfCw1sf5M0Z40FeK3vJERJ63Q5DHabmlh7lye9q2LisUF+ozkBnuhpjztugqjcPkcCX3NTVShdGGDKSFOCMp4Cz6KpOkdVXyfV1tyUGMvwP3mRDoiGutudOAS2rXV5HE/WWEuuJSY5YcHlL74kRf+VhipX7vdBXxOhpvebI/os7Z8L9j/dPn41ZHAWoygjE2UC4fV2dJHI+H+h2qSUVHcYx8H+RhmCEd44W6dP48IR1Pd2k8YqWxZkjHeaU5e0Ew8/uRClzJV0aH/59gauLBgq+vAHZrVwLYLZ8JYCcktHgJYCckJLRgCWAnbLnsZQI7AmuxGRXsJUUhiPMJid2+9wjDNgIwFPZI2zHoO3wCaUVN3IY8nAi66ZvacWGB9KJm/psA3UxgR+30zey4Su2TVUYJ2O07rAqf0BT5soTsas5LRmBwZkgsgaPQhHzoGNsgp7JzwSGxBIDIA4typ8kKFLj6REnjtJr3uVyTwG5kDNaO52F4ygEpBQ3YsvMA30d0/ujfo2oGLwR2FDJLOeXo+tF1pLBXuh8J2FGeRAp9Tcmvn7Xf54XEkoeknoktw1e6Nyjc1pTCs6Vxkgcg5d07rmnI96QIiZ2f+uJ+j6GkTxYEkQhinT6pgowwNwZYMz3vypL9YKV/nMFUqLsV9mz7BrbmWnCw1IWxjjI2ffkxbnUW4GpLLlQObIWtkSp8zxrD+ZQ2tJV3M8Sjfkbq0njdWTNNeNmehL2xGtqLfgBjlamBOLBrI85a6WLXd1+iOj2Ix0LtzXWOSm0M4HRKi9vd7Z6GcgTdNJR2wUpa5mxjgPWff4DusgSGhFHeNjgltfO2O8n7jfc7w2CxtTAGWkd343pbnhxWekptQz2sGA4m+DvATRoDwcCJoQpEn7fFlx+/g/RQV96+ISccJ1UPwMVaH26n9eBsoY3LTVnzB3bS8V4tko7d578IYCe0IAlgt3wmgJ2Q0OIlgJ2QkNCCJYDd4o3yj5H3y+vvfYzXHtvrH37Gni+KfqB6FW0pgR3l/4pILmZYkVnWDo+AOPY28pT+Je+j+eawoxDYzJJWBivpxc0MWlx8InFcwxBpxS1cfIBgTUBUJgM78p4iS5O2peITB49pszcWVaM9F5os9aMlLa/m6qIEXmg/BOz2K6mx5x7lTaNiExTSSkUDaH8UErtPSZ3DIQkE2rr4Q9vwNApqehcM7MiD66xXKFR1TXkMtJwKYFCxi/leJ0UBu0u3h/Hw0X1MTk3O2ddSArsc6dwERmdx5VX6/+obnsbnmsAtVWTdtH0foh6HqdL13rb78AuBHYUy031EHp5UodczMB6ff7WJgV3H4/uKIG18djW3T5fug/KW5xWduAxDi7NcyITuBfLeo3HZOPnwvWhu5865FWUFVwSwe7H64t7EcNInCwrTvNyUDQtdZTTmhs8CffR3U24EdJR3o68iERFe1gy3yAuPoFivtOzIro1yYLdn83qkBDlhfKAc44MVCHGzhPVJFdztLkbMeTuGdXe6Ctn7zfesCXwcjNnzjfaTHurCXn7kWWeqdYSB3e3OQtgZE2xzYM+2Wx35MFQ7gNIkPx4fedNpHtmJwepU7ld572YGdgNVKTi+7zv2zCPw1lkSC93je6XlyfMGdrS/1oIo9jqkMGECdo+GKvizDP7dlMZjZ6TKY5/pLfgimwZ2PxHATmhBEsBu+UwAOyGhxUsAOyEhoQVLALvFG0EjTQML9sCiv2VGEEbRD1Svoi0lsCPvJefzEdi69yi+/G4XFwIgANIxOn3uCaZSIQmCcDJgRwDEysEbdd3X2bON/qY8cbQuPrsKZz1DuB15L9E1pbDEvUrqDMbomsakl+Pnr/0Bn23agc+/28n2ycZteOPdj5Bf1c3bxGVV4ZCKDjbs2A8dI2v2uiJgp6ymz2Gu6nqnsHX3Yf6bYA/tm8Yo649CGylPGQEfGouFvSfDmJnHTgUNCMrlVHTJl+VWdsPVJ5LPC3lzEcihEErLM17szUfHM9/rpChg1zJSDf8SO1T25eLKndGn1i8lsKtqu8xFQrbuVcLXW/ZwjkKq8kv3Ct1DAVEZXCWYctAl59UxsKVCDxSmSueZcttRP3TN/SLTOWy6c/QRe70pSdeaqssGxWRzO7ovp6/bGFeG3SGt2ybdtwQH6f6jPIczr3F2RQcXPanvvcX7ofto49a9cD4XgRhpP5TvjpZTIZGi+gF5kQwn7zAOtV6K/6sC2P1g5D1H3mgyb7gngZ2eyj6GXRFeNuwd9/BxeGm/tGwmsDu+bwv6KpPl7Sn01ETzCPdvrHkYBhqHEeV7BpE+9jDSUoKpthJDNwJ85+wNkRPlOQvYDVWn4MTh7ThrqSNvd/TAVvg7mXL/FB6rrbyH28wEdnnRXtj53ZcIO2fL7QLcLHFQGmd1ejBaC6KxbcPn8HO14HW0zeG93yHA5dQsYEdAz1M61oLYcwzpCNjRsu3ffg4XGwN5W9UjOzlkePxxiK0AdkIvSwLYLZ8JYCcktHgJYCckJLRgCWC3eKNJMnlxBcdmz1pOHl6UxJ4qSdJkmow8tbTN7Bka0cSdAAqBAMsz3jimYSj1kYPmgXvcnrxxMkpaoC9tf1TLmOGBbB0ZQRlX3ygoSe20jW1Q3DDI+5KH4vXdxrngRJQ0DPH25IFzLiQJx9RPsrcQeRfRctrWW9pu9zGtWeboEzlrf0tlLzuH3cu2+MxKGFo6MjCTLWuSroWKtjHyq58NSmTAbqm8n162KQrY3bp/HWEVLrBOU4FfiS2q+vJw68EP273MkFhhs00Aux+MPNkISiUHOs3yFJu6UI2i+PPsJXetJeeFwI6AWU9Zgrx9VXoQjDUOc8iogeoBHD+yk0NXZZYb482eagT0ZCGyM4EdQcKj+7fAUOforHYt+VHcf2thNIfL0nhmArusCHds3vA5HClk9XGbEE9rBnwE7Das+xDWphq8/KyVHrZs+gJ+zmazgB1BP3drPdxoz3vsRefKx7jl609hqn9c3q+XgzEac8LlufoEsBN6WRLAbvlMADshocVLADshIaEFSwC7xduzgB0BM8NTZ3AuOIFhXUXLRU5C/+mXGzn8jkIa9x5WlZbpIjA6E/6R6fJQOkpcT2GMFPJIkC04Pg8ntI3h5B3OfVE1U/IGolC5kIR8qW0GFycg8EbFEBr77vDf5D1EHjqU+4q8rPRM7RCZUiLtI4FD8PKre9mTTE3PHCY2bghNKmQzkvpQ1TXjkLulfshb6cAuMaeGwxBnA7u7nB+usKb3me1WIrAz8S1DjnRM4xNjT1lqWResg8vQO3ptzvUzrftyC1xyDFAzUISJyUeobB2BqW8JWvou8+eZNvboIUO6M5masEhRgk26KnyKrFDWk8V9tfZdFcBumUwAux+MQj2jz9myNxwVf6DccWQU8kkgLcTNgsNYXwTsdm9ej7wYLwZfU4/hF4FAComlPigM9qHUz9RINYNBMtquJNGX89PdaMvj/dM4qtKC+LONoarUp/fjMVVzqKpsfFSIItDlFHsCzgR2VERC48hOBoGybakdbTefkFjKeWekfgjN+ZHcRgbsxgbKYK6thMK484/HUc2gjvpfSM5AAeyEFiMB7JbPBLATElq8BLATEhJasASwW7zNB9iRd5ujVyjsXANwWEVHDuwOHdeGV2A8J7Un84/KgIa+BSeaN7d147xospBJCrPbfeA452UjmLdPSY1BnGx/FMJHkI4gHhU2MLV2ZUhIgI8S5pNnXenjED5a5ugZwvsgTz2qJEqFEmTrgqRjoYIFAtgtnTX03eJCELmPPRtfdSNgZxMbAId0E3gXnHrKzqQZwTJBH645pnOun2muuYawSj0G32IbxNX6wCffDebRNggo8uDPT1p4pRscMrUY2M00rwJzxJQnwcgnTwC7ZTAB7GbbzY4COJprwUTzMELcrRDuZQNLvWMM3AhuEaB6EbA7vPNb6KvsQ4yPHeev01TaifqsMIZZlE+O+qb2oV7WXL2V1lEevP1SO63j+xDkYcUea5u+/hTOlrocLlua5Au943sR5nkaEd42XPiCctRRHjtNpV3ofxyCOxPYEYD0OWPMYb6hUjvaFwE38iScD7Db8Pn7nHNPVoBDBuzo7/KUAG7v72jKxxHnewY95QkC2Am9dAlgt3wmgJ2Q0OIlgJ2QkNCCJYDd4m0+wC6tsIlzkqUWNmL7niNyYHdM4yTnRJO1Ie8tSmZPucuo4EBEUpE89xoVSaACCZSYnjzkTpqfmbU/GbDbvlcJ23YfkedtI6OE95QDq6H3lnx7AnSU1L6u54YAdsKesmlg5w/7NAO45Ro9ZXZperBI1IFT1sk5189lfiU2CKlwgkeuHcxjzeGdb8+fnzTKYWefof4UsCPwF1IcCkOfbAHslsEEsHvaCMSVJvrC3daALT/WG/d7S6bDY0eqOGS1ITsME0PT4Z8E6jLD3djzjKvE7t8qtfdDmIcVPG302UNNFmJL7Ydr09grjirBUhVXylGXE+2FTRs+h42ZJuxOabNZGqth64bPMFyTxhCNPOZ8HU3hfFqPCz5Q2CyFrBbGnWOQyOBtoJxDYW+05/NnGnd+jDfcbE/C296QQ2xpG2pLy8ljkLaj8dVLx9RWGM0hwN2l8extSHBPdl6ogi0BR/qb9kfbBjiZ8XFwbjupTwHshF62lhLYtV8Yg1dIEg6qGzxl9KKVohMU/R2tSBPATkho8RLATkhIaMESwG7x9nxg5wDPgFiYnHbmsFUqBDAT2FHl0fCkQjlYi8+qhpquGVeh1DOxRVBsDnveUX/lzVRJ8iiK6vrhG5EGLUMrOcwjkwE7an9c04jz27UM3udtKBm+hv4pOYCjZSFxuVxFVAA7YXMZATsz/wKkVtbj6p3Rpyy+pAanQ7PQ1N895/q57Ob9q7j94AaKm7tg6pcj3V/9/PlJqxsshp0c2B3l8NjkhiAuQtHQMypCYpfJBLBbWpMBu/4ZRSfmY0UJPvC2OymHgGRUhZaqwRKwW+7jWJZzJYCd0CK0lMCO8hDrSM9hGoan4RuVAf/oLLaz3mE4qqrH0QmK/o5WpAlgJyS0eAlgJyQktGAJYLd4ex6wM7Z0xBEVHZw0d+DwVQJgM4HdviNqMDntwsspLx1V9TS3dec+KYSWgB9VMqVt/SLSpIdEfS4EQeGxO/Yr87+0jvZF/cty2FFVUn1TOy46QSG1VE2S4GBUWinnXqvtug5tQyt4BsZzuK4AdsKetKUsOvGknld04sH4XURUuXEIrXueMXLaYnHt7iX5elF0YvlMALtXA9iRF15qsNOsog0P+0s55PRKc47C4ZoAdkKvipYa2BlZOXFVb9mLU/5trO3DcQ1DBna0PLuik6uH0wvX0Ph8FEjr26XnLlpHxcBKGof4b3q2ooJj4Skl/MzGbcs74RedxUYvaHMruziHMe9f+jdH+hwkPZtRJAY9C858SUt9BCXkc9vQxAJOl0LrqdCYrNjYTKuTniuzytpnHcuPMQHshIQWLwHshISEFiwB7BZvzwN2BMU+/eJbfoDjB6YngN3+oxryqq1H1Q2gqmOKlIIGfqAqqh+AibULL1PWMeGiE1GppdxPi/Qg6RkQxxBOSeMk1PUtkF/dIwd2FKqRUdzCbRNzahnaEZCjcFsqJkHLyYOvpuMqbyuAnbAnTVHArvdKK7wLzJHdGoOBa0/DHAHsls8EsFtaoxDU9FAXzoWnaCD2qpsAdkKL0XIDO9mLV3qeMrJ05DQnZJTepGXwHmycfHDGLYAhnKz412/+8DYyS1r52YuexzbvPQI16XlLVXo+o+iIuMxK3l9gdBY/96lIy9X1T/HzYHHDkBzaZZS04MMvv8URLSN89MU3iE4t4TBeO1d/zpf85PHQmI6c0OUxL8XvgwB2QkKLlwB2QkJCC5YAdos3ekAqqOnjt5uzl49Ly3vZC072sEfb0htO8pKT5bALislmSBclPWwV1w9yO9qWHsqqO64iPrsaEaml/JDY/rgABT9MSg+AVEwiPLkYcVlV/DBIb2+pj86Lj7iffGn/Fa2XuC/6nFfVw1ViE7Jr2MuO+qGx8fi7rsn3S8dCefRm7m+pTAC7lWGKAnbto3W4dHuYK8LOJQHsls8EsBMmgJ3QSpIigN3O/co47Xge9b23+AWuxRkvGFk68d8yYEd9EYjTNjqN3QdV5MBO86Qlpyfh/UnPdKfsPDjSorb7Bg4oa3D+YdoHPdtR1ISrT6T8GZFSndB+6DnxuKYhYtLLBLATElohEsBOSEhowRLAbvltGtgZzio6sRZsocCO8v4pSQ+Zybm1fM7OhSTB3NaDH3apmi4V8/h4/UZ8+MUGDj1uHrjLUJQq8KYXt7A3op70oJucV8fhv/QwSw/EsrATF98o/NMvf4Nfv/0+Pvj0S5Q1TVfSLaob4MIfH0j9fv71d7B18UNl22V+WDawOIu3P/wcORVd8uNKK2rCG+98wG/FnzxmZ+kh+1e/f4ur+8rejudUdOL9j7+Am280f6ZwF1NrF3wh7euTdd/AWJooFNb1S+MZwZebd/D4/vZf/g2vvfcxdimpSesGeIwGZmfYi3P9N1tg6eDNoTk0uQhNyIeOsTVXC/5k3Qas37AVLuci+LhpDNnlHTh8XAcfSsdMhUris6vkEwGelCgI2L1ICwF2dB58w1Olc2QPw1Nn8fHn3+CrjdtxXrqHKDScwHZKfgMOHNXAB598yZ4SdJ90SOeB1jt5h+HbLbvxzvufMFzPla43nTtaRxV/X/vjB3jt/Y/xy9ffhL10XzVJEzieoLkH8nkmc5Gu/b/99nWeoNFkku+pz7/Gh+u/hdZJK/ZipXHSvbFznzL++MFn+GbzTsRIkzFanlHcLE3wjnPIPB0Tba8vHQ9dXwL/p+zc4Xw+nCdqdH/TvU3jLa4fYFhP+TPf//QrvP7hp/j3N97BnkMq8869JIDdwizR34GLMSgadq0GE8BOaDFSBLBTOqHH39+y9fRMR9EMBNJkwK68ZZR/04PjcrHrgLIc2JHnnOFpFwQnFsAtII4jLhKlZx0KjaWcxfRcIPstOx+WwoCOnmno8xn3IHgHJaC269pTwO64jilCpD7DkgqlZ5NmPhYB7ISEXh0JYCckJLRgCWC3/CaA3cKAXYL0QEwFOijshKAUraMHZvIEpIdRKtSxY68SPwh3Sg+zdF7VdMwY3umZ2vIDNcE0emimXC6y8bj5RTNUIcBBVXgJ2NGDNIUpW509x96GlW2XoGtsg7OeIQwET0vL3/3wc4ZB1AcBHIJlG7fumRPYeQfF4+13P+a8hARx6KHa+XwEwyACdvTw7eQVxqHVZdKEQ/aWnmCbDNTQcVIos+wzwTUzG1cOk6G37zJ4ae8WyPcWAZ0N3+3i8dB5SpImAVt2HmSISd6UlA/RR5oAkGdmUl4d9impca5D+aRkFQE7AmDRaaV8HsjLYeuuQ8gu6+DJ0KFjWnyO6LpGphTjqJo+T64I5hEwpWtB55MmSgRtyQuCPtPf3sEJDOksz3jCyTt0FrDjsHTpXqSJ28ate/m+pCIwlM+I/qX7msKdaJ801rLmEb6O1C4wKgtKlNRcutbzBXZ0D9JET1XbhI+XitPQ9dXQt+B+CDSmFjRg7+ETAtgJYPfKmwB2QouRIoAdQbDYjApeR9+zBM6o+JcM2BFA8wyM42cE+p3efeDYrJDYDTsP4Jj0O3FUx4TTqEQkF0m/083YJW03MxJiJrCr677O3nmphU1zArv13+3kPo9pGUu/cdpc9IyegQSwExJ6NSSAnZCQ0IIlgN3y23TC4Q75A9lascUCuzNugTghPXySJ9tcSZPp4Zoq4RLUo88UzuvqEwUzGzec0Dbht9EEOsizTeblRv8SFKOwk9LGITmwo4dqCnMpqO6d3k7aX0h8HuepIaji7B3GuWboMz0gE+ChfZAn31zAzj8inY+BwCEdDxkBQfK2ImBHD/7k5ZWQXS2vGJwmPYgT7KEQ5+lJwmxgV997U3qgP84P9rI29KBPD/G10sM8AR01XXNpvNNv6AnwEdBz949BakEj76+h99b0uZMmDvQgT2HZsjGvJmCnaWAph1R0HsizjWAWnW8qCtP4+JzS/0UCdrR8Zj90bsmTwcjyLEM5slO27giIynicl+hpYEfhUQRPnc9FMCSjCdrMcVEuItoX5SF6ctw0IaTJGoHi+QI7Wm8hjcP5XDi3JWBHuSgPKmvy/UlVpAWwm5YAdq++CWAntBgpAtjtPaLKnv+0Df2+UC5h+o6m72o7Fz9+TqAXMJTLmH5zZwK7mSGx9B1NzwM6Rtb8e0/PI/SMKPuNJu9pellIL/2ScuugZWiFaulZYi5gRyGx06lQxhCRVMQvbuj3XQA7IaFXQwLYCQkJLVgC2AlbLlsMsCO49OW32zhhMz3wynLyUagHedxt3r4fb3zwKf7x33/NISfUjrahsBICaeu+2oyNW/bww66s/XTf1/hBmuDJTGBH7XZIf9fOyOtH+WLIy45gHkER8pajt+jZZe385ps8rk6fPT83sItMh4W9JwwtziI2vZzzCNJnCqukB/RKAoTS/gpr+n44TxWdDOxkBUueBHal0jjJo7B0hlccvUGnNnRcBHRoolD7uHAIHQPtk8I8aYLw779/C6+9/wl+J503sk+l8zszrGc1ATsClRQuKjsPdB2oQrJvWCr+9bev/3AepH+/3LqHc0qSdwTlJaJ774+ff4VfSudL02DaW43uSQo1JbBH/T4F7KTrShCYJm0EXHc9nqDR/ims+rvdh/HHT9bzOOgzTfzoHqF78bMNW/Drt9/DeunfipbReQE7uqZ039H/hfyqbr6XyGOUJnkEGn/x69fwm3fex//+w9siJBZLC+zGB8pRkugLE43D+M1rv8Lrv/8P/rsmIxhTI1VcxVX14DYM1aTx9g/7SnHswFYoHdiGG+35KE8OwNE9m/DRR+/g4M4NyAx3w5jUZ2VaEMy1j+JWRwGmLlRzfx+8/yaifex5n25Wuoj3d5CPY6AqBWqHtnMlWtq+PMUfqoe2Yf3H7+CUzlF0lyXweO52FyHe7wyUdm/Ehx++jTOm6rjelgcv25O8nLZpyA6HvbE6LjdlozYrFAYn9uNBbwnvpzojCJvWf4RYaRyj9RmwOXkCpUm+mJTatRZES9vuw2B1igB2QgqRIoDdVun7nNIp+IanwUv6viUoRt//9Ntg5eCNdz/4jL+f6bfnSWBHIbFm0u9ydEYFvxSkZwp6uUj9kkf/CR0TBMRk88tHFW1jpJe08G/+4RM60mcT+Eq/Gx5B8fhG+t2ylJ5v6GUdATs16bcqSuqTqsfqSM8tNs5+7AUogJ2Q0KshAeyEhIQWLAHshC2XLdbDzjc8hT3UKLSEQkIIdFBYJ1XLpXBAghfKagZyYNfYd4dDRr2kh1l6i01whgAW/UtvsunhmR6qySuO+psJ7Krbr3Bi6KzSNu6LHtbJm4q2JZBDwI4ezH2kB3kKSaXccwT0rB19ngnsbF38+YH8pMVZ2Lj4MUiiUFwCduSlRccSmVws95aj8EaCbzIg9ySwo8nCfiU1zktD29MY6dgpqXVdzw0GOuTBRYCRJx/DD/mNPO2XvPIox5/Mw24uW03AjvIC1c/wJqRJUHBsDuero/Mu87Cb2Y6ALMFegp90fl3PR0DX2Jq3pWIuBub2XKyl5QlgZ+vsyzCPKz7n1/M5ngnsyKg/uuYU9kxeE+QZSXkES5tG2Jszt6IT3+3YPy9gR/smUKeiZYz86l6Ut1yQAzvZfUtjIe9B4WE3raUEdvVZodA6uguVqYGI8rZBoIs5Azzd43vRXRrPwO7Y3u8wVJOKyeFKpIe5MqA7baDCoOxmez4uN2Xh0WAFajNDYK6thOHaNFSkBMJY4zADu9udhXA018KuTeuQEuzEQM/5lDZife1nAbvj+7fgaksO24kDW1GS4IuH/WWI87OHrZEqbnbkIy/aC7rH9qCtMBq3uwp5fI+GKuB+Wg8x523RVRoHexN19JQl4HsChdKYdKTtqcLtg75SadzHsX/b10gMcMSE1I76s9Q7Ju0/GW5SHwn+DtLySgHshBSipQR25J1GHvuURoJSJMiW0zMJwTn6LZGFxHoExMLK4Zzck43WUXtKeeDgGcKpFagtbe/hH8vf7fTS0TciDQfVDdiUNQw5v6ps26b+uwiIzoSK/imY2rjxSzzOTxufi8+++Q77pf3K2u5X1cO7n33FHttxWZU4Lj070PKjUp+0/4a+W/xikuBj2xIVExPATkho8RLATkhIaMESwE7YctligV1STg2HhxzXmA79qGi5iP1K6gzD6MGWYNin6zcwtCKAR8DFzsWf3zgTaKMcbmmFjTh8XJsfaglkUV/kbUaAi/reuvsQ8qt7uD15y1E+GQpLpNxuKlpGcJcetOmBm4FdcALDtM+/3MSeURR2aO30bGBHb71pn/Q2fuf+Y7wfd78YBnY0GfANS+GqcFRMguAKjZly3hDYoT6eBHb04M5v0nXNOKcfjZEAH+XGo8kCAR0aG1WVozbhj6EQeXxROC3BKBpvpXQd6BxRvrX6Gbn9VhOw+/SLDfCTJkYNvbcRFJuDXQePMxwj+EUJwx08gqT78RLfa1llbQzZyLtO18SW/6ZzT9CN7gea+JwPTWLvOM5v9wSws5barftqE3s00H00E9jRtaVKzXR9ajuvcX/kTUFjIkBM+6f7zdzWjfPQyYAdXTcqPkL3aYk06aKQKRmwM7dx5SIldE/S8c4EdpQvjzw/CNSJHHY/aKmAHQGt82eMEORizjBOFhI7OVzF4M7fyRQXG7PkwI7MQvcokgIcYW14goGdrC+CZiVJfgzWCLjNBHYEAB3NNRmWpQQ7vxDYlUr9mGgcYsBG63rLE2GieZgBoqulDiK9bdiTbuaxELBzMNOAnbEa74+OjZbPBHb5Md44a6YJB1MNBnbkyXevpxge1vrQOLITNtIxXWnOlrcVwE5oubWUwG4+xkUnpN//J9MovEyLSCqEmfQbMdNTjn5TNAws5C8Zl8MEsBMSWrwEsBMSElqwBLATtly2UGBHUIU8iLJKWxk6EFChXHXlzRf4IXnbXiV8smELXH2j4HQunMM+KLSTwiDJG4reJpN3GxWfIO+l1MJGhlXkbUZhob9990MOifztex/h3373BjbuOsgwkNoSTPnkm+/w1ead/KabigWQdx7lpCNASHnyCKpRXjiCMx4BcVzd88ljjkopYY88euNOXnUEyuhhOzAmWw74KPzmXHASNny3m0EbbTczfJeAzSk7DznAI6P1VPmVKsBSgQl6e07QSFYlls4TgafPpP627Tki98YjI0jHFWS/3oyP1m1gQElASNb3agJ2lCvwlL0nPl2/cRqePb6XyAiiEnz78MuN+PyrzZx/js4rgTMqCvPeR+s4Bx5Nktz9ojkf0L4j6vJciHTd3HwjeT8UAuV8Low9LmSejXQ96F4jQJtb2c2ecG+9/ymHvlqe8WZ4RvfaWa9QvCvta+8RNb6HyDuUimLkVXXj9Q8+4erAdJ/Sv1Tt9R1pW/KUND/jhYPS/mS5CqvbL3PobknDIN9z5PEnC+fKKe/gsO7mGffQ80wAu+cbQTYr/WMMsghSzcxhlxzoCBdLbQ4bJWDXVhjDcC8txIWB2ildZQZ2BPooDPbrrz7Bzk1fICfSg0GbDNhRmKmxxiEOaSXPt6QgJ4Zt2RHu0Du+F+XJ/qhIDYD1SRXs+e5LBnaRXtb4Xz//Gd55/0388f238M57b2L/rk3oLI6FmfYRBnJPHgt58H3x0dvS8RxnrzvZcgJ22sq70ZIfBSP1gwwGCRYm+J9lYEdWnR6Mzz94C0mBjkviXSeAndBitRaAHf2O0wsagnSyZeRBT88iBTW9yzYOAeyEhBYvAeyEhIQWLAHshC2XLRTYvQwjzyQCGUEx2bNz09QNcNgtPfQr+jz9GCOPPQJ2ssTXi+ljNQE7Ar7Ng6vn/z3lVqTQZ1lC8pdlAti92MMuyOUUgzgKaZUBO4JWtCzEzQKXGrOgsn8LIr1s4Gqly0CtLPkHYDezr76KRJhpHUF9digDOwpdJY+2lCAnjPWXyYEdbU+fU4OdoK+yF162BgwNZR52BPHMdY7KPexm7oPGEOpuyaDwSQ87GjPlsvNxMOb+ZcCOwmvJMy81xJk97ZwtHgO7kWr2qKOQWHdrffYA7JWOQXjYCSlKyw3s6IUgvRgpkp4dFP27sNwmgJ2Q0OIlgJ2QkNCCJYCdsOUyAexevglgN20C2P04E8DuxdZeFMPhoPmx5xB1zoYBXm6UJ+ewoxBY8lZT2r0Jaoe2oSIlgL3jZgK71oIoLhRBkK85LxJ6KnvRmBOOcmnbDZ+/DwtpO4JwYwOzgd2TNjMklvolSEheflTYgpb1lCdyPrsCaZwaR3agMTeC8+dRvjwCewTsYs/b4Zo0FntjNW5LYyJgR553lHOPcu3NBHbUX4SXNZxOaeOGtM9QN0uGfjLYJ4Cd0HJruYHdWjYB7ISEFi8B7ISEhBYsAeyELZe9CsCOQhkpLJDCGWUhp2SUBJqKVcyEeCvR6JhiMys59PZ5hSWeZ6sF2FFhETvXAC4soujrslRGx0VhtBRi/TL3sxKB3fdTkxi7N4qxuyOYmng4Z/ulBHbkqdZRHMu55371H/+ON954jYFXb/l00QaCZ5pKuzjP3fhgObepzw7jvG+3OguQGuyMPd+tx/vvvwmVA1tRGHeeq8DWZYXi8M5vuZgFQT5q63vWBHkx3nOOY6QunSEgATrab3dZPIe3fv7Z+1ysgqq6EpgjmJYT5clVYj/55F1pHAZcfIK87ig0l9oSmKPqsRQG25QXifVffPi46m0190FQkvogj0CnU1roeXysVFXW+uQJDv8VwE5IERLAbvlMADshocVLADshIaEFSwA7YctlrwKwE/ZiWw3ATtiPs5UI7Eh3r9Sjt0Qfl9oCcf9GBybH7+L776fk65cS2M00TxsDeQ47YQLYCS2/BLBbPhPATkho8RLATkhIaMFa7cBuYmIKwRltsAmtQ23vPYU/6Kxly6q7gpPepajtuDzndYzN74JlYDUqOm8rfKxr2fKbrsPofDmK6kfmvE6KAnadgze4bULZiMLP0Wq3tKqLDOyaeq4u+DopEtgRoBupd0Fbxg5pHxoYbfbGvauNmHwMfwSwe/VNADuhxUgAu+UzAeyEhBYvAeyEhIQWrNUO7CanppBa1scAorxDgCBFGYdqFg9Bx70YAxdvz3kdC6QJvoF3KQOjmeGqwpb3OqVUjPJ1an0GVFMUsLt47R6DIP+MbnF/vOR7IDyvH4bnSjF8+f9t7z/Ao7jWbV34/Pee89977t1h7bX2XnuvHPcK9nLOCRsbY4ONbWxjbGPA5JxzzjnnnHPOOQpliSQkhLKQkETOICEhMW6NCSUX7VZokNQtabzPMx5Qd1fVrCB19dvfnPOmx+epWMLOryNuXjyB3JxbHuVKzHzEr3wCN05vLfA1N86FIXZvE0TvqIvond8gZk9jJAf3x/WMQCSse7lUhB0nmWAXV2/LrooQCTvxKEjYlV0k7IR4dCTshBAeU9GF3b179xCVdAndph3CGr8Ur9/oVNYcP52JiWtPYIB1nthN2R3JZ6+jx3R/LNmTWO7HkiuviUy9gxmbo9FrZgBu3M52e568Jezu5uZhxoYIDFkUjvCEm14/VhU1HDpg9IpjGLU03BxzTyla2G1GzO6GSA4ZiNQjYz1Kkl8HnNr0PpIDuhf6Oko6I+xcs7Eazuyo5XUppUjYiZJFwq7sImEnxKMjYSeE8JiKLuzIlRtZmL4+wozLFRavD/plnZizd7ExMA3dpvubaseCuJmZjflbo8w4dwHRjzZhgvJ42RF+Dj1mBGDNgbgCZY23hB05GnsenaccwtK9STiZlu3141XRcio9B6v9UtB1qj8OHnMv3IqiKGF3/WwoUg+PfqQk+rXHqc3VkRTQrdDXxR1o+yNZF3+wHWLWvooz2z/xupRSJOxEySJhV3aRsBPi0ZGwE0J4TGUQdnl59xCZeBED5wVj1PJjCDx1DadUwVXqYde66LRs7Dx8Ht1nBGDauuO4eLXgD2GshoxLvYLhi8NMFdWhqKtGIKj7YxmcJ+s484NOr1lBmLDqKNIu3DTnwx3eFHZ3snPNJDKUvyutDw2Udro+SuYa4LHk+ID8XZ296QSu3brzSOeoKGGXl5uNu9k3HilXTs1D/Moncf30lgJfc+fmGcQdaPNA1H2D2H3NcSFurZk9NrGUusR6I5yd9VaCP7KSg8z/OQssf+b/vd02CTtR1kjYlV0k7IR4dCTshBAeUxGEHbu8UgIUNJmBDWc8ZJdMVtot3ZuIgycuIyjmmhnbTinZUIpS1M3eGoOuUw9h1sYTRgIVB8qcYYtCzc33ol0J5gY86JTOU2mEx3X3kQuYtz3WSLDJa44hOcP9GIM2WwISTXfJ4p5PJ48r7AgrZpfuPIUuU/wwbcNJbAs7C/+TV71+LMtrAqKvYnv4OdMVuov1u8oq1/OXbz/y+SlK2D0ORU06cS8vF5eTt5kut/F+HZAROQeZ1xLyny+tSSe8kezTwVg5YzgmDemGVXNHY8qw7lg5cwTy0sK83jYJO1HWhEadNdX5+45f9LrQqujhGKe8RyvqXkEI8WMk7IQQHlMRhF3q+RtGAuw/UvjfBVYMsdJu7pZII5H6zA7C4IXhZmZSX8+42fsxfcpGjJoX4PW2FCeDFoSZiQv6zQnC2gNxOH/FMwEQm3oFC7efNGPa9ZoZaJ2nMK/vU0UMj2v36QHoMysQy3afQvrFoiXcqn2xGLfiCM49gtQpCWFHKO12h6UYMdRlyiEMmBfq9WNZUEbMD8LIeYGlsu4h8wNMpcPjrGPg/FDz95AVyJSxl655LkqceFPYZd8+h9MhA8xMsbcvRyPvbtZDz1ckYcdKusvR+7B92WRMH9MX25ZMxKWT+1RhJ2FXKTmZdMm8l/ELHG8LrYqeudtiMXpZuJkISgjhGRJ2QgiPqQjC7uzlW0YC7A49XeRr2T2WY6WlnLuBA0fOYOOhBKw/GO/z2TBtGTa1aocNK/d5vS3FyVbrg//hU+fMDV1W9l2Pzynl6q2sHJw5fwP+EenYVE7OU3nLZv8EhEafNaIu887dArvBOpm3JQpT1h7D1Zued5ksKWFHOHkJRfDx+Aumm663j6XbHIjD2gWbsXb6Sqyz/l+S6167PxbDJy3Cgg3Bj7UejivJsQEpYLNzch/7vHhT2GVdP42bF44hN9t9d21vCru7Z0Kxb/VMtKj/BWq8+zpmje6Dm/GHsHLmcFR553W8ZeV96/HhvdriXMRuI974/JIpQ1D7k+r49vMa2LNymukCyyo6rmv59GH5XWKP7FqKT2q9j+hDa832clKCsX3pJDT6+hN8+uHbmDO2L6aM6mW28+qbL5vw/+vmj8XxPctR98uP8Obbr6Fq1ddNG0O3LfKK/JOwE48CJ0nqOOkg5u+IM0NxeFtqVdREpGSZL2RnbjxhhqgQQniGhJ0QwmMqgrDjuGiUANutD+0VlZSd2+HfrjWunIr2dlNEJWfcyiOYsznykURsSQq78kDO7VsI7dsLAZ074Pb5cyW67vj4ePTt2xfTp08v0fU+Lt4UdkXhLWGXlx6OA+tmoWWDLxHttwZXTx3AmSPbced0EKaN6IEN88ea12UlB2L6yF6YPLQbMpMCMXNUb4zq2x7nT+xB+rGd6N+5GdbPG2O6w66fN9Z6XXfcTgwwgm9kn3b45IMqOLpnOXLPhGLd3DHo1PxbJAZvwuXo/Ug7uiO/Patnj8SmBePM/ynlAjfPx5h+Haz3lwO4mxpq2tr6+zpm3RJ2ojzAL5sW74g2Q55wGA2NbVryoQhddfC0mZgq/FTJvp8JUVmQsBNCeExFEHasCuF4GuxCmXXHc4lQHpCwE74AqxiGLAwx45wVNItsYVQ2YXfhcDh21amNPd9+hdPbtpbYenNycrB+/Xq0aNEC3bp1Q0JCQomt+3GRsPtxKOIGdG6GfWtmPlS1djc1JF/Y2ZNIzB7TFwsnDsS5E7vRtnFdxAdtvC/90sKwZ9V0jOl/X6w5hd22pZMwc3RvdG1V3wi767F+6NGmIUK3L3LbnoKF3X4jA/evnYVe7RqZ6j0JO1EesCetGjQ/GMOXHkFY/E2vC66KlJiMHGwJzUCf2cGYuu44bmflePuUC1EukbATQnhMRRB2ZOaGCDOmxqMMhF8ekLATvkBi+rVijRdZEBxnqO/sQNMFs6JzLy8PIX16GmHHBHbthLzckulCdPnyZXTq1MkIu1atWmHVqlXIy/NcoJYG0cmXzTVCOVvSlFdhxwq3dg755irsnn3xGdM99bW3XkGn5vWQEr4VCcGb0Krhl7gacyBfrIVuW2gq7i5G7c0Xdinh29CvU1NEHliNLi2+M8KO1XjtmnxtqviKK+zerXp/+29UeRWff/K+kYN5aeoSK8oP/BIpOCrDvMcMX3IYO4+cR2TqHZzKyDHCSfE8PHbHT2eayrqeMwMxZtlhM1SJEOLRkLATQnhMRRF2+w6noueMAEQkXPR2U0oFCTvhCxw4esbImNRzj3bDHn/mKnrPCkToybMl3DLf48y+Pdjb4Nt8Ybf76y+RsHZNiax76dKlRtbZ6d69OyIiIkpk3Y/LCetvcB/rA3NEfMn/LS6vwi4zKcBUvAVsnl9ghR1/ZlfWtXNGo0+HJkgI2og2jb5CYshm8xy71R5cPxuj+3UwAnDD/HEY3beDEXgH1s40lXZdWt4Xduxy27nFdzi2e3mxhZ3dJZaVfFEHVqPhVx8XKPwk7IQvE5NyBaOXHX4wuVgwJq45ganroxQPM8XK6BXH0HWav5mYasnOaI8nEBNCPIyEnRDCYyqKsOOsot2n+xtxl/sIXfV8HQk74W1uZuaYrrCc+fdRJye4eC3TzPzL39OKzJ0rV3Bk+NB8WWcnbEBf3EpPf6x1Z2RkmG6wTmHHKrtly5bh9m3vf5hihUu3aYdKpQqjvAq73LQwI9jYzTT18DbT9TXj+E7T5dQp7LJTgrF18UTzOo5bx7HsZo7qhWsxB80MsJRz9kQTXOa7L2pgaI/WyEoKfEjY5aSEYN74/hjeqw3OHt+Fm/Hc3i4j44oSdrlnwhDrv85MVpEcukXCTpRLKJb8I9KwYk8Mpq+PMBMl+VpGLQ7E973mos3QlV5vS0HheLXrDsabyZ3UDVaIx0fCTgjhMRVF2HFsLd5YDF0Uiis3srzdnBJHwk54E44PFJtyBQPmBmOzf+Ijr4ddlrpM9cPqfbFmlteKCI/VueAg7K3/zY+EHSvu0g7sL9ZsvAWte/Xq1UbQOYWdXWV39qx3KxfZPsrY9hMP4FZmyX+4K6/CjuGMr9NH9ESdWtXwfpVXzIQSFHfOLrFVrcfZdTZ0+2JTbZdxbCdG922Pj2u+iy9rvY+FkwYZcUfxtmrWSHz64TsI37HYrJ/CrmvL+2PYUcJxPLqJg7vgs4+r4cNqb2Hx5MFmplq+do0bYffeu2+YLrFvv/0a6n7yPhZZ28pOCZGwE+UW/j3i7OdXb9zB5etZPpfDx0+ias3P0LJ9V6+3xV2uWLl+6475gu5R37OEEA8jYSeE8JiKIuzy8u4hMDIdnaf4YU94irebU+JI2Alvwg89S3edMpVTvJF/HKatO45p648/9np8lezr100l3YGm3+PoqOEI7tnN5OTsmfBr3QJB3bs8cpVdXFwcBgwYYGaHnTVrFnr37o2pU6di/Pjx6NKli/m/N7l28w5mbjyBGesjSkXIlmdhp0jYCeEkNjYWb1StihatW3u7KUKIMkLCTgjhMRVF2JELVzMxcfVR02Uv5dx1bzenRJGwE96EXYt6zvDH8t2nkJX9eDMxc8IKir+w6LPIq4Df2vN39MTkCTgbHITsa9dwfPwYHBk+BFmXL+NyVCTiVizDxeNHPV4vZ4b18/MzFXb8oJeWloZhw4Zh3bp1uHLlCoKCgrB8+XJcuHChFPaqeHDSH45ftyUgEbmlMAmGhF3Fj4SdqCxI2AlR+ZCwE0J4TEUSdqyyi0q6hN6zAjB9/XGcu+z98ZxKCgk74S1YCTdgXjDGLr8/O9zjdo3hOih15m6JfOSx8HyZO1evGFFH7mZl5Qu7O1ev3n/s9m1kXbns8Xpzc3PN7LBZWfcrE53Czn7++vXruHXrVsnsyCOw9kCcuVYS0q6WShcqCbuKHwk7UVmQsBOi8iFhJ4TwmIok7Ag/JAZEpKHvnEDT9a6iTD8vYSfKGo43RwE+YnEYBs4LNjO8loSE4Xr3hqegyxQ/bA1MQs7diiftbNwJu5LCVdh5E35Zwhm6eU7X7I8zXahLAwm7ih8JO1FZkLATovIhYSeE8JiKJuzIzcxs7A49bap4Jq46ama3etxufN5Gwk6UJax88z+ehv5zgjBkYQhCojJKdP0XrtzGzA0RGDg/GIes7dy8nV2i6/cVKoOw41h1x+IuYMDcIExac8yc29JCwq7iR8JOVBYk7ISofEjYCSE8piIKO1YBcYbCo7HnjbRjF9nZm06Yn8srEnaiLODvze6w02bigF4zAzB13XHEpl5Bbl7Jdm/k+GZJ6dcwec0xsx3OGpt28WaJbsMXqOjC7nZWjqmW5LihrMLkGHaliYRdxY+EnagsSNgJUfmQsBNCeExFFHY2HND+4tVMrPeLNx8mu0/3x6hl4Vi7Pw7+Eek4e+mWqQa5dC0TV27cn77eVxO7aTP82rbCmWMRXm+LUv7DcekuWtc9r//kjOvwO3bGjD/Wfdoh9Jjhj/ErjyDwRDpu3M4ulbHICNebcfEWVu6NQf+5QUbcrdwbi7Doc0b88HeX7eTMo94+Xo+aK5evI3z0KIQOGYRL6edLdN0x8ckYMmQoVqxcXSb7wvPAa+aMdW4i4i9gk3+iEXXMkp3RuHD1dqldKzYSdhU/EnaisiBhJ0TlQ8JOCOExFVnY2XDMLAqA7cHJWLj9pBk8v/MUPyMIBs0Pwail4UZQTF8f4bNZNmoOtjZugvmztni9LUr5D38Hhi8OM9d/+4kH0Hd2IEYvC8eiHdEIeCDqygp2qWQV37Jdp0ybOA4a5fqwRaGmnRyL0tvH61Ezc3U41nXpiw0dumP28sASXff4xfvRsVtf9Bs5s0z2ZcraY+b8dJp8ED0enJ8F26JwMvkSsstoHEJvC7ugLQswcUTPh7J79QzcOR2Ee+nhuBF3CPvXzMTMUb2wZdEEXDq5zyyXmRSIncum5C8zd3x/RB1Yhdwzoeb57NPBCN+xBLOsxzdby122luP6bicGIGz7IsQGrMeqmSOwaNJAnDq0Fnet5a6c2o+gzfPNv1zHtZiD2LNqOm4l+CPj2E6EbluUv34m2m+NSV5amFme/188eRAWWuvk/+8+eC23e/XUAey19ov7sXnReMQHbfjRfm9aPNFsM9Bqw7mI3WbZu6mh1n4sxq4VU3EnOUjCTohCkLATovIhYSeE8JjKIOxsOLg9u3BlXLqFyMSLOHD0jJF46w7GY8WeGMzfGuWzWTV2HrY1aYql87d5vS1K+c4CK+yCuvFQgrn+OcZj3JmrSL940/x+eIusO3eRev6G+d30j0gzFVxsJyW7t4/ZIx/rjUexsVs/bOrYA4vWhJTouqcu90Pn7v0wcMzsMtmXxTuizTWzIyQZ0acvI+Xcddwq4+vF28JuZJ926NiqPuZPGYx5kwejd+fm6Nu5mRFXN+L8MH1ET4zp1wHLpw3FpCFdMaJ3WyPrLkbtQ/PvPsf0MX2xet5YLLKW7WatJ8Z/nVkv5Vjv9o2xZNowTB/ZC1OGdcdVa53nTuxGywZfmPWsnDnCerwbulrLRR1cjcvR+zF+YCdsWTwBOakh2LhgHEZb2+b2AjfNw5DurYxItNu+2NomhR/F3OFdS63tN8D8Cf2xxNqXQd1aGvmXmxZmJOO4AZ3Mfiy2nlszZzQSgjdizfxxGDekGxp8/SlWzR2DgC3zrTYeQJ8OjY2k4zbSj+5AC6u9rRp8aZ6TsBOiYCTshKh8SNgJITymMgk7VzizIavvWOFDmceB9n01Sdu24lC71jgfGeX1tijlP7zmee0zvojzd9Pbx+pxknnzFo6OHY3wYYNx8+KlEl138ukUDB02DGvWrC2z/eE5yfXiNeNtYTdhYGdsWjjeVKnlngnDoQ1zMLZ/ByOnWAk3tEdrI634/PU4P/Tp0AQBm+YZYde2UV0kh24xFWyZiQEY2KU5Dq6bjZtxh9C5RT0jvbjcxai91npameXORuxCm0ZfYd/qGaZ6jTKOVW8zR/U260kI2oguLetj5/IpGNazDWL915nHCxN2mUkB5rndK6aZdTI7lk02go77sW/NDLMfrJqzq/G4Tq4jcv9Ka387mmX4853TwfnC7m5qiLX+QUZqMhJ2QhSOhJ0QlQ8JOyGEx1RmYVee0KQTQpQ/KvqkE2WNLwg7dlm1u476b5xrBNaV6P3YMH+sqapjN1b79QsmDDAVbBR2zerVxtC+HTBtbF/079Eag7u1xPnIPUgK3YJq776BUYO6YMa4/pg0shcaffsZ1s8bY7q29u3YJL8Sj6FoY8Ud/5+XFo5tSybh/SqvYM3sUabSjo9T2NWv+wmmjO5j1sm0aPSVEXbnT+xBywZfGnlorzPqwGoj8dKP7cDSaUMxe0yfh2SfnYKEXdj2xTi6a5kRdZSQXJeEnRCFI2EnROVDwk4I4TESduUDCTshyh8SdiWLLws7dkmdOLgrbhUg7NglduLwnlg6cwTmTByIYT1bI2zHYiSGbMbHNapi5rj+5jlmvbWulPCtpsKOXWU5xpy9zZ3Lp+YLO1a1LZs2DHVqVTMVdFkPxo2jsGtcrzYWTh2av872Lb4zwu5C5B7TzTYpdLNbYcf1zRrdx+0YdAUJO1b4sULv6O6lOLJrqYSdEMVAwk6IyoeEnRDCYyTsygcSdkKUPyTsSpbHFnYbXkTqpmq4lx5WosKOcuro7mUY1LUFkkM3m66klHg9236PkK0Lf9QllpVwc8f2M91bOWlE9zYNTJfanJQQM1EEZRm7onIMu1YNvzRdVvkcJ5SYOrw7lk4dYrZB4dejTUOc2LfCjF/HiSaK6hKblRyIUX3amYrA7JRgs15OLMFx6zgWH8fTG9ClOdKO7jBt4WvY/bcgYdejbUP079wcCycNMsLw6GMIO7b9ol87nJr3f0nYiQqPhJ0QlQ8JOyGEx0jYlQ8k7IQof0jYlSyPK+xSd9ZEyvo3cff0vhIVdhRdlGnzxvfHqL7tzWQO4wZ2wtgBHY0gu98l9nOMGdwV86cMweyx/UzlHCUdxdveVdON3Js2ogdmje6N1bNGmWo3Crsm336K/p2bmfHhuE7KNE4CkXZkuxFjB9fPNkKNXVH7dmxqvUccKHLSicgDq9CzXSMjDOeO64shPVoZ2ce2cIbayUO7mSq+6aP7YPn0YTh7fGeBwq51wy/RtnFdJAZvMsfkcYRd3pkAnNvTEHHLfoW8u1ken18JO1GekLATovIhYSeE8BgJu/IBhd2B5o2RuGEdzoeHKYpSDnI2KAAhfXtJ2JUQjyvszod0Q9LKp5B1avkjCbvI/atMV1Vb2LHL6on9K5F9Otg8RmkXuHm+6Qa7Z9U0U2XHx1l5dmDtLMydNMhk2fRhZl13H4w5x4q7kwdXY/WskaZ6LmTbQrMuCjt2OeWymxeON+PUUYxR0HFyisM7l5jXcR2ckIICkfKQE0Yc270svzKOiQ/cgLjA9WbcOz7On9fOGWWtc6T5P6vp7P1i1d9+a5sLpgzB/jUzzAy4fI77c2LfSiP2+DPXw8kxWF1oj593yWoXt20fE09yN2mn6bJ8ems13MvN9vj8StiJ8oSEnRCVDwk7IYTHSNiVD1L37MK+hvVwsHkT+LVqrihKuUgz7G9UH8fGjsKda1dL9G+ChJ3n3EzdgdhF/4mroQMeuVtsWYbCrl+npogNWO/1tpRFMqMXIX7pb3HhyBDcy8v1+PxK2InyhISdEJUPCTshhMdI2JUPbp/NwLngIEVRymHYlT032/OKocKQsPOcvJxbSFr/PFI3VUVO0g6vCyoJu4dzdlddJKz8CzIvhD3S+ZWwE+UJCTshKh8SdkIIj5GwE0KI8oeEneewautK9EzELfkVrgT19LqgKiq3EwNM99irpw54vS2lncyTC8x5ORfUCbnZ1x/p/ErYifKEhJ0QlQ8JOyGEx0jYCSFE+UPC7tHIuXUGZ3bXQdziX+PWiWm4lxbqdVlVmcOuyVmnluL02peQtO5lZF06+sjnVsJOlCck7ISofEjYCSE8RsJOCCHKHxJ2j07W5UikbP8I8Ut+h6sh/ZB7ep+ZbMHb8qqyJe9MEG4cm4Ck1c9a5/WvuJ3h91jnVcJOlCck7ISofEjYCSE8RsJOCCHKHxJ2j0fWpeNmNtK4xf+F9G01cStyFnJT/LwusSpDKOoyoxfj/P5GiF/2eySuew7XE9fg3r17j31Ok9a/ggth/R77+hCitJGwE6LyIWEnhPAYCbvyAz/M5DF595Cbl4fcXKVcxJyv++ftcT+QCmFTGYXdzZTtiF/2J1xPWvvY6+LvYva1WJwP64O4Zb836z297mWc210XlwI640pQD6WEczmwq5F0KRveQMLy/0bswp8j41BzZF48jHt5jz8pS+aFcCSufQ4Xj4547HUJUdpI2AlR+ZCwE0J4jISd78IPlJl37uLStUyknLuBiISL8DuWhk2HErB6XxwW7Tip+HiW7IzG+oPxJrtCTyMoKgNxZ64i7cJN3MrM8fYlJsoxlVHYsYIqdsmvcSV6RomuN+dGMi4eHYLUnbWQtOF1JKx+BgmrnlJKOqufNuPUpWyvgfOh3ZF5PrhEz2Pm+RBrG0/hUsT4El2vEKWBhJ0QlQ8JOyGEx0jY+SbZObmIS72CpbtOYcraYxg0PxjtJx5EjxmBGLggDEMXh2PU8qOKj2fksqMYvDDcpO+cYPSaGYhu0w5h+OIwc26DozJw9eYdb19uohxSGYVd9vUExC7+BS5Hlo6Qycu5aarubp8Lwu2zh5QSTyDuXD6B3DtXSuX83Urbg7ilvzLda4XwdSTshKh8SNgJITxGws63YLfJhLSrmLclCgPmBqHTZD+MWn4Mqw6ehl/UFQSeuobQuBsIj7+JI4m3lHKQMOtcMcEx1+EXeRkbg9Iwc/Mp9JsbjO7T/TF62WGEnjyLrOy76jIrik1lFHZ3b59D7KKf4+LxYfpdEQ/B6+FG8iacmvcvyDwf5u3mCFEkEnZCVD4k7IQQHiNh5zvczMzGnvAUtJ9wAH3nBmPe9lhEpmYh7lyuUgETnZ6N/RGXMHblcfScGYBJq48iKf2aty9DUU6ojMKOpGz/AGd2f4W7tzO83RThQ+TdzcRZ/9ZIXPM0sq/He7s5QhSJhJ0QlQ8JOyGEx0jY+QbXb93BuoPx6Dr1ECasOYFDUVcQc/au16WSUvo5kZKFpXsTTXfZsSsOI/3CTW9fjqIcUFmF3cUjg5G49nlkXTrq7aYIH4LdmVN3fYbUHbUkc0W5QMJOiMqHhJ0QwmMk7LzP3dw87DucamTdvG2xOJp02+sSSSm7xJ69i8jUO9gSkoGeMwIxc+MJXLya6e3LUvg4lVXYXU9ci9glv8Ct9H3eborwIXLvXEbs4l/hfEgv5N297e3mCFEkEnZCVD4k7IQQHiNh532OxJxHx0kHMXldpKm28rZAUrwn7ijtuk3zx9oDcbidpVlkRcFUVmHH7o5JG15B6q5PTTdIIciF8H6IX/4n3EzZqvENRblAwk6IyoeEnRDCYyTsvAtngx21NBxDFoWbSQlKWwgFR53F4rV7MHfZ1vtZvhXrdobgRPJNrwsrJdeMWThzUzR6TPdHZOIlb1+ewoeprMIuL+cWLhweaGYDzbp0zNvNET5Azq00JG14Cam7auNu5jlvN0eIYiFhJ0TlQ8JOCOExEnbeJSLhoplwYMX+ZMRklO6YdTEZ2UbW/f2Fl/GLP/23yS///Bd807AFgk6keV1WKfel6sHIy+g9OwhLdkZ7+/IUPkxlFXb37uXidoYfEtc8i/SD3yM3+4a3myS8CKssL4QPMN1hr8Uv83ZzhCg2EnZCVD4k7IQQHiNh5z1y7uZh3tYo9JsbgvCE0q9wO3kmE6OmLMD7NT/D7qAYhMdeRNe+I/DRZ3UREJFqZNHxpOvYGxKLjfuOYH9YAk4k3zCPnzyThaDIDByNv4KYjBwcS7gK/+OpiEi6YarzDh1Lwab9R7H90AmEx1wwr4lKuY2gE+k4nnjtgTDMQdipCwiNPodT6XfMuoKjMhCddsc8z/VwnUfiLpltxqRnm9dvPRiBLVYCT6ThlPVa005rnYERaWaf7HVzvXw91xdy8qz5PyUlX3/i9E3r9WfMvydTM027uA+xjok9Tlnbu7+O89bjOfnt3eoXgW3WfoVGn3/o9aWV6LRszNsehz6zAk0FphDuqKzCjuRmX8fFY8MQu+jnOB/SzVTdicrHvbwcXItbjLhlv0fa3rrWz3e93SQhio2EnRCVDwk7IYTHSNh5j5RzNzBicRhmbzlVJtVbEUnX0b3fSHz5TSOEx1w0sqv34HH5wo4Cq8fA0Xj+1Tfx5yefwcuvv42BI6ficOwlHDyShKatu2LirOVGsvUcOAZN23TFnuAYLF2/D7U+/wZ/eeo5/O2Jp/F98w44eDgJ2w9Fon6Ttliwasf97SffQL9hk9Cl91CERZ/HlHmrrXV2QXBkhpFl42cuw9vVP8aoyfMRlXobWw4cwzeNW+Nv/3gWf7XW/X6Nz7B8s5+RhwvX7ELd+s2wPyz+gey7gc69hqD3oLGmfR26D0SfIePNPlG8bdgdhjr1GmPDrjDsDY3D1w2aY/bSzeY5+/gcjr1orWOoOSaRp29hp38U6jZqhb9Z237imRfwtbU9HoeykHbbw86i+/QAnDp92duXqfBRKrOwI3nZN5CyrSbilv4eV6JnGnkjKhe30vYhbtnvkLThdWSeD/V2c4TwCAk7ISofEnZCCI+RsPMeR+POm7HK1ll/38pC2FHSNWrR0Yg2U2nmEHb+x1KwaO0e/PXZF9FryHis2RaIbn2H482q1Y1w2xMSi5qf1jESrN+IyXjVenzWkk1GrO0OOmXk12prmWHjZ+PlV6tg5uIN2LAnHFXf/8iIOW6f1XutO/XBd41bIzgyHcMnzMGHtb5AwPFUHAhPwMtvvIN/+tl/oOeA0aZCrnHbbnjz/ZqYs2wLFq7ehc/rNsQX33xvKu2mL1yHV9+sil2B0Q/WfQ31GrVCk1adERBxxnTzbW4tfyT+spFyKzb74aVX38KKTQexwz8KL71WBeOmL3lI2LGC7tvvW6J5u+4IstrXvmt/VPvoc2v/d2Lmog2o8u4HGDBiijl2pX2uOJ5h/3kh2B6U5O3LVPgolV3YEUqapA2vIX75n3E+tLupvBMVH3aDvZawHEnrX0Hi6mdwM3WnqutEuUPCTojKh4SdEMJjJOy8Q969ezhw9AzaTzyIwOhrpS6AWBV26OhpfPxZXfQaNNZ0LXUKu32hcejUawg+rv21kXd8/YHwRHxY60u07zYAOwNO4p33P8KzL76GJ596HjMWbUBkym0jvFiBt353GKYtXI+21mv/9uQzGD1loalqK0rYffDx59h64DhadeyNdz+ohTffqW6E3baDEabrbv/hk00XVlbgUdo9+fTzWLH5EKbNX4t/PPMiBo2ZgVlLNmOStY13P/wkX9h99V1TVP/4C0yYvQIzF29Ct/6j7i/rEHZN2nTFjMUbMWf5VuwIiDLikMKuWbvu2LL/KF6pWh3vWOvsPnAMOvcdjteqvIc63zRCSNTZUj9fkal3MGLpEczdEom7uXnevlyFDyJhx/Hs8pB9PRFp+xsgdvF/InVHDdxM2Ya7mRe83TRRwnDswtw7V5F5Pgxndn2BmIU/R8r2D5B1OQL38jR0gCh/SNgJUfmQsBNCeIyEnXe4k5OLtQfj0WtWEI6fziwTYbf14HFUea8Gxs9YakSbU9ixSq5lh56o933LB2O43UVARJoReOy2yu6hb1Srgf/903/HW+9/hF1B0fnjxrXt3BfPvPwGqn36Fd6t9QV+/+e/YvSUBcUSdu9W/8hU7bFabubijfiqXhMj7DbsCTNdYMdOW2TGpOO2Vm0NMF1uKe4o7P7r93/EM69VwSvvfoCX3q6G3/zpL/nCrvY331vP/wkvvv2eef6JF1/Fr3/3x4eE3bOvvYX3a9c1y77wypuYNHuF6WbbrG03rN0RjOdfr4J/vPw6anxZDzXq1EPNOt+h79AJRlCWRUXk3K0xGLk0HJeuZXr7chU+iITdD7B77LngzkhY/Q8j7s7s/gLXE1fidsZB5Nw64+3miUfkXm62mfU183wIrsYuRPrBpohZ8DPEr/gTMvyaIudGsrebKMQjI2EnROVDwk4I4TESdt4h885dLN8dg6GLD+NESlapyx9WqLFr57vVPzbS6v5EEj8Iu/3hCeb/7334iemeyufZ3ZQ/c9w7/v/9j2rj86+/x5vvfWi61bJr6sY94Xir6gdGZHGm2ZVbDhn5Vlxh9/Pf/A7PvvAKuvYZbir66n7X1Ag7bo/dZbltVvJR2k2dv9a8dt2uEExbYP3/xVexaM1uUx3IirzP6nyXL+wo3lhlt3n/UTOJBmXccy+8+pCwGzpulqmW27zvKKrXrI0W7Xrg87oNTJfY7X4RpqKwjdVevoaSjuFkF85utBJ2wltI2D0Mq69upe/DhfB+SFr3vBF3Cav+gZTtNXEuuIP1eG9cPDbUjHd3LW4JbiStU3wwPDeXIkbhwpEByPBrgtQdnyBx7fNmgpHYRf+OswHtrPO83zrfV7x9yQnxWEjYCVH5kLATQniMhJ13uJ2Vg4XbT2Lk8qOm+2Npip/jidcxf9UOfFW/GT754lv4HUk2jz80ht3xFCPYOM5bk9ZdMH3RBtRr3BpvvfshVm8LyB/Djl1UOcnEu9VroU3nvli5+RDeea8mvm/REVPmrzEVcr/81W/zu8S+9HoVfGk9NmDUVPQeMh5vvfchXnnjHTP+3UDrsf/jX/4F1Wp9YSr8OG6cLew4AUQP61/KP4q10VMX4s2qH5gx+Dhza0mMYdeiQ0/TjbdTn2F46tmXTKVfnW8bG2HHKkNKyGeefwU9rWM0c+kmDBo93XQF5rh9ZSHslu9PxpCFIUg9f8Pbl6vwQSTsfgy7yObdzTJVWbfO7MGFwwNxZm8dJKx6Egkrn3iQvyN+5d8Qv0LxyVjnhufInKtV/0Dyxlet8zgI15PW4e7tDOv83vb2ZSZEiSBhJ0TlQ8JOCOExEnbe4cbtbMzcEIGJa04g6kzpCjtONkEJ9WHtupi7bIsRdXycVWsUXz36jzISLDoty4i0Wl/Vx8tVq+PTbxuZCSciU24ZCdat3wgzAQR/Xrx2Dxq37IQla/di1KQFeO/jz/F6tZpo0KSt6UK7ZN1eI/maWNut9mmd/FSt9QX+/OTTaNamq6m8+7x+UyxZv89smxVsA4ZPxvQFa03bKPAo0ap8+Alee78mmnXoaarpWC24alsAWnXsZcbb476wTYNGTcOICXMRFnPBTA4xatJ8MzNu7NkcbD90Ai3a98B2vxPwO3oaLdv3zG9T9c+/Rv8Rk02FH9cx0lqOx4jSbsDIqahS8zNzPKp99pXpjsu2loWw2xiYhgHzghGXqkoS8WMk7IoHJd7dzIum++Sdq9G4fdYft87swo3kjYoPhueG49JlX49HXs4tb18+QpQaEnZCVD4k7IQQHiNh5x3KUthRcLG7KidVoIhid1c+zn8jkm/gWMJVxFivsV9Lebc/LN4INLv7Jx8/mnAFkadvmuUo1I7GXzFdRFlxRqHHyr2IpBtGklGgUWwdibuM8JgL+cmvfnswEyufjz6TZdYZk5Ft1nci+WZ+GznhBKWcWbfVVj7ORKXctrZ/2UyeYe/LsYRrZttcD/fp/v9z8rv/clsnrW2detB2iky26aj1OPePr+X2GXv7RhyeSDfHg7PIllV3WAk7URQSdkIIUX6RsBOi8iFhJ4TwGAk771CWws6XQpHHyriOPQcbqebt9vhyJOxEYUjYCSFE+UXCTojKh4SdEMJjJOy8Q2UVdqxcCzl5FuGnLphKOG+3x5cjYScKQ8JOCCHKLxJ2QlQ+JOyEEB4jYecdKquwU4ofCTtRGBJ2QghRfpGwE6LyIWEnhPAYCTvvIGGnFBUJO1EYEnZCCFF+uHfvHu7cuYOcnBzzszthl5WVhezsbG81UQhRykjYCSE8RsLOO0jYKUVFwk4UhoSdEEKUHyjqlixdivETJyIyMvIhYXfr1i0EBwejQ+fOOHLkiLebKoQoJSTshBAeI2HnHSTslKIiYScKQ8JOCCHKD3l5edh/8CCefvFFvPTGG+jRoweeeO451Pj4Y3To2BF/euIJvPb226YSTwhRMZGwE0J4jISddyivwo6TRoTHXMDoKQvwTo1P8XLV6hg2bjb2Bsdi+PjZ2LA73EwmEZF0A5Nmr8Cg0dMRFJmOU+nZ2BMcg049B+Pp16ugxuffmOX4c/tuA9C2Sz/zb6+BY7DNLwKh0ecxdNwsvPXBx/jky3pYumE/IlNuIzgqHf2HT8aEmcvzZ5mNTsvC/FU70HvweOwKjIb/sRQMHDkVWw9GWG3JyW97RNJ1jJo8H4vX7cHJM5leP5YSduJxkLATQojyxbVr19CwWTP8//75n/F//9u/4X/95Cf43z/7Gf7nv/wL/k8r6zdtkrATogIjYSeE8BgJO+9QXoXdieQbaNWxF/725DNo3LKTkWyDx8zAlgPH8Ha1Gpg8dxWiUm9jzrIt+K/f/wkvvlkVO/2jsNV6/r0PPsErr7+DLr2HoUX7Hhg9ZSH6Dp2Abxq2sF77RzRr2w1Dxs7E5v1HzXpfePkNs62v6jfD86+/jfkrd2CHta5nXn4dTz7/MjbsDjUC8UB4At5+rwZ+/+TTWLJ+H7YePI6X33gbs5duNqLQbntYzAV8XPtr9Bo0FidO3/T6sZSwE4+DhJ0QQpQ/2B32D08+if/xT//0UL789lucO3fO280TQpQiEnZCCI+RsPMO5VHYUY7tDY3F61Xew4ARU0zFGh+LTruD/WHx94XdnJXYGxKHj2p/jb88/Tzefv8jbPc7gZGT5hmptmqLv1mGVXiUafx30drdZp1bDxw3z+2z1sWfm7Xpar3+EGYu3og33q6GDt0HYfO+I0bY/T8/+3f0HzEZkadvYcbC9fj5b373kLB78dU3MXbaIgQcT0Vo9DmcPJMlYScqFBJ2QghR/sjMzES7zp0fknU//fWvsWTZMm83TQhRykjYCSE8RsLOO5RXYbd2RxCeeuZFLFqzGzGO6jVT5VatBkZOnGe6tdao9SV69B+FWl98Y6rvOnYfhJqffgW/I8kPrdOdsFu7Ixi//M3v8Z9/+BP+8I9n8LsnnsK//dcv0ahlJ2zYHWbE3zMvvopP69TD7sBoNGndGW9U/QCvWeuwhd0f/vJ3/Pbv/8CTL7+OZ19/G20798O2gxH4+DMJO1ExkLATQojyyVHrnpvdYm1hV+WDD0x3WSFExUbCTgjhMRJ23qG8CrvN+47ixZffxKzFG01lnVPYsQquxqdfWf++j9lLNmPq/LX49Mt6Ziy5XgPHouYndbA3JLZIYbdl/zE89+JrZhy63YGnsC8kDvtD4xEclYGdAVH4+LO66NpnGF5/6z3TLbfah59i0Khp+PDjL/KF3QuvvIFh42cbSTd49HS88sbb6DdsEj6y2idhJyoCEnZCCFE+4YyxfQYMMLLu//zXf8WePXu83SQhRBkgYSeE8BgJO+9QHoUdE3QiDdU//hx1G7Uy49JRwFGK7TgUiedfeQP/8h8/R7P2PUw31OkL1xlhx+fYrfWlN6ti4Khp8DuabC1z3Eg4dot1CjtuIyQqw3Sp/eJgYkDyAAB2K0lEQVS7Jli3M8S8fv2uUOyzXm+EnfXc+BlL0bRNV/zrv/+HtY3vsHT93oeE3f0usYtNV92Js5bjzXeqo+/QiabKT8JOVAQk7IQQonzCiSUOHDyIPz/9NF6uUsXbzRFClBESdkIIj5Gw8w7lVdhRsE2dvwZPvfQ6/vLci/jHy6+jUYuOWLM9EC+88iZeebOq6bbKmVttYbcz4KSpjmvbtT/++OTTePKVN/DMy29g1KT5boUdu9rOWb4Vz71eBX96+jnz+hes9U6ZuwrbD50wwm7Gog2YvXQT/vLE06aCjvLQKez++Ne/mzHtnrDa94e//wO16zbA6m0BpjpPwk5UBCTshBDiYfJybuLOlZO4mbIF12IX+XTSj07HqK7vYOv8ll5vS2nnZuoO3M44hNw7V719iQjhVSTshBAeI2HnHcqrsDNCLSMHodHnsXLLISzfdBChJ88iMuUWDh5ORHBkupFw7Np6NP4yDh1NRlTK7fzJKfiaBat3YtPew/mTVhxLuGoej3RIND5+OPaSqbBbuHoX9ocnIPpMlrWuW/A7kmSt+4rZ5qEjyTieeM38n48fs/5PGbcvJNZ0p2VMG1Izzfb5Glb/cR+8fRwl7MTjIGEnhKjs5N3NxJ2r0bh8YiIS1/wDMfN/gtiF/4G4Jb9F/NI/+nzilvzB620ok/1c/GvrvPw74pb+Emn76yHzQjju5WZ7+/IRosyRsBNCeIyEnXcoz8JOKZtI2InCkLATQlRm7uXdxaXjo5G45mnELvoZUje9h4t+bXAluCduHB2LWydmKD6S60dGWuelO87va4S4Jb9A8uY3cevMLnMOhahMSNgJITxGws47SNgpRUXCThSGhJ0QojJzOXKCkT+n1z6P64dHICdxO5BxWPHh3EsLxtXQgUhc9QTO7KmD3GzNjCsqFxJ2QgiPkbDzDrawG7fyOMLibuBY0m1FeSirDp6WsBMFImEnhKiM5N29hYvHhiFuya+Qsetz5CRuxb30cK/LKKV4yUv1x/l9jRG75L+Qczvd25eTEGWKhJ0QwmMk7LzDzdvZmLc1Cr1mBWLU8qMYs+KYojyUgfNDMXxxKBLSrnr7chU+iISdEKIycivDD3HLfo+0bR/ibtJOrwsoxbPcSw/F5YDuODX3n5Bz84y3LychyhQJOyGEx0jYeQcKu7mbIzFgXhDmbYnEgm1RivJQxq44jKELQxB/5qq3L1fhg0jYCSEqG3m5Wcg41BIJy/8bmdGLvS6fFM+TdyYIFw62lrATlRIJOyGEx0jYeQe7S+yczZHm/9l3cxXloQREpKtLrCgQCTshRGUj+3oiYhb8zExekJd6yOvySfE8uSn7kb6tFk5veRe5WZe9fUkJUaZI2AkhPEbCzjvYwo7VdVnZmiVL/JjgqAwJO1EgEnZCiMrGuaCOSFz5hKrrynE45mDiyr8g41AL5OXc9PYlJUSZImEnhPAYCTvvIGEnikLCThSGhJ0QojKRfS0OiWufReqm95B3JsDr4kl5tFw/PBIx8/8FV07Owr17ud6+rIQoUyTshBAeI2HnHSTsRFFI2InCkLATQlQmrsUtRNzS3+FKcM8ipdCtBH+kHt5m/nXOIMv/34w/ZJ7LSg7yuryqjEnf/hES1zyLzPMh3r6khChzJOyEEB4jYecdJOxEUUjYicKQsBNCVBZys28gw78lYhf9AjlJO4qUQluXTMKbLz+LVTNHIDctLP/x7NPBWDRpIKq8+jzCdizxuryqbOGsvgnLfoe0ffWtc3rN25eVEGWOhJ0QwmMk7LyDhJ0oCgk7URgSdkKIykLWpeNI2vAqTq9/tVhiaNeKaaj7SXUM7NoCtxN/6D576eQ+DOneCrVrVMXhnUu9LrAqW66FD0Hc4l/hUsQ4b19SQngFCTshhMdI2HkHCTtRFBJ2ojAk7IQQlYF79/JwI3kdYhf/J66GDiqWGNq5fCp6tWuEzi2+Q3zgxvzHj+1ZbiReu8Z184XdndNB1uun4OsvaqLu5zWxft5Y5KQE48yR7ejXqanpPsuutOlHd6BvxyZIsx6/FnsQEwZ1Qe1a76P2x9WwZs4oU73H9c0b1w/71szM3yaXnzSkK9Ks5eMDN2DK0O64ELnHrPP8iT3o2qq+WeZuaigCNs3DrNG9kZMaYpY9F7HbvD4xeBPy0sKREr4N4wd2xocfvIMBnZvh1KG11uNhyD0TitiA9RjWsw1qVH0drb+vY7YVuX8lZo7qhcvR+3At5iAWThwI/43zrP0LMdvq1LweqlV7yzpW35vlua64wPXWMWqOqu+9iTffeQ3Pvvgsdq+e8diy7l5aCM7uroOElX/HnSsnvX1ZCeEVJOyEEB4jYecdJOxEUUjYicKQsBNCVAY4k2ja/vqIW/QLZMdtKLawG9mnHeaN749Fkwch90yYkVHzJ/Q33WQp8yjs+NiuFVONNMs4thPnTuxGj7YN4bdhjllmx7LJGNu/I9KO7MCYfh2x3fqZ4iwzKcDIMo6Dl3Z0O1rU/wIR+1aYbY8f2AlbFk/Mb0tSyCYM7NIcp8O24OTBNabC72zELmQlBWL5tGHo2Owbswwl3Z5V0zG6b3sj1LgsJSFfH+O/DldO7TdCbvGUwWZsvp1WuykfL0btRaK1jS4t62Ortd3rsQeRcXyXqSw8vHOJOQ7ct5XWfi+dOtQsS8GXEr7VCEG+bs7Yvpg4uAuuRO83/y6fMQx3Tgeb/Rveq63Z1uMKu8zoJUha+Q+kbKvh7UtKCK8hYSeE8BgJO+9QGsLubm4ezpy/gejky4hKvKSUYU4mXUJS+jXczMzBvXv3SuR8StiJwpCwE0JUBu5mXUTC6ieQvq0Wck/vL7awG923A07sX4UebRoaEXUxap+pkIv2W4M+HZoYYUd5RSG1e8W0+1Vg6eHYsmiCkWbZKcHm+RG92xqpNqxna2QmBf64csxaZlSfdtj7oAqtWMLu+E5T/UY5tmza0GIJOwrCvh1/qPij9OO+Hd+7AruWT8Hofh1wPdbvoXZR2A3t0cpU1k0d3sPIPeckHPbrAjfPt/aznXmeFXyUnNz3khR214+MQOyi/8TVmHnevqSE8BoSdkIIj5Gw8w4lKey4rsAT6Ri/8ogRPP3mBCleSP+5wRi0IMR6z0rEuSu3kZf3eOJOwk4UhoSdEKIycC1+OU7N/wmuBPXGvfSwYskhW9hdOXXACDe/9XOwf81MzBvX34xjZwu7C1F78c1XtUy3z7feed3klddfxPBebZCVHGhkFivwvqj5nlmePzPs0sqqtOb1P8f71d7CCy8/ix3LpphtD+jSAk8++2T++l567UV8UvPdh4RdcuhmzBjZC/tWzzBVcbawi/Ffj4ZWe47uXmYq4Ng99rsvahphx3144fmn8NqbL5v1vl7lVVSx/h+8dSFWTB+O2WP6PDTzrS3sGtT5CJ99+A5O+q0x1YF8jvvGLrGDu7fE5x+/Z+3/M2jy3edG0rENrEB89Y2X8Mbbr+H3f/kTNi6a8FiyLjdlPzJ2foGY+f+GnFtnvH1JCeE1JOyEEB4jYecdSkrYnb9yG1PXHkfXaf4YsfQIlu1NwpaQDGwLPauUYbaGZmCNXwqmrI9C79lBGLwgBIdPnUPuY0g7CTtRGBJ2QojKQPqBBkhc+SQyoxcXWxDZwu5mvL+pfGNXUlbXndi3EldPHcgXdjfiDxmhx3Hd3K2H474N6tbSVLYN6dHKCC12Oe3WugHWzR1jxr/jLLSUcLawK06F3fLpw8y4duyOym63trCjZNu2ZBKaNPgCXds0xLalkzDAWpbC7uTB1RjUtYWprHNWybFbL1/HCrsbcT+usKN8XDN7lJFz7DrLxw+um23G9+N4dXnWz4c2zDFtZHu4jrEDOmLjgnFG7JVEhV12wkbrHP4Vafu+QV7OLW9fUkJ4DQk7IYTHSNh5h5IQdheu3saczZHoMSMAq/1ScDTpNmLP3kXcuVzFSzmZlo1dR85j2OLD6D83yHRPflQk7ERhSNgJISo62dcTkbjmKZzZ/AHyUv0fSdglhW5G/bqfoFWjurgac+AhYcex3DYtHIfe7RsZoUYhdzZiN9KP7TSTQKydM9p0W2VF3ZSh3Yz4Ont8F5rVq20q2yjsju5eaqrYiivsOjb7Fm0afWUe5/NOYee6H84useyuOrRHa9OFlvvA7q9JIZtNN10+36Xld9i/dqa1z4eM1OO/9hh256yf180bYyThhci9pn09235vJr3gvnGcvs7N65llDq6bhcHdWlrb21NiXWKvHx6BmPn/iiun5uLevVxvX1ZCeA0JOyGEx0jYlQ78MH3+/Hnk5OS4ff5xhR2X2eCXgM5T/ExFXXR6jtdllXI/MRl3cSjqCgYvDMeY5Ydx5UbWI11DEnaiMCTshBAVnWtxixG39He4HNjVI0G0d9UMTBzc1Qg4SqihPdtg9pi+RorZVXPHdi83r+Vr1s4dg4ZffYz33nrZzLAasXeFGTOOUivj+E5TlcYJGjibKseeY/fYurU/RO1P3jfjw80d2w97Vk4365syrHu+vGOSw7aYKjeOPcd1fv1pdSyZOsRUxvH53SunmWXcCTtOFjGqT3vEPZjBlTO5Uq7VfO9NfFTzXSPgKO445l3otkWmaq5alZfzhSC71lIGUvbxdezGy4knOFEG5d/771dBD2sf180djYmDuph9HdO/g2k/Zead5CCMHdApf3y+R0369lpIWPUkMs8Fe/uSEsKrSNgJITxGwq50iImJQa1atdCpa1eEhYXh1q2HuwA8jrDjpAanz143FVxztsaoqs5Hs/voBVP9uDc85ZEmopCwE4UhYSeEqMiw62SGfwvELfktchK3PZYwUryXu8l7Eb/010g/0Ai52de8fVkJ4VUk7IQQHiNhVzpkZWVhypQp+J//+q/485NPonPXrggO/uGbxccVdgEn0s24dXuPX5Sw89Gwe+zA+aHWOY7C7Sz3lZaFIWEnCkPCTghRkcm6eBRJ619ByvrXvS6dlEfPtfAhiF30C1w6McHbl5QQXkfCTgjhMRR2z776Kg4fPozc3FylBBMXF4e/PfUU/sc//RP+17/+K/5i/b9Tp06Ij4/HtRuZjyXs1u6Pw5BF4QiNu+F1MaUUnBmbojFh1VEzOYinSNiJwpCwE0JUVHifcyN5PWIX/wJXQwd4XTopjxZ2JT675yvTHTbr0jFvX1ZCeB0JOyGEx1DY/fSXv8THn36KBo0aKSWcp55/3gg7Z37y85+jcYvWGDR9K+ZsingkYbdkZzRGLjuK8ISbXpdSSsFZsCMOY5YdRvrFmx7/bkrYicKQsBNCVFRy71xF2r76iF34c2QnbPG6eFIeLZzZN3HFE0jZ/pG3LykhfAIJOyGEx8ydNw9VP/hAKaX87q9//ZGw+39/9jNUr/Up2g+ah9kbj0nYVeBI2InSQsJOCFFRybmVhsQ1/0Dato+Rm3LA6+JJebRcPzwMsYv+E1djF3j7khLCJ5CwE0J4zJUrV5CcnKyUUv70l7/kizp2i331jTewfMUKRMcmPlaXWAm78hEJO1FaSNgJISoq1xNW4tT8f8WVoN64lx7mdfGkeB6K1oxddXBq7j/j7u0Mb19SQvgEEnZCCOFDLFq0CP/Hv/wLfvqrX6H6hx9iw4YNRraZsVkec9IJT4Rd7NkchJw8i417wrFyiz+2HDiO8BhNViFhJ8ozEnZCiIpK2v5vkbTqSdOl0tviSXm03Ilbh8SVf0Pa3rrIy73j7UtKCJ9Awk4IIXyEs2fPolatWvj0yy+xZMkSXLp06aHny0rYRadlYfW2AHToPhCtOvZCs7bd0L7bACxcswsxGdleF1oVPRJ2orSQsBNCVERybqYgYdXfkba1JvJSD3ldPCmPluuHRyBm/r/iaswC6741z9uXlRA+gYSdEEL4CMeOHcPOnTtx5swZt8+XhbBjBd3OgJP4vnl7zFm2BUfiLiMqNdNU14WduqAKOwk7UY6RsBNCVESuxS9F3JLf4FJAZ69LJ+XRk779YySs/Bsyz4d4+5ISwmeQsBNCCB8hLy/PiLWCKAthF5V6G0PHzkD/4ZMQmXLrR8+fPJOJbv1GYPmmgw9+zkK/oRPwWZ3v4Hc02fy8Znugqcx7q2p1NGjaDqu2+OOLeo3x7Jvv4HdPPIXn3noXXzVqhb0hcQiLPo+BI6fivVpf4vOvv8esJZtwIvkmolJu4+sGzdG0TVccib98XyZm5GDa/LV4scp78DuSbB5bvysUjVp0whvvf4S69Zth+cYDOJV256E2B0Wmm2rB0ZPn4wtrG9VqfIohY2YgPOa+gNwbEovOPYfgrXc/QM3PvrK2seahSsLxs5bhv599Ec+88Q5qfloHwVHpRmJ27DEYa3cEm9dEJN9A1z7DUefbxgg5ec4cRx6jhs3b47X3PkTjlp3Ma9nVWMJOeAsJOyFERSPvbiYy/JsjftkfkZ2wyevSiclOCUbQlvno1a4Rqr/zKjo0+wYJQRuxbt4YTB/Z0zx/NzUU25dOwsfV3sLxvStxLz0c6cd2YNKQrvi81vuoVaMqNi4Yh4VTh+Ktd17H088/jSef/Yf5/6Ipg5GTEoLgrQvQqXk9VK/+Nob2aI2E4I3IPROGncunoMa7r1vrXfGDDDu2E9/XrYV54weY7Wcc34Upw7rjsw/fwWc13sG8cf1xPc7Pa8csN8W6r1zyC6QfbILcO7qHEcJGwk4IIcoJZSHsjiVcRff+ozB3xTbEZPxYLlHYdeo1BMs27Deya5vfCdRr1Bot2/fEwSNJ2B10yki2Bat24ljiVYSePIfI0/fFX0DEGXTpPQwh0efMz1z/uGmL0aXPMISdOo9DR0+jdcfeWLXVHydO3zRVfp9++R12+keZ1x+Ju4Q2nfsY6XbwcJJ5jOPsBZ1IM91456/cjrad+5p1OdscaD3PZWxJty8s3nTznblog3mej/kfSzHrWL8rDPW+b2UqC+3lJ81ZiWkL1lrtS7aea4ngyPvCrm2Xfli9LdAcB8q47xq3NqKS0mzz/qNo0b4H1u0MMTJvxaaDqN+kDUIf7LuEnfAGEnZCiIpG5oXDSFr3ElI2vOl1UcdQvEX7rUG3Vg2wb/UM3Iw/hAuRe5GVHITVc0Zh8tBuyD4djJTwrRjcvSW+rf0hIvatNK8b3a8DZozsjcvR+3Hp5D5ciz2Yv96tiydi5Yzh+duIDViP3u0bw3/jXNxODMDSqUMwfmBnsx2KwC8/fg8zR/VG7plQs8zBdbNQu2ZV63VDkZ0SYraXenibeX180Eb0bPv9Q4KvrHMtfAhiFv4cl09M8vYlJYRPIWEnhBDlhLIQdhRVFHbLNh5wWw3mFHaUe137DsfUeavRpfdQI9Eozbr1HYGj8Vd+tKyrsKPIYuXZpr2HjfTiuoeNm41Rk+bdX3ef4UbQzVi43jzPCTC4ndad+uQLO2f2BMegQ49BptLPVdg1b9sNW/YfM+uhKJw6fw16DRr7o3VQAFKsUR6aqj7r9f2GTTRVggHHUtwKO+5rZ+uYTJq9Ap2t9lEgskqPVYrcR66HApKvX7nlkISd8BoSdkKIisb1pLWIXfJLXA0d6HVZx+Slh2PrkkkY278jbsQ9PJ6eLezunA7CiunDMHdcP/Ro09AIu+TQzejVvhGSQja7Xa+rsNuxbMqDbfiZn08dWmsq+S5F7zPCboq1HUq4cxG7cfdMqKnc69uxCVbNHGmEnXPdrKwb3qstDq6f47XjdnZPHSSsfgpZF494+5ISwqeQsBNCiHJCWQi7iKTr6DlwDKbMXYVT6T+eYMIWdovW7Mb0hesxctI8U1XXsccgI9EmzlqOgSOnmC6hRQk7yqUq1Wrgqdeq4MWq1a28j9etn8dNX4yjCVdMO9hFljKMVXPDx8/BnKWbjfjitlgRx4kw2nftjxqf1MHTr1fBB7W/xoHDiT8SdpR8bKct4eatuC8W2YV3w55wdO8/Ep/WbYBn36qKp1542Vp/Qr7AZKWc//FUBBz/sbCj2Jwwc7nZb1bV8ThwPykdR02ej2hr/XbXYXYlZnsl7IS3kLATQlQk2HUy/cD3iFnw78hJ3O51WWeEXVoYlk4bilmj+5hKuh8JuyHdcGTXUgzu1tLIuR5tvjddYiP2rsCgri1w+eS+IoVdXlo4Zozpiz///S94o8qrppss/61X52NTmUdht9x67cJJg4zYiwvYgH6dmmHF9OHWOkbgTnIQYgLWmS6xLRt+idetZV964WnsXjHNK8csK3opElc+gZTtH1v3q7nevqyE8Ckk7IQQopxQFsKOEoyVYp16DnZbJWcLu2HjZqHngNHYHxZvxoCzhR0r7CjY2H21OBV2zdt1z698c76W4+dR2LH6rueAMUYO9hs2CbuCovOFHQXcF183xK6Ak6ZqbkdAFFp26OlW2DVu1RkbdoeZ7VBEUrD1Hz7ZdI9t2rqLqRjkOlgdx3HoKOz4Wgo5toOC7sfCri+Gjp2JHgNGmW1sPXjcHAeOmcfutn2GjMfxxGv5IrRlh15Ysz1Iwk54DQk7IURFIudGMhLXPI20bR/5zOywrHbbtmQSRvZph+uxD48Jt3buaCPqhnRvZQTdlVMH0KPtfWGXHLYF3ds0QHzghiKFHbexa8VUTBzc1XRtdRWGFHYrrNce3rnEdJPluHkb54/D5kUTjLCj1BvYtbl5DbvEXo05iP6dm2HPqhleOWbXwgcjdtF/4lrsQm9fUkL4HBJ2QghRTiirWWIPHk4049B17zfSCDlWux0IT8ShY6eNsGvfbQC+adgCMxZtMJVj+cLuSJLpltqkVWdTCUfhx8o0ThrB9bobw27CzGWm+m1/WIJ5PUVcUGSGGfeOomz7oUis2OSHah9+YiTh4bhL+cJu28EI1K7znWkXlx0wYgq+btDMrbD79Mt6Zn0cQ46ir5m1f0vW78OuwGgj7DbuPWzkGruyvlOtprW/CaZ7bKsOvcz4c+yiu8dajhNb+Fn7SaHIdXzbsCUWrNqBU+l38oUdpRklIp/nxBMUkwtW70SDpm1xOPaihJ3wGhJ2QoiKxPWEFYiZ/xNcCe6He+lhXpd1tkyLObQWnVt+ZyZ/YHfTtKM7zL+rZo/Epx+8jWnDexhR5hR2txL8MXZAJ0wa3BUXo/aapB/dWaCwiw/agG6tG5jH2S2W4+TF+K8z3V9tYXc2Yhd6tmuEep/XQGLIJmx5IOwuWOvm+Hfblk5GZlIg9q+dha8//QC7V04v8+OVm3IAZ3fVwam5/4y7mee9fUkJ4XNI2AkhRDmhLISdLdIofgaPno73a32BV9+uZmQTu3yyAq/v0Alm1tXwmIsPBF+SkWUUcqxe40QUrD579b0PTQUd5RdfF8J1jplulrO3dTzpupn59bM69c3rO1rrpQDkLLEjJsw1/6eMa9Opj5kRll1tuf2A46k4mZppJN67NT9D3e9bYum6fRg9ZaGRhD8ew647ho+fjTr1muCjT78yFXscV47ibc6yLahpPfbZV/Uxd9lW9Bk8Dvus7fYfPhF/f+FlPPdWVbxgHQPObvvnZ57H103amHV27jXUVNcdfSAkKQJ5HMJOXTDHYfuhE6bi7433a6JN576mOtC1klDCTpQlEnZCiIpE2v56SFz5d2RGL/K6qHMKO070cGL/SjNmXNV33zCzxXKSiTXzxqD+N5+a2Vz5umuxfhjTvyNOHVpnfr4acwCzx/TBJzWq4svPPsD+NTPz13tg7UxTuZcvus6EGUE3vFcbVH/7FTN5xdo5o8zss37rZ2PrkonISgrEmtmjjCCkEOT6uA7KwqAtC9DEagtniV1tvWbhxEEI37GkzI/Xnbg1SFr1JFJ3foJ7ebnevqSE8Dkk7IQQopxQVsKuooVyjcKM1X/FXeZE8g0jA5ebyTd+kGzsQtt70FhTfVda7ZWwE6WFhJ0QoqJw91Y64lf+GWnbPkFuil+Ziybl8UNJef3wCMQs+Amuxi4y96pCiIeRsBNCiHKChJ2EXVFI2InCkLATQlQUrsUtQeziX+FyQBeviyfl0YVd2raaiF/xF2ReOOztS0oIn0TCTgghygkSdo+W4KizZvw6jpNX3GViM3LMuHXsMusUduwSzC667mbQLTFht+0Ueo9dgRWr12Pr1q0eZcb8legyeCYWLV/r8bJKxc/y5cvRvXt3CTshRLnmXl4Ozga0RMLy/8aduLVeF0/KoyUv1R/xS3+J9AONkZt1yduXlRA+iYSdEEKUEyTsKkfmb41Ch74T0H/AQAwePNij9OzTH2069kTffp4vq1Se7N27t5T+SgkhROmTdek4kta/gpSNVbwunZRHz9WQPohZ+HNciZ7l7UtKCJ9Fwk4IIcoJEnaVIwu2x2LonH04HBGDlJQUj7J1/xH0nrwV/mFRHi+rVJ5cuaIu00KI8svN1O2IX/HfuBzYzevSSXm03D291wjXpPWvIvt6grcvKSF8Fgk7IYQoJ0jYVY5oDDshhBCiYK6cnIFT8/4FWaeWe108KZ6HY9fdODoWcUt+g4vHhmt2WCEKQcJOCCHKCRJ2lSMSdkIIIYR77t3LxaXj4xAz/1+Re3q/1+WT4rmsy47bgNSNVRG//E/IvXPV25eUED6NhJ0QQpQTJOwqRyTshBBCCPewGuty5CTELvoZsmJWel1AKZ7lbvJepGx4G7FLfqWx64QoBhJ2QghRTijvwu5U+h1MmrMSjVt2Qtip8+YxzsC6ze8EGjRth417wszP+8Pi0bXPMFR5twa+qtcEa7cHmcc5O+uYqYvw5rsf4sWq1fHcW+9iyNiZZuZWs0zf4TiRfBMnUzMxfsZSrN4WgJiMHASdSLOeG4EqH9RC/aZtre1FmFleT57JROsu/fBclXfN+j746HOMnrzAbMc5M6yEnRBCCOE73EzdYcawu3CgKfLOBJqqLW+LKKXg8PzknQnArYjpOL3uVcQt/Q0uR01G3t1Mb19KQvg8EnZCCFFOKO/CLjrtDgaNmoZ33v8IC9fsQmxGjpFmY6ctxrvVP8bqrf7mdYEn0nAgLMGIt2UbDuC7Rq1xNP4yJs9dhW79RuDE6fvtX7x2D7r2GW6tIws7/SNRv0kbhEafw9R5azBq0nxEW48fsZZr1rYbps5fY0TclgPH0LAZ5eBhRKbcQsceg7ByyyEj6PyPnUbLDj2xYNUOCTshhBDCR8m7exvnw/ojZsFPcWZzVdw4Oh63T84zFXd34tYpPpG1yDy12Ei660fGImXD66YqMmHVP3AtbqG3LyEhyg0SdkIIUU6oKMKu79AJ6DtsIo4nXkN4zEV07zcS9Ru3MZV0rssER6bju8atjUybOGu5ee3RhKtG9rkKu6/rN8OEmcvQd8h4a70XzPKb9x1Bk9ZdzLb4M187YsIcjJmywDzmFHZ+R5LQqefg/J8l7IQQQgjfJC/nNi6E9UfimucQM/8niF/6WyStfhqn176k+ECS176IxBV/QcyCn+HU3H+yztNTuBDeH7fS93v70hGiXCFhJ4QQ5YSKIuxmLt6A/sMnY1dgNDbtPWy6vzJrtweaLqx+R5LN8598VR/PvvkOnnv5dRw6moygyHQMHDkFL73xDl5853389fmX0bHn4Hxh99Krb6Hud02xfleoEXrc5pxlW9Bz4GizXv7MbrkUf0PGTDcVd181aI6/vfgqXqz6Pl5770P0GjgWYdHnJeyEEEIIH4eVdlkXj+FG8mZcPDoC50N74ax/G8UXEtAOl46Pxs2U7cg8H447V0+Z8yWE8AwJOyGEKCdUFGG3bMN+TJ23GpNmr0DvweOwaM0u9Bs2EWu2B2JfWDy+b94eS9bvRUx6thl/7qvvmhhhx3Hn5q/agXZd++NY4rUfVdh907A5xk9fYqrk2K2W26S8a96uOyKSbzxoQ5aprhs5cS6OJVx9qMLucOxF8zPHsZOwE0IIIYQQQngTCTshhCgnVBRht2rLIWzZfwzfN++Axq06m8q5fsMmGWG39cBxNG3T1VTfRSTdwNxlW1Htw0+MsPOz0qhFR+zwjzLrK2gMu/EzlqDP4HFGyIWduoAm1jYWr91txr7bGxJrBN7KLf6IPP3wGHaH4y6h58AxpsushJ0QQgghhBDCm0jYCSFEOaHCCLut/jgSdxmNW3XC8AlzjEijsGOXWHZTHT5+Dt6tXgu1v2qAiTOXm1ll94XEGpHGijx2ay1I2B1Pum7Cir0xUxeaiSU40UTT1l3x5vsf4ct6jTF3+VazzajU2/iqYXP8/aVX8dK7H+CN6h+hTec+RupJ2AkhhBBCCCG8iYSdEEKUE8q7sFMk7IQQQgghhBDFQ8JOCCHKCRJ2lSMSdkIIIYQQQggJOyGEKCdI2FWOSNgJIYQQQgghJOyEEKKcIGFXOSJhJ4QQQgghhJCwE0KIcsLjCrvlu09hxNIjCI+XsPPlzNsWi7HLDyPj4i2PrxEJOyGEEEIIISoGEnZCCFFOeFxhtyUwCf3nhSAo5rrXpZRScCauOYEpa4/j8vUsj68RCTshhBBCCCEqBhJ2QghRTnhcYReVdAmdp/hhXcAZxJ6963Uxpfw47K7cfXoAVu+Lxd3cPI+vEQk7IYQQQgghKgYSdkIIUU54HGFHWLE1dd1xDFoQhiOJt70up5SHE5l6B/N3xKHv7ECcOn35ka4RCTshhBBCCCEqBhJ2QghRTnhcYZebl4fQk2fRa2YApmw4iSNJkna+kpNp2Vh54DS6TfPHyr0xyM7JfaRrRMJOCCGEEEKIioGEnRBClBMeV9gRdrP0P56GnjMCMHzJYWwNzcCRxFuIOJ1pJUsp4xxLvo1DJ69g2oaTRtbN3xqFW5k5j3yNSNgJIYQQQghRMZCwE0KIckJJCDsbip0Jq46YMe0GzA/F2JXHMX5VhFKGGWcd86GLD5tzMGxRqJkU5NqtO499XiXshBBCCCGEKP9I2AkhRDmBlVeswJq27jgy7zyesGP32PNXbiP81DmsPRBn1jt3c6RShqF4Xb47BvsOpyL57HXcecRusE72H0nF4AUhSM64/tjrEkIIIYQQQngPCTshhCgn3MnOxZoDcRi+OOyxuk064eyxHC8t685dIwGVsg3PaW7ePXMeSoIdIckYujAUaRdulsj6hBBCCCGEEN5Bwk4IIcoJ2XdzsdE/AQPnBePm7WxvN0f4IMv3xGDUsnBcvfl4XWuFEEIIIYQQ3kXCTgghygmcMGJnSDI6TfZ77LHORMWE3aUnrDpqrhUhhBBCCCFE+UXCTgghygnsNnks7gJ6zQzAyeTL3m6O8DHSL9403WG3BiZ5uylCCCGEEEKIx0TCTgghyhEZF29h9LLD2OiX4O2mCB8jMuEi+swOhH9EurebIoQQQgghhHhMJOyEEKIcwckmpm+IwOhl4biucezEAzjDLMc37DT5oKm0E0IIIYQQQpRvJOyEEKIckZd3DweOpKLnzAAcOp5WYrOLivILr4HU8zcwZGEIpqw9htw8jV8nhBBCCCFEeUfCTgghyhmZd+5i6KJQTFl7HBmXbnm7OcLLUOJy3Lpu0w4h+rTGNhRCCCGEEKIiIGEnhBDlkH2HU9Fx0kGsORCHO9m53m6O8CJHYs6biUhmbjyBazc1e7AQQgghhBAVAQk7IYQoh9y4lY05myNNVRW7yLLKSlQu2BU27fxNjFgSZpKccV3XgRBCCCGEEBUECTshhCinnL9yO1/abQ9KwuXrWRrTrpKQnZOLwzHnTNfogfOCEZt6xdtNEkIIIYQQQpQgEnZCCFFOuZubh4yLN7FiT4zpHjt70wnTPVKzx1ZceM5ZSbf+YDz6zg7ExNVHcSLhorebJYQQQgghhChhJOyEEKKcczMzG3vCUjBofrAZy2z8yiNYdzAe8Weumoo7pXyH1XRnL99CcFQGZmyIMOe502Q/LNx+0kw6om6wQgghhBBCVDwk7IQQooKQdecuwqPPYfSycPSfG4Tu0/3RcfJBDF4Qgilrj2H6+gjM2xKFpbtOKT6e+VujzPmyz2WHSQfRb04QRi4Jxyb/BFy8munty00IIYQQQghRikjYCSFEBYIVWVdv3kFMyhWERGVg7YE402WWY93N2ngC09Ydx6TVRxUfz1TrPPF8LdoRjVX7YrE77DROnb6MS9eyvH2JCSGEEEIIIcoACTshhKigUN7l3M1FVvZdXL+VjWs375iJKVidpfh2eJ54vm5l5eBOTq63LyUhhBBCCCFEGSNhJ4QQQgghhBBCCCGEDyFhJ4QQQgghhBBCCCGEDyFhJ4QQQgghhBBCCCGEDyFhJ4QQQgghhBBCCCGEDyFhJ4QQQgghhBBCCCGEDyFhJ4QQQgghhBBCCCGEDyFhJ4QQQgghhBBCCCGEDyFhJ4QQQgghhBBCCCGEDyFhJ4QQQgghhBBCCCGEDyFhJ4QQQgghhBBCCCGEDyFhJ4QQQgghhBBCCCGEDyFhJ4QQQgghhBBCCCGEDyFhJ4QQQgghhBBCCCGEDyFhJ4QQQgghhBBCCCGEDyFhJ4QQQgghhBBCCCGEDyFhJ4QQQgghhBBCCCGEDyFhJ4QQQgghhBBCCCGEDyFhJ4QQQgghhBBCCCGED+E1Ydd/fjRKNfNOou+cE+g14zC6TApAxzG7sT80wdvHWwghhBBCCCGEEEKIQjkYnmhcFp0W3RYdF11Xafu0//F+lwCUZqp1PoRqHQ/i3fZ78HarLXin+Rqs2R3t7eMthBBCCCGEEEIIIUShrNt7ClVbrDFOi26LjqtaZ/9SdWnM/6jWmVKt9PJep0N4t8NBVG23B1VabsbbzVZjtYSdEEIIIYQQQgghhPBx1u49hbebrzFOi26Ljouuq7R9moSdEEIIIYQQQgghhBBukLATQgghhBBCCCGEEMKHkLATQgghhBBCCCGEEMKHkLATQgghhBBCCCGEEMKHkLATQgghhBBCCCGEEMKHkLATQgghhBBCCCGEEMKHkLATQgghhBBCCCGEEMKHkLATQgghhBBCCCGEEMKHkLATQgghhBBCCCGEEMKHkLATQgghhBBCCCGEEMKHkLATQogSIDIyEq9VqYKf/va3D+U///AH9OjRA9euXfN2E4UQQgghhBBClBMk7IQQogQ4duwY/v700/gf//RPD+V//eQnaNu2La5evertJgohhBBCCCGEKCdI2AkhRAlgC7tXq1TBvMWLsWzVKgwcOhQ/+/WvHxJ2aWlp6D94ML5p1Ai9+vfHmTNnzON8fvzkyeZxO3369cP169dx8+ZNzJkzB/WaNEHbTp1w5MgR5OXlIScnBxs3bkQb67HY2FiznuzsbEyZNg0DrG2cPXvWPBYVFYV2Xbo8tO6W7dsjJCQkfz3bt29Hk5YtzXPdevVCTEwM7t2755VjKYQQQgghhBCVHQk7IYQoAWxh99W33xrBRoKCgvDLP/0pX9hR1tWqXRu/sB77w5NP4r/++Ed8+uWXSE5ONnKtdt26+L9++lP83nruj089hU8//xwJCQno2K0bfv773+MP//gHfv2Xv+CZF14wsi0rKwvDhw/Hr/78ZwQEBJht3r59G9989x1ef/ttxMXFGem2Z88e/MZa7hfW67herotddVevXo3c3Fxs27YNTz77LH73t7+Zbf/br3+Njz79FBkZGd48pEIIIYQQQghRaZGwE0KIEqAoYXf58mVMmToVv/zjH7Fs2TLcuXMHi61///i3v2HhokX5wu6lV199qPvs7j178Pu//AXdevQwgi48PBzPWq/p1r272U5Rwo5Cbs2aNaYd9muWLFmCX1jtsIXdshUrMHTkSKSkpGDjpk14s1o1/NZ6fVhYWJkfRyGEEEIIIYQQEnZCCFEiFCXsWK3WvEUL/OSXv8THX3yB763/1/ryS/z0179G565dCxR2EyZPxv/905/irfffR0NrmboNGphKuZoffWQq9ijsuM6atWvj+5YtUb9pU/zhiSfyhR27u86bNw//8dvfmokxiKuwY4Vfr379TJfbX1nt5dh7EnZCCCGEEEII4T0k7IQQogSwhV2rdu2QmZlpHnMKO8q1ht9/j//5k5/gP373O/zyv/87Pz179y5Q2I0aMwb/xz//M/7tV796aJmvrNempqYaYff//sd/4N8frJMy73//+7/nC7sbN26gX79+eO75583riVPYsa0tWrXCv/ziF6hntS8kNBRffvuthJ0QQgghhBBCeBEJOyGEeAw4aQMnfBg5dqzp7spJIdwJu4sXL2L4iBH4w9//jq1bt+Lu3bumsm3dhg2IT0goUNitt57/lbXeUaNHm2q5S5cuYdvOnWbiCXZ/LaxLLNvFMfDeq1kTjZo2NcsTp7C7cuUKqr73Hj76/HMjFdPT0/HJF19I2AkhhBBCCCGEF5GwE0KIx4ASbMqUKfj//9u/ma6kPfv1M+PTEddJJ0JDQ82Yda9XrYqmbdqg2kcf4e/PPIN9+/cXKOwo9apbr/vzU0+hmbWeL7791nSjnTN3bpHCzt/fHy1bt8a//+Y3ePHNN9GyQwcTCrz/5z/+A42bNzdVeN81aGAmofi6YUN8Vb8+/u2Xv5SwE0IIIYQQQggvImEnhBCPASvl5syZg//605/MZA2hYWFmZlZC4fXkiy+iR48euHbtmpF7lHMcj+6nv/2tmTxi0+bNRvCdO3cODZo2RbUPPjCvda4/+tQpNGzUyHSlZYXe6LFjzWu43IQJE/APaxucNZawuq9Zy5b4sFYt7NixA3/+61/xz//1X/jpb35jtmmHjz1vbf/w4cMICw/H2w/a1LpdO0yYNAlPPv881q1f75VjKoQQQgghhBCVHQk7IYSooMTExOCdd97B5s2bzeQSTvhYzZo1jbCzBaMQQgghhBBCCN9Awk4IISooHJ+O49QlJib+SMrxsQ0bNpjKPgk7IYQQQgghhPAtJOyEEEIIIYQQQgghhPAhJOyEEEIIIYQQQgghhPAhJOyEEEIIIYQQQgghhPAhJOyEqEBwLLLHjRBCCCGEEEIIIbyLhJ0QFYiIhIvwO56GQxHpHmf/kTO4fD3L27sghBBCCCGEEEJUeiTshKhAzN8WhXX+qdgamuFxJq45gdjUK8XaTm5uLsLDwzFy7FgMGDYMi5Ytw40bN0p570R5IScnB7t27cLA4cPN9cGcjC5ff3/z8vIQExOD8ZMn5+/D2vXrzb4JIYQQQgghRGkjYSdEBYLC7lhyJuLO5XqcJXsSiy3sFi9ejN69e2P7zp3YvW8fho8ciSFDhuDq1aulu4PC58nKysKmTZuwYcMG7Dt4MD/nz5/3dtM8Ijo6GnPnzsXe/fvz9yHq5Ekjq4UQQgghhBCitJGwE6ICUdrCjmPchYWFoWnTprh48WL+uHeXLl1Cpx49sGv3biQlJSEgKOihxCckGNGRmpqK4NBQ81hsXBzu3r1rKpbS0tJMhR7XlZ2djfj4+PyKvczMTIQdOZK/rmPHj+POnTv5zx0+fPj+c8HBuHXrlnmc4jA5ORmnYmLub99aH7d19uxZBIWEPNS2qOhoXL58GSkpKaaqily/ft0sw7acOXPmRyKS+8L137x50/zMdUdFRd1fn/VvQVVYXH/ig+PDdly7ds2sKzExERkZGTj8YD+vXPnhPLANbCMfP3nypPnZXhf3J8Q6H/a+JJ0+nS+U2OawB8cmwVo/j9nxiIiH9j3UWvbcuXM4ERn5w2Ph4fnbd91GpGP7BV0f3BcKXbaV5yTc2ie2xR4f0dkOnh8eO/tchj/Y/yTr2LoTYzyuMQ/OqR1nZSeXsx+3z5l9PfHa434EW7l9+3Z+ey9cuGCOA5c5fuJE/rW1aNEiBAYG4vDRo+ZcnXYcW8Jr3r6WT1vXDtvG4+x67fN8czleX1wPzwmX5ba5DK8vXkdsZ5z1O0GxqbEkhRBCCCGEEBJ2QlQgSlvYUSqMGzcOK1aseOhxShcKEsqOrdu3o9eAAajx6ad4/6OP0KNfP6zfuBEnTpzAAOvxntbPHbp3R9MWLUy3WsqL0aNHIzg42IgKCiIKQYpBQolR6/PP0b1vX7Tq0AHvVatmBB/lHCugevTqZbb3TcOGmDVrlpEx+/btQ41atdCX2+vfHx07doSfn58RMH0HD0btunVRxVpP1969sWDJEuzduxf9rdfZMiooKAhNmjQxMmvkyJFmfU64jW7duhlZaHf/bNO2rWlH9549sWbNGrdii/vYzXq+W58+6Gz9O2XKFCOC2rZrh+Zt2qD/oEFo06kThg0bZrZNtmzZgjbW89z/bj16YKHVXm6f61+wYAEaWu3kczVr1zb7y+OSnp6OyZMno5u1f9zHzlZb/f39MW3GDHS0jv2Tzz+Pxi1bYpi1bwEBAfjMWraRdT7YfraDy3IblEyDrDb15LatNjdo3Bj79+/Pl2yu8PzxmDS31t3fWhfX18Pa/qRJk4xYY/XdqlWr0K59e/SwjjePxY4dO4wgXbZsGdpa+872dejcGbGxsT9aPyVxS2vdPHZ83VMvvGCuIYpF/sv1cn+bW8eL1xlFLEXoV199hZ7WMjw+3O8J1nFneyjrBlvXQ09r33id1LOuoW3btpl2dunaFV2t49134ECzLl4f3DfKN0ppLsc2tLeObZNWrYxI3mSdK+7zB9a1x/Da32w95mcd+7ZW23g+OlnL8HeI1zm3z+uL6z116hSGDh1q/m+LYyGEEEIIIUTlRcJOiApEaQs7ihXKL1eB5Y7Zs2cbUUOhRZEzZ84cI5go9ShLKIIo3CgtihJ27G5LQZWQkIA6deoYYccKLrbFrgbjzxQzrFhi+6p/+KGRIFwnpRCFDddN4bJ69WqzTrsiLyQk5JGFHSvtWrdujaNHj5rnKHOaNWtmKu2csIKsR48eZl1sA48DJSa3QWE3dPhw8xqmb9++WL58uWlvw4YNTfsocaKt/aH4OXbsmFme4nTr1q3m/zyWI0aMMMd28+bN5pjy2FCu8RjymBFKr3r16pl12Oe0UaNGZl/IkSNH0M5qDyvS2K2Vcolt4rGZOnUqRo0alV+h5gqPNcVgjZo1sd065vyZVYQUkOvXrzfHpL3VflbJcX+OHz+O77//3pxXPkfBRvHLY7tx48YfrZ9t53nkOil6GzRoYEQdryG2mbKN+8uKtY5duph1cL8//fRTI1F5LVJmtmrTxshbilqKN14HbM/ChQvRr18/s77v6tdHP+ua4PHhOilOeY3wuWnTppnrgseax37q9OkYZR1vu7KSzzNcjuvuYbV5mXU+eQy5PM8v28NqOlvYzZ8/3xw7VdcJIYQQQgghiISdEBWI0hZ2FCUULo8i7Cgq2L1w5pw5eOHNN/GHJ57AuIkTzeODBg/GgkWLTNfXnbt346u6dfOFHSvAZsyYYdbhFHYUJRxnbIf1+m+//96s87V33jFVYWzf8OHD8wUcq6woZvj6goQdJQ67LLJb5vyFC/OFHSXYjFmzzOMMpZEt7NjG7du3o0WrVqb7I5/nPnTp3t2INCds+7fffmsknBO2gcc0IiIi/zEuO3bsWCOg6n7zDfysY8B1HwoMRM9evYw84nIUoIcOHTL7aQs7SjrKOso8d5Vw7oQdf168bJnZxtgJE9Csdet8eXbEOmeLlixBlerV8ZdnnkH33r3zj5srtrCjmOR+2l2m165da44/u8q279gxv6tsoHW8W1rboiAlPK679+xBY+vYU6i5wu62AwcONPvrFHY8r6y843m24Th6Xbp0MXKwlXV+bGHJZXltsqKP1zP3b/nKlaj28cf4+/PPo2W7dkakUQYfPHgwX6Cx4q9FixZGLFI289zYlXDcRl3rmrW37xR2XBcFbvSDSTd4/a1bt86IQV5frERcYF1vPN/cJyGEEEIIIYQgEnZCVCBKW9hRko0ZM8ZUBzmhuGCFW2hoaP5jrsKO0q1egwbo2KOHGVOMlVozZ840wq5Tly6mSyvHwWN3xrfeecfIMK6Xco3yhTiFHcUJq7PYJXH1unVGmvA5W9ixcsmueGK1GKuaTj6YNMCdsKv+0UdmXZ169sQ31nptYcfqsC/r1TOPs7squ/VS3tjCjuLmw1q10L5rV/Maht1uuS0n3Ge211XK2MIuMjIy/zEKHQpHirkXX38dba3jY697sNUe7jtlGiveuB3up1PYUf6wos3dOHDuhN2ntWujXqNGZv0drP3gueLrKNq++uYb0/WTYotVYGxXYcKO1wCPGZe34TGi5GIFm7tjxSpFwvPazzq+rdq2fUhg2nDd7EZMXIUdBRuvJec2+/TpY447KyBtmUZhxy6/S5cuNZWXX1jXDLtoBwYHm+uak6lw3RRqrPq0YeUk18Njz/1jdZ4t7FjByLbY++wUdryGKPp47RKeE1Yu8lzxuXZWuyl8lyxZkt8NWgghhBBCCCEk7ISoQJS2sKOgYMUbK5acEyNQHrXu0AHz5s/Pf8wp7Cj6evXqZSqpKHW4bIs2bTDBer6wLrHs2kixx6otYgs7CjhKrfHjx+dLKa77zXffzRd2zZs3z594gF1PKWIohB6nSyz3heKJ47CxeouyiGPj8f8UX/ZrWN3mOgYbu+qyyy4FkhNb2FHOOY/dvHnzTLsogmzJx9eymye7+rLajPKQ++QUdtzniRMnGplnT6DgpKgusTwfHEuN55nHiOPz8bxzXLe+1jHieG+FCTvuH5fj2HyEx5THkLKO4pUizO5Sy662HHeQ3VRt2Obp06cbgeWE8ouSjVV6xCnsKPzYddh5zCmDGV4PrGy095fb5v7t3r3byGe2ifvHjLJ+bm2dC1be8dp1PsdqO55nHm8uz7bYFYwc148Cl8eIOIUdr/U21rVuy2y+huvmOba7xPI8UwJy3wqasEQIIYQQQghRuZCwE6ICUdrCjlB4UQZRgHHGTc6sOcX6uXuPHkZA2DiFHYUHJcfYceNwLCLCdEd87qWXzKQDXMadsOPPQVbYVXXXnj1mhtLtO3figxo1zHhxFGXsasiZP0NCQ40Uee6114yYoWD7+7PPYv6CBYiIjDRShKKLAsVTYUcJNs9aD7fPbfFxW9BQcnEdFIcMX7Nu/XqzLufspYTHgF1Y2f2XXYM5GyvbEPqg7R9+8gn8AwKw78ABI/AomtheSqXRVo4eP266brJrKZ9jm9i9lOviMR1kHd+OnTsjwzp+PD4c623P3r3muclTpuRPFOJO2H333XdYtWaNaf8+a99YjciKRVbascvmEeu17Pr72ltvoUmLFkZCUWqx26zrBAk8hhSaHPuOx36tdTzatm1rKtz4eh6b2XPmmG0tWrzYvI7CjceC55fHhdcSt2dji8AOnTqZrtNc1j8wEJ989hk2bNpkzgFlVyfrec7Cuse6Xmp//XX+7LsffvihkW1h1ropetkG7gOvw27du5tjSCH3dtWqqGsdC16DlKJsE48Hu0qzmy+X5fVMgcyqub3Wc4HWtdLAul537tqV333WKex4vc2ZNw/NWrUyr922Y4eR16yMdE46QdnY1bqmKCA1jp0QQgghhBBCwk6ICkRZCDtCabFxyxa07tTJZPKMGUbgOGGF1oEDB4ywoIBgZdLIsWPN61lVxQondrmkMKJgYZdDvs6eMZQTEjRv1Qpf1a+fvx3m20aNjOCi7KDU4WO9+vY1go9VaeyeSGHXuHFjTJk+3TzP6jW7Eo+CiRMrcFm7Ao3CiK+xK6YoelhBxbaw26Rz+2wrK8PY5ZTijLBqavLUqeb54SNHFjgWGY/bmnXrzOvaO4QfBR3l2IDBg81zrMaz4XGdaj3Hx/sPGWL2m8f2nerV0bJDh/x2tbDW8XrVqlhrrZ+wmyhnLOVz8xYuzBeIrFpktZu9DbZ94uTJ+evhLKv2JBemWm/KFPM4pSFF1cqVK02b+H+KTx4LVyjteHzadO6MfoMG5U/+QbhOrovrnGSt275u2CWYs93y8UXWsXdObMFzN2TYMNT47DO06tgxv61NrevgvQ8/NNcOoSzl4+xWyypMQmH3xRdfmO683Xr1Mtu2Ky/Z9mkPju2gB/KU1x7PH/eflZl9Bg5ER+tccSIPu4KOUHhytlquk8fCOV4gZTJjX3Nm9uStW80MsTyHvEbtc8EKRl5HfA27du+wfnbXlVkIIYQQQghRuZCwE6ICQWEXEncDJ1KzPM6CnXHFFnZlASugWOFkV4LZsDKpa9euplqrICjsKMEK6rrpS9jCjmOiFRcKO1ba2RWBxB5f0Nm1trSgfGNFGKvSnG0oLeyqTlZJOmUWhSor3Wxh5w4KO3ZFdu2iLIQQQgghhBC+jISdEBWILYFJmLb+BKZv8DyT1hxHyrkbRW+kjGCFE6vCXMf04s8UNa5dMZ2wSytln7vqL1+DbWRb7ZlSiwMlGY+Ns+sk/8+KLWcVWGlBacaum6xAK4vum9wGxSb3zbk9XgOs0HM3G64NKxIpRAuTekIIIYQQQgjha0jYCSGEEEIIIYQQQgjhQ0jYCSGEEEIIIYQQQgjhQ0jYCSGEEEIIIYQQQgjhQ0jYCSGEEEIIIYQQQgjhQ0jYCSGEEEIIIYQQQgjhQ0jYCSGEEEIIIYQQQgjhQ0jYCSGEEEIIIYQQQgjhQ0jYCSGEEEIIIYQQQgjhQ0jYCSGEEEIIIYQQQgjhQ0jYCSGEEEIIIYQQQgjhQ0jYCVGBuJ60GhePDHjkZN9I8kKrhRBCCCGEEEII4UTCTogKRPr+hrh+dAxuRc70OBk7P8ftDD+Pt5mXl4fs7Gy3yc3NLYW9FKLkuXfvHu7evfuj65ePCyGEEEIIIURZI2EnRAUibV8D3E3eDWQc9jgXDrbBrXTPhd3OXbvw6//+b7xTowaq1apl8t7HH+Nvzz6L5cuXl8JeClHynDlzBmPGjcu/hmvXrYvNmzcbiSeEEEIIIYQQZY2EnRAVCG8Iu71796JNmza4evVq/mOsTho2bJiEnSgX3Lp1C9OnT0d8fLy3myKEEEIIIYQQBgk7ISoQvijs+Pj48eOxZs0a1P7qK7z94YeIi4vLf21sbCwaNG5sHp81axZycnLM4zdu3EC/gQPN48y333+P8PBw8/zSFSvQrVcvXLx4MX89O3bsQFOrHefOnTM/R0dH47tGjcyy8+bNw+3btzF//nxU+/jj/HXy/5MnT8bNmzfz15Oenm7ay9eToKAgtGjfHufPnzc/nzhxAvUaNjTL83VZWVnmccoeez8GDxmCzMxM09bJU6bkb4/5xlo2LCzMdCVmVVe7zp1NdSKP17Vr18y67ty5g2XLlqHmZ5/lL8d9tqu9Dh06hBq1a5vH51j7xNdTOs2YMQPv16qVv8wyaxmb7du35z/eq08fswzDY37q1CnzGraXPwcHB5v9nzBhgmmjfZ56Wcc8JibGvG6qtS3nfo2dONG0wQnPwcKFC3H9+nVzTfAaGDduXP4xIzwO/v7+Zn/79utn1jV89Ghz/m22bNmSv53effuadZHk5GRTDWf2deVK8zivx1WrVqFb9+7m8XFWu3gubFZaz9nrGmodc+5LamoqJk2ahNVr1+Y/x3Nkw/YPHTnSPF7nu+/M8eIynzy4nu3Us663kJAQLFq0CBEREWY/eQxXr15t2rVp0yazPj4+bdo0s8+q4BNCCCGEEEK4Q8JOiAqELwq7CxcuoG7duujcubN5TUJiIt6tUQORkZFGjjVs2NBIMY4VRokxdOhQI2uuXLliZAdFGIUJZdHu3bvNuimmvvrqKxw+fNhsj6KL63+rWjWkpKQgLS0NDRo0QGhoqFkvZcyIESPMerPu3MHUqVPzxRGfd45Tlmi1r2XLlmabZ8+eRdOmTc16KWgoq+rVq2fkFZdZt24d1q5dawTOd999h5MnT5rHKceWLl1qRGC/fv2wfv168zh/5n7s3LnT7F/btm2xYcMGs0+Lrde3sH6mcKQsmzNnDvz8/Mz/x44da44N28t1NWvWzOzjpUuX0MRq6xJrWR7brl275m+LMqtOnTpISkrC1q1bTTso6Civ+vfvb8QcBVvPnj3NcSJ8vkePHti2bZs5Vq1btzZylcuw3a9WqWKk6fHjx8154/mjcNu3bx9GjhyZLxxtKK8GDRqEy5cvm2NWvWZN1P/++4fEHseJ4zF45qWXsHvPHvPcmDFjMGrUKCPT2C11wIAB5hixHX369DHHhseJ6+Z5sa+jI0eOmGvuqRdeQLC1be7DkCFDjJTluijOhg8fbtbF49qtWzcsXrzYLPfXZ5/F6NGjzTZ4njp06GD2i6/j/7kOto3HitcHzzX3ndcnjxPlJI87181r+ODBgyY8H5RylJW8brm/FK7Pv/qqaYstqIUQQgghhBDCiYSdEBUIXxV233//PY4ePZr//JQpU0y1GyuMBg8enF8xRblEYUS5w4o2SjUKOIoXp7BjxRxFk93llgJp4sSJaNGihVkHH6c0sddL6cTlKVcopSi/WB3H/7tiCzvKsCVLlqBLly74+uuvjQDjz1zWOZkGpQ1lDNfnOskGt09RRiFFKHx69+5thB2rylq1amW2QzIyMsxrWdlFYWRXulEg8Thwu5R8PF4rVqzI31ZgYKBZD8UVhZ29Le7rF198YY4lxRkrvngsp82ciS+//dYITErJooQdJeX+/fvNNpo3b26EHWUrRSa3SUlVlLDjNcBzXr9+fdNGd8KOEtFenm3mtijlKHO5vdOnT5u2f/HNN0asOUUX20Fhyv3guR/yoMKRUKzxfPJ6oiijXE1ISMCU6dPxed26RsTxmL/3wQfm+NiwSo9ykNct5bBdachzw32l6KOI47p4/dtViraw4zHkOaNU5j7awo7HgjKySZMmZj0SdkIIIYQQQgh3SNgJUYHwVWFH8UOpYrNy5UpT9cbKsadfeQUffPaZSdWaNfGR9S+7nVKcUWywOsudsLOr5iidWOnGqjYKOwoUyrOnX375h/XWqIFan39u5E1xhR0lkS1eKOz4OEURu2c6oXChjGL1liuFCTu2+Q9PPGG6sLKN7330Ed5+7z0jldjVl22kBHIKOz5OyXPgwAEjCgllJCvpKNYow16pUsWs77V330UP65ixKo9Cs36TJqhhPT7COqZdevQw67GF3RvWdrlM9U8+wXOvvvqQsKMEoyRkpVunTp2MsOM62YZO3bub5V6yttmhS5cChR0r2FilRsnF/Xcn7HgMbclGUcdtU5JRmNVr3Nh0Dx5pHf/O3bo9JOwo2z794gu0atvWHB9ec5SdtqylCOW6+C/35av69fFR7doYN2EC2lv7Yws77puz6yz3j5V9AQEB5rrisSK8ZrgMBTG34U7Y9enbFzU+/dRUX1LwOYUd18sKQq5Dwk4IIYQQQghREBJ2QlQgfFXYsVrKOW4du7rOnj3bSDeKj1u3bxtZwnUkJiWZ/1OUUGpQkLgTdhwnjBVv7O7JcdKioqKMWKFY43IUQLcfrPeKtV5W3lE0FUfYsXps7ty52LhxoxExFHZcnu3mtp1daFllNXPmTNPN1pZozuNQkLBjuzt07IiLly6ZNlIIcRsUPJRA3BYlE9tsCztW4w0cONCsz66wY+Ucu9ayWyiFHSvDuL7LV66YajnuA4UbqxkzrXXZ49Q5hd0hf3+zDIUb12ELOx7P6Q/GWmP1mS3suM/slspzwjZy/EDKU3fCjm2g+GKlGfe7IGFHCWePJcgKO1bjsUqQy1LwZj1oO6WXU9hxeQq+9u3bGxnGa47XlH1u2VWV3WV5/bEtm7dsyV8XjzGvFR5vSlpWMNpQwPLcUfLx/LN7NOFx4rlY8WBMQXfCjhV+FLKsGrTPFYUdt8e287W8diXshBBCCCGEEAUhYSdEBcJXhR3HsJv4YPB/VkF17NjRiCYKHY49R+lBOGYbl6McoRShbKIEcyfsWK1FGcOuhZQfXIaCiWKJXUm5Xgowwi6bFErcdnGE3QcffWTEEseJozSisGGFILuGUgzZ8obbZ9dWPs5jwNcT7g8fMxNnFCDsbElEIUShQ6FFGceutxRgrMKiwHIKOy7PrsTsqsnKQ/48ePhwM7EFZZOzSyxFEMdI47FhlRuFkb1/n3z+uVkHlymsS+w3336LJs2bm3NFKWYLO0o6HneeD7a9sC6xH9SsiT7WMeC+FCbseMyPHjtmzi8FIWUuBSWlF8eBs4/rx599Zh7jseZxopTl+vgYf+Y1x3XFxsWZ/eHxoqBkl1ju265du8y67DH1eIx4LHmMeb3xuFFkcl/5M9tAgcsJI9g2Lsfrl9cYr82CusRy/DpKZ1YWcts8/jU/+cSIar5Gwk4IIYQQQghRGBJ2QlQgfFnYcSy4b+rXxzf16pnqMsoUygpWhNX5+msz42bHTp1M90lO2PCPF1/EW++/bx6v+cUX+O+nnjLyiN0kbWFHsUIBROHE7dvCjuvltr98sF5umxV4FCzFEXZPvvSSqbCiTHIKO8qhBQsW4NsGDcx6WdlGcUO5xSqweg8eb261g11new8YgM9q1zZdcYlT2LE6i/KIM87WqlMHX1vLUlhSiL345pumSy8f//jLL/HkCy+YnyNOnDDHk1VhfO7Lb77BwMGDkWodEx4LCrs33n3XtOEj65i169DByEV2s2WXUj7e0mpz9169zKQclF5FCbsh1nnkflM62cKO+0oRRZlV1Bh2H9Soge07dpj9LUzYfW1tq5V1HdX8/HN07t7dnAcuQ/HF7qVse6t27UzbWTHHMe0ogbmfnDG3XceOpsqQ5/2b775Dy9atUcNaVw9re7xmeE3s2bMH73/88f1zZ7Wf3WspTXnt8DixC/FH1vF+/5NPTCWfvT/cj2bW63gd1rauBXa/tmcRLkjY8VzyePL3gPKREvKd994z7SYSdkIIIYQQQojCkLATogJBYZcZvQjZCRs9zrk99R9J2FE4UF44u4ny/6wMo7ygYKLwooijAKFYck7OQCnDxyhNKHJYhWfGTNuyxTxmh+PasVqNIocihOu2t8P18f9sh90t1bleZ/v4L5e3Z4h1heu6fuOGWd7+me1yt17n42a5B4/b45bdtJ6n+LJfw+1x/3jM+H++5ob1Wi5jv45SyUzUcPFi/r5TJlHGcYIJwn2/ah1LHk/uiz3TrelWbD1mL3f7wZhsXC/3yW4bl7HbzmXsfXVtH19jr9/5Wnu2WXu7fL2748nXch38136dvZzzeFPYsetrhrWfbKPzNfb5cNd2+zjYy3A79oQjFx8cv0xHux46Rw/2zb5m8o/fg2PnFGl8nt22+bjr9cv/cx32Y/Y1aR9T+1ixrWy33Rb+XNA1KIQQQgghhBASdkJUIC6dmIRzQe1xPrijx8nwa4o7l6NKvE22sOMkDsWBooQVTOx66ITdFvk4RUxFhpNHUNo5pRCPCSv2KCsrGrawY3dge2KHR8UWdqxqc04gIYQQQgghhBDlDQk7ISoQudnXcTfzwiPnXm52ibeJFUZBQUE/6i4pBGGFGbvmUug+bvdQVsKxSzS7IDuFpxBCCCGEEEKUNyTshBBCCCGEEEIIIYTwISTshBBCCCGEEEIIIYTwISTshBBCCCGEEEIIIYTwISTshBBCCCGEEEIIIYTwISTshBBCCCGEEEIIIYTwISTshBBCCCGEEEIIIYTwISTshBBCCCGEEEIIIYTwISTshBBCCCGEEEIIIYTwISTshBBCCCGEEEIIIYTwISTshBBCCCGEEEIIIYTwISTshBBCCCGEEEIIIYTwISTshBBCCCGEEEIIIYTwISTshBBCCCGEEEIIIYTwISTshBBCCCGEEEIIIYTwISTshBBCCCGEEEIIIYTwISTshBBCCCGEEEIIIYTwISqJsNuCN5usQruROzBlWQAmLT6AiQv2YML8XZgwbwfGK4qiKIqiKIqiKIqiKIoXQjdFR0VXRWdFd9V+1E7jsiqwsNtrhN3rjVfh5Xpz8fyXk/D0J8Pxj5oD8MQHffBE9V74e/WeiqIoiqIoiqIoiqIoilLmoZt64oPexlXRWT3/5UTjsF5vvNI4rYon7Drawm4r3miyGq98Nx8v1JmCZz4bhac+Hox/1OiPJz/shyc+7KMoiqIoiqIoiqIoiqIoZZ4nP+xrHBVd1TOfjsLzdaYYh/VG49XGadFt0XFVEGHnf1/Ytd+Lt1ttx5tN1+HVBovx0tcz8dwXE4y0e7rWMDz98VDrgAxRFEVRFEVRFEVRFEVRFC9kqHFUlHV0VnRXdFhvNl2Lt1ttM27rvrDzrxjC7r2Ofni3/X683WYn3mq+Ea83WoFXvluAF7+egefrTDYH4bnPx+PZz8cpiqIoiqIoiqIoiqIoSpmHbuq5zycYV0VnRXf1WqMVxmXRadFt0XFVLGHX4QDeabvbGMk3m63H641WGkv58nfz8fK3c/DSt7Px0jeKoiiKoiiKoiiKoiiK4oV8O9s4qpe/m2ecFd0VHVaVVtuM06LbqljCzh7Hrv0+awd3WTu6FW8134A3mqwxA/ex4u6175dbWaYoiqIoiqIoiqIoiqIoXshy46joquis6K44dt07bXYZp2WPX1chhF21zveF3f0qO1va7TalhG+33mZm2WDearkZb7VQFEVRFEVRFEVRFEVRFC+k5eZ8T0VnRXdFh2VkHWeHNdV1h4zrqhDCzlXasc8vd5aza3DHFUVRFEVRFEVRFEVRFMVXQmdlRF37/W5kXYUQdnaV3QNpZ4s7k4P30+GAoiiKoiiKoiiKoiiKong/tq+ipHsg6n7oClv6sq4MhZ1rtZ1D3imKoiiKoiiKoiiKoiiKT8YfZVVV50VhpyiKoiiKoiiKoiiKoihKYZGwUxRFURRFURRFURRFURQfioSdoiiKoiiKoiiKoiiKovhQJOwURVEURVEURVEURVEUxYciYacoiqIoiqIoiqIoiqIoPhQJO0VRFEVRFEVRFEVRFEXxoUjYKYqiKIqiKIqiKIqiKIoPRcJOURRFURRFURRFURRFUXwoEnaKoiiKoiiKoiiKoiiK4kORsFMURVEURVEURVEURVEUH4qEnaIoiqIoiqIoiqIoiqL4UCTsFEVRFEVRFEVRFEVRFMWHImGnKIqiKIqiKIqiKIqiKD6Uci/sanQPxLdDwlFnQCiqd/F+exRFURRFURRFURRFUZTHT+2+IWg88gjqDztcrNc3sF7H13M5b7f9cVMuhV2TUUew1i8dGZey4CQv7x5OpdzA3K3J+KxPsNfbWZap3jUAV25ke5TzV+54vd2KoiiKoiiKoiiKoiiu+X7EEVy6nm18z5kLmUW+ftbm5Hw/NH1jktfb/7gpV8KO1XQb/DOMmCuK67dzMGZlnNfbXFahsPOU7Lt5Xm+3oiiKoiiKoiiKoiiKM41HHTGFRjZFCTsWbjmRsCvDfNo7GCcSrz10ApIybmHV/jOYuj4RszYnYWvw2YdOKFm2J9XrbS+LOIXdnZxcTFyTUGTGr4r3ersVRVEURVEURVEURVHsNB19FFdv5jzkdgoTdgt3pPyoQEnCrgwTFHU5/8CzJLLP3JNuX1ejWyDmbTv9UBXeuEogppzC7mbmXa+3R1EURSn7fNEvBB2nRGDQwlOYvC4BS3almi+2vN0uRVEUX8qA+dGYv/00avX6YQidj3sGmcf499Pb7VMURanMaT7mKK49kHXXb+WYFCbseL9rk3r+toRdWYddW21YQdegGIMNDlsSk79MVnaumZjC2/tRmpGwUxRFKX+p3ScEo1fEYUfIOYRGXzFfTm0OzMDABdH4qEdQsdbBD5nsAnD28sPjutrk5t7z+n4qiqL4Uk6evmH+PrYefzz/sWbWB0QSm3rT6+1TFEWprGk57pgZ3ozcyrprfrbnLnAn7JbvPZN/zxty8jL6zj0pYVeWoYhyTi4xcEHxv/XaFXY+f7n1h9ILfN23g8Mwe0tykfm8X8GzjPAbuqGLY7ApIAOHIi5h/9ELWLo7Fa0nHC9wGfbJLmqbY1YUbxy+xxV2nEXF3mbPWVFFvr7X7Kj81/PDovM5fgAtzvGs5yJR21jHasamJBOWwBa2/YbDD5sBJfla5+Nsu71+nld3y9Yd+MP57jPHfaWmHcrhmdY2doSeQ2DkJey0/p20NgFf9g8tcBkOjOluf9leLstjxy7e3v7dUhTFe+Gs5nOsvwuZd3LdSjbCanJ++VTYer4bGo7TZ28/tNyN23dx+txtRCRcg9/xi1iw47TX91dRFMWXYg9KzuF2us+MRLcZkTgad9U8xio7b7dPURSlsoZ/g+2iq/aTI8xj9pfSrsKOHoKPEf4Nr9k9yPgACbsyTB+HIU22PpR4sixliw0/FHHSiqK2URicndbd8uxya5dpuiM46rJb2TfcUQVYEBynrzj7+rjCjt2ocu7mmeWzc/IKFUqcHvlu7v3Xxp358beQrcYfK9bx5M2RcznnIJGFiUoKwQtX7+S31fnctuCz+evoPPWE2+XbTYrIf83u8PNuX8P9p5y7d8/9BCccJ5A3e+6WpVQuCk74QYnMLtze/h1TFKVs80HXQCPSbPj3bJ1fuhH6HJN1e8g583fcZtHOFLfr4U1K8gNZx+pzjk1a2JcJiqIoyv283yXAfJnqLAo4Z30g5LA6fM7b7VMURams4d9g9rCkU7AfK0jYMSwCmrIuIb+ISMKujEOpYcM3UU+XP5VyI3/5TgUInOFLY/NfE2O9nt+22bHLMYk7Yecswbydddd80JqwOt586GJFlg0rIJzjZJjtOoTdmfOZpiuUazgrbnH2syS6xO49/ENF4vjVBY/7xw+VNhPcvK7r9Mj85xPSbz10PC9f/2FSkEcVdqxgtCkNYfdZn2AkWu12nht+YKaY5WCWKed+qGZxN6mJU9gdtD6UT9uQaMJqwJX7zuR/C0BYueft3zFFUco2K/b98L6x9mCa2y+T+MWIc+zWIYt/XGnH90TCD5ysHPb2fimKopTH8G8wqzK83Q5FURTFfQoTdq6RsCvjxKT+INy6TIv0eHlWLdhQCLl7zZT1ifmvca2ECzjxgxxyFXb950fnPxeVdN1Ufrmum9V7uQ8mwGBbnM85hV1BFRTFTUkIOw5UbnMy+XqBr+NzhFWLn/T6cSUeB+u1aebStZVjM9k8irCjNHNSGsLOWfnirlsEjzWr72zauHR7dgo7d0Lzw26BOB5/f8ZjXhvujqGiKBUzHArBrtzlFzyFvZaVePY4Sxx41zmmHbvU2rOiu/4tLW74JRLb02LsMVNlXdzl+D7JwYAbjTxS5Idcd5UqrALkcBENRxQ9Hm1RYbvZfq6Lx8t128WplHF9XWHLPepzzlDGNntw/D4sZpU1X8ehIHjcXe9T7O0WJ4UtU9zj4+lxLGpZyuYW446Zb8iL0w53r3nU54ob12WLe8we5bgxrBLguea1XVDvENfwd5FDcnC5wnpJFNW2x73G+XeK13azItpR0sfxca7dkl5WURRFKdlI2PlwLl67k3/AOVaPp8tP3/CDjCtoHDuONUf4Iaq6y5tzQcKOb+J2pRW7hxZW3WBLQ8olZ5VdaQk7zpAbmXT9hyReR9ipK6aai5Vz7sSinWTHWEjuPkw5uxlTjrlbB2cmtHE9Lo8j7Hgjyr7s3L9bD7qLlbSw4+DDNuExVwo8TryBtq/NA0cvPPRcUcKOcU6k8ijXtaIo5TP23yh+4VGcsSz5hYC7vyftJt5/3L5xoaziDQq/ZOBMWWOtvzFfDXDfPZbjgRyJvZr/ZZINK4s52UVBbeF4egmO6mPzN/hunql65jio7pbh32v+3aaA4Nikx+KvPrR8+sVMM66np8eR++r8Qo9w7D5WMXNbnzuGeShsPCr7fPB48Gfuhw2PsfO19R3vf64V+98MDst/riCByjFTnVX/9nXA98WC3pd5jfDe5ZajizShyLXb4PwCqTDWHEgzr+d7ozv4fsprgMfLOTat/4P7IN7zuN4j2eEXqryeeL6/eTB+7L4jFx46tq4ZsTT2oZncCN9X2U3RVb4y8Wk3zWs2uLmXs4/rlqAf35fwHoi4q2i3q/4L6sHB42+PEckvYPkYJTGvNcJ9dF2GYtUem3Lkstgir2W7NwYHyeb2eD3wXNiw9war+wuSR7wueR/iXIb3sxzLx9mdyA5njbbPp+tz4x98Kcpz6fqc87pxd9/Ce7RDERfN3wQbXg+8/6S8c3293VuDQ4wUdGzsvzeu9+97HvQI4d+Tgpa1fy9cvyw/cOz+l7JsV0HL2tcu/54Udf4URVGU0o+EnQ/HeQPCroqeLs/Z92zY5dPdazg7H2H3V9fnChJ2bSf+8CGKk1sU1gbna52THJSWsCsKHlPKMXc3f1Mcso0i0/V5ttOmoAk1bAFKXMdoe1Rhx+oCjpdH2IXs/JWix7DjIMLu2leYsNvg6IJd0PL5r/W/vy+8cXcey+IIO958E8584+6DiaIoFTN2VVxB42e6i/1FCsdDtR+zK8P5/tVhcsRD4zDZUFi5yipKPM4aS7gMu+3zA6xzeXdDIlCE2PC1lHT8wGuLCUq5HjOjfrRc3gMpOGtzkvl7zUpBLkeZYH+wpxwo6u+tM84vhTgxB6uiKT3495TwZ77OHuaBYwS6E02UI3YbBi+6P6FVaQk753sn38soz/h+aI/HyqEXXKUdpaN97ilgKJ4oEuz3Qh5bVmDx/YTDedixjwPfm5yP8wtMrtcpXjYHZJj3svsTZl0055FwW/Yx43ktbN8YCiPXa7QwYbfS0S2c+8hzFn36B5kZEn3Z3Nc4l/GGsLP3gdjCjuF7u43rl4O24CxMJjljC7uN1nngZDH8EphDiHCmO/vvBeG9j+uyvA7t883XbrX2n9eW3ROC17frOSsNYcffX/tvAaUrr222N+bBeaGUYy8O5zKlKezGOO79PRV2HAvURsJOURTFNyJh58NxjiFXULVAYXG+8W4toCKMN5OEN4OuzxUk7Pjhw2bV/jRzs1JQOPaQDT9k2esoLWHHD2m8oc2PdRPID4eu32S7G3+NH2DsG3ZKMVepx2qIgo6VHftGijePrs89qrCzb+45CQer2wqadGKFY0xB57F2pjBhZ38g4Iej3rNPFnpetzrkoFMmFyXsWDFjV0uwksDbv2OKopRN+CG3sL8NBcX+W+P8Usn+woCihB94+beLQwbwQzX/BjnHUHWVdvyg7DpDNv/Wr7Y+6JOrNx/+8mq8YygCyjLnc5RM/OBLKIjquLxP5zmq+Pie4/wSh10gbVGYZr23FKf7Gbv72ZWBlJXO9fH9i+8VLcfdrypyDvPgTgjalc7cX7tramkIu37zfhg+wxaDdtiNkWKGuH75t/+BBOMwF21d2sJtuHsPZ+zzQTHh7nmneHHtksvqMPuLUr5X2teGfZ7cffHJYR3sZfo6pFZBws55I81r0fU5uzLSVaKVtbBjdZwTp7DjMbG3Salky81OD44t96G4Xb6dv6sUUM6eCbw+bMHE+5KmjmFGKHR57drXjuuXf7bY5r2Yszt9SQs7tteeJIf3eK5y3J6NlfeUzt/X0hJ2PO7O2bc9EXYcIsBZKCBhpyiK4huRsPPh8FtnG9fx0IoTe1pgwgkiCrsAeNPk+lxBwm6tY2w8T3B+cPLGGHbsgmJ/gOINGbu4ur5me8gP3WucHzycosv1JtsZ+5td3sy6Pvcowo6TWPBGlTdR9jkoSNg5jym/5XUdd5DdfJzj4LkKu2s3C57ttzC+HfLDzatT2LHbErtlMNwWPzhwX1gV4vrBV1GUih12RbXhFwLFXW7Bjh/ex+wP5c7KHwoRd2OhsWqKsKLO7qZYWChrCP9G2R+s+d5i/73dWcAkORRldhfBFS7vs/b7jTvJwgxwjAXbcYr7YQycsT+oUyAVZ/w3u0LNnWiyxxJ1figvDWHHL5rIVjcyiTFVj9ZxYuxu0hQi9liHhU0C5S6PI+wYu6sxb3jtx/jlEqFccR131a5m4nuusyquIGFnd4sOclTjOWN/QUdB7Ry/rSyFHc81pY+z8tQp7BiOu2df3xRdlHh2RRmrHot7vmxhx6637saEdH6RStlmP7541/2qTc5s6hRy7vbd2TW3pIUdv7QmvF937VVhx64K5f2R/VhpCDtez7GpN40wtYctKa6wY9vZJZz3lZceXBcSdoqiKL4RCTsfjvObx+KMBeIadvGwGbX8x8tzTDmbFW7emAsSdvYHIULBRRFXnDi/cfXWpBPO8W5YKej6vHMcN6fQ2vxgn3njWNDYS7xhvf2ge4a7Ll+eCjsOzm3fdDklYUHCjjdczhtsfuDhTSRv4HhTm+cyZpNrG+2uJayAK+455eyv1QvoElsQvAnlDb1znCBFUSp2WOVl48kkSs6Kbvtvb2ETItlxdvksaNIlZ2wB4By/0zmGXmFCzR5a4rSLBLD/5nJMPXfL8W+23UW3qDby/cWuui+ousw19jAPrqLpW4dgo6i0Hy9pYedchl2XC2qnPTO5Lcns6igeG9cZ5ovK4wi7rweFmWPF93Hn+zzHbWNXTTLG5VzaAo7Xj/Nxd8KO73n2NcF7IHftY4WkTedpPxznshJ2lOLsnktpRUln4yrsmPUPhtFgpZstoNiboSBx5S72fa67L43t2FWYHJfYfswWwasfjE3oLnZXbKcsLmlhZ/e84NiZBbXD3qazW29pCDu7lwUFs/07VVxhx7YRdh23x6iWsFMURfGNSNj5cKY5Jo0oaAy6gsIbpuu3fqiY+tZNhUEnxw3IMDc3jwV9KHKO08buLo+yb94Sdqyys3F3c8tQcBHKOX5Y4E29/UHJ3U2vHQpJG4os1+c9FXa2cHW9kS1I2DG8kTyecA3u4OtPn/uha7CrsLP/GPDDyqOeC6ew43XCwZYZduVilSJvUm2pyO0Vp/JFUZTyHw4Ab8NZxou7nP1+ww/RdrdRe8wwfqFR2LL8gO/ubygzdHGMee/hmFd2VRVf7xx+YqxjgpzCZrR2zrbu7JpXlLBj7A/8/CKssH1h1zsb166lBcVZneRsg/1+w7H0nK8vaWHn7A7L/eQXSO5id8Pj+zOXs98r3UmVouKJsOP7FdvI63Gm9Z7Nbot8r3dW19mxBRzHV3PuN78YY1zvsezXUyxxMhOGN842Lcb9eEIEhlV1NlMclehlJewongi/kKOotHEn7Hh92euwKyILmvCqoBRH2NmTl/H88Gf+HbC7hrPLa0HXld1rgOPq2esqSWHnPFc8DgW1w74X3+O4j7eFHY8b79ncxe7aWhxhR7lrT7bB4+OJsLPHaeRjzknlJOwURVF8IxJ2Phx2NbRvSlgp8GX/4o9j5xRTMW66ZzLOgaDdzXpVkLBzjm1S0GDFRcVbws75AYIfCty9xtltlPLMuYzrhxhnnAMx2+PfOOOJsLM/KPImkGO1OF9bmLCzww9X7G7FD6W80eb5o3gsbAw7VpbYOLu5epLiTDrBD572BzSORVXav0eKong/nzs+/Ben4s2O/cUFRb/9mD2uXWHjiTL2h1N3QxQ4K9gJv6jgjY2zW6Nd3ccPwoVtx/meyMpo+/HiCDu7UqioCZycMs2TSSrsYR6cosme+ZNjzBa0jZIQdsMc7/MURqxELCyNH9xn2LKLlV6eXmeeCDtXWEXHIT+K+oLTvl+a86CrLCeJcH29s9u2O+q7GZLDjl3N5xxGpCyEHcc95DVLWcTK+aKEHbPmwdiPhF0pi9NV293vYWHCjhWlxB7H0inKKKiKuq5sEcyUpLDjGJY2vH8qqh1O0W4Lu+JQlLDjOMK8L6QYtMcALK6w4znmdUDxaX/GkLBTFEXxrUjY+Xjsmd5IQTegruGbtz0GBSno23j7g4Lzg5AzBQk75805x+Z4lP3ylrDjt+g2BX1oZLcVu3sob1ztD4w8XoWt257Ag8u6zvDGFFfYsWuN/c2quw9mxRF2BaUwYedsw6P+ghdH2DH2WDePUkGhKEr5jP2ew/HTivN6fvi3q2ScwsH+W8Xud4Utz9k3ibMrnR1WB/EDaqORR8z7kT0xEav37Nc4v4RxN76WHecET87ugMURdvZNWFFfXji7sXpSoegc5oGSyO5yyQ/3rl0XS1rY9Zr9w01jQUNJuIs943lR77nu4omw42QWPB6s/mSXZ15XrEjk+6+7L+ds0Wnfs9hjBLo7H7aw43XFcfgYZ++EpgWMS+y8n5nqmDyqtIUdzw+HzuB4jHble1HCjnLIHgbE7n7OSRY8OV/FEXb2JDNsn/2YvT3XSbqKSkkKO+e5cpXfRcUWdryP4z2nu9h/L4sSdgcf/J1z9ngprrCzjz9/V+3XSNgpiqL4ViTsfDy8SbcHtCYcZ8J1FipnWMVg37wRSiR3s885xxMqaEKKwsYJ4jfKNgWNxWKHXYlcPxh4Q9jxA5dzttgWY913SWE2PrhBtCd8IFMKmSiB3T5tChqcvLjCzj7fawoYm6W0hB27gtkz1Dm/bS3sWnN9rDjCjtevLZQLqv5UFKXixa5IIi0L6BLozBhHl1Tn30z7ZoR/rwqr6LE/eFKeFLUtztqa/97woG0ca6847xeuXfbsFCXsOKusTWGTGTHsasvxroinle12l192d7THqnI39ldJCzunZOQESsVtr/1+yPc4Tyu2HnfSCbvbqmt3Ycbu+swbZ1t88r3MdYZSxt0Ydqy+tCloOJHvR/xwDpyTs5S2sLPbO2jhD1/wFiXs7Jl8ea9o99ig7HTO9FpUiiPs7Os3NPqHbpz20CWeVumX9Bh2px9RbpXUGHajH0x64nruiyPs7C8kXNcvYacoiuJbkbArB+GNnT0wNeGNG7ua2F1vKOR4A8FvNp3j1lHsuLtx4ocEe9wcrrdeAd0fCxN2/PBiyx1+08lupK4ikd/Y8sabN3C8OXA+X5bCjjfT/IBhj2dECpqhzQ5n5XXCDw4FVQjwcXsWMMKKBnevK66ws89xQQM3l5awY5wVAKwe4Nhzrq/htWBXHbpOhlKUsOM1YM+CR1wH6lYUpeKGfyuvPqiYY/UIq8ELei3FhT12KGffdj7HLnH2FxsFVZvxPdFmdDGqcPg+alc229KCX/JwEh5S0BdblD7nHtxIuc6EWpSwcw6/4G7WctfYMqqorsCusYdYYDW9LWl4fF1fV5qzxDorF4tKa8dkHxz7zZN9fVxh1//BzL3Oai7n9WtLU/t+gu+Z7rZT0CyxtkhhV2V3y9m9ALgd5z1HaQo7dpc2r3FpU2HCjueZsPsur11WhNlfxO334FwXJex4D2v/HnFcZ/txe5IYVuAWNr6ka0prlliOp1nQbLXuUhLCjtcE/2ZxX1y3XZSwo/Dktvn76ZyNmJGwUxRF8a1I2JWT8ODbXQ+c8A3XKfNs+CbsOqA/JRlvmp0VeysK+BDCFDUTH2VNrmPmUd6s8aaL3Xj5zZ9dmUbYlcT54ay0hB1hl1Q7vJmxB0N2HhvnOEMFxSn43I0v1GfOSXNTzmq0wl5np7jCjueU3bQKWk9pCjseS8pMJ5SRvAHnjZ794cuGN7/O5Z3CLiLhmhlIneEsu7wu7D849nnQTLGKUrnCrlf232RWp7Da21kFTokyfGlsvtjj+547mWV/ucAvn1yrgbkOVuMQVr3ZH0gpQPg3292Mr85qvsaOv7/2IPz8e+u6HNttV9dRXDR2+bttiwYKFdcvfCjM7PeOwqqLnGHFlY3rLOf8YopScYibITCcwzwQDvXgbv2lIezYVdBmspsqdcoWjlHmelN58vR9CcX3DOdEIAyr2ygt3M0g+zjCjufT/8F9j+ssmnbsGYEJr2N34/8yBQk7WwrxenG9nniM7S7grmKuNIUdSbN+j1zfjwsSdjxuttRx9gQYs+KH3yHnDLeFxRZ2vD5dv+xke+zzSXnvvIfk77x9TfOexbXtPJf8Ypv3OU4hVdLCjjML26Kf15yr/OKXlKOWx5rj77zeSkLY2deRuwlMihJ2hF+2u+uaLWGnKIriW5GwK0fhTSvf9O3KNnewwo6Vdu6qs/im74QSxl1XDjtFCTuG3VzscVzcwRsZdr1xvbEuTWFXEBSV/GBQ3G9BOeCzTYfJP55EwrUq7nDM1UIFVHGFHW8aC2tXaQo7czy73N93d4LYhn8w3H0wdAq7guANKo9FYdU1iqJU3PBvh/N9jOIqKum6EQ9OsUR5wWord+tg9Vv8g8pmLs+/7awkY+WN/TfSjEXmmACI27XhIPELdpw2f+tCTv7wJYWr2OCHbHvmbQq4QxGXsHBHClZYH2btD8WE49i5ttEWdhQ7bCNlC//WU+bYX7Txiy53kxwUFA65YMP3HHZn5L5zNkoSX8C4svY4YKSgYSycwo7iin+n7TgnUaBkcT7nFAjBUZfNY84xsexJQggreygCeAz5JY59vnnOnO/NFAn2exDvayge2KXaeewGuKmu9ETY8V6JN7Oc1Z33IXbXS4qMtgVMMOWs/itI6jEFCTu+v9pt5H7wGPAaZHWmfSz4ZZbrPZMt7Pic89gzttymAHd9zpZyHA6EP/O42+u0n6P0cdczoCBhZ9+v8Lw438e5b7Zk4n1hYfeXdmxhx98RtoPHjeunCLR7jPD3iPcWrss6e59wX7h//J3m7xnvUexl2bXdXsYWdqycdT1WEQ9+z4nrc85JalwlLaW0/eU1K+34JSXbwaFVWNVqn2unBC8pYcdr192yxRF27gQ6I2GnKIriW5GwK4fhN9KcSII3XqxcWvvgRpbfaLqb7MAOZwDjTTs/aBRnljlO9U55xBQmV3iT1n5yhPngwBsV3pzzQxNvpgoSWKyYsNfNAZ8f53jwm1R7Xa5hlyN2b+LNaGHHxl1sEcnqQHfPs7sob6QoJLmv7sYKdD3+drtcuyqzYoA3cAWNa+MMP2xxHWMKGci8oPBbabsNRX0DzooQHjtWbfCc8uaTN4f8IFPQvvJGtqBzwaoZVmaoqk5RFL4HcLB0d19AUVzw7427cTKd4fsSv3hwraImHIPMXfUI/8Y6xzK1oRyitHH3PsGqGb5v2t0hnbAyqaC/27awo5DhRBuu8LGCKrQKCttHQed63CgMWOHNmSvdLWd39WSlkmsVkB2nsHtcnDOcMpxAwTlkhw2/eGL3UHdjpnLojXjHcBM2lCDuBA7zOLPE8nxRsBU0rIU5/tZ7380H3aQL665bkLAz11O3QHPfZs8Ga8PrmNezu/stW9g9Ls77GVvYFTRRhDthR7nMiTmIO+HDL3FtivNBwRZhFL28l8rLe/h3mRWy7M1Q0PK8r4pzc40QdvVt7/Jlqy3sHgd3v7Pcb9ceCDbsceL6xUNJCDte6wXdixUl7AobFkbCTlEUxbfC+6E21vtIMzdDVbmGn9/5WqbOgMLHoy8PKbfCTin92OOzEOe4KYqiKErJhZVE/HtLoc8KOH4AL2j8zoJCsdd37kkzVh2rrlyHg3AX3vTwyw8uw+0X54sEVoDxtRwOgm0tbCIKxnUMu+YPtsllXbvPehpKHe4zuyFSphQlN+0ZcznpREGvYdUixcLjhKKUuAo7hhVXrFbnuWY3QX5pVJzjzi+0uMwIK5RphX051nDEYdOO+gWMCcgvPN21m3K3OG3hMSesmCysgozb53rdjRVohzfVlFG8Bil9C5voib0cHue8zH4w4YtT2PHLUnfdKZ3ny17e7tLNNvLnwpbjkB58TUE9M5xxHcOOPUkoY/k7xi7DhU2y5gyPM5fjF5k8RwVNfMG/DY97jRf296mxtc/8opPt4O9lQR+W7ONY2BfWvCb5mm9dxpnmlx384rSwmavzl3X5W9hw+P1lC5L2TLMHyxbn76iiKIqilGYk7JQCY4/jxq4xBVUsKIqiKEpBKWrSibIKP7TbXfYeVxQWFVsMuhN2FSGsmCMFTULiqxnwoMKyoB4D3kpxZolVFEVRFKVyRsJOcRt+M253sWLXA2+3R1EURSl/8RVhZ8/MzS6Cpb2tiizsmjpmj/e0K7O3I2GnKIqiKEp5i4Sd4jb2rH/E3WyCiqIoilJUfEHYsZunPTM8u5SW9vYqsrCzJ8/gZB/ebounkbBTFEVRFKW8RcJO+VE4XgpvHDkYOCfQ8HZ7FEVRlPIZDvDOiTU4IL232sCZKdkGyqbCxq0qqXDiDr5/us6EXt7DyT44qQfPaUEzyPpy+OUjzwsnLPF2W5zh2Hq8Pgua+EJRFEVRlMobCTtFURRFURRFURRFURRF8aFI2CmKoiiKoiiKoiiKoiiKD0XCTlEURVEURVEURVEURVF8KBJ2iqIoiqIoiqIoiqIoiuJDkbBTFEVRFEVRFEVRFEVRFB+KhJ2iKIqiKIqiKIqiKIqi+FAk7BRFURRFURRFURRFURTFhyJhpyiKoiiKoiiKoiiKoig+FAk7RVEURVEURVEURVEURfGhSNgpiqIoiqIoiqIoiqIoig9Fwk5RFEVRFEVRFEVRFEVRfCgSdoqiKIqiKIqiKIqiKIriQ5GwUxRFURRFURRFURRFURQfioSdoiiKoiiKoiiKoiiKovhQJOwURVEURVEURVEURVEUxYciYacoiqIoiqIoiqIoiqIoPhQJO0VRFEVRFEVRFEVRFEXxoUjYKYqiKIqiKIqiKIqiKIoPRcJOURRFURRFURRFURRFUXwoEnaKoiiKoiiKoiiKoiiK4kORsFMURVEURVEURVEURVEUH4qEnaIoiqIoiqIoiqIoiqL4UP4/FVsSWOMYazwAAAAASUVORK5CYII=;opacity=10;movable=0;resizable=0;rotatable=0;deletable=0;editable=0;locked=1;connectable=0;" parent="1" vertex="1">
          <mxGeometry x="-250" y="-850" width="1609.44" height="905.63" as="geometry" />
        </mxCell>
        <mxCell id="OKjTkFXvyZe07Aopf6e--2" value="Интерфейс&#xa;внутренних сенсоров" style="swimlane;horizontal=1;strokeWidth=2;rounded=1;shadow=0;sketch=0;fontFamily=Open Sans;fontSource=https%3A%2F%2Ffonts.googleapis.com%2Fcss%3Ffamily%3DOpen%2BSans;fontSize=19;startSize=60;fillColor=#dae8fc;strokeColor=#6c8ebf;direction=east;" parent="1" vertex="1">
          <mxGeometry x="-180" y="-550" width="290" height="330" as="geometry" />
        </mxCell>
        <mxCell id="OKjTkFXvyZe07Aopf6e--3" value="Датчики силы &lt;br&gt;на каждой ноге" style="rounded=1;whiteSpace=wrap;html=1;strokeWidth=2;shadow=0;sketch=0;fontFamily=Open Sans;fontSource=https%3A%2F%2Ffonts.googleapis.com%2Fcss%3Ffamily%3DOpen%2BSans;fontSize=19;fillColor=#ffe6cc;strokeColor=#d79b00;" parent="OKjTkFXvyZe07Aopf6e--2" vertex="1">
          <mxGeometry x="10" y="70" width="270" height="50" as="geometry" />
        </mxCell>
        <mxCell id="qyQXpjcRBZkCZKDbvBPm-25" value="" style="edgeStyle=orthogonalEdgeStyle;rounded=0;orthogonalLoop=1;jettySize=auto;html=1;" parent="OKjTkFXvyZe07Aopf6e--2" source="OKjTkFXvyZe07Aopf6e--6" target="OKjTkFXvyZe07Aopf6e--5" edge="1">
          <mxGeometry relative="1" as="geometry" />
        </mxCell>
        <mxCell id="OKjTkFXvyZe07Aopf6e--6" value="Датчики на моторах" style="rounded=1;whiteSpace=wrap;html=1;strokeWidth=2;shadow=0;sketch=0;fontFamily=Open Sans;fontSource=https%3A%2F%2Ffonts.googleapis.com%2Fcss%3Ffamily%3DOpen%2BSans;fontSize=19;fillColor=#dae8fc;strokeColor=#6c8ebf;" parent="OKjTkFXvyZe07Aopf6e--2" vertex="1">
          <mxGeometry x="10" y="190" width="270" height="60" as="geometry" />
        </mxCell>
        <mxCell id="OKjTkFXvyZe07Aopf6e--4" value="Аккселерометр" style="rounded=1;whiteSpace=wrap;html=1;strokeWidth=2;shadow=0;sketch=0;fontFamily=Open Sans;fontSource=https%3A%2F%2Ffonts.googleapis.com%2Fcss%3Ffamily%3DOpen%2BSans;fontSize=19;fillColor=#dae8fc;strokeColor=#6c8ebf;" parent="OKjTkFXvyZe07Aopf6e--2" vertex="1">
          <mxGeometry x="10" y="260" width="270" height="60" as="geometry" />
        </mxCell>
        <mxCell id="OKjTkFXvyZe07Aopf6e--5" value="Гироскоп" style="rounded=1;whiteSpace=wrap;html=1;strokeWidth=2;shadow=0;sketch=0;fontFamily=Open Sans;fontSource=https%3A%2F%2Ffonts.googleapis.com%2Fcss%3Ffamily%3DOpen%2BSans;fontSize=19;fillColor=#DAE8FC;strokeColor=#6C8EBF;" parent="OKjTkFXvyZe07Aopf6e--2" vertex="1">
          <mxGeometry x="10" y="130" width="270" height="50" as="geometry" />
        </mxCell>
        <mxCell id="OKjTkFXvyZe07Aopf6e--7" value="Интерфейс &#xa;локационных систем" style="swimlane;horizontal=1;strokeWidth=2;rounded=1;shadow=0;sketch=0;fontFamily=Open Sans;fontSource=https%3A%2F%2Ffonts.googleapis.com%2Fcss%3Ffamily%3DOpen%2BSans;fontSize=19;startSize=60;labelBackgroundColor=none;swimlaneFillColor=none;fillColor=#dae8fc;strokeColor=#6c8ebf;" parent="1" vertex="1">
          <mxGeometry x="-180" y="-210" width="290" height="140" as="geometry" />
        </mxCell>
        <mxCell id="OKjTkFXvyZe07Aopf6e--8" value="Система маяков" style="rounded=1;whiteSpace=wrap;html=1;strokeWidth=2;shadow=0;sketch=0;fontFamily=Open Sans;fontSource=https%3A%2F%2Ffonts.googleapis.com%2Fcss%3Ffamily%3DOpen%2BSans;fontSize=19;fillColor=#dae8fc;strokeColor=#6c8ebf;" parent="OKjTkFXvyZe07Aopf6e--7" vertex="1">
          <mxGeometry x="10" y="71.03" width="270" height="50" as="geometry" />
        </mxCell>
        <mxCell id="OKjTkFXvyZe07Aopf6e--9" value="Интерфейс &#xa;системы Технического Зрения" style="swimlane;horizontal=1;strokeWidth=2;rounded=1;shadow=0;sketch=0;fontFamily=Open Sans;fontSource=https%3A%2F%2Ffonts.googleapis.com%2Fcss%3Ffamily%3DOpen%2BSans;fontSize=19;startSize=60;fillColor=#dae8fc;strokeColor=#6c8ebf;" parent="1" vertex="1">
          <mxGeometry x="-180" y="-700" width="290" height="140" as="geometry" />
        </mxCell>
        <mxCell id="OKjTkFXvyZe07Aopf6e--10" value="Time of Flight (ToF) камера" style="rounded=1;whiteSpace=wrap;html=1;strokeWidth=2;shadow=0;sketch=0;fontFamily=Open Sans;fontSource=https%3A%2F%2Ffonts.googleapis.com%2Fcss%3Ffamily%3DOpen%2BSans;fontSize=19;fillColor=#dae8fc;strokeColor=#6c8ebf;" parent="OKjTkFXvyZe07Aopf6e--9" vertex="1">
          <mxGeometry x="10" y="75" width="270" height="55" as="geometry" />
        </mxCell>
        <mxCell id="qyQXpjcRBZkCZKDbvBPm-16" style="edgeStyle=orthogonalEdgeStyle;rounded=0;orthogonalLoop=1;jettySize=auto;html=1;exitX=1;exitY=0.5;exitDx=0;exitDy=0;entryX=0;entryY=0.5;entryDx=0;entryDy=0;strokeWidth=4;" parent="1" source="OKjTkFXvyZe07Aopf6e--12" target="OKjTkFXvyZe07Aopf6e--16" edge="1">
          <mxGeometry relative="1" as="geometry" />
        </mxCell>
        <mxCell id="qyQXpjcRBZkCZKDbvBPm-17" value="&lt;font style=&quot;font-size: 19px;&quot;&gt;Коорд.&lt;br&gt;робота&lt;br&gt;&lt;/font&gt;" style="edgeLabel;html=1;align=center;verticalAlign=middle;resizable=0;points=[];labelBackgroundColor=none;" parent="qyQXpjcRBZkCZKDbvBPm-16" connectable="0" vertex="1">
          <mxGeometry x="-0.2196" y="-4" relative="1" as="geometry">
            <mxPoint x="5" y="-34" as="offset" />
          </mxGeometry>
        </mxCell>
        <mxCell id="OKjTkFXvyZe07Aopf6e--12" value="Интерфейс&#xa;Локализации" style="swimlane;horizontal=1;strokeWidth=2;rounded=1;shadow=0;sketch=0;fontFamily=Open Sans;fontSource=https%3A%2F%2Ffonts.googleapis.com%2Fcss%3Ffamily%3DOpen%2BSans;fontSize=19;startSize=60;fillColor=#dae8fc;strokeColor=#6c8ebf;" parent="1" vertex="1">
          <mxGeometry x="230" y="-565" width="220" height="350" as="geometry" />
        </mxCell>
        <mxCell id="OKjTkFXvyZe07Aopf6e--13" value="Запасная реализация" style="rounded=1;whiteSpace=wrap;html=1;strokeWidth=2;shadow=0;sketch=0;fontFamily=Open Sans;fontSource=https%3A%2F%2Ffonts.googleapis.com%2Fcss%3Ffamily%3DOpen%2BSans;fontSize=19;fillColor=#dae8fc;strokeColor=#6c8ebf;" parent="OKjTkFXvyZe07Aopf6e--12" vertex="1">
          <mxGeometry x="10" y="210" width="200" height="130" as="geometry" />
        </mxCell>
        <mxCell id="OKjTkFXvyZe07Aopf6e--14" value="Основная реализация" style="rounded=1;whiteSpace=wrap;html=1;strokeWidth=2;shadow=0;sketch=0;fontFamily=Open Sans;fontSource=https%3A%2F%2Ffonts.googleapis.com%2Fcss%3Ffamily%3DOpen%2BSans;fontSize=19;fillColor=#dae8fc;strokeColor=#6c8ebf;" parent="OKjTkFXvyZe07Aopf6e--12" vertex="1">
          <mxGeometry x="10" y="70" width="200" height="120" as="geometry" />
        </mxCell>
        <mxCell id="qyQXpjcRBZkCZKDbvBPm-11" style="edgeStyle=orthogonalEdgeStyle;rounded=0;orthogonalLoop=1;jettySize=auto;html=1;exitX=1;exitY=0.5;exitDx=0;exitDy=0;entryX=0;entryY=0.5;entryDx=0;entryDy=0;strokeWidth=4;fontSize=19;fontFamily=Open Sans;fontSource=https%3A%2F%2Ffonts.googleapis.com%2Fcss%3Ffamily%3DOpen%2BSans;" parent="1" source="OKjTkFXvyZe07Aopf6e--16" target="OKjTkFXvyZe07Aopf6e--22" edge="1">
          <mxGeometry relative="1" as="geometry" />
        </mxCell>
        <mxCell id="OKjTkFXvyZe07Aopf6e--16" value="Интерфейс&#xa;построения карты местности" style="swimlane;horizontal=1;strokeWidth=2;rounded=1;shadow=0;sketch=0;fontFamily=Open Sans;fontSource=https%3A%2F%2Ffonts.googleapis.com%2Fcss%3Ffamily%3DOpen%2BSans;fontSize=19;startSize=61;fillColor=#ffe6cc;strokeColor=#d79b00;" parent="1" vertex="1">
          <mxGeometry x="540" y="-590" width="294.75" height="400" as="geometry" />
        </mxCell>
        <mxCell id="OKjTkFXvyZe07Aopf6e--17" value="Определение рельефа поверхности" style="rounded=1;whiteSpace=wrap;html=1;strokeWidth=2;shadow=0;sketch=0;fontFamily=Open Sans;fontSource=https%3A%2F%2Ffonts.googleapis.com%2Fcss%3Ffamily%3DOpen%2BSans;fontSize=19;fillColor=#ffe6cc;strokeColor=#d79b00;" parent="OKjTkFXvyZe07Aopf6e--16" vertex="1">
          <mxGeometry x="15.25" y="72.19" width="264.75" height="97.81" as="geometry" />
        </mxCell>
        <mxCell id="OKjTkFXvyZe07Aopf6e--18" value="Определение &lt;br&gt;физико-механических свойств поверхности &lt;br&gt;&lt;b&gt;с помощью ощупывания&lt;/b&gt;" style="rounded=1;whiteSpace=wrap;html=1;strokeWidth=2;shadow=0;sketch=0;fontFamily=Open Sans;fontSource=https%3A%2F%2Ffonts.googleapis.com%2Fcss%3Ffamily%3DOpen%2BSans;fontSize=19;fillColor=#FFE6CC;strokeColor=#D79B00;" parent="OKjTkFXvyZe07Aopf6e--16" vertex="1">
          <mxGeometry x="15.25" y="290" width="264.75" height="100" as="geometry" />
        </mxCell>
        <mxCell id="qyQXpjcRBZkCZKDbvBPm-15" value="Определение геометрических свойств поверхности&lt;br&gt;&lt;b&gt;с помощью ощупывания&lt;/b&gt;" style="rounded=1;whiteSpace=wrap;html=1;strokeWidth=2;shadow=0;sketch=0;fontFamily=Open Sans;fontSource=https%3A%2F%2Ffonts.googleapis.com%2Fcss%3Ffamily%3DOpen%2BSans;fontSize=19;fillColor=#ffe6cc;strokeColor=#d79b00;" parent="OKjTkFXvyZe07Aopf6e--16" vertex="1">
          <mxGeometry x="15.25" y="177" width="264.75" height="103" as="geometry" />
        </mxCell>
        <mxCell id="OKjTkFXvyZe07Aopf6e--19" style="edgeStyle=orthogonalEdgeStyle;rounded=0;orthogonalLoop=1;jettySize=auto;html=1;fontFamily=Open Sans;fontSize=19;strokeWidth=4;exitX=1;exitY=0.5;exitDx=0;exitDy=0;entryX=0;entryY=0.5;entryDx=0;entryDy=0;fontSource=https%3A%2F%2Ffonts.googleapis.com%2Fcss%3Ffamily%3DOpen%2BSans;" parent="1" source="OKjTkFXvyZe07Aopf6e--22" target="OKjTkFXvyZe07Aopf6e--24" edge="1">
          <mxGeometry relative="1" as="geometry" />
        </mxCell>
        <mxCell id="OKjTkFXvyZe07Aopf6e--20" value="Ручное &lt;br style=&quot;font-size: 19px;&quot;&gt;управление" style="edgeLabel;html=1;align=center;verticalAlign=middle;resizable=0;points=[];fontSize=19;fontFamily=Open Sans;fontSource=https%3A%2F%2Ffonts.googleapis.com%2Fcss%3Ffamily%3DOpen%2BSans;labelBackgroundColor=none;" parent="OKjTkFXvyZe07Aopf6e--19" vertex="1" connectable="0">
          <mxGeometry x="-0.2424" y="2" relative="1" as="geometry">
            <mxPoint x="-77" y="37" as="offset" />
          </mxGeometry>
        </mxCell>
        <mxCell id="OKjTkFXvyZe07Aopf6e--22" value="Оператор" style="rounded=1;whiteSpace=wrap;html=1;strokeWidth=2;shadow=0;sketch=0;fontFamily=Open Sans;fontSource=https%3A%2F%2Ffonts.googleapis.com%2Fcss%3Ffamily%3DOpen%2BSans;fontSize=19;fillColor=#dae8fc;strokeColor=#6c8ebf;direction=east;" parent="1" vertex="1">
          <mxGeometry x="870" y="-420" width="120" height="60" as="geometry" />
        </mxCell>
        <mxCell id="qyQXpjcRBZkCZKDbvBPm-12" style="edgeStyle=orthogonalEdgeStyle;rounded=0;orthogonalLoop=1;jettySize=auto;html=1;exitX=1;exitY=0.5;exitDx=0;exitDy=0;entryX=0.5;entryY=1;entryDx=0;entryDy=0;fontSize=19;fontFamily=Open Sans;fontSource=https%3A%2F%2Ffonts.googleapis.com%2Fcss%3Ffamily%3DOpen%2BSans;strokeWidth=4;" parent="1" source="OKjTkFXvyZe07Aopf6e--24" target="OKjTkFXvyZe07Aopf6e--32" edge="1">
          <mxGeometry relative="1" as="geometry">
            <Array as="points">
              <mxPoint x="1195" y="-280" />
            </Array>
          </mxGeometry>
        </mxCell>
        <mxCell id="OKjTkFXvyZe07Aopf6e--24" value="Интерфейс СУ робота" style="rounded=1;whiteSpace=wrap;html=1;strokeWidth=2;shadow=0;sketch=0;fontFamily=Open Sans;fontSource=https%3A%2F%2Ffonts.googleapis.com%2Fcss%3Ffamily%3DOpen%2BSans;fontSize=19;fillColor=#dae8fc;strokeColor=#6c8ebf;direction=east;" parent="1" vertex="1">
          <mxGeometry x="1049" y="-310" width="120" height="60" as="geometry" />
        </mxCell>
        <mxCell id="OKjTkFXvyZe07Aopf6e--32" value="&lt;span style=&quot;font-size: 19px;&quot;&gt;Механическая система&lt;/span&gt;" style="shape=parallelogram;perimeter=parallelogramPerimeter;whiteSpace=wrap;html=1;fixedSize=1;rounded=1;shadow=0;sketch=0;fontFamily=Open Sans;fontSize=19;strokeWidth=2;fillColor=#FFE6CC;strokeColor=#D79B00;direction=east;fontSource=https%3A%2F%2Ffonts.googleapis.com%2Fcss%3Ffamily%3DOpen%2BSans;" parent="1" vertex="1">
          <mxGeometry x="1110" y="-420" width="170" height="60" as="geometry" />
        </mxCell>
        <mxCell id="OKjTkFXvyZe07Aopf6e--50" value="" style="group;fontSize=19;fontFamily=Open Sans;fontSource=https%3A%2F%2Ffonts.googleapis.com%2Fcss%3Ffamily%3DOpen%2BSans;" parent="1" vertex="1" connectable="0">
          <mxGeometry x="790" y="-190" width="500" height="140" as="geometry" />
        </mxCell>
        <mxCell id="OKjTkFXvyZe07Aopf6e--44" value="&lt;b style=&quot;font-size: 19px;&quot;&gt;&lt;font style=&quot;font-size: 19px;&quot;&gt;Легенда&lt;/font&gt;&lt;/b&gt;" style="text;html=1;strokeColor=none;fillColor=none;align=center;verticalAlign=middle;whiteSpace=wrap;rounded=0;fontSize=19;fontFamily=Open Sans;fontSource=https%3A%2F%2Ffonts.googleapis.com%2Fcss%3Ffamily%3DOpen%2BSans;" parent="OKjTkFXvyZe07Aopf6e--50" vertex="1">
          <mxGeometry x="179.6875" y="19.3103448275862" width="140.625" height="28.965517241379303" as="geometry" />
        </mxCell>
        <mxCell id="OKjTkFXvyZe07Aopf6e--45" value="" style="rounded=0;whiteSpace=wrap;html=1;strokeColor=#6C8EBF;fontSize=19;fillColor=#DAE8FC;fontFamily=Open Sans;fontSource=https%3A%2F%2Ffonts.googleapis.com%2Fcss%3Ffamily%3DOpen%2BSans;" parent="OKjTkFXvyZe07Aopf6e--50" vertex="1">
          <mxGeometry y="53.10344827586206" width="31.25" height="19.3103448275862" as="geometry" />
        </mxCell>
        <mxCell id="OKjTkFXvyZe07Aopf6e--46" value="" style="rounded=0;whiteSpace=wrap;html=1;strokeColor=#D79B00;fontSize=19;fillColor=#FFE6CC;fontFamily=Open Sans;fontSource=https%3A%2F%2Ffonts.googleapis.com%2Fcss%3Ffamily%3DOpen%2BSans;" parent="OKjTkFXvyZe07Aopf6e--50" vertex="1">
          <mxGeometry y="91.72413793103448" width="31.25" height="19.3103448275862" as="geometry" />
        </mxCell>
        <mxCell id="OKjTkFXvyZe07Aopf6e--47" value="Стандартные средства, без доработок" style="text;html=1;strokeColor=none;fillColor=none;align=center;verticalAlign=middle;whiteSpace=wrap;rounded=0;fontSize=19;fontFamily=Open Sans;fontSource=https%3A%2F%2Ffonts.googleapis.com%2Fcss%3Ffamily%3DOpen%2BSans;" parent="OKjTkFXvyZe07Aopf6e--50" vertex="1">
          <mxGeometry x="46.875" y="48.275862068965516" width="453.125" height="28.965517241379303" as="geometry" />
        </mxCell>
        <mxCell id="OKjTkFXvyZe07Aopf6e--48" value="Предмет исследования и разработки" style="text;html=1;strokeColor=none;fillColor=none;align=center;verticalAlign=middle;whiteSpace=wrap;rounded=0;fontSize=19;fontFamily=Open Sans;fontSource=https%3A%2F%2Ffonts.googleapis.com%2Fcss%3Ffamily%3DOpen%2BSans;" parent="OKjTkFXvyZe07Aopf6e--50" vertex="1">
          <mxGeometry x="46.875" y="86.89655172413791" width="453.125" height="28.965517241379303" as="geometry" />
        </mxCell>
        <mxCell id="OKjTkFXvyZe07Aopf6e--57" style="edgeStyle=orthogonalEdgeStyle;shape=connector;rounded=0;orthogonalLoop=1;jettySize=auto;html=1;exitX=1;exitY=0.5;exitDx=0;exitDy=0;labelBackgroundColor=default;strokeColor=#B85450;strokeWidth=4;fontFamily=Open Sans;fontSize=19;fontColor=default;endArrow=classic;entryX=-0.003;entryY=0.344;entryDx=0;entryDy=0;entryPerimeter=0;fontSource=https%3A%2F%2Ffonts.googleapis.com%2Fcss%3Ffamily%3DOpen%2BSans;" parent="1" source="OKjTkFXvyZe07Aopf6e--5" target="OKjTkFXvyZe07Aopf6e--13" edge="1">
          <mxGeometry relative="1" as="geometry">
            <Array as="points">
              <mxPoint x="220" y="-395" />
              <mxPoint x="220" y="-310" />
              <mxPoint x="239" y="-310" />
            </Array>
            <mxPoint x="280" y="-310" as="targetPoint" />
          </mxGeometry>
        </mxCell>
        <mxCell id="OKjTkFXvyZe07Aopf6e--58" style="edgeStyle=orthogonalEdgeStyle;shape=connector;rounded=0;orthogonalLoop=1;jettySize=auto;html=1;labelBackgroundColor=default;strokeColor=#82B366;strokeWidth=4;fontFamily=Open Sans;fontSize=19;fontColor=default;endArrow=classic;fontSource=https%3A%2F%2Ffonts.googleapis.com%2Fcss%3Ffamily%3DOpen%2BSans;entryX=-0.003;entryY=0.674;entryDx=0;entryDy=0;entryPerimeter=0;" parent="1" target="OKjTkFXvyZe07Aopf6e--13" edge="1">
          <mxGeometry relative="1" as="geometry">
            <mxPoint x="100" y="-310" as="sourcePoint" />
            <mxPoint x="280" y="-280" as="targetPoint" />
            <Array as="points">
              <mxPoint x="100" y="-310" />
              <mxPoint x="190" y="-310" />
              <mxPoint x="190" y="-267" />
            </Array>
          </mxGeometry>
        </mxCell>
        <mxCell id="OKjTkFXvyZe07Aopf6e--59" style="edgeStyle=orthogonalEdgeStyle;shape=connector;rounded=0;orthogonalLoop=1;jettySize=auto;html=1;exitX=1;exitY=0.25;exitDx=0;exitDy=0;entryX=0;entryY=0.75;entryDx=0;entryDy=0;labelBackgroundColor=default;strokeColor=#82B366;strokeWidth=4;fontFamily=Open Sans;fontSize=19;fontColor=default;endArrow=classic;fontSource=https%3A%2F%2Ffonts.googleapis.com%2Fcss%3Ffamily%3DOpen%2BSans;" parent="1" source="OKjTkFXvyZe07Aopf6e--6" target="OKjTkFXvyZe07Aopf6e--14" edge="1">
          <mxGeometry relative="1" as="geometry" />
        </mxCell>
        <mxCell id="OKjTkFXvyZe07Aopf6e--65" style="edgeStyle=orthogonalEdgeStyle;shape=connector;rounded=0;orthogonalLoop=1;jettySize=auto;html=1;exitX=1;exitY=0.5;exitDx=0;exitDy=0;entryX=0.5;entryY=1;entryDx=0;entryDy=0;labelBackgroundColor=default;strokeColor=#A50040;strokeWidth=4;fontFamily=Open Sans;fontSize=19;fontColor=default;endArrow=classic;fontSource=https%3A%2F%2Ffonts.googleapis.com%2Fcss%3Ffamily%3DOpen%2BSans;fillColor=#d80073;" parent="1" source="OKjTkFXvyZe07Aopf6e--8" target="OKjTkFXvyZe07Aopf6e--13" edge="1">
          <mxGeometry relative="1" as="geometry" />
        </mxCell>
        <mxCell id="qyQXpjcRBZkCZKDbvBPm-18" value="&lt;font style=&quot;font-size: 19px;&quot;&gt;Расстояния до маяков&lt;/font&gt;" style="edgeLabel;html=1;align=center;verticalAlign=middle;resizable=0;points=[];labelBackgroundColor=none;" parent="OKjTkFXvyZe07Aopf6e--65" connectable="0" vertex="1">
          <mxGeometry x="-0.1594" relative="1" as="geometry">
            <mxPoint y="25" as="offset" />
          </mxGeometry>
        </mxCell>
        <mxCell id="qyQXpjcRBZkCZKDbvBPm-7" style="edgeStyle=orthogonalEdgeStyle;rounded=0;orthogonalLoop=1;jettySize=auto;html=1;exitX=1;exitY=0.5;exitDx=0;exitDy=0;entryX=0.001;entryY=0.842;entryDx=0;entryDy=0;strokeWidth=4;fillColor=#fff2cc;strokeColor=#d6b656;entryPerimeter=0;fontSize=19;fontFamily=Open Sans;fontSource=https%3A%2F%2Ffonts.googleapis.com%2Fcss%3Ffamily%3DOpen%2BSans;" parent="1" source="OKjTkFXvyZe07Aopf6e--4" target="OKjTkFXvyZe07Aopf6e--13" edge="1">
          <mxGeometry relative="1" as="geometry">
            <Array as="points">
              <mxPoint x="170" y="-260" />
              <mxPoint x="170" y="-246" />
            </Array>
          </mxGeometry>
        </mxCell>
        <mxCell id="qyQXpjcRBZkCZKDbvBPm-9" style="edgeStyle=orthogonalEdgeStyle;rounded=0;orthogonalLoop=1;jettySize=auto;html=1;entryX=0;entryY=0.25;entryDx=0;entryDy=0;strokeWidth=4;fillColor=#e1d5e7;strokeColor=#9673a6;fontSize=19;fontFamily=Open Sans;fontSource=https%3A%2F%2Ffonts.googleapis.com%2Fcss%3Ffamily%3DOpen%2BSans;exitX=1;exitY=0.75;exitDx=0;exitDy=0;" parent="1" source="OKjTkFXvyZe07Aopf6e--10" target="OKjTkFXvyZe07Aopf6e--14" edge="1">
          <mxGeometry relative="1" as="geometry">
            <mxPoint x="110" y="-600" as="sourcePoint" />
            <Array as="points">
              <mxPoint x="190" y="-584" />
              <mxPoint x="190" y="-465" />
            </Array>
          </mxGeometry>
        </mxCell>
        <mxCell id="qyQXpjcRBZkCZKDbvBPm-20" value="&lt;font style=&quot;font-size: 19px;&quot;&gt;Облако &lt;br&gt;точек&lt;/font&gt;" style="edgeLabel;html=1;align=center;verticalAlign=middle;resizable=0;points=[];labelBackgroundColor=none;" parent="qyQXpjcRBZkCZKDbvBPm-9" connectable="0" vertex="1">
          <mxGeometry x="-0.5873" y="-3" relative="1" as="geometry">
            <mxPoint x="-12" y="31" as="offset" />
          </mxGeometry>
        </mxCell>
        <mxCell id="qyQXpjcRBZkCZKDbvBPm-10" style="edgeStyle=orthogonalEdgeStyle;rounded=0;orthogonalLoop=1;jettySize=auto;html=1;exitX=0.999;exitY=0.577;exitDx=0;exitDy=0;entryX=-0.003;entryY=0.15;entryDx=0;entryDy=0;strokeWidth=4;entryPerimeter=0;fillColor=#ffe6cc;strokeColor=#d79b00;fontSize=19;fontFamily=Open Sans;fontSource=https%3A%2F%2Ffonts.googleapis.com%2Fcss%3Ffamily%3DOpen%2BSans;exitPerimeter=0;" parent="1" source="OKjTkFXvyZe07Aopf6e--3" target="OKjTkFXvyZe07Aopf6e--13" edge="1">
          <mxGeometry relative="1" as="geometry">
            <Array as="points">
              <mxPoint x="190" y="-451" />
              <mxPoint x="190" y="-335" />
            </Array>
          </mxGeometry>
        </mxCell>
        <mxCell id="qyQXpjcRBZkCZKDbvBPm-21" value="&lt;font style=&quot;font-size: 19px;&quot;&gt;Сила &lt;br&gt;нажатия&amp;nbsp;&lt;/font&gt;" style="edgeLabel;html=1;align=center;verticalAlign=middle;resizable=0;points=[];labelBackgroundColor=none;" parent="qyQXpjcRBZkCZKDbvBPm-10" connectable="0" vertex="1">
          <mxGeometry x="-0.4509" y="-1" relative="1" as="geometry">
            <mxPoint x="-20" y="-30" as="offset" />
          </mxGeometry>
        </mxCell>
        <mxCell id="qyQXpjcRBZkCZKDbvBPm-22" style="edgeStyle=orthogonalEdgeStyle;rounded=0;orthogonalLoop=1;jettySize=auto;html=1;entryX=0;entryY=0.5;entryDx=0;entryDy=0;fontSize=19;fontFamily=Open Sans;strokeColor=#d79b00;strokeWidth=4;fillColor=#ffe6cc;fontSource=https%3A%2F%2Ffonts.googleapis.com%2Fcss%3Ffamily%3DOpen%2BSans;" parent="1" target="OKjTkFXvyZe07Aopf6e--18" edge="1">
          <mxGeometry relative="1" as="geometry">
            <mxPoint x="150" y="-530" as="targetPoint" />
            <mxPoint x="100" y="-450" as="sourcePoint" />
            <Array as="points">
              <mxPoint x="120" y="-450" />
              <mxPoint x="120" y="-180" />
              <mxPoint x="500" y="-180" />
              <mxPoint x="500" y="-250" />
            </Array>
          </mxGeometry>
        </mxCell>
        <mxCell id="qyQXpjcRBZkCZKDbvBPm-23" style="edgeStyle=orthogonalEdgeStyle;rounded=0;orthogonalLoop=1;jettySize=auto;html=1;entryX=0;entryY=0.75;entryDx=0;entryDy=0;fontSize=19;fontFamily=Open Sans;strokeColor=#d79b00;strokeWidth=4;fillColor=#ffe6cc;fontSource=https%3A%2F%2Ffonts.googleapis.com%2Fcss%3Ffamily%3DOpen%2BSans;" parent="1" target="qyQXpjcRBZkCZKDbvBPm-15" edge="1">
          <mxGeometry relative="1" as="geometry">
            <mxPoint x="100" y="-450" as="sourcePoint" />
            <Array as="points">
              <mxPoint x="120" y="-450" />
              <mxPoint x="120" y="-150" />
              <mxPoint x="500" y="-150" />
              <mxPoint x="500" y="-336" />
            </Array>
          </mxGeometry>
        </mxCell>
        <mxCell id="qyQXpjcRBZkCZKDbvBPm-26" style="edgeStyle=orthogonalEdgeStyle;rounded=0;orthogonalLoop=1;jettySize=auto;html=1;entryX=0;entryY=0.75;entryDx=0;entryDy=0;exitX=1;exitY=0.5;exitDx=0;exitDy=0;fontSize=19;fontFamily=Open Sans;strokeColor=#82B366;strokeWidth=4;fontSource=https%3A%2F%2Ffonts.googleapis.com%2Fcss%3Ffamily%3DOpen%2BSans;" parent="1" source="OKjTkFXvyZe07Aopf6e--6" target="OKjTkFXvyZe07Aopf6e--18" edge="1">
          <mxGeometry relative="1" as="geometry">
            <Array as="points">
              <mxPoint x="160" y="-330" />
              <mxPoint x="160" y="-200" />
              <mxPoint x="520" y="-200" />
              <mxPoint x="520" y="-225" />
            </Array>
          </mxGeometry>
        </mxCell>
        <mxCell id="qyQXpjcRBZkCZKDbvBPm-27" style="edgeStyle=orthogonalEdgeStyle;rounded=0;orthogonalLoop=1;jettySize=auto;html=1;exitX=1;exitY=0.5;exitDx=0;exitDy=0;entryX=0.5;entryY=0;entryDx=0;entryDy=0;fillColor=#dae8fc;strokeColor=#6c8ebf;strokeWidth=4;" parent="1" source="OKjTkFXvyZe07Aopf6e--10" target="OKjTkFXvyZe07Aopf6e--22" edge="1">
          <mxGeometry relative="1" as="geometry" />
        </mxCell>
        <mxCell id="qyQXpjcRBZkCZKDbvBPm-28" value="&lt;font style=&quot;font-size: 19px;&quot;&gt;Изображение&lt;/font&gt;" style="edgeLabel;html=1;align=center;verticalAlign=middle;resizable=0;points=[];labelBackgroundColor=none;" parent="qyQXpjcRBZkCZKDbvBPm-27" connectable="0" vertex="1">
          <mxGeometry x="0.5191" y="-3" relative="1" as="geometry">
            <mxPoint x="3" y="-30" as="offset" />
          </mxGeometry>
        </mxCell>
        <mxCell id="qyQXpjcRBZkCZKDbvBPm-29" style="edgeStyle=orthogonalEdgeStyle;rounded=0;orthogonalLoop=1;jettySize=auto;html=1;entryX=0;entryY=0.5;entryDx=0;entryDy=0;exitX=1;exitY=0.75;exitDx=0;exitDy=0;fontSize=19;fontFamily=Open Sans;strokeColor=#9673a6;strokeWidth=4;fillColor=#e1d5e7;fontSource=https%3A%2F%2Ffonts.googleapis.com%2Fcss%3Ffamily%3DOpen%2BSans;" parent="1" source="OKjTkFXvyZe07Aopf6e--10" target="OKjTkFXvyZe07Aopf6e--17" edge="1">
          <mxGeometry relative="1" as="geometry">
            <Array as="points">
              <mxPoint x="500" y="-584" />
              <mxPoint x="500" y="-469" />
            </Array>
          </mxGeometry>
        </mxCell>
      </root>
    </mxGraphModel>
  </diagram>
</mxfile>
